  0
SECTION
  2
HEADER
  9
$ACADVER
  1
AC1027
  9
$ACADMAINTVER
 70
8
  9
$DWGCODEPAGE
  3
ANSI_1252
  9
$LASTSAVEDBY
  1
unknown
  9
$REQUIREDVERSIONS
160
0
  9
$INSBASE
 10
0.0
 20
0.0
 30
0.0
  9
$EXTMIN
 10
1e+20
 20
1e+20
 30
1e+20
  9
$EXTMAX
 10
-1e+20
 20
-1e+20
 30
-1e+20
  9
$LIMMIN
 10
0.0
 20
0.0
  9
$LIMMAX
 10
12.0
 20
9.0
  9
$ORTHOMODE
 70
0
  9
$REGENMODE
 70
1
  9
$FILLMODE
 70
1
  9
$QTEXTMODE
 70
0
  9
$MIRRTEXT
 70
0
  9
$LTSCALE
 40
1.0
  9
$ATTMODE
 70
1
  9
$TEXTSIZE
 40
0.2
  9
$TRACEWID
 40
0.05
  9
$TEXTSTYLE
  7
Notes
  9
$CLAYER
  8
0
  9
$CELTYPE
  6
ByLayer
  9
$CECOLOR
 62
256
  9
$CELTSCALE
 40
1.0
  9
$DISPSILH
 70
0
  9
$DIMSCALE
 40
1.0
  9
$DIMASZ
 40
3.0
  9
$DIMEXO
 40
1.5
  9
$DIMDLI
 40
6.0
  9
$DIMRND
 40
0.0
  9
$DIMDLE
 40
0.0
  9
$DIMEXE
 40
3.0
  9
$DIMTP
 40
0.0
  9
$DIMTM
 40
0.0
  9
$DIMTXT
 40
3.0
  9
$DIMCEN
 40
3.0
  9
$DIMTSZ
 40
0.0
  9
$DIMTOL
 70
0
  9
$DIMLIM
 70
0
  9
$DIMTIH
 70
0
  9
$DIMTOH
 70
0
  9
$DIMSE1
 70
0
  9
$DIMSE2
 70
0
  9
$DIMTAD
 70
1
  9
$DIMZIN
 70
3
  9
$DIMBLK
  1

  9
$DIMASO
 70
1
  9
$DIMSHO
 70
1
  9
$DIMPOST
  1

  9
$DIMAPOST
  1

  9
$DIMALT
 70
0
  9
$DIMALTD
 70
2
  9
$DIMALTF
 40
25.4
  9
$DIMLFAC
 40
1.0
  9
$DIMTOFL
 70
0
  9
$DIMTVP
 40
0.0
  9
$DIMTIX
 70
0
  9
$DIMSOXD
 70
0
  9
$DIMSAH
 70
0
  9
$DIMBLK1
  1

  9
$DIMBLK2
  1

  9
$DIMSTYLE
  2
Civil-Metric
  9
$DIMCLRD
 70
0
  9
$DIMCLRE
 70
0
  9
$DIMCLRT
 70
0
  9
$DIMTFAC
 40
1.0
  9
$DIMGAP
 40
2.0
  9
$DIMJUST
 70
0
  9
$DIMSD1
 70
0
  9
$DIMSD2
 70
0
  9
$DIMTOLJ
 70
1
  9
$DIMTZIN
 70
0
  9
$DIMALTZ
 70
0
  9
$DIMALTTZ
 70
0
  9
$DIMUPT
 70
0
  9
$DIMDEC
 70
2
  9
$DIMTDEC
 70
2
  9
$DIMALTU
 70
2
  9
$DIMALTTD
 70
2
  9
$DIMTXSTY
  7
Standard
  9
$DIMAUNIT
 70
0
  9
$DIMADEC
 70
2
  9
$DIMALTRND
 40
0.0
  9
$DIMAZIN
 70
2
  9
$DIMDSEP
 70
46
  9
$DIMATFIT
 70
3
  9
$DIMFRAC
 70
1
  9
$DIMLDRBLK
  1

  9
$DIMLUNIT
 70
2
  9
$DIMLWD
 70
-2
  9
$DIMLWE
 70
-2
  9
$DIMTMOVE
 70
0
  9
$DIMFXL
 40
1.0
  9
$DIMFXLON
 70
0
  9
$DIMJOGANG
 40
0.785398163397
  9
$DIMTFILL
 70
0
  9
$DIMTFILLCLR
 70
0
  9
$DIMARCSYM
 70
0
  9
$DIMLTYPE
  6

  9
$DIMLTEX1
  6

  9
$DIMLTEX2
  6

  9
$DIMTXTDIRECTION
 70
0
  9
$LUNITS
 70
2
  9
$LUPREC
 70
4
  9
$SKETCHINC
 40
0.1
  9
$FILLETRAD
 40
0.0
  9
$AUNITS
 70
4
  9
$AUPREC
 70
5
  9
$MENU
  1
.
  9
$ELEVATION
 40
0.0
  9
$PELEVATION
 40
0.0
  9
$THICKNESS
 40
0.0
  9
$LIMCHECK
 70
0
  9
$CHAMFERA
 40
0.0
  9
$CHAMFERB
 40
0.0
  9
$CHAMFERC
 40
0.0
  9
$CHAMFERD
 40
0.0
  9
$SKPOLY
 70
0
  9
$TDCREATE
 40
2457318.79582
  9
$TDUCREATE
 40
2455631.2632
  9
$TDUPDATE
 40
2457318.79582
  9
$TDUUPDATE
 40
2456436.43179
  9
$TDINDWG
 40
0.0003490741
  9
$TDUSRTIMER
 40
0.0003487153
  9
$USRTIMER
 70
1
  9
$ANGBASE
 50
0.0
  9
$ANGDIR
 70
0
  9
$PDMODE
 70
0
  9
$PDSIZE
 40
0.0
  9
$PLINEWID
 40
0.0
  9
$SPLFRAME
 70
0
  9
$SPLINETYPE
 70
6
  9
$SPLINESEGS
 70
8
  9
$HANDSEED
  5
632
  9
$SURFTAB1
 70
6
  9
$SURFTAB2
 70
6
  9
$SURFTYPE
 70
6
  9
$SURFU
 70
6
  9
$SURFV
 70
6
  9
$UCSBASE
  2

  9
$UCSNAME
  2

  9
$UCSORG
 10
0.0
 20
0.0
 30
0.0
  9
$UCSXDIR
 10
1.0
 20
0.0
 30
0.0
  9
$UCSYDIR
 10
0.0
 20
1.0
 30
0.0
  9
$UCSORTHOREF
  2

  9
$UCSORTHOVIEW
 70
0
  9
$UCSORGTOP
 10
0.0
 20
0.0
 30
0.0
  9
$UCSORGBOTTOM
 10
0.0
 20
0.0
 30
0.0
  9
$UCSORGLEFT
 10
0.0
 20
0.0
 30
0.0
  9
$UCSORGRIGHT
 10
0.0
 20
0.0
 30
0.0
  9
$UCSORGFRONT
 10
0.0
 20
0.0
 30
0.0
  9
$UCSORGBACK
 10
0.0
 20
0.0
 30
0.0
  9
$PUCSBASE
  2

  9
$PUCSNAME
  2

  9
$PUCSORG
 10
0.0
 20
0.0
 30
0.0
  9
$PUCSXDIR
 10
1.0
 20
0.0
 30
0.0
  9
$PUCSYDIR
 10
0.0
 20
1.0
 30
0.0
  9
$PUCSORTHOREF
  2

  9
$PUCSORTHOVIEW
 70
0
  9
$PUCSORGTOP
 10
0.0
 20
0.0
 30
0.0
  9
$PUCSORGBOTTOM
 10
0.0
 20
0.0
 30
0.0
  9
$PUCSORGLEFT
 10
0.0
 20
0.0
 30
0.0
  9
$PUCSORGRIGHT
 10
0.0
 20
0.0
 30
0.0
  9
$PUCSORGFRONT
 10
0.0
 20
0.0
 30
0.0
  9
$PUCSORGBACK
 10
0.0
 20
0.0
 30
0.0
  9
$USERI1
 70
0
  9
$USERI2
 70
0
  9
$USERI3
 70
0
  9
$USERI4
 70
0
  9
$USERI5
 70
0
  9
$USERR1
 40
0.0
  9
$USERR2
 40
0.0
  9
$USERR3
 40
0.0
  9
$USERR4
 40
0.0
  9
$USERR5
 40
0.0
  9
$WORLDVIEW
 70
1
  9
$SHADEDGE
 70
3
  9
$SHADEDIF
 70
70
  9
$TILEMODE
 70
1
  9
$MAXACTVP
 70
64
  9
$PINSBASE
 10
0.0
 20
0.0
 30
0.0
  9
$PLIMCHECK
 70
0
  9
$PEXTMIN
 10
0.628866766397
 20
0.799999952316
 30
0.0
  9
$PEXTMAX
 10
9.02886638493
 20
7.19999957085
 30
0.0
  9
$PLIMMIN
 10
-0.700541819174
 20
-0.228100386192
  9
$PLIMMAX
 10
10.2994579405
 20
8.27189937351
  9
$UNITMODE
 70
0
  9
$VISRETAIN
 70
1
  9
$PLINEGEN
 70
0
  9
$PSLTSCALE
 70
1
  9
$TREEDEPTH
 70
3020
  9
$CMLSTYLE
  2
Standard
  9
$CMLJUST
 70
0
  9
$CMLSCALE
 40
1.0
  9
$PROXYGRAPHICS
 70
1
  9
$MEASUREMENT
 70
1
  9
$CELWEIGHT
370
-1
  9
$ENDCAPS
280
0
  9
$JOINSTYLE
280
0
  9
$LWDISPLAY
290
0
  9
$INSUNITS
 70
4
  9
$HYPERLINKBASE
  1

  9
$STYLESHEET
  1

  9
$XEDIT
290
1
  9
$CEPSNTYPE
380
0
  9
$PSTYLEMODE
290
1
  9
$FINGERPRINTGUID
  2
{39DB1BDD-BC6C-46D3-A333-DFCC0DC4782D}
  9
$VERSIONGUID
  2
{69EEBB2D-7039-498F-9366-3F994E4A07E7}
  9
$EXTNAMES
290
1
  9
$PSVPSCALE
 40
0.0
  9
$OLESTARTUP
290
0
  9
$SORTENTS
280
127
  9
$INDEXCTL
280
0
  9
$HIDETEXT
280
1
  9
$XCLIPFRAME
280
0
  9
$HALOGAP
280
0
  9
$OBSCOLOR
 70
257
  9
$OBSLTYPE
280
0
  9
$INTERSECTIONDISPLAY
280
0
  9
$INTERSECTIONCOLOR
 70
257
  9
$DIMASSOC
280
2
  9
$PROJECTNAME
  1

  9
$CAMERADISPLAY
290
0
  9
$LENSLENGTH
 40
50.0
  9
$CAMERAHEIGHT
 40
0.0
  9
$STEPSPERSEC
 40
2.0
  9
$STEPSIZE
 40
6.0
  9
$3DDWFPREC
 40
2.0
  9
$PSOLWIDTH
 40
0.25
  9
$PSOLHEIGHT
 40
4.0
  9
$LOFTANG1
 40
1.57079632679
  9
$LOFTANG2
 40
1.57079632679
  9
$LOFTMAG1
 40
0.0
  9
$LOFTMAG2
 40
0.0
  9
$LOFTPARAM
 70
7
  9
$LOFTNORMALS
280
1
  9
$LATITUDE
 40
37.795
  9
$LONGITUDE
 40
-122.394
  9
$NORTHDIRECTION
 40
0.0
  9
$TIMEZONE
 70
-8000
  9
$LIGHTGLYPHDISPLAY
280
1
  9
$TILEMODELIGHTSYNCH
280
1
  9
$CMATERIAL
347
96
  9
$SOLIDHIST
280
1
  9
$SHOWHIST
280
1
  9
$DWFFRAME
280
2
  9
$DGNFRAME
280
0
  9
$REALWORLDSCALE
290
1
  9
$INTERFERECOLOR
 62
1
  9
$INTERFEREOBJVS
345
A3
  9
$INTERFEREVPVS
346
A0
  9
$CSHADOW
280
0
  9
$SHADOWPLANELOCATION
 40
0.0
  0
ENDSEC
  0
SECTION
  2
CLASSES
  0
CLASS
  1
ACDBDICTIONARYWDFLT
  2
AcDbDictionaryWithDefault
  3
ObjectDBX Classes
 90
0
 91
1
280
0
281
0
  0
CLASS
  1
DICTIONARYVAR
  2
AcDbDictionaryVar
  3
ObjectDBX Classes
 90
0
 91
15
280
0
281
0
  0
CLASS
  1
TABLESTYLE
  2
AcDbTableStyle
  3
ObjectDBX Classes
 90
4095
 91
1
280
0
281
0
  0
CLASS
  1
MATERIAL
  2
AcDbMaterial
  3
ObjectDBX Classes
 90
1153
 91
3
280
0
281
0
  0
CLASS
  1
VISUALSTYLE
  2
AcDbVisualStyle
  3
ObjectDBX Classes
 90
4095
 91
26
280
0
281
0
  0
CLASS
  1
SCALE
  2
AcDbScale
  3
ObjectDBX Classes
 90
1153
 91
17
280
0
281
0
  0
CLASS
  1
MLEADERSTYLE
  2
AcDbMLeaderStyle
  3
ACDB_MLEADERSTYLE_CLASS
 90
4095
 91
3
280
0
281
0
  0
CLASS
  1
CELLSTYLEMAP
  2
AcDbCellStyleMap
  3
ObjectDBX Classes
 90
1152
 91
2
280
0
281
0
  0
CLASS
  1
EXACXREFPANELOBJECT
  2
ExAcXREFPanelObject
  3
EXAC_ESW
 90
1025
 91
0
280
0
281
0
  0
CLASS
  1
NPOCOLLECTION
  2
AcDbImpNonPersistentObjectsCollection
  3
ObjectDBX Classes
 90
1153
 91
0
280
0
281
0
  0
CLASS
  1
LAYER_INDEX
  2
AcDbLayerIndex
  3
ObjectDBX Classes
 90
0
 91
0
280
0
281
0
  0
CLASS
  1
SPATIAL_INDEX
  2
AcDbSpatialIndex
  3
ObjectDBX Classes
 90
0
 91
0
280
0
281
0
  0
CLASS
  1
IDBUFFER
  2
AcDbIdBuffer
  3
ObjectDBX Classes
 90
0
 91
0
280
0
281
0
  0
CLASS
  1
DIMASSOC
  2
AcDbDimAssoc
  3
"AcDbDimAssoc|Product Desc:     AcDim ARX App For Dimension|Company:          Autodesk, Inc.|WEB Address:      www.autodesk.com"
 90
0
 91
0
280
0
281
0
  0
CLASS
  1
ACDBSECTIONVIEWSTYLE
  2
AcDbSectionViewStyle
  3
ObjectDBX Classes
 90
1025
 91
1
280
0
281
0
  0
CLASS
  1
ACDBDETAILVIEWSTYLE
  2
AcDbDetailViewStyle
  3
ObjectDBX Classes
 90
1025
 91
1
280
0
281
0
  0
ENDSEC
  0
SECTION
  2
TABLES
  0
TABLE
  2
VPORT
  5
8
330
0
100
AcDbSymbolTable
 70
1
  0
VPORT
  5
94
330
8
100
AcDbSymbolTableRecord
100
AcDbViewportTableRecord
  2
*Active
 70
0
 10
0.0
 20
0.0
 11
1.0
 21
1.0
 12
80.9008524104
 22
49.8327539172
 13
0.0
 23
0.0
 14
0.5
 24
0.5
 15
0.5
 25
0.5
 16
0.0
 26
0.0
 36
1.0
 17
0.0
 27
0.0
 37
0.0
 40
69.0394603599
 41
1.69347133758
 42
50.0
 43
0.0
 44
0.0
 50
0.0
 51
0.0
 71
0
 72
1000
 73
1
 74
3
 75
0
 76
0
 77
0
 78
0
281
0
 65
1
110
0.0
120
0.0
130
0.0
111
1.0
121
0.0
131
0.0
112
0.0
122
1.0
132
0.0
 79
0
146
0.0
348
9F
 60
2
 61
5
292
1
282
1
141
0.0
142
0.0
 63
250
421
3355443
1001
ACAD_NAV_VCDISPLAY
1070
3
  0
ENDTAB
  0
TABLE
  2
LTYPE
  5
5F
330
0
100
AcDbSymbolTable
 70
7
  0
LTYPE
  5
14
330
5F
100
AcDbSymbolTableRecord
100
AcDbLinetypeTableRecord
  2
ByBlock
 70
0
  3

 72
65
 73
0
 40
0.0
  0
LTYPE
  5
15
330
5F
100
AcDbSymbolTableRecord
100
AcDbLinetypeTableRecord
  2
ByLayer
 70
0
  3

 72
65
 73
0
 40
0.0
  0
LTYPE
  5
16
330
5F
100
AcDbSymbolTableRecord
100
AcDbLinetypeTableRecord
  2
Continuous
 70
0
  3
Solid line
 72
65
 73
0
 40
0.0
  0
LTYPE
  5
1B1
330
5F
100
AcDbSymbolTableRecord
100
AcDbLinetypeTableRecord
  2
CENTER
 70
0
  3
Center ____ _ ____ _ ____ _ ____ _ ____ _ ____
 72
65
 73
4
 40
2.0
 49
1.25
 74
0
 49
-0.25
 74
0
 49
0.25
 74
0
 49
-0.25
 74
0
  0
LTYPE
  5
1B2
330
5F
100
AcDbSymbolTableRecord
100
AcDbLinetypeTableRecord
  2
DASHED
 70
0
  3
Dashed __ __ __ __ __ __ __ __ __ __ __ __ __ _
 72
65
 73
2
 40
0.75
 49
0.5
 74
0
 49
-0.25
 74
0
  0
LTYPE
  5
1B3
330
5F
100
AcDbSymbolTableRecord
100
AcDbLinetypeTableRecord
  2
PHANTOM
 70
0
  3
Phantom ______  __  __  ______  __  __  ______
 72
65
 73
6
 40
2.5
 49
1.25
 74
0
 49
-0.25
 74
0
 49
0.25
 74
0
 49
-0.25
 74
0
 49
0.25
 74
0
 49
-0.25
 74
0
  0
LTYPE
  5
39E
330
5F
100
AcDbSymbolTableRecord
100
AcDbLinetypeTableRecord
  2
HIDDEN
 70
0
  3
Hidden __ __ __ __ __ __ __ __ __ __ __ __ __ __
 72
65
 73
2
 40
9.525
 49
6.35
 74
0
 49
-3.175
 74
0
  0
ENDTAB
  0
TABLE
  2
LAYER
  5
2
102
{ACAD_XDICTIONARY
360
2A2
102
}
330
0
100
AcDbSymbolTable
 70
5
  0
LAYER
  5
10
102
{ACAD_XDICTIONARY
360
E6
102
}
330
2
100
AcDbSymbolTableRecord
100
AcDbLayerTableRecord
  2
0
 70
0
 62
7
  6
Continuous
370
-3
390
F
347
98
348
0
  0
LAYER
  5
1B4
330
2
100
AcDbSymbolTableRecord
100
AcDbLayerTableRecord
  2
View Port
 70
0
 62
7
  6
Continuous
290
0
370
-3
390
F
347
98
348
0
1001
AcAecLayerStandard
1000

1000
View Ports, set to Not Plot
  0
LAYER
  5
21D
330
2
100
AcDbSymbolTableRecord
100
AcDbLayerTableRecord
  2
Defpoints
 70
0
 62
7
  6
Continuous
290
0
370
-3
390
F
347
98
348
0
  0
LAYER
  5
4E3
330
2
100
AcDbSymbolTableRecord
100
AcDbLayerTableRecord
  2
layer_401
 70
0
 62
1
  6
Continuous
290
1
390
E
  0
LAYER
  5
547
330
2
100
AcDbSymbolTableRecord
100
AcDbLayerTableRecord
  2
layer_400
 70
0
 62
1
  6
Continuous
290
1
390
E
  0
ENDTAB
  0
TABLE
  2
STYLE
  5
3
330
0
100
AcDbSymbolTable
 70
3
  0
STYLE
  5
11
330
3
100
AcDbSymbolTableRecord
100
AcDbTextStyleTableRecord
  2
Standard
 70
0
 40
0.0
 41
1.0
 50
0.0
 71
0
 42
0.2
  3
arial.ttf
  4

1001
ACAD
1000
Arial
1071
34
  0
STYLE
  5
DC
330
3
100
AcDbSymbolTableRecord
100
AcDbTextStyleTableRecord
  2
Annotative
 70
0
 40
0.0
 41
1.0
 50
0.0
 71
0
 42
0.2
  3
arial.ttf
  4

1001
AcadAnnotative
1000
AnnotativeData
1002
{
1070
1
1070
1
1002
}
1001
ACAD
1000
Arial
1071
34
  0
STYLE
  5
178
330
3
100
AcDbSymbolTableRecord
100
AcDbTextStyleTableRecord
  2
Notes
 70
0
 40
3.0
 41
1.0
 50
0.0
 71
0
 42
0.2
  3
arial.ttf
  4

1001
AcadAnnotative
1000
AnnotativeData
1002
{
1070
1
1070
1
1002
}
1001
AcadAnnoPO
1070
1
1001
ACAD
1000
Arial
1071
34
  0
ENDTAB
  0
TABLE
  2
VIEW
  5
6
330
0
100
AcDbSymbolTable
 70
0
  0
ENDTAB
  0
TABLE
  2
UCS
  5
7
330
0
100
AcDbSymbolTable
 70
0
  0
ENDTAB
  0
TABLE
  2
APPID
  5
9
330
0
100
AcDbSymbolTable
 70
11
  0
APPID
  5
12
330
9
100
AcDbSymbolTableRecord
100
AcDbRegAppTableRecord
  2
ACAD
 70
0
  0
APPID
  5
DD
330
9
100
AcDbSymbolTableRecord
100
AcDbRegAppTableRecord
  2
AcadAnnoPO
 70
0
  0
APPID
  5
DE
330
9
100
AcDbSymbolTableRecord
100
AcDbRegAppTableRecord
  2
AcadAnnotative
 70
0
  0
APPID
  5
DF
330
9
100
AcDbSymbolTableRecord
100
AcDbRegAppTableRecord
  2
ACAD_DSTYLE_DIMJAG
 70
0
  0
APPID
  5
E0
330
9
100
AcDbSymbolTableRecord
100
AcDbRegAppTableRecord
  2
ACAD_DSTYLE_DIMTALN
 70
0
  0
APPID
  5
107
330
9
100
AcDbSymbolTableRecord
100
AcDbRegAppTableRecord
  2
ACAD_MLEADERVER
 70
0
  0
APPID
  5
1B5
330
9
100
AcDbSymbolTableRecord
100
AcDbRegAppTableRecord
  2
AcAecLayerStandard
 70
0
  0
APPID
  5
1BA
330
9
100
AcDbSymbolTableRecord
100
AcDbRegAppTableRecord
  2
ACAD_EXEMPT_FROM_CAD_STANDARDS
 70
0
  0
APPID
  5
237
330
9
100
AcDbSymbolTableRecord
100
AcDbRegAppTableRecord
  2
ACAD_DSTYLE_DIMBREAK
 70
0
  0
APPID
  5
28E
330
9
100
AcDbSymbolTableRecord
100
AcDbRegAppTableRecord
  2
ACAD_PSEXT
 70
0
  0
APPID
  5
4B0
330
9
100
AcDbSymbolTableRecord
100
AcDbRegAppTableRecord
  2
ACAD_NAV_VCDISPLAY
 70
0
  0
ENDTAB
  0
TABLE
  2
DIMSTYLE
  5
A
330
0
100
AcDbSymbolTable
 70
3
100
AcDbDimStyleTable
 71
3
340
242
340
27
340
E1
  0
DIMSTYLE
105
27
330
A
100
AcDbSymbolTableRecord
100
AcDbDimStyleTableRecord
  2
Standard
 70
0
 41
3.0
 42
2.0
 43
9.0
 44
5.0
140
3.0
141
2.0
147
2.0
340
11
1001
ACAD_DSTYLE_DIMJAG
1070
388
1040
38.0
1001
ACAD_DSTYLE_DIMBREAK
1070
391
1040
90.0
1001
ACAD_DSTYLE_DIMTALN
1070
392
1070
0
  0
DIMSTYLE
105
E1
330
A
100
AcDbSymbolTableRecord
100
AcDbDimStyleTableRecord
  2
Annotative
 70
0
 40
0.0
 41
3.0
 42
2.5
 43
10.0
 44
5.0
140
3.0
141
2.0
147
2.0
340
11
1001
AcadAnnotative
1000
AnnotativeData
1002
{
1070
1
1070
1
1002
}
1001
ACAD_DSTYLE_DIMJAG
1070
388
1040
38.0
1001
ACAD_DSTYLE_DIMBREAK
1070
391
1040
90.0
1001
ACAD_DSTYLE_DIMTALN
1070
392
1070
0
  0
DIMSTYLE
105
242
330
A
100
AcDbSymbolTableRecord
100
AcDbDimStyleTableRecord
  2
Civil-Metric
 70
0
 41
3.0
 42
1.5
 43
6.0
 44
3.0
 73
0
 74
0
 77
1
 78
3
 79
2
140
3.0
141
3.0
147
2.0
179
2
271
2
272
2
276
1
340
11
1001
ACAD_DSTYLE_DIMBREAK
1070
391
1040
3.0
1001
ACAD_DSTYLE_DIMJAG
1070
388
1040
38.0
1001
ACAD_DSTYLE_DIMTALN
1070
392
1070
0
  0
ENDTAB
  0
TABLE
  2
BLOCK_RECORD
  5
1
330
0
100
AcDbSymbolTable
 70
4
  0
BLOCK_RECORD
  5
1F
102
{ACAD_XDICTIONARY
360
15D
102
}
330
1
100
AcDbSymbolTableRecord
100
AcDbBlockTableRecord
  2
*Model_Space
340
22
 70
0
280
1
281
0
  0
BLOCK_RECORD
  5
58
330
1
100
AcDbSymbolTableRecord
100
AcDbBlockTableRecord
  2
*Paper_Space
340
59
 70
0
280
1
281
0
  0
BLOCK_RECORD
  5
238
330
1
100
AcDbSymbolTableRecord
100
AcDbBlockTableRecord
  2
_ArchTick
340
0
 70
0
280
1
281
0
  0
BLOCK_RECORD
  5
23C
330
1
100
AcDbSymbolTableRecord
100
AcDbBlockTableRecord
  2
_Open30
340
0
 70
0
280
1
281
0
  0
ENDTAB
  0
ENDSEC
  0
SECTION
  2
BLOCKS
  0
BLOCK
  5
240
330
23C
100
AcDbEntity
  8
0
100
AcDbBlockBegin
  2
_Open30
 70
0
 10
0.0
 20
0.0
 30
0.0
  3
_Open30
  1

  0
LINE
  5
23D
330
23C
100
AcDbEntity
  8
0
  6
ByBlock
 62
0
370
-2
100
AcDbLine
 10
-1.0
 20
0.26794919
 30
0.0
 11
0.0
 21
0.0
 31
0.0
  0
LINE
  5
23E
330
23C
100
AcDbEntity
  8
0
  6
ByBlock
 62
0
370
-2
100
AcDbLine
 10
0.0
 20
0.0
 30
0.0
 11
-1.0
 21
-0.26794919
 31
0.0
  0
LINE
  5
23F
330
23C
100
AcDbEntity
  8
0
  6
ByBlock
 62
0
370
-2
100
AcDbLine
 10
0.0
 20
0.0
 30
0.0
 11
-1.0
 21
0.0
 31
0.0
  0
ENDBLK
  5
241
330
23C
100
AcDbEntity
  8
0
100
AcDbBlockEnd
  0
BLOCK
  5
20
330
1F
100
AcDbEntity
  8
0
100
AcDbBlockBegin
  2
*Model_Space
 70
0
 10
0.0
 20
0.0
 30
0.0
  3
*Model_Space
  1

  0
ENDBLK
  5
21
330
1F
100
AcDbEntity
  8
0
100
AcDbBlockEnd
  0
BLOCK
  5
5A
330
58
100
AcDbEntity
 67
1
  8
0
100
AcDbBlockBegin
  2
*Paper_Space
 70
0
 10
0.0
 20
0.0
 30
0.0
  3
*Paper_Space
  1

  0
ENDBLK
  5
5B
330
58
100
AcDbEntity
 67
1
  8
0
100
AcDbBlockEnd
  0
BLOCK
  5
23A
330
238
100
AcDbEntity
  8
0
100
AcDbBlockBegin
  2
_ArchTick
 70
0
 10
0.0
 20
0.0
 30
0.0
  3
_ArchTick
  1

  0
LWPOLYLINE
  5
239
330
238
100
AcDbEntity
  8
0
  6
ByBlock
 62
0
100
AcDbPolyline
 90
2
 70
0
 43
0.15
 10
-0.5
 20
-0.5
 10
0.5
 20
0.5
  0
ENDBLK
  5
23B
330
238
100
AcDbEntity
  8
0
100
AcDbBlockEnd
  0
ENDSEC
  0
SECTION
  2
ENTITIES
  0
POLYLINE
  5
4E4
330
1F
100
AcDbEntity
  8
layer_401
 67
0
100
AcDb2dPolyline
 66
1
 70
0
 10
0.0
 20
0.0
 30
0.0
  0
VERTEX
  5
4E6
330
1F
100
AcDbEntity
  8
0
 67
0
100
AcDbVertex
100
AcDb2dVertex
 10
24.0
 20
25.4699
 40
0.0
 41
0.0
 42
0.0
 70
0
  0
VERTEX
  5
4E7
330
1F
100
AcDbEntity
  8
0
 67
0
100
AcDbVertex
100
AcDb2dVertex
 10
23.92352
 20
26.197591
 40
0.0
 41
0.0
 42
0.0
 70
0
  0
VERTEX
  5
4E8
330
1F
100
AcDbEntity
  8
0
 67
0
100
AcDbVertex
100
AcDb2dVertex
 10
23.69741
 20
26.89348
 40
0.0
 41
0.0
 42
0.0
 70
0
  0
VERTEX
  5
4E9
330
1F
100
AcDbEntity
  8
0
 67
0
100
AcDbVertex
100
AcDb2dVertex
 10
23.33156
 20
27.52715
 40
0.0
 41
0.0
 42
0.0
 70
0
  0
VERTEX
  5
4EA
330
1F
100
AcDbEntity
  8
0
 67
0
100
AcDbVertex
100
AcDb2dVertex
 10
22.84196
 20
28.07091
 40
0.0
 41
0.0
 42
0.0
 70
0
  0
VERTEX
  5
4EB
330
1F
100
AcDbEntity
  8
0
 67
0
100
AcDbVertex
100
AcDb2dVertex
 10
22.25
 20
28.50099
 40
0.0
 41
0.0
 42
0.0
 70
0
  0
VERTEX
  5
4EC
330
1F
100
AcDbEntity
  8
0
 67
0
100
AcDbVertex
100
AcDb2dVertex
 10
21.58156
 20
28.7986
 40
0.0
 41
0.0
 42
0.0
 70
0
  0
VERTEX
  5
4ED
330
1F
100
AcDbEntity
  8
0
 67
0
100
AcDbVertex
100
AcDb2dVertex
 10
20.86585
 20
28.95073
 40
0.0
 41
0.0
 42
0.0
 70
0
  0
VERTEX
  5
4EE
330
1F
100
AcDbEntity
  8
0
 67
0
100
AcDbVertex
100
AcDb2dVertex
 10
20.13415
 20
28.95073
 40
0.0
 41
0.0
 42
0.0
 70
0
  0
VERTEX
  5
4EF
330
1F
100
AcDbEntity
  8
0
 67
0
100
AcDbVertex
100
AcDb2dVertex
 10
19.41844
 20
28.7986
 40
0.0
 41
0.0
 42
0.0
 70
0
  0
VERTEX
  5
4F0
330
1F
100
AcDbEntity
  8
0
 67
0
100
AcDbVertex
100
AcDb2dVertex
 10
18.75
 20
28.50099
 40
0.0
 41
0.0
 42
0.0
 70
0
  0
VERTEX
  5
4F1
330
1F
100
AcDbEntity
  8
0
 67
0
100
AcDbVertex
100
AcDb2dVertex
 10
18.15804
 20
28.07091
 40
0.0
 41
0.0
 42
0.0
 70
0
  0
VERTEX
  5
4F2
330
1F
100
AcDbEntity
  8
0
 67
0
100
AcDbVertex
100
AcDb2dVertex
 10
17.66844
 20
27.52715
 40
0.0
 41
0.0
 42
0.0
 70
0
  0
VERTEX
  5
4F3
330
1F
100
AcDbEntity
  8
0
 67
0
100
AcDbVertex
100
AcDb2dVertex
 10
17.30259
 20
26.89348
 40
0.0
 41
0.0
 42
0.0
 70
0
  0
VERTEX
  5
4F4
330
1F
100
AcDbEntity
  8
0
 67
0
100
AcDbVertex
100
AcDb2dVertex
 10
17.07648
 20
26.197591
 40
0.0
 41
0.0
 42
0.0
 70
0
  0
VERTEX
  5
4F5
330
1F
100
AcDbEntity
  8
0
 67
0
100
AcDbVertex
100
AcDb2dVertex
 10
17.0
 20
25.4699
 40
0.0
 41
0.0
 42
0.0
 70
0
  0
VERTEX
  5
4F6
330
1F
100
AcDbEntity
  8
0
 67
0
100
AcDbVertex
100
AcDb2dVertex
 10
17.07648
 20
24.742209
 40
0.0
 41
0.0
 42
0.0
 70
0
  0
VERTEX
  5
4F7
330
1F
100
AcDbEntity
  8
0
 67
0
100
AcDbVertex
100
AcDb2dVertex
 10
17.30259
 20
24.04632
 40
0.0
 41
0.0
 42
0.0
 70
0
  0
VERTEX
  5
4F8
330
1F
100
AcDbEntity
  8
0
 67
0
100
AcDbVertex
100
AcDb2dVertex
 10
17.66844
 20
23.41265
 40
0.0
 41
0.0
 42
0.0
 70
0
  0
VERTEX
  5
4F9
330
1F
100
AcDbEntity
  8
0
 67
0
100
AcDbVertex
100
AcDb2dVertex
 10
18.15804
 20
22.86889
 40
0.0
 41
0.0
 42
0.0
 70
0
  0
VERTEX
  5
4FA
330
1F
100
AcDbEntity
  8
0
 67
0
100
AcDbVertex
100
AcDb2dVertex
 10
18.75
 20
22.43881
 40
0.0
 41
0.0
 42
0.0
 70
0
  0
VERTEX
  5
4FB
330
1F
100
AcDbEntity
  8
0
 67
0
100
AcDbVertex
100
AcDb2dVertex
 10
19.41844
 20
22.1412
 40
0.0
 41
0.0
 42
0.0
 70
0
  0
VERTEX
  5
4FC
330
1F
100
AcDbEntity
  8
0
 67
0
100
AcDbVertex
100
AcDb2dVertex
 10
20.13415
 20
21.98907
 40
0.0
 41
0.0
 42
0.0
 70
0
  0
VERTEX
  5
4FD
330
1F
100
AcDbEntity
  8
0
 67
0
100
AcDbVertex
100
AcDb2dVertex
 10
20.86585
 20
21.98907
 40
0.0
 41
0.0
 42
0.0
 70
0
  0
VERTEX
  5
4FE
330
1F
100
AcDbEntity
  8
0
 67
0
100
AcDbVertex
100
AcDb2dVertex
 10
21.58156
 20
22.1412
 40
0.0
 41
0.0
 42
0.0
 70
0
  0
VERTEX
  5
4FF
330
1F
100
AcDbEntity
  8
0
 67
0
100
AcDbVertex
100
AcDb2dVertex
 10
22.25
 20
22.43881
 40
0.0
 41
0.0
 42
0.0
 70
0
  0
VERTEX
  5
500
330
1F
100
AcDbEntity
  8
0
 67
0
100
AcDbVertex
100
AcDb2dVertex
 10
22.84196
 20
22.86889
 40
0.0
 41
0.0
 42
0.0
 70
0
  0
VERTEX
  5
501
330
1F
100
AcDbEntity
  8
0
 67
0
100
AcDbVertex
100
AcDb2dVertex
 10
23.33156
 20
23.41265
 40
0.0
 41
0.0
 42
0.0
 70
0
  0
VERTEX
  5
502
330
1F
100
AcDbEntity
  8
0
 67
0
100
AcDbVertex
100
AcDb2dVertex
 10
23.69741
 20
24.04632
 40
0.0
 41
0.0
 42
0.0
 70
0
  0
VERTEX
  5
503
330
1F
100
AcDbEntity
  8
0
 67
0
100
AcDbVertex
100
AcDb2dVertex
 10
23.92352
 20
24.742209
 40
0.0
 41
0.0
 42
0.0
 70
0
  0
VERTEX
  5
504
330
1F
100
AcDbEntity
  8
0
 67
0
100
AcDbVertex
100
AcDb2dVertex
 10
24.0
 20
25.4699
 40
0.0
 41
0.0
 42
0.0
 70
0
  0
SEQEND
  5
4E5
330
0
100
AcDbEntity
 67
0
  0
POLYLINE
  5
505
330
1F
100
AcDbEntity
  8
layer_401
 67
0
100
AcDb2dPolyline
 66
1
 70
0
 10
0.0
 20
0.0
 30
0.0
  0
VERTEX
  5
507
330
1F
100
AcDbEntity
  8
0
 67
0
100
AcDbVertex
100
AcDb2dVertex
 10
55.5682345028
 20
20.3854252707
 40
0.0
 41
0.0
 42
0.0
 70
0
  0
VERTEX
  5
508
330
1F
100
AcDbEntity
  8
0
 67
0
100
AcDbVertex
100
AcDb2dVertex
 10
55.4917545028
 20
21.1131162707
 40
0.0
 41
0.0
 42
0.0
 70
0
  0
VERTEX
  5
509
330
1F
100
AcDbEntity
  8
0
 67
0
100
AcDbVertex
100
AcDb2dVertex
 10
55.2656445028
 20
21.8090052707
 40
0.0
 41
0.0
 42
0.0
 70
0
  0
VERTEX
  5
50A
330
1F
100
AcDbEntity
  8
0
 67
0
100
AcDbVertex
100
AcDb2dVertex
 10
54.8997945028
 20
22.4426752707
 40
0.0
 41
0.0
 42
0.0
 70
0
  0
VERTEX
  5
50B
330
1F
100
AcDbEntity
  8
0
 67
0
100
AcDbVertex
100
AcDb2dVertex
 10
54.4101945028
 20
22.9864352707
 40
0.0
 41
0.0
 42
0.0
 70
0
  0
VERTEX
  5
50C
330
1F
100
AcDbEntity
  8
0
 67
0
100
AcDbVertex
100
AcDb2dVertex
 10
53.8182345028
 20
23.4165152707
 40
0.0
 41
0.0
 42
0.0
 70
0
  0
VERTEX
  5
50D
330
1F
100
AcDbEntity
  8
0
 67
0
100
AcDbVertex
100
AcDb2dVertex
 10
53.1497945028
 20
23.7141252707
 40
0.0
 41
0.0
 42
0.0
 70
0
  0
VERTEX
  5
50E
330
1F
100
AcDbEntity
  8
0
 67
0
100
AcDbVertex
100
AcDb2dVertex
 10
52.4340845028
 20
23.8662552707
 40
0.0
 41
0.0
 42
0.0
 70
0
  0
VERTEX
  5
50F
330
1F
100
AcDbEntity
  8
0
 67
0
100
AcDbVertex
100
AcDb2dVertex
 10
51.7023845028
 20
23.8662552707
 40
0.0
 41
0.0
 42
0.0
 70
0
  0
VERTEX
  5
510
330
1F
100
AcDbEntity
  8
0
 67
0
100
AcDbVertex
100
AcDb2dVertex
 10
50.9866745028
 20
23.7141252707
 40
0.0
 41
0.0
 42
0.0
 70
0
  0
VERTEX
  5
511
330
1F
100
AcDbEntity
  8
0
 67
0
100
AcDbVertex
100
AcDb2dVertex
 10
50.3182345028
 20
23.4165152707
 40
0.0
 41
0.0
 42
0.0
 70
0
  0
VERTEX
  5
512
330
1F
100
AcDbEntity
  8
0
 67
0
100
AcDbVertex
100
AcDb2dVertex
 10
49.7262745028
 20
22.9864352707
 40
0.0
 41
0.0
 42
0.0
 70
0
  0
VERTEX
  5
513
330
1F
100
AcDbEntity
  8
0
 67
0
100
AcDbVertex
100
AcDb2dVertex
 10
49.2366745028
 20
22.4426752707
 40
0.0
 41
0.0
 42
0.0
 70
0
  0
VERTEX
  5
514
330
1F
100
AcDbEntity
  8
0
 67
0
100
AcDbVertex
100
AcDb2dVertex
 10
48.8708245028
 20
21.8090052707
 40
0.0
 41
0.0
 42
0.0
 70
0
  0
VERTEX
  5
515
330
1F
100
AcDbEntity
  8
0
 67
0
100
AcDbVertex
100
AcDb2dVertex
 10
48.6447145028
 20
21.1131162707
 40
0.0
 41
0.0
 42
0.0
 70
0
  0
VERTEX
  5
516
330
1F
100
AcDbEntity
  8
0
 67
0
100
AcDbVertex
100
AcDb2dVertex
 10
48.5682345028
 20
20.3854252707
 40
0.0
 41
0.0
 42
0.0
 70
0
  0
VERTEX
  5
517
330
1F
100
AcDbEntity
  8
0
 67
0
100
AcDbVertex
100
AcDb2dVertex
 10
48.6447145028
 20
19.6577342707
 40
0.0
 41
0.0
 42
0.0
 70
0
  0
VERTEX
  5
518
330
1F
100
AcDbEntity
  8
0
 67
0
100
AcDbVertex
100
AcDb2dVertex
 10
48.8708245028
 20
18.9618452707
 40
0.0
 41
0.0
 42
0.0
 70
0
  0
VERTEX
  5
519
330
1F
100
AcDbEntity
  8
0
 67
0
100
AcDbVertex
100
AcDb2dVertex
 10
49.2366745028
 20
18.3281752707
 40
0.0
 41
0.0
 42
0.0
 70
0
  0
VERTEX
  5
51A
330
1F
100
AcDbEntity
  8
0
 67
0
100
AcDbVertex
100
AcDb2dVertex
 10
49.7262745028
 20
17.7844152707
 40
0.0
 41
0.0
 42
0.0
 70
0
  0
VERTEX
  5
51B
330
1F
100
AcDbEntity
  8
0
 67
0
100
AcDbVertex
100
AcDb2dVertex
 10
50.3182345028
 20
17.3543352707
 40
0.0
 41
0.0
 42
0.0
 70
0
  0
VERTEX
  5
51C
330
1F
100
AcDbEntity
  8
0
 67
0
100
AcDbVertex
100
AcDb2dVertex
 10
50.9866745028
 20
17.0567252707
 40
0.0
 41
0.0
 42
0.0
 70
0
  0
VERTEX
  5
51D
330
1F
100
AcDbEntity
  8
0
 67
0
100
AcDbVertex
100
AcDb2dVertex
 10
51.7023845028
 20
16.9045952707
 40
0.0
 41
0.0
 42
0.0
 70
0
  0
VERTEX
  5
51E
330
1F
100
AcDbEntity
  8
0
 67
0
100
AcDbVertex
100
AcDb2dVertex
 10
52.4340845028
 20
16.9045952707
 40
0.0
 41
0.0
 42
0.0
 70
0
  0
VERTEX
  5
51F
330
1F
100
AcDbEntity
  8
0
 67
0
100
AcDbVertex
100
AcDb2dVertex
 10
53.1497945028
 20
17.0567252707
 40
0.0
 41
0.0
 42
0.0
 70
0
  0
VERTEX
  5
520
330
1F
100
AcDbEntity
  8
0
 67
0
100
AcDbVertex
100
AcDb2dVertex
 10
53.8182345028
 20
17.3543352707
 40
0.0
 41
0.0
 42
0.0
 70
0
  0
VERTEX
  5
521
330
1F
100
AcDbEntity
  8
0
 67
0
100
AcDbVertex
100
AcDb2dVertex
 10
54.4101945028
 20
17.7844152707
 40
0.0
 41
0.0
 42
0.0
 70
0
  0
VERTEX
  5
522
330
1F
100
AcDbEntity
  8
0
 67
0
100
AcDbVertex
100
AcDb2dVertex
 10
54.8997945028
 20
18.3281752707
 40
0.0
 41
0.0
 42
0.0
 70
0
  0
VERTEX
  5
523
330
1F
100
AcDbEntity
  8
0
 67
0
100
AcDbVertex
100
AcDb2dVertex
 10
55.2656445028
 20
18.9618452707
 40
0.0
 41
0.0
 42
0.0
 70
0
  0
VERTEX
  5
524
330
1F
100
AcDbEntity
  8
0
 67
0
100
AcDbVertex
100
AcDb2dVertex
 10
55.4917545028
 20
19.6577342707
 40
0.0
 41
0.0
 42
0.0
 70
0
  0
VERTEX
  5
525
330
1F
100
AcDbEntity
  8
0
 67
0
100
AcDbVertex
100
AcDb2dVertex
 10
55.5682345028
 20
20.3854252707
 40
0.0
 41
0.0
 42
0.0
 70
0
  0
SEQEND
  5
506
330
0
100
AcDbEntity
 67
0
  0
POLYLINE
  5
526
330
1F
100
AcDbEntity
  8
layer_401
 67
0
100
AcDb2dPolyline
 66
1
 70
0
 10
0.0
 20
0.0
 30
0.0
  0
VERTEX
  5
528
330
1F
100
AcDbEntity
  8
0
 67
0
100
AcDbVertex
100
AcDb2dVertex
 10
9.0
 20
5.4699
 40
0.0
 41
0.0
 42
0.0
 70
0
  0
VERTEX
  5
529
330
1F
100
AcDbEntity
  8
0
 67
0
100
AcDbVertex
100
AcDb2dVertex
 10
8.92352
 20
6.197591
 40
0.0
 41
0.0
 42
0.0
 70
0
  0
VERTEX
  5
52A
330
1F
100
AcDbEntity
  8
0
 67
0
100
AcDbVertex
100
AcDb2dVertex
 10
8.69741
 20
6.89348
 40
0.0
 41
0.0
 42
0.0
 70
0
  0
VERTEX
  5
52B
330
1F
100
AcDbEntity
  8
0
 67
0
100
AcDbVertex
100
AcDb2dVertex
 10
8.33156
 20
7.52715
 40
0.0
 41
0.0
 42
0.0
 70
0
  0
VERTEX
  5
52C
330
1F
100
AcDbEntity
  8
0
 67
0
100
AcDbVertex
100
AcDb2dVertex
 10
7.84196
 20
8.07091
 40
0.0
 41
0.0
 42
0.0
 70
0
  0
VERTEX
  5
52D
330
1F
100
AcDbEntity
  8
0
 67
0
100
AcDbVertex
100
AcDb2dVertex
 10
7.25
 20
8.50099
 40
0.0
 41
0.0
 42
0.0
 70
0
  0
VERTEX
  5
52E
330
1F
100
AcDbEntity
  8
0
 67
0
100
AcDbVertex
100
AcDb2dVertex
 10
6.58156
 20
8.7986
 40
0.0
 41
0.0
 42
0.0
 70
0
  0
VERTEX
  5
52F
330
1F
100
AcDbEntity
  8
0
 67
0
100
AcDbVertex
100
AcDb2dVertex
 10
5.86585
 20
8.95073
 40
0.0
 41
0.0
 42
0.0
 70
0
  0
VERTEX
  5
530
330
1F
100
AcDbEntity
  8
0
 67
0
100
AcDbVertex
100
AcDb2dVertex
 10
5.13415
 20
8.95073
 40
0.0
 41
0.0
 42
0.0
 70
0
  0
VERTEX
  5
531
330
1F
100
AcDbEntity
  8
0
 67
0
100
AcDbVertex
100
AcDb2dVertex
 10
4.41844
 20
8.7986
 40
0.0
 41
0.0
 42
0.0
 70
0
  0
VERTEX
  5
532
330
1F
100
AcDbEntity
  8
0
 67
0
100
AcDbVertex
100
AcDb2dVertex
 10
3.75
 20
8.50099
 40
0.0
 41
0.0
 42
0.0
 70
0
  0
VERTEX
  5
533
330
1F
100
AcDbEntity
  8
0
 67
0
100
AcDbVertex
100
AcDb2dVertex
 10
3.15804
 20
8.07091
 40
0.0
 41
0.0
 42
0.0
 70
0
  0
VERTEX
  5
534
330
1F
100
AcDbEntity
  8
0
 67
0
100
AcDbVertex
100
AcDb2dVertex
 10
2.66844
 20
7.52715
 40
0.0
 41
0.0
 42
0.0
 70
0
  0
VERTEX
  5
535
330
1F
100
AcDbEntity
  8
0
 67
0
100
AcDbVertex
100
AcDb2dVertex
 10
2.30259
 20
6.89348
 40
0.0
 41
0.0
 42
0.0
 70
0
  0
VERTEX
  5
536
330
1F
100
AcDbEntity
  8
0
 67
0
100
AcDbVertex
100
AcDb2dVertex
 10
2.07648
 20
6.197591
 40
0.0
 41
0.0
 42
0.0
 70
0
  0
VERTEX
  5
537
330
1F
100
AcDbEntity
  8
0
 67
0
100
AcDbVertex
100
AcDb2dVertex
 10
2.0
 20
5.4699
 40
0.0
 41
0.0
 42
0.0
 70
0
  0
VERTEX
  5
538
330
1F
100
AcDbEntity
  8
0
 67
0
100
AcDbVertex
100
AcDb2dVertex
 10
2.07648
 20
4.742209
 40
0.0
 41
0.0
 42
0.0
 70
0
  0
VERTEX
  5
539
330
1F
100
AcDbEntity
  8
0
 67
0
100
AcDbVertex
100
AcDb2dVertex
 10
2.30259
 20
4.04632
 40
0.0
 41
0.0
 42
0.0
 70
0
  0
VERTEX
  5
53A
330
1F
100
AcDbEntity
  8
0
 67
0
100
AcDbVertex
100
AcDb2dVertex
 10
2.66844
 20
3.41265
 40
0.0
 41
0.0
 42
0.0
 70
0
  0
VERTEX
  5
53B
330
1F
100
AcDbEntity
  8
0
 67
0
100
AcDbVertex
100
AcDb2dVertex
 10
3.15804
 20
2.86889
 40
0.0
 41
0.0
 42
0.0
 70
0
  0
VERTEX
  5
53C
330
1F
100
AcDbEntity
  8
0
 67
0
100
AcDbVertex
100
AcDb2dVertex
 10
3.75
 20
2.43881
 40
0.0
 41
0.0
 42
0.0
 70
0
  0
VERTEX
  5
53D
330
1F
100
AcDbEntity
  8
0
 67
0
100
AcDbVertex
100
AcDb2dVertex
 10
4.41844
 20
2.1412
 40
0.0
 41
0.0
 42
0.0
 70
0
  0
VERTEX
  5
53E
330
1F
100
AcDbEntity
  8
0
 67
0
100
AcDbVertex
100
AcDb2dVertex
 10
5.13415
 20
1.98907
 40
0.0
 41
0.0
 42
0.0
 70
0
  0
VERTEX
  5
53F
330
1F
100
AcDbEntity
  8
0
 67
0
100
AcDbVertex
100
AcDb2dVertex
 10
5.86585
 20
1.98907
 40
0.0
 41
0.0
 42
0.0
 70
0
  0
VERTEX
  5
540
330
1F
100
AcDbEntity
  8
0
 67
0
100
AcDbVertex
100
AcDb2dVertex
 10
6.58156
 20
2.1412
 40
0.0
 41
0.0
 42
0.0
 70
0
  0
VERTEX
  5
541
330
1F
100
AcDbEntity
  8
0
 67
0
100
AcDbVertex
100
AcDb2dVertex
 10
7.25
 20
2.43881
 40
0.0
 41
0.0
 42
0.0
 70
0
  0
VERTEX
  5
542
330
1F
100
AcDbEntity
  8
0
 67
0
100
AcDbVertex
100
AcDb2dVertex
 10
7.84196
 20
2.86889
 40
0.0
 41
0.0
 42
0.0
 70
0
  0
VERTEX
  5
543
330
1F
100
AcDbEntity
  8
0
 67
0
100
AcDbVertex
100
AcDb2dVertex
 10
8.33156
 20
3.41265
 40
0.0
 41
0.0
 42
0.0
 70
0
  0
VERTEX
  5
544
330
1F
100
AcDbEntity
  8
0
 67
0
100
AcDbVertex
100
AcDb2dVertex
 10
8.69741
 20
4.04632
 40
0.0
 41
0.0
 42
0.0
 70
0
  0
VERTEX
  5
545
330
1F
100
AcDbEntity
  8
0
 67
0
100
AcDbVertex
100
AcDb2dVertex
 10
8.92352
 20
4.742209
 40
0.0
 41
0.0
 42
0.0
 70
0
  0
VERTEX
  5
546
330
1F
100
AcDbEntity
  8
0
 67
0
100
AcDbVertex
100
AcDb2dVertex
 10
9.0
 20
5.4699
 40
0.0
 41
0.0
 42
0.0
 70
0
  0
SEQEND
  5
527
330
0
100
AcDbEntity
 67
0
  0
POLYLINE
  5
548
330
1F
100
AcDbEntity
  8
layer_400
 67
0
100
AcDb2dPolyline
 66
1
 70
0
 10
0.0
 20
0.0
 30
0.0
  0
VERTEX
  5
54A
330
1F
100
AcDbEntity
  8
0
 67
0
100
AcDbVertex
100
AcDb2dVertex
 10
30.6909
 20
0.055191
 40
0.0
 41
0.0
 42
0.0
 70
0
  0
VERTEX
  5
54B
330
1F
100
AcDbEntity
  8
0
 67
0
100
AcDbVertex
100
AcDb2dVertex
 10
33.4149
 20
0.909149
 40
0.0
 41
0.0
 42
0.0
 70
0
  0
VERTEX
  5
54C
330
1F
100
AcDbEntity
  8
0
 67
0
100
AcDbVertex
100
AcDb2dVertex
 10
34.7769
 20
1.54791
 40
0.0
 41
0.0
 42
0.0
 70
0
  0
VERTEX
  5
54D
330
1F
100
AcDbEntity
  8
0
 67
0
100
AcDbVertex
100
AcDb2dVertex
 10
36.0014
 20
2.21242
 40
0.0
 41
0.0
 42
0.0
 70
0
  0
VERTEX
  5
54E
330
1F
100
AcDbEntity
  8
0
 67
0
100
AcDbVertex
100
AcDb2dVertex
 10
38.8628
 20
3.97298
 40
0.0
 41
0.0
 42
0.0
 70
0
  0
VERTEX
  5
54F
330
1F
100
AcDbEntity
  8
0
 67
0
100
AcDbVertex
100
AcDb2dVertex
 10
42.2677
 20
6.8587
 40
0.0
 41
0.0
 42
0.0
 70
0
  0
VERTEX
  5
550
330
1F
100
AcDbEntity
  8
0
 67
0
100
AcDbVertex
100
AcDb2dVertex
 10
46.3537
 20
10.1082
 40
0.0
 41
0.0
 42
0.0
 70
0
  0
VERTEX
  5
551
330
1F
100
AcDbEntity
  8
0
 67
0
100
AcDbVertex
100
AcDb2dVertex
 10
50.648
 20
13.5358
 40
0.0
 41
0.0
 42
0.0
 70
0
  0
VERTEX
  5
552
330
1F
100
AcDbEntity
  8
0
 67
0
100
AcDbVertex
100
AcDb2dVertex
 10
52.2973
 20
14.9155
 40
0.0
 41
0.0
 42
0.0
 70
0
  0
VERTEX
  5
553
330
1F
100
AcDbEntity
  8
0
 67
0
100
AcDbVertex
100
AcDb2dVertex
 10
52.6431
 20
14.9155
 40
0.0
 41
0.0
 42
0.0
 70
0
  0
VERTEX
  5
554
330
1F
100
AcDbEntity
  8
0
 67
0
100
AcDbVertex
100
AcDb2dVertex
 10
53.7678
 20
15.1546
 40
0.0
 41
0.0
 42
0.0
 70
0
  0
VERTEX
  5
555
330
1F
100
AcDbEntity
  8
0
 67
0
100
AcDbVertex
100
AcDb2dVertex
 10
54.8182
 20
15.6223
 40
0.0
 41
0.0
 42
0.0
 70
0
  0
VERTEX
  5
556
330
1F
100
AcDbEntity
  8
0
 67
0
100
AcDbVertex
100
AcDb2dVertex
 10
55.7484
 20
16.2981
 40
0.0
 41
0.0
 42
0.0
 70
0
  0
VERTEX
  5
557
330
1F
100
AcDbEntity
  8
0
 67
0
100
AcDbVertex
100
AcDb2dVertex
 10
56.5178
 20
17.1526
 40
0.0
 41
0.0
 42
0.0
 70
0
  0
VERTEX
  5
558
330
1F
100
AcDbEntity
  8
0
 67
0
100
AcDbVertex
100
AcDb2dVertex
 10
57.0927
 20
18.1484
 40
0.0
 41
0.0
 42
0.0
 70
0
  0
VERTEX
  5
559
330
1F
100
AcDbEntity
  8
0
 67
0
100
AcDbVertex
100
AcDb2dVertex
 10
57.448
 20
19.2419
 40
0.0
 41
0.0
 42
0.0
 70
0
  0
VERTEX
  5
55A
330
1F
100
AcDbEntity
  8
0
 67
0
100
AcDbVertex
100
AcDb2dVertex
 10
57.5682
 20
20.3854
 40
0.0
 41
0.0
 42
0.0
 70
0
  0
VERTEX
  5
55B
330
1F
100
AcDbEntity
  8
0
 67
0
100
AcDbVertex
100
AcDb2dVertex
 10
57.4818
 20
21.2075
 40
0.0
 41
0.0
 42
0.0
 70
0
  0
VERTEX
  5
55C
330
1F
100
AcDbEntity
  8
0
 67
0
100
AcDbVertex
100
AcDb2dVertex
 10
57.5682
 20
21.7138
 40
0.0
 41
0.0
 42
0.0
 70
0
  0
VERTEX
  5
55D
330
1F
100
AcDbEntity
  8
0
 67
0
100
AcDbVertex
100
AcDb2dVertex
 10
57.5383
 20
22.3428
 40
0.0
 41
0.0
 42
0.0
 70
0
  0
VERTEX
  5
55E
330
1F
100
AcDbEntity
  8
0
 67
0
100
AcDbVertex
100
AcDb2dVertex
 10
57.2495
 20
22.9265
 40
0.0
 41
0.0
 42
0.0
 70
0
  0
VERTEX
  5
55F
330
1F
100
AcDbEntity
  8
0
 67
0
100
AcDbVertex
100
AcDb2dVertex
 10
56.7942
 20
23.1396
 40
0.0
 41
0.0
 42
0.0
 70
0
  0
VERTEX
  5
560
330
1F
100
AcDbEntity
  8
0
 67
0
100
AcDbVertex
100
AcDb2dVertex
 10
56.5178
 20
23.6182
 40
0.0
 41
0.0
 42
0.0
 70
0
  0
VERTEX
  5
561
330
1F
100
AcDbEntity
  8
0
 67
0
100
AcDbVertex
100
AcDb2dVertex
 10
55.7484
 20
24.4727
 40
0.0
 41
0.0
 42
0.0
 70
0
  0
VERTEX
  5
562
330
1F
100
AcDbEntity
  8
0
 67
0
100
AcDbVertex
100
AcDb2dVertex
 10
54.8182
 20
25.1486
 40
0.0
 41
0.0
 42
0.0
 70
0
  0
VERTEX
  5
563
330
1F
100
AcDbEntity
  8
0
 67
0
100
AcDbVertex
100
AcDb2dVertex
 10
53.7678
 20
25.6162
 40
0.0
 41
0.0
 42
0.0
 70
0
  0
VERTEX
  5
564
330
1F
100
AcDbEntity
  8
0
 67
0
100
AcDbVertex
100
AcDb2dVertex
 10
52.6431
 20
25.8553
 40
0.0
 41
0.0
 42
0.0
 70
0
  0
VERTEX
  5
565
330
1F
100
AcDbEntity
  8
0
 67
0
100
AcDbVertex
100
AcDb2dVertex
 10
51.4933
 20
25.8553
 40
0.0
 41
0.0
 42
0.0
 70
0
  0
VERTEX
  5
566
330
1F
100
AcDbEntity
  8
0
 67
0
100
AcDbVertex
100
AcDb2dVertex
 10
50.3686
 20
25.6162
 40
0.0
 41
0.0
 42
0.0
 70
0
  0
VERTEX
  5
567
330
1F
100
AcDbEntity
  8
0
 67
0
100
AcDbVertex
100
AcDb2dVertex
 10
49.3182
 20
25.1486
 40
0.0
 41
0.0
 42
0.0
 70
0
  0
VERTEX
  5
568
330
1F
100
AcDbEntity
  8
0
 67
0
100
AcDbVertex
100
AcDb2dVertex
 10
48.388
 20
24.4727
 40
0.0
 41
0.0
 42
0.0
 70
0
  0
VERTEX
  5
569
330
1F
100
AcDbEntity
  8
0
 67
0
100
AcDbVertex
100
AcDb2dVertex
 10
47.6186
 20
23.6182
 40
0.0
 41
0.0
 42
0.0
 70
0
  0
VERTEX
  5
56A
330
1F
100
AcDbEntity
  8
0
 67
0
100
AcDbVertex
100
AcDb2dVertex
 10
47.0437
 20
22.6225
 40
0.0
 41
0.0
 42
0.0
 70
0
  0
VERTEX
  5
56B
330
1F
100
AcDbEntity
  8
0
 67
0
100
AcDbVertex
100
AcDb2dVertex
 10
46.6884
 20
21.5289
 40
0.0
 41
0.0
 42
0.0
 70
0
  0
VERTEX
  5
56C
330
1F
100
AcDbEntity
  8
0
 67
0
100
AcDbVertex
100
AcDb2dVertex
 10
46.5682
 20
20.3854
 40
0.0
 41
0.0
 42
0.0
 70
0
  0
VERTEX
  5
56D
330
1F
100
AcDbEntity
  8
0
 67
0
100
AcDbVertex
100
AcDb2dVertex
 10
46.6884
 20
19.2419
 40
0.0
 41
0.0
 42
0.0
 70
0
  0
VERTEX
  5
56E
330
1F
100
AcDbEntity
  8
0
 67
0
100
AcDbVertex
100
AcDb2dVertex
 10
46.8773
 20
18.6605
 40
0.0
 41
0.0
 42
0.0
 70
0
  0
VERTEX
  5
56F
330
1F
100
AcDbEntity
  8
0
 67
0
100
AcDbVertex
100
AcDb2dVertex
 10
43.6297
 20
16.3174
 40
0.0
 41
0.0
 42
0.0
 70
0
  0
VERTEX
  5
570
330
1F
100
AcDbEntity
  8
0
 67
0
100
AcDbVertex
100
AcDb2dVertex
 10
42.5602
 20
15.423
 40
0.0
 41
0.0
 42
0.0
 70
0
  0
VERTEX
  5
571
330
1F
100
AcDbEntity
  8
0
 67
0
100
AcDbVertex
100
AcDb2dVertex
 10
40.9609
 20
14.1649
 40
0.0
 41
0.0
 42
0.0
 70
0
  0
VERTEX
  5
572
330
1F
100
AcDbEntity
  8
0
 67
0
100
AcDbVertex
100
AcDb2dVertex
 10
39.5438
 20
13.1347
 40
0.0
 41
0.0
 42
0.0
 70
0
  0
VERTEX
  5
573
330
1F
100
AcDbEntity
  8
0
 67
0
100
AcDbVertex
100
AcDb2dVertex
 10
38.4204
 20
12.2776
 40
0.0
 41
0.0
 42
0.0
 70
0
  0
VERTEX
  5
574
330
1F
100
AcDbEntity
  8
0
 67
0
100
AcDbVertex
100
AcDb2dVertex
 10
35.7241
 20
10.3904
 40
0.0
 41
0.0
 42
0.0
 70
0
  0
VERTEX
  5
575
330
1F
100
AcDbEntity
  8
0
 67
0
100
AcDbVertex
100
AcDb2dVertex
 10
34.7769
 20
9.84358
 40
0.0
 41
0.0
 42
0.0
 70
0
  0
VERTEX
  5
576
330
1F
100
AcDbEntity
  8
0
 67
0
100
AcDbVertex
100
AcDb2dVertex
 10
34.0959
 20
9.66422
 40
0.0
 41
0.0
 42
0.0
 70
0
  0
VERTEX
  5
577
330
1F
100
AcDbEntity
  8
0
 67
0
100
AcDbVertex
100
AcDb2dVertex
 10
33.4149
 20
9.8242
 40
0.0
 41
0.0
 42
0.0
 70
0
  0
VERTEX
  5
578
330
1F
100
AcDbEntity
  8
0
 67
0
100
AcDbVertex
100
AcDb2dVertex
 10
32.7339
 20
10.308
 40
0.0
 41
0.0
 42
0.0
 70
0
  0
VERTEX
  5
579
330
1F
100
AcDbEntity
  8
0
 67
0
100
AcDbVertex
100
AcDb2dVertex
 10
32.2405
 20
11.0195
 40
0.0
 41
0.0
 42
0.0
 70
0
  0
VERTEX
  5
57A
330
1F
100
AcDbEntity
  8
0
 67
0
100
AcDbVertex
100
AcDb2dVertex
 10
31.2429
 20
12.2776
 40
0.0
 41
0.0
 42
0.0
 70
0
  0
VERTEX
  5
57B
330
1F
100
AcDbEntity
  8
0
 67
0
100
AcDbVertex
100
AcDb2dVertex
 10
30.4274
 20
13.5358
 40
0.0
 41
0.0
 42
0.0
 70
0
  0
VERTEX
  5
57C
330
1F
100
AcDbEntity
  8
0
 67
0
100
AcDbVertex
100
AcDb2dVertex
 10
29.3289
 20
15.3166
 40
0.0
 41
0.0
 42
0.0
 70
0
  0
VERTEX
  5
57D
330
1F
100
AcDbEntity
  8
0
 67
0
100
AcDbVertex
100
AcDb2dVertex
 10
28.9423
 20
16.0521
 40
0.0
 41
0.0
 42
0.0
 70
0
  0
VERTEX
  5
57E
330
1F
100
AcDbEntity
  8
0
 67
0
100
AcDbVertex
100
AcDb2dVertex
 10
27.967
 20
17.6859
 40
0.0
 41
0.0
 42
0.0
 70
0
  0
VERTEX
  5
57F
330
1F
100
AcDbEntity
  8
0
 67
0
100
AcDbVertex
100
AcDb2dVertex
 10
27.286
 20
18.8413
 40
0.0
 41
0.0
 42
0.0
 70
0
  0
VERTEX
  5
580
330
1F
100
AcDbEntity
  8
0
 67
0
100
AcDbVertex
100
AcDb2dVertex
 10
26.8853
 20
19.8265
 40
0.0
 41
0.0
 42
0.0
 70
0
  0
VERTEX
  5
581
330
1F
100
AcDbEntity
  8
0
 67
0
100
AcDbVertex
100
AcDb2dVertex
 10
26.2531
 20
21.0847
 40
0.0
 41
0.0
 42
0.0
 70
0
  0
VERTEX
  5
582
330
1F
100
AcDbEntity
  8
0
 67
0
100
AcDbVertex
100
AcDb2dVertex
 10
25.6991
 20
22.3428
 40
0.0
 41
0.0
 42
0.0
 70
0
  0
VERTEX
  5
583
330
1F
100
AcDbEntity
  8
0
 67
0
100
AcDbVertex
100
AcDb2dVertex
 10
25.385
 20
22.9912
 40
0.0
 41
0.0
 42
0.0
 70
0
  0
VERTEX
  5
584
330
1F
100
AcDbEntity
  8
0
 67
0
100
AcDbVertex
100
AcDb2dVertex
 10
25.5245
 20
23.2328
 40
0.0
 41
0.0
 42
0.0
 70
0
  0
VERTEX
  5
585
330
1F
100
AcDbEntity
  8
0
 67
0
100
AcDbVertex
100
AcDb2dVertex
 10
25.8798
 20
24.3264
 40
0.0
 41
0.0
 42
0.0
 70
0
  0
VERTEX
  5
586
330
1F
100
AcDbEntity
  8
0
 67
0
100
AcDbVertex
100
AcDb2dVertex
 10
26.0
 20
25.4699
 40
0.0
 41
0.0
 42
0.0
 70
0
  0
VERTEX
  5
587
330
1F
100
AcDbEntity
  8
0
 67
0
100
AcDbVertex
100
AcDb2dVertex
 10
25.8798
 20
26.6134
 40
0.0
 41
0.0
 42
0.0
 70
0
  0
VERTEX
  5
588
330
1F
100
AcDbEntity
  8
0
 67
0
100
AcDbVertex
100
AcDb2dVertex
 10
25.5245
 20
27.7069
 40
0.0
 41
0.0
 42
0.0
 70
0
  0
VERTEX
  5
589
330
1F
100
AcDbEntity
  8
0
 67
0
100
AcDbVertex
100
AcDb2dVertex
 10
24.9496
 20
28.7027
 40
0.0
 41
0.0
 42
0.0
 70
0
  0
VERTEX
  5
58A
330
1F
100
AcDbEntity
  8
0
 67
0
100
AcDbVertex
100
AcDb2dVertex
 10
24.1802
 20
29.5572
 40
0.0
 41
0.0
 42
0.0
 70
0
  0
VERTEX
  5
58B
330
1F
100
AcDbEntity
  8
0
 67
0
100
AcDbVertex
100
AcDb2dVertex
 10
23.25
 20
30.233
 40
0.0
 41
0.0
 42
0.0
 70
0
  0
VERTEX
  5
58C
330
1F
100
AcDbEntity
  8
0
 67
0
100
AcDbVertex
100
AcDb2dVertex
 10
22.1996
 20
30.7007
 40
0.0
 41
0.0
 42
0.0
 70
0
  0
VERTEX
  5
58D
330
1F
100
AcDbEntity
  8
0
 67
0
100
AcDbVertex
100
AcDb2dVertex
 10
21.0749
 20
30.9398
 40
0.0
 41
0.0
 42
0.0
 70
0
  0
VERTEX
  5
58E
330
1F
100
AcDbEntity
  8
0
 67
0
100
AcDbVertex
100
AcDb2dVertex
 10
19.9251
 20
30.9398
 40
0.0
 41
0.0
 42
0.0
 70
0
  0
VERTEX
  5
58F
330
1F
100
AcDbEntity
  8
0
 67
0
100
AcDbVertex
100
AcDb2dVertex
 10
19.8151
 20
30.9164
 40
0.0
 41
0.0
 42
0.0
 70
0
  0
VERTEX
  5
590
330
1F
100
AcDbEntity
  8
0
 67
0
100
AcDbVertex
100
AcDb2dVertex
 10
19.7951
 20
30.9193
 40
0.0
 41
0.0
 42
0.0
 70
0
  0
VERTEX
  5
591
330
1F
100
AcDbEntity
  8
0
 67
0
100
AcDbVertex
100
AcDb2dVertex
 10
19.1141
 20
30.9398
 40
0.0
 41
0.0
 42
0.0
 70
0
  0
VERTEX
  5
592
330
1F
100
AcDbEntity
  8
0
 67
0
100
AcDbVertex
100
AcDb2dVertex
 10
17.7521
 20
30.7598
 40
0.0
 41
0.0
 42
0.0
 70
0
  0
VERTEX
  5
593
330
1F
100
AcDbEntity
  8
0
 67
0
100
AcDbVertex
100
AcDb2dVertex
 10
17.1766
 20
30.5208
 40
0.0
 41
0.0
 42
0.0
 70
0
  0
VERTEX
  5
594
330
1F
100
AcDbEntity
  8
0
 67
0
100
AcDbVertex
100
AcDb2dVertex
 10
15.7092
 20
29.4073
 40
0.0
 41
0.0
 42
0.0
 70
0
  0
VERTEX
  5
595
330
1F
100
AcDbEntity
  8
0
 67
0
100
AcDbVertex
100
AcDb2dVertex
 10
10.9422
 20
25.1907
 40
0.0
 41
0.0
 42
0.0
 70
0
  0
VERTEX
  5
596
330
1F
100
AcDbEntity
  8
0
 67
0
100
AcDbVertex
100
AcDb2dVertex
 10
8.89929
 20
23.1232
 40
0.0
 41
0.0
 42
0.0
 70
0
  0
VERTEX
  5
597
330
1F
100
AcDbEntity
  8
0
 67
0
100
AcDbVertex
100
AcDb2dVertex
 10
8.36206
 20
22.3428
 40
0.0
 41
0.0
 42
0.0
 70
0
  0
VERTEX
  5
598
330
1F
100
AcDbEntity
  8
0
 67
0
100
AcDbVertex
100
AcDb2dVertex
 10
7.53731
 20
21.4339
 40
0.0
 41
0.0
 42
0.0
 70
0
  0
VERTEX
  5
599
330
1F
100
AcDbEntity
  8
0
 67
0
100
AcDbVertex
100
AcDb2dVertex
 10
6.67068
 20
20.4556
 40
0.0
 41
0.0
 42
0.0
 70
0
  0
VERTEX
  5
59A
330
1F
100
AcDbEntity
  8
0
 67
0
100
AcDbVertex
100
AcDb2dVertex
 10
4.86961
 20
17.9393
 40
0.0
 41
0.0
 42
0.0
 70
0
  0
VERTEX
  5
59B
330
1F
100
AcDbEntity
  8
0
 67
0
100
AcDbVertex
100
AcDb2dVertex
 10
3.79507
 20
16.6812
 40
0.0
 41
0.0
 42
0.0
 70
0
  0
VERTEX
  5
59C
330
1F
100
AcDbEntity
  8
0
 67
0
100
AcDbVertex
100
AcDb2dVertex
 10
1.29466
 20
12.9067
 40
0.0
 41
0.0
 42
0.0
 70
0
  0
VERTEX
  5
59D
330
1F
100
AcDbEntity
  8
0
 67
0
100
AcDbVertex
100
AcDb2dVertex
 10
0.525894
 20
11.0195
 40
0.0
 41
0.0
 42
0.0
 70
0
  0
VERTEX
  5
59E
330
1F
100
AcDbEntity
  8
0
 67
0
100
AcDbVertex
100
AcDb2dVertex
 10
0.383774
 20
10.3904
 40
0.0
 41
0.0
 42
0.0
 70
0
  0
VERTEX
  5
59F
330
1F
100
AcDbEntity
  8
0
 67
0
100
AcDbVertex
100
AcDb2dVertex
 10
0.0
 20
8.50317
 40
0.0
 41
0.0
 42
0.0
 70
0
  0
VERTEX
  5
5A0
330
1F
100
AcDbEntity
  8
0
 67
0
100
AcDbVertex
100
AcDb2dVertex
 10
0.245468
 20
6.99902
 40
0.0
 41
0.0
 42
0.0
 70
0
  0
VERTEX
  5
5A1
330
1F
100
AcDbEntity
  8
0
 67
0
100
AcDbVertex
100
AcDb2dVertex
 10
0.120178
 20
6.6134
 40
0.0
 41
0.0
 42
0.0
 70
0
  0
VERTEX
  5
5A2
330
1F
100
AcDbEntity
  8
0
 67
0
100
AcDbVertex
100
AcDb2dVertex
 10
0.0
 20
5.46989
 40
0.0
 41
0.0
 42
0.0
 70
0
  0
VERTEX
  5
5A3
330
1F
100
AcDbEntity
  8
0
 67
0
100
AcDbVertex
100
AcDb2dVertex
 10
0.120178
 20
4.32639
 40
0.0
 41
0.0
 42
0.0
 70
0
  0
VERTEX
  5
5A4
330
1F
100
AcDbEntity
  8
0
 67
0
100
AcDbVertex
100
AcDb2dVertex
 10
0.475494
 20
3.23285
 40
0.0
 41
0.0
 42
0.0
 70
0
  0
VERTEX
  5
5A5
330
1F
100
AcDbEntity
  8
0
 67
0
100
AcDbVertex
100
AcDb2dVertex
 10
1.0504
 20
2.23708
 40
0.0
 41
0.0
 42
0.0
 70
0
  0
VERTEX
  5
5A6
330
1F
100
AcDbEntity
  8
0
 67
0
100
AcDbVertex
100
AcDb2dVertex
 10
1.81978
 20
1.3826
 40
0.0
 41
0.0
 42
0.0
 70
0
  0
VERTEX
  5
5A7
330
1F
100
AcDbEntity
  8
0
 67
0
100
AcDbVertex
100
AcDb2dVertex
 10
2.75
 20
0.706757
 40
0.0
 41
0.0
 42
0.0
 70
0
  0
VERTEX
  5
5A8
330
1F
100
AcDbEntity
  8
0
 67
0
100
AcDbVertex
100
AcDb2dVertex
 10
3.8004
 20
0.23909
 40
0.0
 41
0.0
 42
0.0
 70
0
  0
VERTEX
  5
5A9
330
1F
100
AcDbEntity
  8
0
 67
0
100
AcDbVertex
100
AcDb2dVertex
 10
4.92508
 20
1.52588e-05
 40
0.0
 41
0.0
 42
0.0
 70
0
  0
VERTEX
  5
5AA
330
1F
100
AcDbEntity
  8
0
 67
0
100
AcDbVertex
100
AcDb2dVertex
 10
6.07491
 20
1.52588e-05
 40
0.0
 41
0.0
 42
0.0
 70
0
  0
VERTEX
  5
5AB
330
1F
100
AcDbEntity
  8
0
 67
0
100
AcDbVertex
100
AcDb2dVertex
 10
6.84076
 20
0.162811
 40
0.0
 41
0.0
 42
0.0
 70
0
  0
VERTEX
  5
5AC
330
1F
100
AcDbEntity
  8
0
 67
0
100
AcDbVertex
100
AcDb2dVertex
 10
6.85632
 20
0.156372
 40
0.0
 41
0.0
 42
0.0
 70
0
  0
VERTEX
  5
5AD
330
1F
100
AcDbEntity
  8
0
 67
0
100
AcDbVertex
100
AcDb2dVertex
 10
7.53731
 20
0.0252533
 40
0.0
 41
0.0
 42
0.0
 70
0
  0
VERTEX
  5
5AE
330
1F
100
AcDbEntity
  8
0
 67
0
100
AcDbVertex
100
AcDb2dVertex
 10
29.3289
 20
0.0
 40
0.0
 41
0.0
 42
0.0
 70
0
  0
VERTEX
  5
5AF
330
1F
100
AcDbEntity
  8
0
 67
0
100
AcDbVertex
100
AcDb2dVertex
 10
30.6909
 20
0.055191
 40
0.0
 41
0.0
 42
0.0
 70
0
  0
SEQEND
  5
549
330
0
100
AcDbEntity
 67
0
  0
POLYLINE
  5
5B0
330
1F
100
AcDbEntity
  8
layer_400
 67
0
100
AcDb2dPolyline
 66
1
 70
0
 10
0.0
 20
0.0
 30
0.0
  0
VERTEX
  5
5B2
330
1F
100
AcDbEntity
  8
0
 67
0
100
AcDbVertex
100
AcDb2dVertex
 10
22.5191
 20
6.91486
 40
0.0
 41
0.0
 42
0.0
 70
0
  0
VERTEX
  5
5B3
330
1F
100
AcDbEntity
  8
0
 67
0
100
AcDbVertex
100
AcDb2dVertex
 10
21.8381
 20
6.9361
 40
0.0
 41
0.0
 42
0.0
 70
0
  0
VERTEX
  5
5B4
330
1F
100
AcDbEntity
  8
0
 67
0
100
AcDbVertex
100
AcDb2dVertex
 10
21.1571
 20
6.94652
 40
0.0
 41
0.0
 42
0.0
 70
0
  0
VERTEX
  5
5B5
330
1F
100
AcDbEntity
  8
0
 67
0
100
AcDbVertex
100
AcDb2dVertex
 10
20.4761
 20
6.9472
 40
0.0
 41
0.0
 42
0.0
 70
0
  0
VERTEX
  5
5B6
330
1F
100
AcDbEntity
  8
0
 67
0
100
AcDbVertex
100
AcDb2dVertex
 10
19.7951
 20
6.94398
 40
0.0
 41
0.0
 42
0.0
 70
0
  0
VERTEX
  5
5B7
330
1F
100
AcDbEntity
  8
0
 67
0
100
AcDbVertex
100
AcDb2dVertex
 10
18.4331
 20
6.93315
 40
0.0
 41
0.0
 42
0.0
 70
0
  0
VERTEX
  5
5B8
330
1F
100
AcDbEntity
  8
0
 67
0
100
AcDbVertex
100
AcDb2dVertex
 10
16.3902
 20
6.91295
 40
0.0
 41
0.0
 42
0.0
 70
0
  0
VERTEX
  5
5B9
330
1F
100
AcDbEntity
  8
0
 67
0
100
AcDbVertex
100
AcDb2dVertex
 10
15.7092
 20
6.91576
 40
0.0
 41
0.0
 42
0.0
 70
0
  0
VERTEX
  5
5BA
330
1F
100
AcDbEntity
  8
0
 67
0
100
AcDbVertex
100
AcDb2dVertex
 10
15.0282
 20
6.96104
 40
0.0
 41
0.0
 42
0.0
 70
0
  0
VERTEX
  5
5BB
330
1F
100
AcDbEntity
  8
0
 67
0
100
AcDbVertex
100
AcDb2dVertex
 10
14.3472
 20
7.1824
 40
0.0
 41
0.0
 42
0.0
 70
0
  0
VERTEX
  5
5BC
330
1F
100
AcDbEntity
  8
0
 67
0
100
AcDbVertex
100
AcDb2dVertex
 10
14.2674
 20
7.24503
 40
0.0
 41
0.0
 42
0.0
 70
0
  0
VERTEX
  5
5BD
330
1F
100
AcDbEntity
  8
0
 67
0
100
AcDbVertex
100
AcDb2dVertex
 10
13.951
 20
7.8741
 40
0.0
 41
0.0
 42
0.0
 70
0
  0
VERTEX
  5
5BE
330
1F
100
AcDbEntity
  8
0
 67
0
100
AcDbVertex
100
AcDb2dVertex
 10
14.0266
 20
8.50317
 40
0.0
 41
0.0
 42
0.0
 70
0
  0
VERTEX
  5
5BF
330
1F
100
AcDbEntity
  8
0
 67
0
100
AcDbVertex
100
AcDb2dVertex
 10
14.2307
 20
9.13225
 40
0.0
 41
0.0
 42
0.0
 70
0
  0
VERTEX
  5
5C0
330
1F
100
AcDbEntity
  8
0
 67
0
100
AcDbVertex
100
AcDb2dVertex
 10
14.3472
 20
9.39439
 40
0.0
 41
0.0
 42
0.0
 70
0
  0
VERTEX
  5
5C1
330
1F
100
AcDbEntity
  8
0
 67
0
100
AcDbVertex
100
AcDb2dVertex
 10
14.496
 20
9.76132
 40
0.0
 41
0.0
 42
0.0
 70
0
  0
VERTEX
  5
5C2
330
1F
100
AcDbEntity
  8
0
 67
0
100
AcDbVertex
100
AcDb2dVertex
 10
14.6745
 20
10.3904
 40
0.0
 41
0.0
 42
0.0
 70
0
  0
VERTEX
  5
5C3
330
1F
100
AcDbEntity
  8
0
 67
0
100
AcDbVertex
100
AcDb2dVertex
 10
14.8985
 20
11.0195
 40
0.0
 41
0.0
 42
0.0
 70
0
  0
VERTEX
  5
5C4
330
1F
100
AcDbEntity
  8
0
 67
0
100
AcDbVertex
100
AcDb2dVertex
 10
15.0282
 20
11.2488
 40
0.0
 41
0.0
 42
0.0
 70
0
  0
VERTEX
  5
5C5
330
1F
100
AcDbEntity
  8
0
 67
0
100
AcDbVertex
100
AcDb2dVertex
 10
15.2483
 20
11.6485
 40
0.0
 41
0.0
 42
0.0
 70
0
  0
VERTEX
  5
5C6
330
1F
100
AcDbEntity
  8
0
 67
0
100
AcDbVertex
100
AcDb2dVertex
 10
15.5468
 20
12.2776
 40
0.0
 41
0.0
 42
0.0
 70
0
  0
VERTEX
  5
5C7
330
1F
100
AcDbEntity
  8
0
 67
0
100
AcDbVertex
100
AcDb2dVertex
 10
15.7092
 20
12.5577
 40
0.0
 41
0.0
 42
0.0
 70
0
  0
VERTEX
  5
5C8
330
1F
100
AcDbEntity
  8
0
 67
0
100
AcDbVertex
100
AcDb2dVertex
 10
15.919
 20
12.9067
 40
0.0
 41
0.0
 42
0.0
 70
0
  0
VERTEX
  5
5C9
330
1F
100
AcDbEntity
  8
0
 67
0
100
AcDbVertex
100
AcDb2dVertex
 10
16.3902
 20
13.7651
 40
0.0
 41
0.0
 42
0.0
 70
0
  0
VERTEX
  5
5CA
330
1F
100
AcDbEntity
  8
0
 67
0
100
AcDbVertex
100
AcDb2dVertex
 10
16.596
 20
14.1649
 40
0.0
 41
0.0
 42
0.0
 70
0
  0
VERTEX
  5
5CB
330
1F
100
AcDbEntity
  8
0
 67
0
100
AcDbVertex
100
AcDb2dVertex
 10
16.8808
 20
14.7939
 40
0.0
 41
0.0
 42
0.0
 70
0
  0
VERTEX
  5
5CC
330
1F
100
AcDbEntity
  8
0
 67
0
100
AcDbVertex
100
AcDb2dVertex
 10
17.0712
 20
15.1142
 40
0.0
 41
0.0
 42
0.0
 70
0
  0
VERTEX
  5
5CD
330
1F
100
AcDbEntity
  8
0
 67
0
100
AcDbVertex
100
AcDb2dVertex
 10
17.2599
 20
15.423
 40
0.0
 41
0.0
 42
0.0
 70
0
  0
VERTEX
  5
5CE
330
1F
100
AcDbEntity
  8
0
 67
0
100
AcDbVertex
100
AcDb2dVertex
 10
17.7521
 20
16.3643
 40
0.0
 41
0.0
 42
0.0
 70
0
  0
VERTEX
  5
5CF
330
1F
100
AcDbEntity
  8
0
 67
0
100
AcDbVertex
100
AcDb2dVertex
 10
17.9141
 20
16.6812
 40
0.0
 41
0.0
 42
0.0
 70
0
  0
VERTEX
  5
5D0
330
1F
100
AcDbEntity
  8
0
 67
0
100
AcDbVertex
100
AcDb2dVertex
 10
18.1758
 20
17.3102
 40
0.0
 41
0.0
 42
0.0
 70
0
  0
VERTEX
  5
5D1
330
1F
100
AcDbEntity
  8
0
 67
0
100
AcDbVertex
100
AcDb2dVertex
 10
18.4331
 20
17.8062
 40
0.0
 41
0.0
 42
0.0
 70
0
  0
VERTEX
  5
5D2
330
1F
100
AcDbEntity
  8
0
 67
0
100
AcDbVertex
100
AcDb2dVertex
 10
18.5092
 20
17.9393
 40
0.0
 41
0.0
 42
0.0
 70
0
  0
VERTEX
  5
5D3
330
1F
100
AcDbEntity
  8
0
 67
0
100
AcDbVertex
100
AcDb2dVertex
 10
18.8389
 20
18.5684
 40
0.0
 41
0.0
 42
0.0
 70
0
  0
VERTEX
  5
5D4
330
1F
100
AcDbEntity
  8
0
 67
0
100
AcDbVertex
100
AcDb2dVertex
 10
19.1141
 20
19.1313
 40
0.0
 41
0.0
 42
0.0
 70
0
  0
VERTEX
  5
5D5
330
1F
100
AcDbEntity
  8
0
 67
0
100
AcDbVertex
100
AcDb2dVertex
 10
19.149
 20
19.1974
 40
0.0
 41
0.0
 42
0.0
 70
0
  0
VERTEX
  5
5D6
330
1F
100
AcDbEntity
  8
0
 67
0
100
AcDbVertex
100
AcDb2dVertex
 10
19.4371
 20
19.8265
 40
0.0
 41
0.0
 42
0.0
 70
0
  0
VERTEX
  5
5D7
330
1F
100
AcDbEntity
  8
0
 67
0
100
AcDbVertex
100
AcDb2dVertex
 10
19.5583
 20
20.078
 40
0.0
 41
0.0
 42
0.0
 70
0
  0
VERTEX
  5
5D8
330
1F
100
AcDbEntity
  8
0
 67
0
100
AcDbVertex
100
AcDb2dVertex
 10
19.9251
 20
20.0
 40
0.0
 41
0.0
 42
0.0
 70
0
  0
VERTEX
  5
5D9
330
1F
100
AcDbEntity
  8
0
 67
0
100
AcDbVertex
100
AcDb2dVertex
 10
21.0749
 20
20.0
 40
0.0
 41
0.0
 42
0.0
 70
0
  0
VERTEX
  5
5DA
330
1F
100
AcDbEntity
  8
0
 67
0
100
AcDbVertex
100
AcDb2dVertex
 10
21.4777
 20
20.0856
 40
0.0
 41
0.0
 42
0.0
 70
0
  0
VERTEX
  5
5DB
330
1F
100
AcDbEntity
  8
0
 67
0
100
AcDbVertex
100
AcDb2dVertex
 10
21.5721
 20
19.8265
 40
0.0
 41
0.0
 42
0.0
 70
0
  0
VERTEX
  5
5DC
330
1F
100
AcDbEntity
  8
0
 67
0
100
AcDbVertex
100
AcDb2dVertex
 10
21.8381
 20
19.2711
 40
0.0
 41
0.0
 42
0.0
 70
0
  0
VERTEX
  5
5DD
330
1F
100
AcDbEntity
  8
0
 67
0
100
AcDbVertex
100
AcDb2dVertex
 10
21.8758
 20
19.1974
 40
0.0
 41
0.0
 42
0.0
 70
0
  0
VERTEX
  5
5DE
330
1F
100
AcDbEntity
  8
0
 67
0
100
AcDbVertex
100
AcDb2dVertex
 10
22.146
 20
18.5684
 40
0.0
 41
0.0
 42
0.0
 70
0
  0
VERTEX
  5
5DF
330
1F
100
AcDbEntity
  8
0
 67
0
100
AcDbVertex
100
AcDb2dVertex
 10
22.3629
 20
17.9393
 40
0.0
 41
0.0
 42
0.0
 70
0
  0
VERTEX
  5
5E0
330
1F
100
AcDbEntity
  8
0
 67
0
100
AcDbVertex
100
AcDb2dVertex
 10
22.5191
 20
17.5346
 40
0.0
 41
0.0
 42
0.0
 70
0
  0
VERTEX
  5
5E1
330
1F
100
AcDbEntity
  8
0
 67
0
100
AcDbVertex
100
AcDb2dVertex
 10
22.6076
 20
17.3102
 40
0.0
 41
0.0
 42
0.0
 70
0
  0
VERTEX
  5
5E2
330
1F
100
AcDbEntity
  8
0
 67
0
100
AcDbVertex
100
AcDb2dVertex
 10
22.8141
 20
16.6812
 40
0.0
 41
0.0
 42
0.0
 70
0
  0
VERTEX
  5
5E3
330
1F
100
AcDbEntity
  8
0
 67
0
100
AcDbVertex
100
AcDb2dVertex
 10
23.0373
 20
16.0521
 40
0.0
 41
0.0
 42
0.0
 70
0
  0
VERTEX
  5
5E4
330
1F
100
AcDbEntity
  8
0
 67
0
100
AcDbVertex
100
AcDb2dVertex
 10
23.3281
 20
15.423
 40
0.0
 41
0.0
 42
0.0
 70
0
  0
VERTEX
  5
5E5
330
1F
100
AcDbEntity
  8
0
 67
0
100
AcDbVertex
100
AcDb2dVertex
 10
23.5562
 20
14.7939
 40
0.0
 41
0.0
 42
0.0
 70
0
  0
VERTEX
  5
5E6
330
1F
100
AcDbEntity
  8
0
 67
0
100
AcDbVertex
100
AcDb2dVertex
 10
23.8111
 20
14.1649
 40
0.0
 41
0.0
 42
0.0
 70
0
  0
VERTEX
  5
5E7
330
1F
100
AcDbEntity
  8
0
 67
0
100
AcDbVertex
100
AcDb2dVertex
 10
23.881
 20
14.0134
 40
0.0
 41
0.0
 42
0.0
 70
0
  0
VERTEX
  5
5E8
330
1F
100
AcDbEntity
  8
0
 67
0
100
AcDbVertex
100
AcDb2dVertex
 10
24.0856
 20
13.5358
 40
0.0
 41
0.0
 42
0.0
 70
0
  0
VERTEX
  5
5E9
330
1F
100
AcDbEntity
  8
0
 67
0
100
AcDbVertex
100
AcDb2dVertex
 10
24.23
 20
12.9067
 40
0.0
 41
0.0
 42
0.0
 70
0
  0
VERTEX
  5
5EA
330
1F
100
AcDbEntity
  8
0
 67
0
100
AcDbVertex
100
AcDb2dVertex
 10
24.326
 20
12.2776
 40
0.0
 41
0.0
 42
0.0
 70
0
  0
VERTEX
  5
5EB
330
1F
100
AcDbEntity
  8
0
 67
0
100
AcDbVertex
100
AcDb2dVertex
 10
24.4648
 20
11.6485
 40
0.0
 41
0.0
 42
0.0
 70
0
  0
VERTEX
  5
5EC
330
1F
100
AcDbEntity
  8
0
 67
0
100
AcDbVertex
100
AcDb2dVertex
 10
24.6674
 20
11.0195
 40
0.0
 41
0.0
 42
0.0
 70
0
  0
VERTEX
  5
5ED
330
1F
100
AcDbEntity
  8
0
 67
0
100
AcDbVertex
100
AcDb2dVertex
 10
24.8038
 20
10.3904
 40
0.0
 41
0.0
 42
0.0
 70
0
  0
VERTEX
  5
5EE
330
1F
100
AcDbEntity
  8
0
 67
0
100
AcDbVertex
100
AcDb2dVertex
 10
24.8913
 20
9.76132
 40
0.0
 41
0.0
 42
0.0
 70
0
  0
VERTEX
  5
5EF
330
1F
100
AcDbEntity
  8
0
 67
0
100
AcDbVertex
100
AcDb2dVertex
 10
25.0219
 20
9.13225
 40
0.0
 41
0.0
 42
0.0
 70
0
  0
VERTEX
  5
5F0
330
1F
100
AcDbEntity
  8
0
 67
0
100
AcDbVertex
100
AcDb2dVertex
 10
25.2252
 20
8.50317
 40
0.0
 41
0.0
 42
0.0
 70
0
  0
VERTEX
  5
5F1
330
1F
100
AcDbEntity
  8
0
 67
0
100
AcDbVertex
100
AcDb2dVertex
 10
25.3282
 20
7.8741
 40
0.0
 41
0.0
 42
0.0
 70
0
  0
VERTEX
  5
5F2
330
1F
100
AcDbEntity
  8
0
 67
0
100
AcDbVertex
100
AcDb2dVertex
 10
25.243
 20
7.65971
 40
0.0
 41
0.0
 42
0.0
 70
0
  0
VERTEX
  5
5F3
330
1F
100
AcDbEntity
  8
0
 67
0
100
AcDbVertex
100
AcDb2dVertex
 10
24.9846
 20
7.24503
 40
0.0
 41
0.0
 42
0.0
 70
0
  0
VERTEX
  5
5F4
330
1F
100
AcDbEntity
  8
0
 67
0
100
AcDbVertex
100
AcDb2dVertex
 10
24.562
 20
7.01617
 40
0.0
 41
0.0
 42
0.0
 70
0
  0
VERTEX
  5
5F5
330
1F
100
AcDbEntity
  8
0
 67
0
100
AcDbVertex
100
AcDb2dVertex
 10
23.881
 20
6.91052
 40
0.0
 41
0.0
 42
0.0
 70
0
  0
VERTEX
  5
5F6
330
1F
100
AcDbEntity
  8
0
 67
0
100
AcDbVertex
100
AcDb2dVertex
 10
23.2
 20
6.89793
 40
0.0
 41
0.0
 42
0.0
 70
0
  0
VERTEX
  5
5F7
330
1F
100
AcDbEntity
  8
0
 67
0
100
AcDbVertex
100
AcDb2dVertex
 10
22.5191
 20
6.91486
 40
0.0
 41
0.0
 42
0.0
 70
0
  0
SEQEND
  5
5B1
330
0
100
AcDbEntity
 67
0
  0
POLYLINE
  5
5F8
330
1F
100
AcDbEntity
  8
layer_400
 67
0
100
AcDb2dPolyline
 66
1
 70
0
 10
0.0
 20
0.0
 30
0.0
  0
VERTEX
  5
5FA
330
1F
100
AcDbEntity
  8
0
 67
0
100
AcDbVertex
100
AcDb2dVertex
 10
29.1121
 20
7.8741
 40
0.0
 41
0.0
 42
0.0
 70
0
  0
VERTEX
  5
5FB
330
1F
100
AcDbEntity
  8
0
 67
0
100
AcDbVertex
100
AcDb2dVertex
 10
28.648
 20
8.24107
 40
0.0
 41
0.0
 42
0.0
 70
0
  0
VERTEX
  5
5FC
330
1F
100
AcDbEntity
  8
0
 67
0
100
AcDbVertex
100
AcDb2dVertex
 10
28.4424
 20
8.50317
 40
0.0
 41
0.0
 42
0.0
 70
0
  0
VERTEX
  5
5FD
330
1F
100
AcDbEntity
  8
0
 67
0
100
AcDbVertex
100
AcDb2dVertex
 10
27.967
 20
9.35265
 40
0.0
 41
0.0
 42
0.0
 70
0
  0
VERTEX
  5
5FE
330
1F
100
AcDbEntity
  8
0
 67
0
100
AcDbVertex
100
AcDb2dVertex
 10
27.7632
 20
9.76132
 40
0.0
 41
0.0
 42
0.0
 70
0
  0
VERTEX
  5
5FF
330
1F
100
AcDbEntity
  8
0
 67
0
100
AcDbVertex
100
AcDb2dVertex
 10
27.5001
 20
10.3904
 40
0.0
 41
0.0
 42
0.0
 70
0
  0
VERTEX
  5
600
330
1F
100
AcDbEntity
  8
0
 67
0
100
AcDbVertex
100
AcDb2dVertex
 10
27.286
 20
10.8742
 40
0.0
 41
0.0
 42
0.0
 70
0
  0
VERTEX
  5
601
330
1F
100
AcDbEntity
  8
0
 67
0
100
AcDbVertex
100
AcDb2dVertex
 10
27.2268
 20
11.0195
 40
0.0
 41
0.0
 42
0.0
 70
0
  0
VERTEX
  5
602
330
1F
100
AcDbEntity
  8
0
 67
0
100
AcDbVertex
100
AcDb2dVertex
 10
27.095
 20
11.6485
 40
0.0
 41
0.0
 42
0.0
 70
0
  0
VERTEX
  5
603
330
1F
100
AcDbEntity
  8
0
 67
0
100
AcDbVertex
100
AcDb2dVertex
 10
27.0879
 20
12.2776
 40
0.0
 41
0.0
 42
0.0
 70
0
  0
VERTEX
  5
604
330
1F
100
AcDbEntity
  8
0
 67
0
100
AcDbVertex
100
AcDb2dVertex
 10
27.1795
 20
12.9067
 40
0.0
 41
0.0
 42
0.0
 70
0
  0
VERTEX
  5
605
330
1F
100
AcDbEntity
  8
0
 67
0
100
AcDbVertex
100
AcDb2dVertex
 10
27.286
 20
13.1194
 40
0.0
 41
0.0
 42
0.0
 70
0
  0
VERTEX
  5
606
330
1F
100
AcDbEntity
  8
0
 67
0
100
AcDbVertex
100
AcDb2dVertex
 10
27.5191
 20
12.9067
 40
0.0
 41
0.0
 42
0.0
 70
0
  0
VERTEX
  5
607
330
1F
100
AcDbEntity
  8
0
 67
0
100
AcDbVertex
100
AcDb2dVertex
 10
27.967
 20
12.6781
 40
0.0
 41
0.0
 42
0.0
 70
0
  0
VERTEX
  5
608
330
1F
100
AcDbEntity
  8
0
 67
0
100
AcDbVertex
100
AcDb2dVertex
 10
28.2375
 20
12.2776
 40
0.0
 41
0.0
 42
0.0
 70
0
  0
VERTEX
  5
609
330
1F
100
AcDbEntity
  8
0
 67
0
100
AcDbVertex
100
AcDb2dVertex
 10
28.648
 20
11.7284
 40
0.0
 41
0.0
 42
0.0
 70
0
  0
VERTEX
  5
60A
330
1F
100
AcDbEntity
  8
0
 67
0
100
AcDbVertex
100
AcDb2dVertex
 10
28.7007
 20
11.6485
 40
0.0
 41
0.0
 42
0.0
 70
0
  0
VERTEX
  5
60B
330
1F
100
AcDbEntity
  8
0
 67
0
100
AcDbVertex
100
AcDb2dVertex
 10
29.0055
 20
11.0195
 40
0.0
 41
0.0
 42
0.0
 70
0
  0
VERTEX
  5
60C
330
1F
100
AcDbEntity
  8
0
 67
0
100
AcDbVertex
100
AcDb2dVertex
 10
29.315
 20
10.3904
 40
0.0
 41
0.0
 42
0.0
 70
0
  0
VERTEX
  5
60D
330
1F
100
AcDbEntity
  8
0
 67
0
100
AcDbVertex
100
AcDb2dVertex
 10
29.3289
 20
10.3688
 40
0.0
 41
0.0
 42
0.0
 70
0
  0
VERTEX
  5
60E
330
1F
100
AcDbEntity
  8
0
 67
0
100
AcDbVertex
100
AcDb2dVertex
 10
29.6625
 20
9.76132
 40
0.0
 41
0.0
 42
0.0
 70
0
  0
VERTEX
  5
60F
330
1F
100
AcDbEntity
  8
0
 67
0
100
AcDbVertex
100
AcDb2dVertex
 10
30.0129
 20
9.13225
 40
0.0
 41
0.0
 42
0.0
 70
0
  0
VERTEX
  5
610
330
1F
100
AcDbEntity
  8
0
 67
0
100
AcDbVertex
100
AcDb2dVertex
 10
30.1753
 20
8.50317
 40
0.0
 41
0.0
 42
0.0
 70
0
  0
VERTEX
  5
611
330
1F
100
AcDbEntity
  8
0
 67
0
100
AcDbVertex
100
AcDb2dVertex
 10
30.0099
 20
8.04967
 40
0.0
 41
0.0
 42
0.0
 70
0
  0
VERTEX
  5
612
330
1F
100
AcDbEntity
  8
0
 67
0
100
AcDbVertex
100
AcDb2dVertex
 10
29.7781
 20
7.8741
 40
0.0
 41
0.0
 42
0.0
 70
0
  0
VERTEX
  5
613
330
1F
100
AcDbEntity
  8
0
 67
0
100
AcDbVertex
100
AcDb2dVertex
 10
29.3289
 20
7.74077
 40
0.0
 41
0.0
 42
0.0
 70
0
  0
VERTEX
  5
614
330
1F
100
AcDbEntity
  8
0
 67
0
100
AcDbVertex
100
AcDb2dVertex
 10
29.1121
 20
7.8741
 40
0.0
 41
0.0
 42
0.0
 70
0
  0
SEQEND
  5
5F9
330
0
100
AcDbEntity
 67
0
  0
POLYLINE
  5
615
330
1F
100
AcDbEntity
  8
layer_400
 67
0
100
AcDb2dPolyline
 66
1
 70
0
 10
0.0
 20
0.0
 30
0.0
  0
VERTEX
  5
617
330
1F
100
AcDbEntity
  8
0
 67
0
100
AcDbVertex
100
AcDb2dVertex
 10
15.7092
 20
4.3083
 40
0.0
 41
0.0
 42
0.0
 70
0
  0
VERTEX
  5
618
330
1F
100
AcDbEntity
  8
0
 67
0
100
AcDbVertex
100
AcDb2dVertex
 10
15.0282
 20
4.38196
 40
0.0
 41
0.0
 42
0.0
 70
0
  0
VERTEX
  5
619
330
1F
100
AcDbEntity
  8
0
 67
0
100
AcDbVertex
100
AcDb2dVertex
 10
14.3472
 20
4.52197
 40
0.0
 41
0.0
 42
0.0
 70
0
  0
VERTEX
  5
61A
330
1F
100
AcDbEntity
  8
0
 67
0
100
AcDbVertex
100
AcDb2dVertex
 10
13.8934
 20
4.72873
 40
0.0
 41
0.0
 42
0.0
 70
0
  0
VERTEX
  5
61B
330
1F
100
AcDbEntity
  8
0
 67
0
100
AcDbVertex
100
AcDb2dVertex
 10
14.3472
 20
5.26674
 40
0.0
 41
0.0
 42
0.0
 70
0
  0
VERTEX
  5
61C
330
1F
100
AcDbEntity
  8
0
 67
0
100
AcDbVertex
100
AcDb2dVertex
 10
14.6412
 20
5.3578
 40
0.0
 41
0.0
 42
0.0
 70
0
  0
VERTEX
  5
61D
330
1F
100
AcDbEntity
  8
0
 67
0
100
AcDbVertex
100
AcDb2dVertex
 10
15.0282
 20
5.40041
 40
0.0
 41
0.0
 42
0.0
 70
0
  0
VERTEX
  5
61E
330
1F
100
AcDbEntity
  8
0
 67
0
100
AcDbVertex
100
AcDb2dVertex
 10
15.7092
 20
5.37451
 40
0.0
 41
0.0
 42
0.0
 70
0
  0
VERTEX
  5
61F
330
1F
100
AcDbEntity
  8
0
 67
0
100
AcDbVertex
100
AcDb2dVertex
 10
15.8361
 20
5.3578
 40
0.0
 41
0.0
 42
0.0
 70
0
  0
VERTEX
  5
620
330
1F
100
AcDbEntity
  8
0
 67
0
100
AcDbVertex
100
AcDb2dVertex
 10
16.3902
 20
5.24277
 40
0.0
 41
0.0
 42
0.0
 70
0
  0
VERTEX
  5
621
330
1F
100
AcDbEntity
  8
0
 67
0
100
AcDbVertex
100
AcDb2dVertex
 10
17.0712
 20
5.0983
 40
0.0
 41
0.0
 42
0.0
 70
0
  0
VERTEX
  5
622
330
1F
100
AcDbEntity
  8
0
 67
0
100
AcDbVertex
100
AcDb2dVertex
 10
17.7521
 20
4.98596
 40
0.0
 41
0.0
 42
0.0
 70
0
  0
VERTEX
  5
623
330
1F
100
AcDbEntity
  8
0
 67
0
100
AcDbVertex
100
AcDb2dVertex
 10
18.4331
 20
4.9015
 40
0.0
 41
0.0
 42
0.0
 70
0
  0
VERTEX
  5
624
330
1F
100
AcDbEntity
  8
0
 67
0
100
AcDbVertex
100
AcDb2dVertex
 10
19.1141
 20
4.83934
 40
0.0
 41
0.0
 42
0.0
 70
0
  0
VERTEX
  5
625
330
1F
100
AcDbEntity
  8
0
 67
0
100
AcDbVertex
100
AcDb2dVertex
 10
19.7951
 20
4.79672
 40
0.0
 41
0.0
 42
0.0
 70
0
  0
VERTEX
  5
626
330
1F
100
AcDbEntity
  8
0
 67
0
100
AcDbVertex
100
AcDb2dVertex
 10
20.4761
 20
4.77077
 40
0.0
 41
0.0
 42
0.0
 70
0
  0
VERTEX
  5
627
330
1F
100
AcDbEntity
  8
0
 67
0
100
AcDbVertex
100
AcDb2dVertex
 10
21.1571
 20
4.7524
 40
0.0
 41
0.0
 42
0.0
 70
0
  0
VERTEX
  5
628
330
1F
100
AcDbEntity
  8
0
 67
0
100
AcDbVertex
100
AcDb2dVertex
 10
21.774
 20
4.72873
 40
0.0
 41
0.0
 42
0.0
 70
0
  0
VERTEX
  5
629
330
1F
100
AcDbEntity
  8
0
 67
0
100
AcDbVertex
100
AcDb2dVertex
 10
21.1571
 20
4.6395
 40
0.0
 41
0.0
 42
0.0
 70
0
  0
VERTEX
  5
62A
330
1F
100
AcDbEntity
  8
0
 67
0
100
AcDbVertex
100
AcDb2dVertex
 10
20.4761
 20
4.57852
 40
0.0
 41
0.0
 42
0.0
 70
0
  0
VERTEX
  5
62B
330
1F
100
AcDbEntity
  8
0
 67
0
100
AcDbVertex
100
AcDb2dVertex
 10
19.7951
 20
4.51378
 40
0.0
 41
0.0
 42
0.0
 70
0
  0
VERTEX
  5
62C
330
1F
100
AcDbEntity
  8
0
 67
0
100
AcDbVertex
100
AcDb2dVertex
 10
19.1141
 20
4.43961
 40
0.0
 41
0.0
 42
0.0
 70
0
  0
VERTEX
  5
62D
330
1F
100
AcDbEntity
  8
0
 67
0
100
AcDbVertex
100
AcDb2dVertex
 10
18.4331
 20
4.37033
 40
0.0
 41
0.0
 42
0.0
 70
0
  0
VERTEX
  5
62E
330
1F
100
AcDbEntity
  8
0
 67
0
100
AcDbVertex
100
AcDb2dVertex
 10
17.7521
 20
4.3165
 40
0.0
 41
0.0
 42
0.0
 70
0
  0
VERTEX
  5
62F
330
1F
100
AcDbEntity
  8
0
 67
0
100
AcDbVertex
100
AcDb2dVertex
 10
17.0712
 20
4.28415
 40
0.0
 41
0.0
 42
0.0
 70
0
  0
VERTEX
  5
630
330
1F
100
AcDbEntity
  8
0
 67
0
100
AcDbVertex
100
AcDb2dVertex
 10
16.3902
 20
4.27867
 40
0.0
 41
0.0
 42
0.0
 70
0
  0
VERTEX
  5
631
330
1F
100
AcDbEntity
  8
0
 67
0
100
AcDbVertex
100
AcDb2dVertex
 10
15.7092
 20
4.3083
 40
0.0
 41
0.0
 42
0.0
 70
0
  0
SEQEND
  5
616
330
0
100
AcDbEntity
 67
0
  0
ENDSEC
  0
SECTION
  2
OBJECTS
  0
DICTIONARY
  5
C
330
0
100
AcDbDictionary
281
1
  3
ACAD_CIP_PREVIOUS_PRODUCT_INFO
350
4AD
  3
ACAD_COLOR
350
73
  3
ACAD_DETAILVIEWSTYLE
350
4A8
  3
ACAD_GROUP
350
D
  3
ACAD_LAYOUT
350
1A
  3
ACAD_MATERIAL
350
72
  3
ACAD_MLEADERSTYLE
350
D7
  3
ACAD_MLINESTYLE
350
17
  3
ACAD_PLOTSETTINGS
350
19
  3
ACAD_PLOTSTYLENAME
350
E
  3
ACAD_SCALELIST
350
B6
  3
ACAD_SECTIONVIEWSTYLE
350
4A6
  3
ACAD_TABLESTYLE
350
86
  3
ACAD_VISUALSTYLE
350
99
  3
ACDB_RECOMPOSE_DATA
350
4B2
  3
AcDbVariableDictionary
350
66
  0
DICTIONARY
  5
2A2
330
2
100
AcDbDictionary
280
1
281
1
  3
ACAD_LAYERSTATES
360
2A3
  0
DICTIONARY
  5
E6
330
10
100
AcDbDictionary
280
1
281
1
  0
DICTIONARY
  5
15D
330
1F
100
AcDbDictionary
280
1
281
1
  0
DICTIONARY
  5
28C
330
28B
100
AcDbDictionary
280
1
281
1
  3
ASDK_XREC_ANNOTATION_SCALE_INFO
360
28D
  0
DICTIONARY
  5
291
330
290
100
AcDbDictionary
280
1
281
1
  3
ASDK_XREC_ANNOTATION_SCALE_INFO
360
292
  0
XRECORD
  5
4AD
102
{ACAD_REACTORS
330
C
102
}
330
C
100
AcDbXrecord
280
1
300
STRDET
300
2013
300
REVSU_F_S
  0
DICTIONARY
  5
73
102
{ACAD_REACTORS
330
C
102
}
330
C
100
AcDbDictionary
281
1
  0
DICTIONARY
  5
4A8
102
{ACAD_REACTORS
330
C
102
}
330
C
100
AcDbDictionary
281
1
  3
Metric50
350
4A9
  0
DICTIONARY
  5
D
102
{ACAD_REACTORS
330
C
102
}
330
C
100
AcDbDictionary
281
1
  0
DICTIONARY
  5
1A
102
{ACAD_REACTORS
330
C
102
}
330
C
100
AcDbDictionary
281
1
  3
Layout1
350
59
  3
Model
350
22
  0
DICTIONARY
  5
72
102
{ACAD_REACTORS
330
C
102
}
330
C
100
AcDbDictionary
281
1
  3
ByBlock
350
97
  3
ByLayer
350
96
  3
Global
350
98
  0
DICTIONARY
  5
D7
102
{ACAD_REACTORS
330
C
102
}
330
C
100
AcDbDictionary
281
1
  3
Annotative
350
E5
  3
Civil-Metric
350
288
  3
Standard
350
D8
  0
DICTIONARY
  5
17
102
{ACAD_REACTORS
330
C
102
}
330
C
100
AcDbDictionary
281
1
  3
Standard
350
18
  0
DICTIONARY
  5
19
102
{ACAD_REACTORS
330
C
102
}
330
C
100
AcDbDictionary
281
1
  0
ACDBDICTIONARYWDFLT
  5
E
102
{ACAD_REACTORS
330
C
102
}
330
C
100
AcDbDictionary
281
1
  3
Normal
350
F
100
AcDbDictionaryWithDefault
340
F
  0
DICTIONARY
  5
B6
102
{ACAD_REACTORS
330
C
102
}
330
C
100
AcDbDictionary
281
1
  3
A0
350
B7
  3
A1
350
347
  3
A2
350
348
  3
A3
350
349
  3
A4
350
34A
  3
A5
350
34B
  3
A6
350
34C
  3
A7
350
34D
  3
A8
350
34E
  3
A9
350
34F
  3
B0
350
350
  3
B1
350
351
  3
B2
350
352
  3
B3
350
353
  3
B4
350
354
  3
B5
350
355
  3
B6
350
356
  0
DICTIONARY
  5
4A6
102
{ACAD_REACTORS
330
C
102
}
330
C
100
AcDbDictionary
281
1
  3
Metric50
350
4A7
  0
DICTIONARY
  5
86
102
{ACAD_REACTORS
330
C
102
}
330
C
100
AcDbDictionary
281
1
  3
Standard
350
87
  0
DICTIONARY
  5
99
102
{ACAD_REACTORS
330
C
102
}
330
C
100
AcDbDictionary
281
1
  3
2dWireframe
350
9F
  3
3D Hidden
350
A1
  3
3dWireframe
350
A0
  3
Basic
350
9E
  3
Brighten
350
A5
  3
ColorChange
350
A9
  3
Conceptual
350
A2
  3
Dim
350
A4
  3
EdgeColorOff
350
3B8
  3
Facepattern
350
A8
  3
Flat
350
9A
  3
FlatWithEdges
350
9B
  3
Gouraud
350
9C
  3
GouraudWithEdges
350
9D
  3
Hidden
350
4A0
  3
JitterOff
350
3B6
  3
Linepattern
350
A7
  3
OverhangOff
350
3B7
  3
Realistic
350
A3
  3
Shaded
350
4A5
  3
Shaded with edges
350
4A4
  3
Shades of Gray
350
4A1
  3
Sketchy
350
4A2
  3
Thicken
350
A6
  3
Wireframe
350
49F
  3
X-Ray
350
4A3
  0
XRECORD
  5
4B2
102
{ACAD_REACTORS
330
C
102
}
330
C
100
AcDbXrecord
280
1
 90
1
330
87
  0
DICTIONARY
  5
66
102
{ACAD_REACTORS
330
C
102
}
330
C
100
AcDbDictionary
281
1
  3
ANNOALLVISIBLE
350
38E
  3
CANNOSCALE
350
F0
  3
CMLEADERSTYLE
350
EF
  3
CTABLESTYLE
350
89
  3
CVIEWDETAILSTYLE
350
4AE
  3
CVIEWSECTIONSTYLE
350
4AF
  3
DIMASSOC
350
67
  3
HIDETEXT
350
6B
  3
INDEXCTL
350
3D2
  3
LAYEREVAL
350
14D
  3
LAYERNOTIFY
350
14E
  3
LIGHTINGUNITS
350
38F
  3
MSLTSCALE
350
3D0
  3
SORTENTS
350
3D1
  3
XCLIPFRAME
350
3D3
  0
DICTIONARY
  5
2A3
102
{ACAD_REACTORS
330
2A2
102
}
330
2A2
100
AcDbDictionary
281
1
  0
XRECORD
  5
28D
102
{ACAD_REACTORS
330
28C
102
}
330
28C
100
AcDbXrecord
280
1
 90
1
340
B7
  0
XRECORD
  5
292
102
{ACAD_REACTORS
330
291
102
}
330
291
100
AcDbXrecord
280
1
 90
1
340
B7
  0
ACDBDETAILVIEWSTYLE
  5
4A9
102
{ACAD_REACTORS
330
4A8
102
}
330
4A8
100
AcDbModelDocViewStyle
 70
0
  3
Metric50
290
0
100
AcDbDetailViewStyle
 70
0
 71
0
 90
3
 71
1
340
11
 62
256
 40
5.0
340
0
 62
256
 40
5.0
300

 40
0.0
280
1
 71
2
340
16
 90
25
 62
256
 71
3
340
11
 62
256
 40
5.0
 90
0
 40
15.0
 90
1
300
%<\AcVar ViewDetailId>% (%<\AcVar ViewScale \f "%sn">%)
 71
4
340
16
 90
25
 62
256
340
16
 90
25
 62
256
280
0
  0
LAYOUT
  5
59
102
{ACAD_XDICTIONARY
360
2A7
102
}
102
{ACAD_REACTORS
330
1A
102
}
330
1A
100
AcDbPlotSettings
  1

  2
DWFx ePlot (XPS Compatible).pc3
  4
ANSI_A_(8.50_x_11.00_Inches)
  6

 40
5.79374980927
 41
17.7937507629
 42
5.79374694824
 43
17.793762207
 44
215.899993896
 45
279.399993896
 46
0.0
 47
0.0
 48
0.0
 49
0.0
140
0.0
141
0.0
142
1.0
143
1.0
 70
688
 72
0
 73
1
 74
5
  7
acad.ctb
 75
16
147
1.0
 76
0
 77
2
 78
300
148
0.0
149
0.0
100
AcDbLayout
  1
Layout1
 70
1
 71
1
 10
-0.700541819174
 20
-0.228100386192
 11
10.2994579405
 21
8.27189937351
 12
0.0
 22
0.0
 32
0.0
 14
0.628866766397
 24
0.799999952316
 34
0.0
 15
9.02886638493
 25
7.19999957085
 35
0.0
146
0.0
 13
0.0
 23
0.0
 33
0.0
 16
1.0
 26
0.0
 36
0.0
 17
0.0
 27
1.0
 37
0.0
 76
0
330
58
331
28B
1001
ACAD_PSEXT
1000
DWFx ePlot (XPS Compatible).pc3
1000
DWFx ePlot (XPS Compatible)
1000
File
1000

1070
0
  0
LAYOUT
  5
22
102
{ACAD_REACTORS
330
1A
102
}
330
1A
100
AcDbPlotSettings
  1

  2
DWFx ePlot (XPS Compatible).pc3
  4
ANSI_A_(8.50_x_11.00_Inches)
  6

 40
5.79374980927
 41
17.7937507629
 42
5.79374694824
 43
17.793762207
 44
215.899993896
 45
279.399993896
 46
0.0
 47
0.0
 48
0.0
 49
0.0
140
0.0
141
0.0
142
1.0
143
14.5331733076
 70
11952
 72
0
 73
1
 74
0
  7

 75
0
147
0.0688080970917
 76
0
 77
2
 78
300
148
114.981416068
149
300.29102464
100
AcDbLayout
  1
Model
 70
1
 71
0
 10
0.0
 20
0.0
 11
12.0
 21
9.0
 12
0.0
 22
0.0
 32
0.0
 14
0.0
 24
0.0
 34
0.0
 15
0.0
 25
0.0
 35
0.0
146
0.0
 13
0.0
 23
0.0
 33
0.0
 16
1.0
 26
0.0
 36
0.0
 17
0.0
 27
1.0
 37
0.0
 76
0
330
1F
331
94
1001
ACAD_PSEXT
1000
DWFx ePlot (XPS Compatible).pc3
1000
DWFx ePlot (XPS Compatible)
1000
File
1000

1070
0
  0
MATERIAL
  5
97
102
{ACAD_REACTORS
330
72
102
}
330
72
100
AcDbMaterial
  1
ByBlock
 94
63
  0
MATERIAL
  5
96
102
{ACAD_REACTORS
330
72
102
}
330
72
100
AcDbMaterial
  1
ByLayer
 94
63
  0
MATERIAL
  5
98
102
{ACAD_XDICTIONARY
360
110
102
}
102
{ACAD_REACTORS
330
72
102
}
330
72
100
AcDbMaterial
  1
Global
 43
0.0208000000566
 43
0.0
 43
0.0
 43
0.0
 43
0.0
 43
0.0208000000566
 43
0.0
 43
0.0
 43
0.0
 43
0.0
 43
1.0
 43
0.0
 43
0.0
 43
0.0
 43
0.0
 43
1.0
 49
0.0208000000566
 49
0.0
 49
0.0
 49
0.0
 49
0.0
 49
0.0208000000566
 49
0.0
 49
0.0
 49
0.0
 49
0.0
 49
1.0
 49
0.0
 49
0.0
 49
0.0
 49
0.0
 49
1.0
142
0.0208000000566
142
0.0
142
0.0
142
0.0
142
0.0
142
0.0208000000566
142
0.0
142
0.0
142
0.0
142
0.0
142
1.0
142
0.0
142
0.0
142
0.0
142
0.0
142
1.0
144
0.0208000000566
144
0.0
144
0.0
144
0.0
144
0.0
144
0.0208000000566
144
0.0
144
0.0
144
0.0
144
0.0
144
1.0
144
0.0
144
0.0
144
0.0
144
0.0
144
1.0
 94
63
1001
ACAD
1070
-1
1070
3
1070
0
1000

1071
0
1070
0
  0
MLEADERSTYLE
  5
E5
102
{ACAD_REACTORS
330
D7
102
}
330
D7
100
AcDbMLeaderStyle
179
2
170
2
171
1
172
0
 90
2
 40
0.0
 41
0.0
173
1
 91
-1056964608
340
14
 92
-2
290
1
 42
2.0
291
1
 43
9.0
  3
Standard
 44
4.0
300

342
11
174
1
178
1
175
1
176
0
 93
-1056964608
 45
4.0
292
0
297
0
 46
0.18
 94
-1056964608
 47
1.0
 49
1.0
140
1.0
293
1
141
0.0
294
1
177
0
142
1.0
295
0
296
1
143
3.0
271
0
272
9
273
9
298
0
  0
MLEADERSTYLE
  5
288
102
{ACAD_REACTORS
330
D7
102
}
330
D7
100
AcDbMLeaderStyle
179
2
170
2
171
1
172
0
 90
2
 40
0.0
 41
0.0
173
1
 91
-1056964608
340
14
 92
-2
290
1
 42
2.0
291
1
 43
7.0
  3
Standard
 44
3.0
300

342
178
174
1
178
1
175
1
176
0
 93
-1056964608
 45
3.0
292
0
297
1
 46
0.18
 94
-1056964608
 47
1.0
 49
1.0
140
1.0
293
1
141
0.0
294
1
177
0
142
1.0
295
0
296
1
143
3.0
271
0
272
9
273
9
298
0
  0
MLEADERSTYLE
  5
D8
102
{ACAD_REACTORS
330
D7
102
}
330
D7
100
AcDbMLeaderStyle
179
2
170
2
171
1
172
0
 90
2
 40
0.0
 41
0.0
173
1
 91
-1056964608
340
14
 92
-2
290
1
 42
2.0
291
1
 43
9.0
  3
Standard
 44
4.0
300

342
11
174
1
178
1
175
1
176
0
 93
-1056964608
 45
4.0
292
0
297
0
 46
0.18
 94
-1056964608
 47
1.0
 49
1.0
140
1.0
293
1
141
0.0
294
1
177
0
142
1.0
295
0
296
0
143
3.0
271
0
272
9
273
9
298
0
  0
MLINESTYLE
  5
18
102
{ACAD_REACTORS
330
17
102
}
330
17
100
AcDbMlineStyle
  2
STANDARD
 70
0
  3

 62
256
 51
90.0
 52
90.0
 71
2
 49
0.5
 62
256
  6
BYLAYER
 49
-0.5
 62
256
  6
BYLAYER
  0
ACDBPLACEHOLDER
  5
F
102
{ACAD_REACTORS
330
E
102
}
330
E
  0
SCALE
  5
B7
102
{ACAD_REACTORS
330
B6
102
}
330
B6
100
AcDbScale
 70
0
300
1:1
140
1.0
141
1.0
290
1
  0
SCALE
  5
347
102
{ACAD_REACTORS
330
B6
102
}
330
B6
100
AcDbScale
 70
0
300
1:2
140
1.0
141
2.0
290
0
  0
SCALE
  5
348
102
{ACAD_REACTORS
330
B6
102
}
330
B6
100
AcDbScale
 70
0
300
1:4
140
1.0
141
4.0
290
0
  0
SCALE
  5
349
102
{ACAD_REACTORS
330
B6
102
}
330
B6
100
AcDbScale
 70
0
300
1:5
140
1.0
141
5.0
290
0
  0
SCALE
  5
34A
102
{ACAD_REACTORS
330
B6
102
}
330
B6
100
AcDbScale
 70
0
300
1:8
140
1.0
141
8.0
290
0
  0
SCALE
  5
34B
102
{ACAD_REACTORS
330
B6
102
}
330
B6
100
AcDbScale
 70
0
300
1:10
140
1.0
141
10.0
290
0
  0
SCALE
  5
34C
102
{ACAD_REACTORS
330
B6
102
}
330
B6
100
AcDbScale
 70
0
300
1:16
140
1.0
141
16.0
290
0
  0
SCALE
  5
34D
102
{ACAD_REACTORS
330
B6
102
}
330
B6
100
AcDbScale
 70
0
300
1:20
140
1.0
141
20.0
290
0
  0
SCALE
  5
34E
102
{ACAD_REACTORS
330
B6
102
}
330
B6
100
AcDbScale
 70
0
300
1:30
140
1.0
141
30.0
290
0
  0
SCALE
  5
34F
102
{ACAD_REACTORS
330
B6
102
}
330
B6
100
AcDbScale
 70
0
300
1:40
140
1.0
141
40.0
290
0
  0
SCALE
  5
350
102
{ACAD_REACTORS
330
B6
102
}
330
B6
100
AcDbScale
 70
0
300
1:50
140
1.0
141
50.0
290
0
  0
SCALE
  5
351
102
{ACAD_REACTORS
330
B6
102
}
330
B6
100
AcDbScale
 70
0
300
1:100
140
1.0
141
100.0
290
0
  0
SCALE
  5
352
102
{ACAD_REACTORS
330
B6
102
}
330
B6
100
AcDbScale
 70
0
300
2:1
140
2.0
141
1.0
290
0
  0
SCALE
  5
353
102
{ACAD_REACTORS
330
B6
102
}
330
B6
100
AcDbScale
 70
0
300
4:1
140
4.0
141
1.0
290
0
  0
SCALE
  5
354
102
{ACAD_REACTORS
330
B6
102
}
330
B6
100
AcDbScale
 70
0
300
8:1
140
8.0
141
1.0
290
0
  0
SCALE
  5
355
102
{ACAD_REACTORS
330
B6
102
}
330
B6
100
AcDbScale
 70
0
300
10:1
140
10.0
141
1.0
290
0
  0
SCALE
  5
356
102
{ACAD_REACTORS
330
B6
102
}
330
B6
100
AcDbScale
 70
0
300
100:1
140
100.0
141
1.0
290
0
  0
ACDBSECTIONVIEWSTYLE
  5
4A7
102
{ACAD_REACTORS
330
4A6
102
}
330
4A6
100
AcDbModelDocViewStyle
 70
0
  3
Metric50
290
0
100
AcDbSectionViewStyle
 70
0
 71
0
 90
102
 71
1
340
11
 62
256
 40
5.0
340
0
340
0
 62
256
 40
5.0
300
I, O, Q, S, X, Z
 40
10.0
 90
0
 40
2.5
 90
0
 71
2
340
16
 90
25
 62
256
340
16
 90
50
 62
256
 40
5.0
 40
2.5
 40
5.0
 71
3
340
11
 62
256
 40
5.0
 90
0
 40
15.0
 90
1
300
%<\AcVar ViewSectionStartId>%-%<\AcVar ViewSectionEndId>% (%<\AcVar ViewScale \f "%sn">%)
 71
4
 62
256
 62
257
300
ANSI31
 40
1.0
 90
0
290
0
290
0
 90
6
 40
0.0
 40
1.57079632679
 40
0.261799387799
 40
1.308996939
 40
-0.261799387799
 40
1.83259571459
  0
TABLESTYLE
  5
87
102
{ACAD_XDICTIONARY
360
104
102
}
102
{ACAD_REACTORS
330
86
102
}
330
86
100
AcDbTableStyle
280
0
  3
Standard
 70
0
 71
0
 40
0.06
 41
0.06
280
0
281
0
  7
Standard
140
0.18
170
2
 62
0
 63
7
283
0
 90
512
 91
0
  1

274
-2
284
1
 64
0
275
-2
285
1
 65
0
276
-2
286
1
 66
0
277
-2
287
1
 67
0
278
-2
288
1
 68
0
279
-2
289
1
 69
0
  7
Standard
140
0.25
170
5
 62
0
 63
7
283
0
 90
512
 91
0
  1

274
-2
284
1
 64
0
275
-2
285
1
 65
0
276
-2
286
1
 66
0
277
-2
287
1
 67
0
278
-2
288
1
 68
0
279
-2
289
1
 69
0
  7
Standard
140
0.18
170
5
 62
0
 63
7
283
0
 90
512
 91
0
  1

274
-2
284
1
 64
0
275
-2
285
1
 65
0
276
-2
286
1
 66
0
277
-2
287
1
 67
0
278
-2
288
1
 68
0
279
-2
289
1
 69
0
  0
VISUALSTYLE
  5
9F
102
{ACAD_REACTORS
330
99
102
}
330
99
100
AcDbVisualStyle
  2
2dWireframe
 70
4
177
3
291
0
 70
58
 90
0
176
1
 90
2
176
1
 90
1
176
1
 90
0
176
1
 40
0.6
176
1
 40
30.0
176
1
 62
7
420
16777215
176
1
 90
1
176
1
 90
4
176
1
 62
7
176
1
 62
257
176
1
 90
1
176
1
 90
1
176
1
 40
1.0
176
1
 90
0
176
1
 62
257
176
1
 40
1.0
176
1
 90
1
176
1
 90
6
176
1
 90
2
176
1
 62
7
176
1
 90
5
176
1
 90
0
176
1
 90
0
176
1
290
0
176
1
 90
1
176
1
 40
0.0
176
1
 90
0
176
1
290
1
176
1
290
1
176
1
290
0
176
1
290
0
176
1
290
0
176
1
290
0
176
1
290
0
176
1
290
0
176
1
290
0
176
1
 90
50
176
1
 40
0.0
176
1
 40
1.0
176
1
 90
0
176
1
 62
18
420
0
176
1
 90
50
176
1
 90
3
176
1
 62
5
420
255
176
1
290
0
176
1
 90
50
176
1
 90
50
176
1
 90
50
176
1
290
0
176
1
 90
50
176
1
 62
256
176
0
 40
1.0
176
0
 90
2
176
1
  1
strokes_ogs.tif
176
1
290
0
176
1
 40
1.0
176
1
 40
1.0
176
1
  0
VISUALSTYLE
  5
A1
102
{ACAD_REACTORS
330
99
102
}
330
99
100
AcDbVisualStyle
  2
3D Hidden
 70
6
177
3
291
0
 70
58
 90
1
176
1
 90
2
176
1
 90
2
176
1
 90
0
176
1
 40
0.6
176
1
 40
30.0
176
1
 62
7
420
16777215
176
1
 90
2
176
1
 90
2
176
1
 62
7
176
1
 62
257
176
1
 90
2
176
1
 90
1
176
1
 40
40.0
176
1
 90
0
176
1
 62
257
176
1
 40
1.0
176
1
 90
1
176
1
 90
6
176
1
 90
2
176
1
 62
7
176
1
 90
3
176
1
 90
0
176
1
 90
0
176
1
290
0
176
1
 90
1
176
1
 40
0.0
176
1
 90
0
176
1
290
0
176
1
290
1
176
1
290
1
176
1
290
0
176
1
290
0
176
1
290
0
176
1
290
0
176
1
290
0
176
1
290
0
176
1
 90
50
176
1
 40
0.0
176
1
 40
1.0
176
1
 90
0
176
1
 62
18
420
0
176
1
 90
50
176
1
 90
3
176
1
 62
5
420
255
176
1
290
0
176
1
 90
50
176
1
 90
50
176
1
 90
50
176
1
290
0
176
1
 90
50
176
1
 62
256
176
0
 40
1.0
176
0
 90
2
176
1
  1
strokes_ogs.tif
176
1
290
0
176
1
 40
1.0
176
1
 40
1.0
176
1
  0
VISUALSTYLE
  5
A0
102
{ACAD_REACTORS
330
99
102
}
330
99
100
AcDbVisualStyle
  2
3dWireframe
 70
5
177
3
291
0
 70
58
 90
0
176
1
 90
2
176
1
 90
1
176
1
 90
0
176
1
 40
0.6
176
1
 40
30.0
176
1
 62
7
420
16777215
176
1
 90
1
176
1
 90
4
176
1
 62
7
176
1
 62
257
176
1
 90
1
176
1
 90
1
176
1
 40
1.0
176
1
 90
0
176
1
 62
257
176
1
 40
1.0
176
1
 90
1
176
1
 90
6
176
1
 90
2
176
1
 62
7
176
1
 90
5
176
1
 90
0
176
1
 90
0
176
1
290
0
176
1
 90
1
176
1
 40
0.0
176
1
 90
0
176
1
290
0
176
1
290
1
176
1
290
1
176
1
290
0
176
1
290
0
176
1
290
0
176
1
290
0
176
1
290
0
176
1
290
0
176
1
 90
50
176
1
 40
0.0
176
1
 40
1.0
176
1
 90
0
176
1
 62
18
420
0
176
1
 90
50
176
1
 90
3
176
1
 62
5
420
255
176
1
290
0
176
1
 90
50
176
1
 90
50
176
1
 90
50
176
1
290
0
176
1
 90
50
176
1
 62
256
176
0
 40
1.0
176
0
 90
2
176
1
  1
strokes_ogs.tif
176
1
290
0
176
1
 40
1.0
176
1
 40
1.0
176
1
  0
VISUALSTYLE
  5
9E
102
{ACAD_REACTORS
330
99
102
}
330
99
100
AcDbVisualStyle
  2
Basic
 70
7
177
3
291
1
 70
58
 90
1
176
1
 90
0
176
1
 90
1
176
1
 90
0
176
1
 40
0.6
176
1
 40
30.0
176
1
 62
7
420
16777215
176
1
 90
0
176
1
 90
4
176
1
 62
7
176
1
 62
257
176
1
 90
1
176
1
 90
1
176
1
 40
1.0
176
1
 90
8
176
1
 62
7
176
1
 40
1.0
176
1
 90
1
176
1
 90
6
176
1
 90
2
176
1
 62
7
176
1
 90
5
176
1
 90
0
176
1
 90
0
176
1
290
0
176
1
 90
1
176
1
 40
0.0
176
1
 90
0
176
1
290
0
176
1
290
1
176
1
290
1
176
1
290
0
176
1
290
0
176
1
290
0
176
1
290
0
176
1
290
0
176
1
290
0
176
1
 90
50
176
1
 40
0.0
176
1
 40
1.0
176
1
 90
0
176
1
 62
18
420
0
176
1
 90
50
176
1
 90
3
176
1
 62
5
420
255
176
1
290
0
176
1
 90
50
176
1
 90
50
176
1
 90
50
176
1
290
0
176
1
 90
50
176
1
 62
256
176
0
 40
1.0
176
0
 90
2
176
1
  1
strokes_ogs.tif
176
1
290
0
176
1
 40
1.0
176
1
 40
1.0
176
1
  0
VISUALSTYLE
  5
A5
102
{ACAD_REACTORS
330
99
102
}
330
99
100
AcDbVisualStyle
  2
Brighten
 70
12
177
3
291
1
 70
58
 90
2
176
1
 90
2
176
1
 90
1
176
1
 90
0
176
1
 40
0.6
176
1
 40
30.0
176
1
 62
7
420
16777215
176
1
 90
1
176
1
 90
4
176
1
 62
7
176
1
 62
257
176
1
 90
1
176
1
 90
1
176
1
 40
1.0
176
1
 90
8
176
1
 62
7
176
1
 40
1.0
176
1
 90
1
176
1
 90
6
176
1
 90
2
176
1
 62
7
176
1
 90
5
176
1
 90
0
176
1
 90
0
176
1
290
0
176
1
 90
1
176
1
 40
50.0
176
1
 90
0
176
1
290
0
176
1
290
1
176
1
290
1
176
1
290
0
176
1
290
0
176
1
290
0
176
1
290
0
176
1
290
0
176
1
290
0
176
1
 90
50
176
1
 40
0.0
176
1
 40
1.0
176
1
 90
0
176
1
 62
18
420
0
176
1
 90
50
176
1
 90
3
176
1
 62
5
420
255
176
1
290
0
176
1
 90
50
176
1
 90
50
176
1
 90
50
176
1
290
0
176
1
 90
50
176
1
 62
256
176
0
 40
1.0
176
0
 90
2
176
1
  1
strokes_ogs.tif
176
1
290
0
176
1
 40
1.0
176
1
 40
1.0
176
1
  0
VISUALSTYLE
  5
A9
102
{ACAD_REACTORS
330
99
102
}
330
99
100
AcDbVisualStyle
  2
ColorChange
 70
16
177
3
291
1
 70
58
 90
2
176
1
 90
2
176
1
 90
3
176
1
 90
0
176
1
 40
0.6
176
1
 40
30.0
176
1
 62
8
420
8421504
176
1
 90
1
176
1
 90
4
176
1
 62
7
176
1
 62
257
176
1
 90
1
176
1
 90
1
176
1
 40
1.0
176
1
 90
8
176
1
 62
8
420
8421504
176
1
 40
1.0
176
1
 90
1
176
1
 90
6
176
1
 90
2
176
1
 62
7
176
1
 90
5
176
1
 90
0
176
1
 90
0
176
1
290
0
176
1
 90
1
176
1
 40
0.0
176
1
 90
0
176
1
290
0
176
1
290
1
176
1
290
1
176
1
290
0
176
1
290
0
176
1
290
0
176
1
290
0
176
1
290
0
176
1
290
0
176
1
 90
50
176
1
 40
0.0
176
1
 40
1.0
176
1
 90
0
176
1
 62
18
420
0
176
1
 90
50
176
1
 90
3
176
1
 62
5
420
255
176
1
290
0
176
1
 90
50
176
1
 90
50
176
1
 90
50
176
1
290
0
176
1
 90
50
176
1
 62
256
176
0
 40
1.0
176
0
 90
2
176
1
  1
strokes_ogs.tif
176
1
290
0
176
1
 40
1.0
176
1
 40
1.0
176
1
  0
VISUALSTYLE
  5
A2
102
{ACAD_REACTORS
330
99
102
}
330
99
100
AcDbVisualStyle
  2
Conceptual
 70
9
177
3
291
0
 70
58
 90
3
176
1
 90
2
176
1
 90
1
176
1
 90
0
176
1
 40
0.6
176
1
 40
30.0
176
1
 62
7
420
16777215
176
1
 90
2
176
1
 90
2
176
1
 62
7
176
1
 62
257
176
1
 90
1
176
1
 90
1
176
1
 40
40.0
176
1
 90
8
176
1
 62
7
176
1
 40
1.0
176
1
 90
1
176
1
 90
6
176
1
 90
2
176
1
 62
7
176
1
 90
3
176
1
 90
0
176
1
 90
0
176
1
290
0
176
1
 90
1
176
1
 40
0.0
176
1
 90
0
176
1
290
0
176
1
290
1
176
1
290
1
176
1
290
0
176
1
290
0
176
1
290
0
176
1
290
0
176
1
290
0
176
1
290
0
176
1
 90
50
176
1
 40
0.0
176
1
 40
1.0
176
1
 90
0
176
1
 62
18
420
0
176
1
 90
50
176
1
 90
3
176
1
 62
5
420
255
176
1
290
0
176
1
 90
50
176
1
 90
50
176
1
 90
50
176
1
290
0
176
1
 90
50
176
1
 62
256
176
0
 40
1.0
176
0
 90
2
176
1
  1
strokes_ogs.tif
176
1
290
0
176
1
 40
1.0
176
1
 40
1.0
176
1
  0
VISUALSTYLE
  5
A4
102
{ACAD_REACTORS
330
99
102
}
330
99
100
AcDbVisualStyle
  2
Dim
 70
11
177
3
291
1
 70
58
 90
2
176
1
 90
2
176
1
 90
1
176
1
 90
0
176
1
 40
0.6
176
1
 40
30.0
176
1
 62
7
420
16777215
176
1
 90
1
176
1
 90
4
176
1
 62
7
176
1
 62
257
176
1
 90
1
176
1
 90
1
176
1
 40
1.0
176
1
 90
8
176
1
 62
7
176
1
 40
1.0
176
1
 90
1
176
1
 90
6
176
1
 90
2
176
1
 62
7
176
1
 90
5
176
1
 90
0
176
1
 90
0
176
1
290
0
176
1
 90
1
176
1
 40
-50.0
176
1
 90
0
176
1
290
0
176
1
290
1
176
1
290
1
176
1
290
0
176
1
290
0
176
1
290
0
176
1
290
0
176
1
290
0
176
1
290
0
176
1
 90
50
176
1
 40
0.0
176
1
 40
1.0
176
1
 90
0
176
1
 62
18
420
0
176
1
 90
50
176
1
 90
3
176
1
 62
5
420
255
176
1
290
0
176
1
 90
50
176
1
 90
50
176
1
 90
50
176
1
290
0
176
1
 90
50
176
1
 62
256
176
0
 40
1.0
176
0
 90
2
176
1
  1
strokes_ogs.tif
176
1
290
0
176
1
 40
1.0
176
1
 40
1.0
176
1
  0
VISUALSTYLE
  5
3B8
102
{ACAD_REACTORS
330
99
102
}
330
99
100
AcDbVisualStyle
  2
EdgeColorOff
 70
22
177
3
291
1
 70
58
 90
2
176
0
 90
2
176
0
 90
0
176
0
 90
0
176
0
 40
0.6
176
0
 40
30.0
176
0
 62
7
420
16777215
176
0
 90
1
176
0
 90
4
176
0
 62
7
176
0
 62
257
176
0
 90
1
176
0
 90
1
176
0
 40
1.0
176
0
 90
8
176
2
 62
7
176
0
 40
1.0
176
0
 90
1
176
0
 90
6
176
0
 90
2
176
0
 62
7
176
0
 90
5
176
0
 90
0
176
0
 90
0
176
0
290
0
176
0
 90
1
176
0
 40
0.0
176
0
 90
0
176
0
290
0
176
1
290
1
176
1
290
1
176
1
290
0
176
1
290
0
176
1
290
0
176
1
290
0
176
1
290
0
176
1
290
0
176
1
 90
50
176
1
 40
0.0
176
1
 40
1.0
176
1
 90
0
176
1
 62
18
420
0
176
1
 90
50
176
1
 90
3
176
1
 62
5
420
255
176
1
290
0
176
1
 90
50
176
1
 90
50
176
1
 90
50
176
1
290
0
176
1
 90
50
176
1
 62
256
176
0
 40
1.0
176
0
 90
2
176
1
  1
strokes_ogs.tif
176
1
290
0
176
1
 40
1.0
176
1
 40
1.0
176
1
  0
VISUALSTYLE
  5
A8
102
{ACAD_REACTORS
330
99
102
}
330
99
100
AcDbVisualStyle
  2
Facepattern
 70
15
177
3
291
1
 70
58
 90
2
176
1
 90
2
176
1
 90
1
176
1
 90
0
176
1
 40
0.6
176
1
 40
30.0
176
1
 62
7
420
16777215
176
1
 90
1
176
1
 90
4
176
1
 62
7
176
1
 62
257
176
1
 90
1
176
1
 90
1
176
1
 40
1.0
176
1
 90
8
176
1
 62
7
176
1
 40
1.0
176
1
 90
1
176
1
 90
6
176
1
 90
2
176
1
 62
7
176
1
 90
5
176
1
 90
0
176
1
 90
0
176
1
290
0
176
1
 90
1
176
1
 40
0.0
176
1
 90
0
176
1
290
0
176
1
290
1
176
1
290
1
176
1
290
0
176
1
290
0
176
1
290
0
176
1
290
0
176
1
290
0
176
1
290
0
176
1
 90
50
176
1
 40
0.0
176
1
 40
1.0
176
1
 90
0
176
1
 62
18
420
0
176
1
 90
50
176
1
 90
3
176
1
 62
5
420
255
176
1
290
0
176
1
 90
50
176
1
 90
50
176
1
 90
50
176
1
290
0
176
1
 90
50
176
1
 62
256
176
0
 40
1.0
176
0
 90
2
176
1
  1
strokes_ogs.tif
176
1
290
0
176
1
 40
1.0
176
1
 40
1.0
176
1
  0
VISUALSTYLE
  5
9A
102
{ACAD_REACTORS
330
99
102
}
330
99
100
AcDbVisualStyle
  2
Flat
 70
0
177
3
291
1
 70
58
 90
2
176
1
 90
1
176
1
 90
1
176
1
 90
2
176
1
 40
0.6
176
1
 40
30.0
176
1
 62
7
420
16777215
176
1
 90
0
176
1
 90
4
176
1
 62
7
176
1
 62
257
176
1
 90
1
176
1
 90
1
176
1
 40
1.0
176
1
 90
8
176
1
 62
7
176
1
 40
1.0
176
1
 90
1
176
1
 90
6
176
1
 90
2
176
1
 62
7
176
1
 90
5
176
1
 90
0
176
1
 90
0
176
1
290
0
176
1
 90
1
176
1
 40
0.0
176
1
 90
0
176
1
290
0
176
1
290
1
176
1
290
1
176
1
290
0
176
1
290
0
176
1
290
0
176
1
290
0
176
1
290
0
176
1
290
0
176
1
 90
50
176
1
 40
0.0
176
1
 40
1.0
176
1
 90
0
176
1
 62
18
420
0
176
1
 90
50
176
1
 90
3
176
1
 62
5
420
255
176
1
290
0
176
1
 90
50
176
1
 90
50
176
1
 90
50
176
1
290
0
176
1
 90
50
176
1
 62
256
176
0
 40
1.0
176
0
 90
2
176
1
  1
strokes_ogs.tif
176
1
290
0
176
1
 40
1.0
176
1
 40
1.0
176
1
  0
VISUALSTYLE
  5
9B
102
{ACAD_REACTORS
330
99
102
}
330
99
100
AcDbVisualStyle
  2
FlatWithEdges
 70
1
177
3
291
1
 70
58
 90
2
176
1
 90
1
176
1
 90
1
176
1
 90
2
176
1
 40
0.6
176
1
 40
30.0
176
1
 62
7
420
16777215
176
1
 90
1
176
1
 90
4
176
1
 62
7
176
1
 62
257
176
1
 90
1
176
1
 90
1
176
1
 40
1.0
176
1
 90
0
176
1
 62
257
176
1
 40
1.0
176
1
 90
1
176
1
 90
6
176
1
 90
2
176
1
 62
7
176
1
 90
5
176
1
 90
0
176
1
 90
0
176
1
290
0
176
1
 90
1
176
1
 40
0.0
176
1
 90
0
176
1
290
0
176
1
290
1
176
1
290
1
176
1
290
0
176
1
290
0
176
1
290
0
176
1
290
0
176
1
290
0
176
1
290
0
176
1
 90
50
176
1
 40
0.0
176
1
 40
1.0
176
1
 90
0
176
1
 62
18
420
0
176
1
 90
50
176
1
 90
3
176
1
 62
5
420
255
176
1
290
0
176
1
 90
50
176
1
 90
50
176
1
 90
50
176
1
290
0
176
1
 90
50
176
1
 62
256
176
0
 40
1.0
176
0
 90
2
176
1
  1
strokes_ogs.tif
176
1
290
0
176
1
 40
1.0
176
1
 40
1.0
176
1
  0
VISUALSTYLE
  5
9C
102
{ACAD_REACTORS
330
99
102
}
330
99
100
AcDbVisualStyle
  2
Gouraud
 70
2
177
3
291
1
 70
58
 90
2
176
1
 90
2
176
1
 90
1
176
1
 90
2
176
1
 40
0.6
176
1
 40
30.0
176
1
 62
7
420
16777215
176
1
 90
0
176
1
 90
4
176
1
 62
7
176
1
 62
257
176
1
 90
1
176
1
 90
1
176
1
 40
1.0
176
1
 90
0
176
1
 62
7
176
1
 40
1.0
176
1
 90
1
176
1
 90
6
176
1
 90
2
176
1
 62
7
176
1
 90
5
176
1
 90
0
176
1
 90
0
176
1
290
0
176
1
 90
1
176
1
 40
0.0
176
1
 90
0
176
1
290
0
176
1
290
1
176
1
290
1
176
1
290
0
176
1
290
0
176
1
290
0
176
1
290
0
176
1
290
0
176
1
290
0
176
1
 90
50
176
1
 40
0.0
176
1
 40
1.0
176
1
 90
0
176
1
 62
18
420
0
176
1
 90
50
176
1
 90
3
176
1
 62
5
420
255
176
1
290
0
176
1
 90
50
176
1
 90
50
176
1
 90
50
176
1
290
0
176
1
 90
50
176
1
 62
256
176
0
 40
1.0
176
0
 90
2
176
1
  1
strokes_ogs.tif
176
1
290
0
176
1
 40
1.0
176
1
 40
1.0
176
1
  0
VISUALSTYLE
  5
9D
102
{ACAD_REACTORS
330
99
102
}
330
99
100
AcDbVisualStyle
  2
GouraudWithEdges
 70
3
177
3
291
1
 70
58
 90
2
176
1
 90
2
176
1
 90
1
176
1
 90
2
176
1
 40
0.6
176
1
 40
30.0
176
1
 62
7
420
16777215
176
1
 90
1
176
1
 90
4
176
1
 62
7
176
1
 62
257
176
1
 90
1
176
1
 90
1
176
1
 40
1.0
176
1
 90
0
176
1
 62
257
176
1
 40
1.0
176
1
 90
1
176
1
 90
6
176
1
 90
2
176
1
 62
7
176
1
 90
5
176
1
 90
0
176
1
 90
0
176
1
290
0
176
1
 90
1
176
1
 40
0.0
176
1
 90
0
176
1
290
0
176
1
290
1
176
1
290
1
176
1
290
0
176
1
290
0
176
1
290
0
176
1
290
0
176
1
290
0
176
1
290
0
176
1
 90
50
176
1
 40
0.0
176
1
 40
1.0
176
1
 90
0
176
1
 62
18
420
0
176
1
 90
50
176
1
 90
3
176
1
 62
5
420
255
176
1
290
0
176
1
 90
50
176
1
 90
50
176
1
 90
50
176
1
290
0
176
1
 90
50
176
1
 62
256
176
0
 40
1.0
176
0
 90
2
176
1
  1
strokes_ogs.tif
176
1
290
0
176
1
 40
1.0
176
1
 40
1.0
176
1
  0
VISUALSTYLE
  5
4A0
102
{ACAD_REACTORS
330
99
102
}
330
99
100
AcDbVisualStyle
  2
Hidden
 70
6
177
3
291
0
 70
58
 90
1
176
1
 90
2
176
1
 90
2
176
1
 90
0
176
1
 40
0.6
176
1
 40
30.0
176
1
 62
7
420
16777215
176
1
 90
2
176
1
 90
2
176
1
 62
7
176
1
 62
257
176
1
 90
2
176
1
 90
1
176
1
 40
40.0
176
1
 90
0
176
1
 62
257
176
1
 40
1.0
176
1
 90
1
176
1
 90
6
176
1
 90
2
176
1
 62
7
176
1
 90
3
176
1
 90
0
176
1
 90
0
176
1
290
0
176
1
 90
1
176
1
 40
0.0
176
1
 90
0
176
1
290
0
176
1
290
1
176
1
290
1
176
1
290
0
176
1
290
0
176
1
290
0
176
1
290
0
176
1
290
0
176
1
290
0
176
1
 90
50
176
1
 40
0.0
176
1
 40
1.0
176
1
 90
0
176
1
 62
18
420
0
176
1
 90
50
176
1
 90
3
176
1
 62
5
420
255
176
1
290
0
176
1
 90
50
176
1
 90
50
176
1
 90
50
176
1
290
0
176
1
 90
50
176
1
 62
256
176
0
 40
1.0
176
0
 90
2
176
1
  1
strokes_ogs.tif
176
1
290
0
176
1
 40
1.0
176
1
 40
1.0
176
1
  0
VISUALSTYLE
  5
3B6
102
{ACAD_REACTORS
330
99
102
}
330
99
100
AcDbVisualStyle
  2
JitterOff
 70
20
177
3
291
1
 70
58
 90
2
176
0
 90
2
176
0
 90
0
176
0
 90
0
176
0
 40
0.6
176
0
 40
30.0
176
0
 62
7
420
16777215
176
0
 90
1
176
0
 90
4
176
0
 62
7
176
0
 62
257
176
0
 90
1
176
0
 90
1
176
0
 40
1.0
176
0
 90
10
176
2
 62
7
176
0
 40
1.0
176
0
 90
1
176
0
 90
6
176
0
 90
2
176
0
 62
7
176
0
 90
5
176
0
 90
0
176
0
 90
0
176
0
290
0
176
0
 90
1
176
0
 40
0.0
176
0
 90
0
176
0
290
0
176
1
290
1
176
1
290
1
176
1
290
0
176
1
290
0
176
1
290
0
176
1
290
0
176
1
290
0
176
1
290
0
176
1
 90
50
176
1
 40
0.0
176
1
 40
1.0
176
1
 90
0
176
1
 62
18
420
0
176
1
 90
50
176
1
 90
3
176
1
 62
5
420
255
176
1
290
0
176
1
 90
50
176
1
 90
50
176
1
 90
50
176
1
290
0
176
1
 90
50
176
1
 62
256
176
0
 40
1.0
176
0
 90
2
176
1
  1
strokes_ogs.tif
176
1
290
0
176
1
 40
1.0
176
1
 40
1.0
176
1
  0
VISUALSTYLE
  5
A7
102
{ACAD_REACTORS
330
99
102
}
330
99
100
AcDbVisualStyle
  2
Linepattern
 70
14
177
3
291
1
 70
58
 90
2
176
1
 90
2
176
1
 90
1
176
1
 90
0
176
1
 40
0.6
176
1
 40
30.0
176
1
 62
7
420
16777215
176
1
 90
1
176
1
 90
4
176
1
 62
7
176
1
 62
257
176
1
 90
7
176
1
 90
7
176
1
 40
1.0
176
1
 90
8
176
1
 62
7
176
1
 40
1.0
176
1
 90
1
176
1
 90
6
176
1
 90
2
176
1
 62
7
176
1
 90
5
176
1
 90
0
176
1
 90
0
176
1
290
0
176
1
 90
1
176
1
 40
0.0
176
1
 90
0
176
1
290
0
176
1
290
1
176
1
290
1
176
1
290
0
176
1
290
0
176
1
290
0
176
1
290
0
176
1
290
0
176
1
290
0
176
1
 90
50
176
1
 40
0.0
176
1
 40
1.0
176
1
 90
0
176
1
 62
18
420
0
176
1
 90
50
176
1
 90
3
176
1
 62
5
420
255
176
1
290
0
176
1
 90
50
176
1
 90
50
176
1
 90
50
176
1
290
0
176
1
 90
50
176
1
 62
256
176
0
 40
1.0
176
0
 90
2
176
1
  1
strokes_ogs.tif
176
1
290
0
176
1
 40
1.0
176
1
 40
1.0
176
1
  0
VISUALSTYLE
  5
3B7
102
{ACAD_REACTORS
330
99
102
}
330
99
100
AcDbVisualStyle
  2
OverhangOff
 70
21
177
3
291
1
 70
58
 90
2
176
0
 90
2
176
0
 90
0
176
0
 90
0
176
0
 40
0.6
176
0
 40
30.0
176
0
 62
7
420
16777215
176
0
 90
1
176
0
 90
4
176
0
 62
7
176
0
 62
257
176
0
 90
1
176
0
 90
1
176
0
 40
1.0
176
0
 90
9
176
2
 62
7
176
0
 40
1.0
176
0
 90
1
176
0
 90
6
176
0
 90
2
176
0
 62
7
176
0
 90
5
176
0
 90
0
176
0
 90
0
176
0
290
0
176
0
 90
1
176
0
 40
0.0
176
0
 90
0
176
0
290
0
176
1
290
1
176
1
290
1
176
1
290
0
176
1
290
0
176
1
290
0
176
1
290
0
176
1
290
0
176
1
290
0
176
1
 90
50
176
1
 40
0.0
176
1
 40
1.0
176
1
 90
0
176
1
 62
18
420
0
176
1
 90
50
176
1
 90
3
176
1
 62
5
420
255
176
1
290
0
176
1
 90
50
176
1
 90
50
176
1
 90
50
176
1
290
0
176
1
 90
50
176
1
 62
256
176
0
 40
1.0
176
0
 90
2
176
1
  1
strokes_ogs.tif
176
1
290
0
176
1
 40
1.0
176
1
 40
1.0
176
1
  0
VISUALSTYLE
  5
A3
102
{ACAD_REACTORS
330
99
102
}
330
99
100
AcDbVisualStyle
  2
Realistic
 70
8
177
3
291
0
 70
58
 90
2
176
1
 90
2
176
1
 90
1
176
1
 90
0
176
1
 40
0.6
176
1
 40
30.0
176
1
 62
7
420
16777215
176
1
 90
1
176
1
 90
0
176
1
 62
7
176
1
 62
257
176
1
 90
1
176
1
 90
1
176
1
 40
1.0
176
1
 90
8
176
1
 62
8
420
7895160
176
1
 40
1.0
176
1
 90
1
176
1
 90
6
176
1
 90
2
176
1
 62
7
176
1
 90
5
176
1
 90
0
176
1
 90
0
176
1
290
0
176
1
 90
13
176
1
 40
0.0
176
1
 90
0
176
1
290
0
176
1
290
1
176
1
290
1
176
1
290
0
176
1
290
0
176
1
290
0
176
1
290
0
176
1
290
0
176
1
290
0
176
1
 90
50
176
1
 40
0.0
176
1
 40
1.0
176
1
 90
0
176
1
 62
18
420
0
176
1
 90
50
176
1
 90
3
176
1
 62
5
420
255
176
1
290
0
176
1
 90
50
176
1
 90
50
176
1
 90
50
176
1
290
0
176
1
 90
50
176
1
 62
256
176
0
 40
1.0
176
0
 90
2
176
1
  1
strokes_ogs.tif
176
1
290
0
176
1
 40
1.0
176
1
 40
1.0
176
1
  0
VISUALSTYLE
  5
4A5
102
{ACAD_REACTORS
330
99
102
}
330
99
100
AcDbVisualStyle
  2
Shaded
 70
27
177
3
291
0
 70
58
 90
2
176
1
 90
2
176
1
 90
1
176
1
 90
2
176
1
 40
0.6
176
1
 40
30.0
176
1
 62
7
420
16777215
176
1
 90
0
176
1
 90
4
176
1
 62
7
176
1
 62
257
176
1
 90
1
176
1
 90
1
176
1
 40
1.0
176
1
 90
8
176
1
 62
257
176
1
 40
1.0
176
1
 90
1
176
1
 90
6
176
1
 90
2
176
1
 62
8
420
7895160
176
1
 90
3
176
1
 90
0
176
1
 90
0
176
1
290
0
176
1
 90
5
176
1
 40
0.0
176
1
 90
0
176
1
290
0
176
1
290
1
176
1
290
1
176
1
290
0
176
1
290
0
176
1
290
0
176
1
290
0
176
1
290
0
176
1
290
0
176
1
 90
50
176
1
 40
0.0
176
1
 40
1.0
176
1
 90
0
176
1
 62
18
420
0
176
1
 90
50
176
1
 90
3
176
1
 62
5
420
255
176
1
290
0
176
1
 90
50
176
1
 90
50
176
1
 90
50
176
1
290
0
176
1
 90
50
176
1
 62
256
176
0
 40
1.0
176
0
 90
2
176
1
  1
strokes_ogs.tif
176
1
290
0
176
1
 40
1.0
176
1
 40
1.0
176
1
  0
VISUALSTYLE
  5
4A4
102
{ACAD_REACTORS
330
99
102
}
330
99
100
AcDbVisualStyle
  2
Shaded with edges
 70
26
177
3
291
0
 70
58
 90
2
176
1
 90
2
176
1
 90
1
176
1
 90
2
176
1
 40
0.6
176
1
 40
30.0
176
1
 62
7
420
16777215
176
1
 90
1
176
1
 90
10
176
1
 62
7
176
1
 62
257
176
1
 90
2
176
1
 90
1
176
1
 40
1.0
176
1
 90
8
176
1
 62
257
176
1
 40
1.0
176
1
 90
1
176
1
 90
6
176
1
 90
2
176
1
 62
7
176
1
 90
3
176
1
 90
0
176
1
 90
0
176
1
290
0
176
1
 90
5
176
1
 40
0.0
176
1
 90
0
176
1
290
0
176
1
290
1
176
1
290
1
176
1
290
0
176
1
290
0
176
1
290
0
176
1
290
0
176
1
290
0
176
1
290
0
176
1
 90
50
176
1
 40
0.0
176
1
 40
1.0
176
1
 90
0
176
1
 62
18
420
0
176
1
 90
50
176
1
 90
3
176
1
 62
5
420
255
176
1
290
0
176
1
 90
50
176
1
 90
50
176
1
 90
50
176
1
290
0
176
1
 90
50
176
1
 62
256
176
0
 40
1.0
176
0
 90
2
176
1
  1
strokes_ogs.tif
176
1
290
0
176
1
 40
1.0
176
1
 40
1.0
176
1
  0
VISUALSTYLE
  5
4A1
102
{ACAD_REACTORS
330
99
102
}
330
99
100
AcDbVisualStyle
  2
Shades of Gray
 70
23
177
3
291
0
 70
58
 90
2
176
1
 90
2
176
1
 90
3
176
1
 90
0
176
1
 40
0.6
176
1
 40
30.0
176
1
 62
7
420
16777215
176
1
 90
2
176
1
 90
2
176
1
 62
7
176
1
 62
7
176
1
 90
1
176
1
 90
1
176
1
 40
40.0
176
1
 90
8
176
1
 62
7
176
1
 40
1.0
176
1
 90
1
176
1
 90
6
176
1
 90
2
176
1
 62
7
176
1
 90
3
176
1
 90
0
176
1
 90
0
176
1
290
0
176
1
 90
1
176
1
 40
0.0
176
1
 90
0
176
1
290
0
176
1
290
1
176
1
290
1
176
1
290
0
176
1
290
0
176
1
290
0
176
1
290
0
176
1
290
0
176
1
290
0
176
1
 90
50
176
1
 40
0.0
176
1
 40
1.0
176
1
 90
0
176
1
 62
18
420
0
176
1
 90
50
176
1
 90
3
176
1
 62
5
420
255
176
1
290
0
176
1
 90
50
176
1
 90
50
176
1
 90
50
176
1
290
0
176
1
 90
50
176
1
 62
256
176
0
 40
1.0
176
0
 90
2
176
1
  1
strokes_ogs.tif
176
1
290
0
176
1
 40
1.0
176
1
 40
1.0
176
1
  0
VISUALSTYLE
  5
4A2
102
{ACAD_REACTORS
330
99
102
}
330
99
100
AcDbVisualStyle
  2
Sketchy
 70
24
177
3
291
0
 70
58
 90
1
176
1
 90
2
176
1
 90
2
176
1
 90
0
176
1
 40
0.6
176
1
 40
30.0
176
1
 62
7
420
16777215
176
1
 90
2
176
1
 90
2
176
1
 62
7
176
1
 62
7
176
1
 90
1
176
1
 90
1
176
1
 40
40.0
176
1
 90
11
176
1
 62
7
176
1
 40
1.0
176
1
 90
1
176
1
 90
6
176
1
 90
2
176
1
 62
7
176
1
 90
6
176
1
 90
0
176
1
 90
0
176
1
290
0
176
1
 90
1
176
1
 40
0.0
176
1
 90
0
176
1
290
0
176
1
290
1
176
1
290
1
176
1
290
0
176
1
290
0
176
1
290
0
176
1
290
0
176
1
290
0
176
1
290
0
176
1
 90
50
176
1
 40
0.0
176
1
 40
1.0
176
1
 90
0
176
1
 62
18
420
0
176
1
 90
50
176
1
 90
3
176
1
 62
5
420
255
176
1
290
0
176
1
 90
50
176
1
 90
50
176
1
 90
50
176
1
290
0
176
1
 90
50
176
1
 62
256
176
0
 40
1.0
176
0
 90
2
176
1
  1
strokes_ogs.tif
176
1
290
0
176
1
 40
1.0
176
1
 40
1.0
176
1
  0
VISUALSTYLE
  5
A6
102
{ACAD_REACTORS
330
99
102
}
330
99
100
AcDbVisualStyle
  2
Thicken
 70
13
177
3
291
1
 70
58
 90
2
176
1
 90
2
176
1
 90
1
176
1
 90
0
176
1
 40
0.6
176
1
 40
30.0
176
1
 62
7
420
16777215
176
1
 90
1
176
1
 90
4
176
1
 62
7
176
1
 62
257
176
1
 90
1
176
1
 90
1
176
1
 40
1.0
176
1
 90
12
176
1
 62
7
176
1
 40
1.0
176
1
 90
1
176
1
 90
6
176
1
 90
2
176
1
 62
7
176
1
 90
5
176
1
 90
0
176
1
 90
0
176
1
290
0
176
1
 90
1
176
1
 40
0.0
176
1
 90
0
176
1
290
0
176
1
290
1
176
1
290
1
176
1
290
0
176
1
290
0
176
1
290
0
176
1
290
0
176
1
290
0
176
1
290
0
176
1
 90
50
176
1
 40
0.0
176
1
 40
1.0
176
1
 90
0
176
1
 62
18
420
0
176
1
 90
50
176
1
 90
3
176
1
 62
5
420
255
176
1
290
0
176
1
 90
50
176
1
 90
50
176
1
 90
50
176
1
290
0
176
1
 90
50
176
1
 62
256
176
0
 40
1.0
176
0
 90
2
176
1
  1
strokes_ogs.tif
176
1
290
0
176
1
 40
1.0
176
1
 40
1.0
176
1
  0
VISUALSTYLE
  5
49F
102
{ACAD_REACTORS
330
99
102
}
330
99
100
AcDbVisualStyle
  2
Wireframe
 70
5
177
3
291
0
 70
58
 90
0
176
1
 90
2
176
1
 90
0
176
1
 90
0
176
1
 40
0.6
176
1
 40
30.0
176
1
 62
7
420
16777215
176
1
 90
1
176
1
 90
4
176
1
 62
7
176
1
 62
257
176
1
 90
1
176
1
 90
1
176
1
 40
1.0
176
1
 90
0
176
1
 62
257
176
1
 40
1.0
176
1
 90
1
176
1
 90
6
176
1
 90
2
176
1
 62
7
176
1
 90
3
176
1
 90
0
176
1
 90
0
176
1
290
0
176
1
 90
1
176
1
 40
0.0
176
1
 90
0
176
1
290
0
176
1
290
1
176
1
290
1
176
1
290
0
176
1
290
0
176
1
290
0
176
1
290
0
176
1
290
0
176
1
290
0
176
1
 90
50
176
1
 40
0.0
176
1
 40
1.0
176
1
 90
0
176
1
 62
18
420
0
176
1
 90
50
176
1
 90
3
176
1
 62
5
420
255
176
1
290
0
176
1
 90
50
176
1
 90
50
176
1
 90
50
176
1
290
0
176
1
 90
50
176
1
 62
256
176
0
 40
1.0
176
0
 90
2
176
1
  1
strokes_ogs.tif
176
1
290
0
176
1
 40
1.0
176
1
 40
1.0
176
1
  0
VISUALSTYLE
  5
4A3
102
{ACAD_REACTORS
330
99
102
}
330
99
100
AcDbVisualStyle
  2
X-Ray
 70
25
177
3
291
0
 70
58
 90
2
176
1
 90
2
176
1
 90
1
176
1
 90
1
176
1
 40
0.5
176
1
 40
30.0
176
1
 62
7
420
16777215
176
1
 90
1
176
1
 90
0
176
1
 62
7
176
1
 62
257
176
1
 90
1
176
1
 90
1
176
1
 40
1.0
176
1
 90
8
176
1
 62
7
176
1
 40
1.0
176
1
 90
1
176
1
 90
6
176
1
 90
2
176
1
 62
7
176
1
 90
3
176
1
 90
0
176
1
 90
0
176
1
290
0
176
1
 90
13
176
1
 40
0.0
176
1
 90
0
176
1
290
0
176
1
290
1
176
1
290
1
176
1
290
0
176
1
290
0
176
1
290
0
176
1
290
0
176
1
290
0
176
1
290
0
176
1
 90
50
176
1
 40
0.0
176
1
 40
1.0
176
1
 90
0
176
1
 62
18
420
0
176
1
 90
50
176
1
 90
3
176
1
 62
5
420
255
176
1
290
0
176
1
 90
50
176
1
 90
50
176
1
 90
50
176
1
290
0
176
1
 90
50
176
1
 62
256
176
0
 40
1.0
176
0
 90
2
176
1
  1
strokes_ogs.tif
176
1
290
0
176
1
 40
1.0
176
1
 40
1.0
176
1
  0
DICTIONARYVAR
  5
38E
102
{ACAD_REACTORS
330
66
102
}
330
66
100
DictionaryVariables
280
0
  1
0
  0
DICTIONARYVAR
  5
F0
102
{ACAD_REACTORS
330
66
102
}
330
66
100
DictionaryVariables
280
0
  1
1:1
  0
DICTIONARYVAR
  5
EF
102
{ACAD_REACTORS
330
66
102
}
330
66
100
DictionaryVariables
280
0
  1
Civil-Metric
  0
DICTIONARYVAR
  5
89
102
{ACAD_REACTORS
330
66
102
}
330
66
100
DictionaryVariables
280
0
  1
STANDARD
  0
DICTIONARYVAR
  5
4AE
102
{ACAD_REACTORS
330
66
102
}
330
66
100
DictionaryVariables
280
0
  1
Metric50
  0
DICTIONARYVAR
  5
4AF
102
{ACAD_REACTORS
330
66
102
}
330
66
100
DictionaryVariables
280
0
  1
Metric50
  0
DICTIONARYVAR
  5
67
102
{ACAD_REACTORS
330
66
102
}
330
66
100
DictionaryVariables
280
0
  1
2
  0
DICTIONARYVAR
  5
6B
102
{ACAD_REACTORS
330
66
102
}
330
66
100
DictionaryVariables
280
0
  1
1
  0
DICTIONARYVAR
  5
3D2
102
{ACAD_REACTORS
330
66
102
}
330
66
100
DictionaryVariables
280
0
  1
0
  0
DICTIONARYVAR
  5
14D
102
{ACAD_REACTORS
330
66
102
}
330
66
100
DictionaryVariables
280
0
  1
0
  0
DICTIONARYVAR
  5
14E
102
{ACAD_REACTORS
330
66
102
}
330
66
100
DictionaryVariables
280
0
  1
0
  0
DICTIONARYVAR
  5
38F
102
{ACAD_REACTORS
330
66
102
}
330
66
100
DictionaryVariables
280
0
  1
1
  0
DICTIONARYVAR
  5
3D0
102
{ACAD_REACTORS
330
66
102
}
330
66
100
DictionaryVariables
280
0
  1
1
  0
DICTIONARYVAR
  5
3D1
102
{ACAD_REACTORS
330
66
102
}
330
66
100
DictionaryVariables
280
0
  1
127
  0
DICTIONARYVAR
  5
3D3
102
{ACAD_REACTORS
330
66
102
}
330
66
100
DictionaryVariables
280
0
  1
0
  0
DICTIONARY
  5
2A7
330
59
100
AcDbDictionary
280
1
281
1
  0
DICTIONARY
  5
110
330
98
100
AcDbDictionary
280
1
281
1
  3
BUMPTILE
360
112
  3
DIFFUSETILE
360
111
  3
OPACITYTILE
360
113
  3
REFLECTIONTILE
360
114
  0
DICTIONARY
  5
104
330
87
100
AcDbDictionary
280
1
281
1
  3
ACAD_ROUNDTRIP_2008_TABLESTYLE_CELLSTYLEMAP
360
4B1
  0
XRECORD
  5
112
102
{ACAD_REACTORS
330
110
102
}
330
110
100
AcDbXrecord
280
1
270
1
271
1
  0
XRECORD
  5
111
102
{ACAD_REACTORS
330
110
102
}
330
110
100
AcDbXrecord
280
1
270
1
271
1
  0
XRECORD
  5
113
102
{ACAD_REACTORS
330
110
102
}
330
110
100
AcDbXrecord
280
1
270
1
271
1
  0
XRECORD
  5
114
102
{ACAD_REACTORS
330
110
102
}
330
110
100
AcDbXrecord
280
1
270
1
271
1
  0
CELLSTYLEMAP
  5
4B1
102
{ACAD_REACTORS
330
104
102
}
330
104
100
AcDbCellStyleMap
 90
3
300
CELLSTYLE
  1
TABLEFORMAT_BEGIN
 90
5
170
1
 91
0
 92
32768
 62
257
 93
1
300
CONTENTFORMAT
  1
CONTENTFORMAT_BEGIN
 90
0
 91
0
 92
512
 93
0
300

 40
0.0
140
1.0
 94
5
 62
0
340
11
144
0.25
309
CONTENTFORMAT_END
171
1
301
MARGIN
  1
CELLMARGIN_BEGIN
 40
0.06
 40
0.06
 40
0.06
 40
0.06
 40
0.18
 40
0.18
309
CELLMARGIN_END
 94
6
 95
1
302
GRIDFORMAT
  1
GRIDFORMAT_BEGIN
 90
0
 91
1
 62
0
 92
-2
340
0
 93
0
 40
0.045
309
GRIDFORMAT_END
 95
2
302
GRIDFORMAT
  1
GRIDFORMAT_BEGIN
 90
0
 91
1
 62
0
 92
-2
340
0
 93
0
 40
0.045
309
GRIDFORMAT_END
 95
4
302
GRIDFORMAT
  1
GRIDFORMAT_BEGIN
 90
0
 91
1
 62
0
 92
-2
340
0
 93
0
 40
0.045
309
GRIDFORMAT_END
 95
8
302
GRIDFORMAT
  1
GRIDFORMAT_BEGIN
 90
0
 91
1
 62
0
 92
-2
340
0
 93
0
 40
0.045
309
GRIDFORMAT_END
 95
16
302
GRIDFORMAT
  1
GRIDFORMAT_BEGIN
 90
0
 91
1
 62
0
 92
-2
340
0
 93
0
 40
0.045
309
GRIDFORMAT_END
 95
32
302
GRIDFORMAT
  1
GRIDFORMAT_BEGIN
 90
0
 91
1
 62
0
 92
-2
340
0
 93
0
 40
0.045
309
GRIDFORMAT_END
309
TABLEFORMAT_END
  1
CELLSTYLE_BEGIN
 90
1
 91
1
300
_TITLE
309
CELLSTYLE_END
300
CELLSTYLE
  1
TABLEFORMAT_BEGIN
 90
5
170
1
 91
0
 92
0
 62
257
 93
1
300
CONTENTFORMAT
  1
CONTENTFORMAT_BEGIN
 90
0
 91
0
 92
512
 93
0
300

 40
0.0
140
1.0
 94
5
 62
0
340
11
144
0.18
309
CONTENTFORMAT_END
171
1
301
MARGIN
  1
CELLMARGIN_BEGIN
 40
0.06
 40
0.06
 40
0.06
 40
0.06
 40
0.18
 40
0.18
309
CELLMARGIN_END
 94
6
 95
1
302
GRIDFORMAT
  1
GRIDFORMAT_BEGIN
 90
0
 91
1
 62
0
 92
-2
340
0
 93
0
 40
0.045
309
GRIDFORMAT_END
 95
2
302
GRIDFORMAT
  1
GRIDFORMAT_BEGIN
 90
0
 91
1
 62
0
 92
-2
340
0
 93
0
 40
0.045
309
GRIDFORMAT_END
 95
4
302
GRIDFORMAT
  1
GRIDFORMAT_BEGIN
 90
0
 91
1
 62
0
 92
-2
340
0
 93
0
 40
0.045
309
GRIDFORMAT_END
 95
8
302
GRIDFORMAT
  1
GRIDFORMAT_BEGIN
 90
0
 91
1
 62
0
 92
-2
340
0
 93
0
 40
0.045
309
GRIDFORMAT_END
 95
16
302
GRIDFORMAT
  1
GRIDFORMAT_BEGIN
 90
0
 91
1
 62
0
 92
-2
340
0
 93
0
 40
0.045
309
GRIDFORMAT_END
 95
32
302
GRIDFORMAT
  1
GRIDFORMAT_BEGIN
 90
0
 91
1
 62
0
 92
-2
340
0
 93
0
 40
0.045
309
GRIDFORMAT_END
309
TABLEFORMAT_END
  1
CELLSTYLE_BEGIN
 90
2
 91
1
300
_HEADER
309
CELLSTYLE_END
300
CELLSTYLE
  1
TABLEFORMAT_BEGIN
 90
5
170
1
 91
0
 92
0
 62
257
 93
1
300
CONTENTFORMAT
  1
CONTENTFORMAT_BEGIN
 90
0
 91
0
 92
512
 93
0
300

 40
0.0
140
1.0
 94
2
 62
0
340
11
144
0.18
309
CONTENTFORMAT_END
171
1
301
MARGIN
  1
CELLMARGIN_BEGIN
 40
0.06
 40
0.06
 40
0.06
 40
0.06
 40
0.18
 40
0.18
309
CELLMARGIN_END
 94
6
 95
1
302
GRIDFORMAT
  1
GRIDFORMAT_BEGIN
 90
0
 91
1
 62
0
 92
-2
340
0
 93
0
 40
0.045
309
GRIDFORMAT_END
 95
2
302
GRIDFORMAT
  1
GRIDFORMAT_BEGIN
 90
0
 91
1
 62
0
 92
-2
340
0
 93
0
 40
0.045
309
GRIDFORMAT_END
 95
4
302
GRIDFORMAT
  1
GRIDFORMAT_BEGIN
 90
0
 91
1
 62
0
 92
-2
340
0
 93
0
 40
0.045
309
GRIDFORMAT_END
 95
8
302
GRIDFORMAT
  1
GRIDFORMAT_BEGIN
 90
0
 91
1
 62
0
 92
-2
340
0
 93
0
 40
0.045
309
GRIDFORMAT_END
 95
16
302
GRIDFORMAT
  1
GRIDFORMAT_BEGIN
 90
0
 91
1
 62
0
 92
-2
340
0
 93
0
 40
0.045
309
GRIDFORMAT_END
 95
32
302
GRIDFORMAT
  1
GRIDFORMAT_BEGIN
 90
0
 91
1
 62
0
 92
-2
340
0
 93
0
 40
0.045
309
GRIDFORMAT_END
309
TABLEFORMAT_END
  1
CELLSTYLE_BEGIN
 90
3
 91
2
300
_DATA
309
CELLSTYLE_END
  0
ENDSEC
  0
SECTION
  2
ACDSDATA
 70
2
 71
2
  0
ACDSSCHEMA
 90
0
  1
AcDb_Thumbnail_Schema
  2
AcDbDs::ID
280
10
 91
8
  2
Thumbnail_Data
280
15
 91
0
101
ACDSRECORD
 95
0
 90
1
  2
AcDbDs::TreatedAsObjectData
280
1
291
1
101
ACDSRECORD
 95
0
 90
2
  2
AcDbDs::Legacy
280
1
291
1
101
ACDSRECORD
  1
AcDbDs::ID
 90
3
  2
AcDs:Indexable
280
1
291
1
101
ACDSRECORD
  1
AcDbDs::ID
 90
4
  2
AcDbDs::HandleAttribute
280
7
282
1
  0
ACDSSCHEMA
 90
1
  1
AcDbDs::TreatedAsObjectDataSchema
  2
AcDbDs::TreatedAsObjectData
280
1
 91
0
  0
ACDSSCHEMA
 90
2
  1
AcDbDs::LegacySchema
  2
AcDbDs::Legacy
280
1
 91
0
  0
ACDSSCHEMA
 90
3
  1
AcDbDs::IndexedPropertySchema
  2
AcDs:Indexable
280
1
 91
0
  0
ACDSSCHEMA
 90
4
  1
AcDbDs::HandleAttributeSchema
  2
AcDbDs::HandleAttribute
280
7
 91
1
284
1
  0
ACDSRECORD
 90
0
  2
AcDbDs::ID
280
10
320
59
  2
Thumbnail_Data
280
15
 94
1174
310
89504E470D0A1A0A0000000D4948445200000100000000C608030000000A6AAE4900000300504C5445FFFFFF000000FFFFFF0000000000000000000000000000000000000000000000000000330000660000990000CC0000FF0033000033330033660033990033CC0033FF0066000066330066660066990066CC0066FF0099
310
000099330099660099990099CC0099FF00CC0000CC3300CC6600CC9900CCCC00CCFF00FF0000FF3300FF6600FF9900FFCC00FFFF3300003300333300663300993300CC3300FF3333003333333333663333993333CC3333FF3366003366333366663366993366CC3366FF3399003399333399663399993399CC3399FF33CC00
310
33CC3333CC6633CC9933CCCC33CCFF33FF0033FF3333FF6633FF9933FFCC33FFFF6600006600336600666600996600CC6600FF6633006633336633666633996633CC6633FF6666006666336666666666996666CC6666FF6699006699336699666699996699CC6699FF66CC0066CC3366CC6666CC9966CCCC66CCFF66FF0066
310
FF3366FF6666FF9966FFCC66FFFF9900009900339900669900999900CC9900FF9933009933339933669933999933CC9933FF9966009966339966669966999966CC9966FF9999009999339999669999999999CC9999FF99CC0099CC3399CC6699CC9999CCCC99CCFF99FF0099FF3399FF6699FF9999FFCC99FFFFCC0000CC00
310
33CC0066CC0099CC00CCCC00FFCC3300CC3333CC3366CC3399CC33CCCC33FFCC6600CC6633CC6666CC6699CC66CCCC66FFCC9900CC9933CC9966CC9999CC99CCCC99FFCCCC00CCCC33CCCC66CCCC99CCCCCCCCCCFFCCFF00CCFF33CCFF66CCFF99CCFFCCCCFFFFFF0000FF0033FF0066FF0099FF00CCFF00FFFF3300FF3333
310
FF3366FF3399FF33CCFF33FFFF6600FF6633FF6666FF6699FF66CCFF66FFFF9900FF9933FF9966FF9999FF99CCFF99FFFFCC00FFCC33FFCC66FFCC99FFCCCCFFCCFFFFFF00FFFF33FFFF66FFFF99FFFFCCFFFFFF0000000D0D0D1A1A1A2828283535354343435050505D5D5D6B6B6B787878868686939393A1A1A1AEAEAEBB
310
BBBBC9C9C9D6D6D6E4E4E4F1F1F1FFFFFF000000000000000000000000000000000000000000000000000000000000790CAC0F000001514944415478DAEDD93112C330080440FDFF99FA802AFA14E9ACF184248D054B890615ABE68CC7EC5D6BCCE85C00DA034C00736BBD6B6BFC7CF0A89B1200B55F1C0000000000000020
310
090200000000000000000010853F0014F8F7F12740AD4707000000000000000000000000000000321BA162000100000000000000002009020000000000000000000000000000000000A4C6CF070800000000000000000000A23000000000000000000000000000000000004066FC7C80000000000000000000900401000000
310
000000000000000000000000000052E3E70304000000000000000000005118000000000000000000000000000000000020337E3E40000000000000000000488200000000000000000000000000000000807B80F3EB4B805E05000000000000000000A052F84F7F180000000000000000B6D6659174BB61CA1E3CEA26491000
310
00001780E635D65AAD015EA42CCBB24CA76DCA0000000049454E44AE426082
  0
ENDSEC
  0
EOF
