  0
SECTION
  2
HEADER
  9
$ACADVER
  1
AC1027
  9
$ACADMAINTVER
 70
8
  9
$DWGCODEPAGE
  3
ANSI_1252
  9
$LASTSAVEDBY
  1
unknown
  9
$REQUIREDVERSIONS
160
0
  9
$INSBASE
 10
0.0
 20
0.0
 30
0.0
  9
$EXTMIN
 10
1e+20
 20
1e+20
 30
1e+20
  9
$EXTMAX
 10
-1e+20
 20
-1e+20
 30
-1e+20
  9
$LIMMIN
 10
0.0
 20
0.0
  9
$LIMMAX
 10
12.0
 20
9.0
  9
$ORTHOMODE
 70
0
  9
$REGENMODE
 70
1
  9
$FILLMODE
 70
1
  9
$QTEXTMODE
 70
0
  9
$MIRRTEXT
 70
0
  9
$LTSCALE
 40
1.0
  9
$ATTMODE
 70
1
  9
$TEXTSIZE
 40
0.2
  9
$TRACEWID
 40
0.05
  9
$TEXTSTYLE
  7
Notes
  9
$CLAYER
  8
0
  9
$CELTYPE
  6
ByLayer
  9
$CECOLOR
 62
256
  9
$CELTSCALE
 40
1.0
  9
$DISPSILH
 70
0
  9
$DIMSCALE
 40
1.0
  9
$DIMASZ
 40
3.0
  9
$DIMEXO
 40
1.5
  9
$DIMDLI
 40
6.0
  9
$DIMRND
 40
0.0
  9
$DIMDLE
 40
0.0
  9
$DIMEXE
 40
3.0
  9
$DIMTP
 40
0.0
  9
$DIMTM
 40
0.0
  9
$DIMTXT
 40
3.0
  9
$DIMCEN
 40
3.0
  9
$DIMTSZ
 40
0.0
  9
$DIMTOL
 70
0
  9
$DIMLIM
 70
0
  9
$DIMTIH
 70
0
  9
$DIMTOH
 70
0
  9
$DIMSE1
 70
0
  9
$DIMSE2
 70
0
  9
$DIMTAD
 70
1
  9
$DIMZIN
 70
3
  9
$DIMBLK
  1

  9
$DIMASO
 70
1
  9
$DIMSHO
 70
1
  9
$DIMPOST
  1

  9
$DIMAPOST
  1

  9
$DIMALT
 70
0
  9
$DIMALTD
 70
2
  9
$DIMALTF
 40
25.4
  9
$DIMLFAC
 40
1.0
  9
$DIMTOFL
 70
0
  9
$DIMTVP
 40
0.0
  9
$DIMTIX
 70
0
  9
$DIMSOXD
 70
0
  9
$DIMSAH
 70
0
  9
$DIMBLK1
  1

  9
$DIMBLK2
  1

  9
$DIMSTYLE
  2
Civil-Metric
  9
$DIMCLRD
 70
0
  9
$DIMCLRE
 70
0
  9
$DIMCLRT
 70
0
  9
$DIMTFAC
 40
1.0
  9
$DIMGAP
 40
2.0
  9
$DIMJUST
 70
0
  9
$DIMSD1
 70
0
  9
$DIMSD2
 70
0
  9
$DIMTOLJ
 70
1
  9
$DIMTZIN
 70
0
  9
$DIMALTZ
 70
0
  9
$DIMALTTZ
 70
0
  9
$DIMUPT
 70
0
  9
$DIMDEC
 70
2
  9
$DIMTDEC
 70
2
  9
$DIMALTU
 70
2
  9
$DIMALTTD
 70
2
  9
$DIMTXSTY
  7
Standard
  9
$DIMAUNIT
 70
0
  9
$DIMADEC
 70
2
  9
$DIMALTRND
 40
0.0
  9
$DIMAZIN
 70
2
  9
$DIMDSEP
 70
46
  9
$DIMATFIT
 70
3
  9
$DIMFRAC
 70
1
  9
$DIMLDRBLK
  1

  9
$DIMLUNIT
 70
2
  9
$DIMLWD
 70
-2
  9
$DIMLWE
 70
-2
  9
$DIMTMOVE
 70
0
  9
$DIMFXL
 40
1.0
  9
$DIMFXLON
 70
0
  9
$DIMJOGANG
 40
0.785398163397
  9
$DIMTFILL
 70
0
  9
$DIMTFILLCLR
 70
0
  9
$DIMARCSYM
 70
0
  9
$DIMLTYPE
  6

  9
$DIMLTEX1
  6

  9
$DIMLTEX2
  6

  9
$DIMTXTDIRECTION
 70
0
  9
$LUNITS
 70
2
  9
$LUPREC
 70
4
  9
$SKETCHINC
 40
0.1
  9
$FILLETRAD
 40
0.0
  9
$AUNITS
 70
4
  9
$AUPREC
 70
5
  9
$MENU
  1
.
  9
$ELEVATION
 40
0.0
  9
$PELEVATION
 40
0.0
  9
$THICKNESS
 40
0.0
  9
$LIMCHECK
 70
0
  9
$CHAMFERA
 40
0.0
  9
$CHAMFERB
 40
0.0
  9
$CHAMFERC
 40
0.0
  9
$CHAMFERD
 40
0.0
  9
$SKPOLY
 70
0
  9
$TDCREATE
 40
2457318.79564
  9
$TDUCREATE
 40
2455631.2632
  9
$TDUPDATE
 40
2457318.79564
  9
$TDUUPDATE
 40
2456436.43179
  9
$TDINDWG
 40
0.0003490741
  9
$TDUSRTIMER
 40
0.0003487153
  9
$USRTIMER
 70
1
  9
$ANGBASE
 50
0.0
  9
$ANGDIR
 70
0
  9
$PDMODE
 70
0
  9
$PDSIZE
 40
0.0
  9
$PLINEWID
 40
0.0
  9
$SPLFRAME
 70
0
  9
$SPLINETYPE
 70
6
  9
$SPLINESEGS
 70
8
  9
$HANDSEED
  5
873
  9
$SURFTAB1
 70
6
  9
$SURFTAB2
 70
6
  9
$SURFTYPE
 70
6
  9
$SURFU
 70
6
  9
$SURFV
 70
6
  9
$UCSBASE
  2

  9
$UCSNAME
  2

  9
$UCSORG
 10
0.0
 20
0.0
 30
0.0
  9
$UCSXDIR
 10
1.0
 20
0.0
 30
0.0
  9
$UCSYDIR
 10
0.0
 20
1.0
 30
0.0
  9
$UCSORTHOREF
  2

  9
$UCSORTHOVIEW
 70
0
  9
$UCSORGTOP
 10
0.0
 20
0.0
 30
0.0
  9
$UCSORGBOTTOM
 10
0.0
 20
0.0
 30
0.0
  9
$UCSORGLEFT
 10
0.0
 20
0.0
 30
0.0
  9
$UCSORGRIGHT
 10
0.0
 20
0.0
 30
0.0
  9
$UCSORGFRONT
 10
0.0
 20
0.0
 30
0.0
  9
$UCSORGBACK
 10
0.0
 20
0.0
 30
0.0
  9
$PUCSBASE
  2

  9
$PUCSNAME
  2

  9
$PUCSORG
 10
0.0
 20
0.0
 30
0.0
  9
$PUCSXDIR
 10
1.0
 20
0.0
 30
0.0
  9
$PUCSYDIR
 10
0.0
 20
1.0
 30
0.0
  9
$PUCSORTHOREF
  2

  9
$PUCSORTHOVIEW
 70
0
  9
$PUCSORGTOP
 10
0.0
 20
0.0
 30
0.0
  9
$PUCSORGBOTTOM
 10
0.0
 20
0.0
 30
0.0
  9
$PUCSORGLEFT
 10
0.0
 20
0.0
 30
0.0
  9
$PUCSORGRIGHT
 10
0.0
 20
0.0
 30
0.0
  9
$PUCSORGFRONT
 10
0.0
 20
0.0
 30
0.0
  9
$PUCSORGBACK
 10
0.0
 20
0.0
 30
0.0
  9
$USERI1
 70
0
  9
$USERI2
 70
0
  9
$USERI3
 70
0
  9
$USERI4
 70
0
  9
$USERI5
 70
0
  9
$USERR1
 40
0.0
  9
$USERR2
 40
0.0
  9
$USERR3
 40
0.0
  9
$USERR4
 40
0.0
  9
$USERR5
 40
0.0
  9
$WORLDVIEW
 70
1
  9
$SHADEDGE
 70
3
  9
$SHADEDIF
 70
70
  9
$TILEMODE
 70
1
  9
$MAXACTVP
 70
64
  9
$PINSBASE
 10
0.0
 20
0.0
 30
0.0
  9
$PLIMCHECK
 70
0
  9
$PEXTMIN
 10
0.628866766397
 20
0.799999952316
 30
0.0
  9
$PEXTMAX
 10
9.02886638493
 20
7.19999957085
 30
0.0
  9
$PLIMMIN
 10
-0.700541819174
 20
-0.228100386192
  9
$PLIMMAX
 10
10.2994579405
 20
8.27189937351
  9
$UNITMODE
 70
0
  9
$VISRETAIN
 70
1
  9
$PLINEGEN
 70
0
  9
$PSLTSCALE
 70
1
  9
$TREEDEPTH
 70
3020
  9
$CMLSTYLE
  2
Standard
  9
$CMLJUST
 70
0
  9
$CMLSCALE
 40
1.0
  9
$PROXYGRAPHICS
 70
1
  9
$MEASUREMENT
 70
1
  9
$CELWEIGHT
370
-1
  9
$ENDCAPS
280
0
  9
$JOINSTYLE
280
0
  9
$LWDISPLAY
290
0
  9
$INSUNITS
 70
4
  9
$HYPERLINKBASE
  1

  9
$STYLESHEET
  1

  9
$XEDIT
290
1
  9
$CEPSNTYPE
380
0
  9
$PSTYLEMODE
290
1
  9
$FINGERPRINTGUID
  2
{39DB1BDD-BC6C-46D3-A333-DFCC0DC4782D}
  9
$VERSIONGUID
  2
{69EEBB2D-7039-498F-9366-3F994E4A07E7}
  9
$EXTNAMES
290
1
  9
$PSVPSCALE
 40
0.0
  9
$OLESTARTUP
290
0
  9
$SORTENTS
280
127
  9
$INDEXCTL
280
0
  9
$HIDETEXT
280
1
  9
$XCLIPFRAME
280
0
  9
$HALOGAP
280
0
  9
$OBSCOLOR
 70
257
  9
$OBSLTYPE
280
0
  9
$INTERSECTIONDISPLAY
280
0
  9
$INTERSECTIONCOLOR
 70
257
  9
$DIMASSOC
280
2
  9
$PROJECTNAME
  1

  9
$CAMERADISPLAY
290
0
  9
$LENSLENGTH
 40
50.0
  9
$CAMERAHEIGHT
 40
0.0
  9
$STEPSPERSEC
 40
2.0
  9
$STEPSIZE
 40
6.0
  9
$3DDWFPREC
 40
2.0
  9
$PSOLWIDTH
 40
0.25
  9
$PSOLHEIGHT
 40
4.0
  9
$LOFTANG1
 40
1.57079632679
  9
$LOFTANG2
 40
1.57079632679
  9
$LOFTMAG1
 40
0.0
  9
$LOFTMAG2
 40
0.0
  9
$LOFTPARAM
 70
7
  9
$LOFTNORMALS
280
1
  9
$LATITUDE
 40
37.795
  9
$LONGITUDE
 40
-122.394
  9
$NORTHDIRECTION
 40
0.0
  9
$TIMEZONE
 70
-8000
  9
$LIGHTGLYPHDISPLAY
280
1
  9
$TILEMODELIGHTSYNCH
280
1
  9
$CMATERIAL
347
96
  9
$SOLIDHIST
280
1
  9
$SHOWHIST
280
1
  9
$DWFFRAME
280
2
  9
$DGNFRAME
280
0
  9
$REALWORLDSCALE
290
1
  9
$INTERFERECOLOR
 62
1
  9
$INTERFEREOBJVS
345
A3
  9
$INTERFEREVPVS
346
A0
  9
$CSHADOW
280
0
  9
$SHADOWPLANELOCATION
 40
0.0
  0
ENDSEC
  0
SECTION
  2
CLASSES
  0
CLASS
  1
ACDBDICTIONARYWDFLT
  2
AcDbDictionaryWithDefault
  3
ObjectDBX Classes
 90
0
 91
1
280
0
281
0
  0
CLASS
  1
DICTIONARYVAR
  2
AcDbDictionaryVar
  3
ObjectDBX Classes
 90
0
 91
15
280
0
281
0
  0
CLASS
  1
TABLESTYLE
  2
AcDbTableStyle
  3
ObjectDBX Classes
 90
4095
 91
1
280
0
281
0
  0
CLASS
  1
MATERIAL
  2
AcDbMaterial
  3
ObjectDBX Classes
 90
1153
 91
3
280
0
281
0
  0
CLASS
  1
VISUALSTYLE
  2
AcDbVisualStyle
  3
ObjectDBX Classes
 90
4095
 91
26
280
0
281
0
  0
CLASS
  1
SCALE
  2
AcDbScale
  3
ObjectDBX Classes
 90
1153
 91
17
280
0
281
0
  0
CLASS
  1
MLEADERSTYLE
  2
AcDbMLeaderStyle
  3
ACDB_MLEADERSTYLE_CLASS
 90
4095
 91
3
280
0
281
0
  0
CLASS
  1
CELLSTYLEMAP
  2
AcDbCellStyleMap
  3
ObjectDBX Classes
 90
1152
 91
2
280
0
281
0
  0
CLASS
  1
EXACXREFPANELOBJECT
  2
ExAcXREFPanelObject
  3
EXAC_ESW
 90
1025
 91
0
280
0
281
0
  0
CLASS
  1
NPOCOLLECTION
  2
AcDbImpNonPersistentObjectsCollection
  3
ObjectDBX Classes
 90
1153
 91
0
280
0
281
0
  0
CLASS
  1
LAYER_INDEX
  2
AcDbLayerIndex
  3
ObjectDBX Classes
 90
0
 91
0
280
0
281
0
  0
CLASS
  1
SPATIAL_INDEX
  2
AcDbSpatialIndex
  3
ObjectDBX Classes
 90
0
 91
0
280
0
281
0
  0
CLASS
  1
IDBUFFER
  2
AcDbIdBuffer
  3
ObjectDBX Classes
 90
0
 91
0
280
0
281
0
  0
CLASS
  1
DIMASSOC
  2
AcDbDimAssoc
  3
"AcDbDimAssoc|Product Desc:     AcDim ARX App For Dimension|Company:          Autodesk, Inc.|WEB Address:      www.autodesk.com"
 90
0
 91
0
280
0
281
0
  0
CLASS
  1
ACDBSECTIONVIEWSTYLE
  2
AcDbSectionViewStyle
  3
ObjectDBX Classes
 90
1025
 91
1
280
0
281
0
  0
CLASS
  1
ACDBDETAILVIEWSTYLE
  2
AcDbDetailViewStyle
  3
ObjectDBX Classes
 90
1025
 91
1
280
0
281
0
  0
ENDSEC
  0
SECTION
  2
TABLES
  0
TABLE
  2
VPORT
  5
8
330
0
100
AcDbSymbolTable
 70
1
  0
VPORT
  5
94
330
8
100
AcDbSymbolTableRecord
100
AcDbViewportTableRecord
  2
*Active
 70
0
 10
0.0
 20
0.0
 11
1.0
 21
1.0
 12
80.9008524104
 22
49.8327539172
 13
0.0
 23
0.0
 14
0.5
 24
0.5
 15
0.5
 25
0.5
 16
0.0
 26
0.0
 36
1.0
 17
0.0
 27
0.0
 37
0.0
 40
69.0394603599
 41
1.69347133758
 42
50.0
 43
0.0
 44
0.0
 50
0.0
 51
0.0
 71
0
 72
1000
 73
1
 74
3
 75
0
 76
0
 77
0
 78
0
281
0
 65
1
110
0.0
120
0.0
130
0.0
111
1.0
121
0.0
131
0.0
112
0.0
122
1.0
132
0.0
 79
0
146
0.0
348
9F
 60
2
 61
5
292
1
282
1
141
0.0
142
0.0
 63
250
421
3355443
1001
ACAD_NAV_VCDISPLAY
1070
3
  0
ENDTAB
  0
TABLE
  2
LTYPE
  5
5F
330
0
100
AcDbSymbolTable
 70
7
  0
LTYPE
  5
14
330
5F
100
AcDbSymbolTableRecord
100
AcDbLinetypeTableRecord
  2
ByBlock
 70
0
  3

 72
65
 73
0
 40
0.0
  0
LTYPE
  5
15
330
5F
100
AcDbSymbolTableRecord
100
AcDbLinetypeTableRecord
  2
ByLayer
 70
0
  3

 72
65
 73
0
 40
0.0
  0
LTYPE
  5
16
330
5F
100
AcDbSymbolTableRecord
100
AcDbLinetypeTableRecord
  2
Continuous
 70
0
  3
Solid line
 72
65
 73
0
 40
0.0
  0
LTYPE
  5
1B1
330
5F
100
AcDbSymbolTableRecord
100
AcDbLinetypeTableRecord
  2
CENTER
 70
0
  3
Center ____ _ ____ _ ____ _ ____ _ ____ _ ____
 72
65
 73
4
 40
2.0
 49
1.25
 74
0
 49
-0.25
 74
0
 49
0.25
 74
0
 49
-0.25
 74
0
  0
LTYPE
  5
1B2
330
5F
100
AcDbSymbolTableRecord
100
AcDbLinetypeTableRecord
  2
DASHED
 70
0
  3
Dashed __ __ __ __ __ __ __ __ __ __ __ __ __ _
 72
65
 73
2
 40
0.75
 49
0.5
 74
0
 49
-0.25
 74
0
  0
LTYPE
  5
1B3
330
5F
100
AcDbSymbolTableRecord
100
AcDbLinetypeTableRecord
  2
PHANTOM
 70
0
  3
Phantom ______  __  __  ______  __  __  ______
 72
65
 73
6
 40
2.5
 49
1.25
 74
0
 49
-0.25
 74
0
 49
0.25
 74
0
 49
-0.25
 74
0
 49
0.25
 74
0
 49
-0.25
 74
0
  0
LTYPE
  5
39E
330
5F
100
AcDbSymbolTableRecord
100
AcDbLinetypeTableRecord
  2
HIDDEN
 70
0
  3
Hidden __ __ __ __ __ __ __ __ __ __ __ __ __ __
 72
65
 73
2
 40
9.525
 49
6.35
 74
0
 49
-3.175
 74
0
  0
ENDTAB
  0
TABLE
  2
LAYER
  5
2
102
{ACAD_XDICTIONARY
360
2A2
102
}
330
0
100
AcDbSymbolTable
 70
11
  0
LAYER
  5
10
102
{ACAD_XDICTIONARY
360
E6
102
}
330
2
100
AcDbSymbolTableRecord
100
AcDbLayerTableRecord
  2
0
 70
0
 62
7
  6
Continuous
370
-3
390
F
347
98
348
0
  0
LAYER
  5
1B4
330
2
100
AcDbSymbolTableRecord
100
AcDbLayerTableRecord
  2
View Port
 70
0
 62
7
  6
Continuous
290
0
370
-3
390
F
347
98
348
0
1001
AcAecLayerStandard
1000

1000
View Ports, set to Not Plot
  0
LAYER
  5
21D
330
2
100
AcDbSymbolTableRecord
100
AcDbLayerTableRecord
  2
Defpoints
 70
0
 62
7
  6
Continuous
290
0
370
-3
390
F
347
98
348
0
  0
LAYER
  5
4E3
330
2
100
AcDbSymbolTableRecord
100
AcDbLayerTableRecord
  2
layer_73
 70
0
 62
1
  6
Continuous
290
1
390
E
  0
LAYER
  5
571
330
2
100
AcDbSymbolTableRecord
100
AcDbLayerTableRecord
  2
layer_70
 70
0
 62
0
  6
Continuous
290
1
390
E
  0
LAYER
  5
580
330
2
100
AcDbSymbolTableRecord
100
AcDbLayerTableRecord
  2
layer_77
 70
0
 62
1
  6
Continuous
290
1
390
E
  0
LAYER
  5
5EA
330
2
100
AcDbSymbolTableRecord
100
AcDbLayerTableRecord
  2
layer_65
 70
0
 62
1
  6
Continuous
290
1
390
E
  0
LAYER
  5
654
330
2
100
AcDbSymbolTableRecord
100
AcDbLayerTableRecord
  2
layer_66
 70
0
 62
0
  6
Continuous
290
1
390
E
  0
LAYER
  5
6DB
330
2
100
AcDbSymbolTableRecord
100
AcDbLayerTableRecord
  2
layer_74
 70
0
 62
0
  6
Continuous
290
1
390
E
  0
LAYER
  5
757
330
2
100
AcDbSymbolTableRecord
100
AcDbLayerTableRecord
  2
layer_69
 70
0
 62
1
  6
Continuous
290
1
390
E
  0
LAYER
  5
7C1
330
2
100
AcDbSymbolTableRecord
100
AcDbLayerTableRecord
  2
layer_78
 70
0
 62
0
  6
Continuous
290
1
390
E
  0
ENDTAB
  0
TABLE
  2
STYLE
  5
3
330
0
100
AcDbSymbolTable
 70
3
  0
STYLE
  5
11
330
3
100
AcDbSymbolTableRecord
100
AcDbTextStyleTableRecord
  2
Standard
 70
0
 40
0.0
 41
1.0
 50
0.0
 71
0
 42
0.2
  3
arial.ttf
  4

1001
ACAD
1000
Arial
1071
34
  0
STYLE
  5
DC
330
3
100
AcDbSymbolTableRecord
100
AcDbTextStyleTableRecord
  2
Annotative
 70
0
 40
0.0
 41
1.0
 50
0.0
 71
0
 42
0.2
  3
arial.ttf
  4

1001
AcadAnnotative
1000
AnnotativeData
1002
{
1070
1
1070
1
1002
}
1001
ACAD
1000
Arial
1071
34
  0
STYLE
  5
178
330
3
100
AcDbSymbolTableRecord
100
AcDbTextStyleTableRecord
  2
Notes
 70
0
 40
3.0
 41
1.0
 50
0.0
 71
0
 42
0.2
  3
arial.ttf
  4

1001
AcadAnnotative
1000
AnnotativeData
1002
{
1070
1
1070
1
1002
}
1001
AcadAnnoPO
1070
1
1001
ACAD
1000
Arial
1071
34
  0
ENDTAB
  0
TABLE
  2
VIEW
  5
6
330
0
100
AcDbSymbolTable
 70
0
  0
ENDTAB
  0
TABLE
  2
UCS
  5
7
330
0
100
AcDbSymbolTable
 70
0
  0
ENDTAB
  0
TABLE
  2
APPID
  5
9
330
0
100
AcDbSymbolTable
 70
11
  0
APPID
  5
12
330
9
100
AcDbSymbolTableRecord
100
AcDbRegAppTableRecord
  2
ACAD
 70
0
  0
APPID
  5
DD
330
9
100
AcDbSymbolTableRecord
100
AcDbRegAppTableRecord
  2
AcadAnnoPO
 70
0
  0
APPID
  5
DE
330
9
100
AcDbSymbolTableRecord
100
AcDbRegAppTableRecord
  2
AcadAnnotative
 70
0
  0
APPID
  5
DF
330
9
100
AcDbSymbolTableRecord
100
AcDbRegAppTableRecord
  2
ACAD_DSTYLE_DIMJAG
 70
0
  0
APPID
  5
E0
330
9
100
AcDbSymbolTableRecord
100
AcDbRegAppTableRecord
  2
ACAD_DSTYLE_DIMTALN
 70
0
  0
APPID
  5
107
330
9
100
AcDbSymbolTableRecord
100
AcDbRegAppTableRecord
  2
ACAD_MLEADERVER
 70
0
  0
APPID
  5
1B5
330
9
100
AcDbSymbolTableRecord
100
AcDbRegAppTableRecord
  2
AcAecLayerStandard
 70
0
  0
APPID
  5
1BA
330
9
100
AcDbSymbolTableRecord
100
AcDbRegAppTableRecord
  2
ACAD_EXEMPT_FROM_CAD_STANDARDS
 70
0
  0
APPID
  5
237
330
9
100
AcDbSymbolTableRecord
100
AcDbRegAppTableRecord
  2
ACAD_DSTYLE_DIMBREAK
 70
0
  0
APPID
  5
28E
330
9
100
AcDbSymbolTableRecord
100
AcDbRegAppTableRecord
  2
ACAD_PSEXT
 70
0
  0
APPID
  5
4B0
330
9
100
AcDbSymbolTableRecord
100
AcDbRegAppTableRecord
  2
ACAD_NAV_VCDISPLAY
 70
0
  0
ENDTAB
  0
TABLE
  2
DIMSTYLE
  5
A
330
0
100
AcDbSymbolTable
 70
3
100
AcDbDimStyleTable
 71
3
340
242
340
27
340
E1
  0
DIMSTYLE
105
27
330
A
100
AcDbSymbolTableRecord
100
AcDbDimStyleTableRecord
  2
Standard
 70
0
 41
3.0
 42
2.0
 43
9.0
 44
5.0
140
3.0
141
2.0
147
2.0
340
11
1001
ACAD_DSTYLE_DIMJAG
1070
388
1040
38.0
1001
ACAD_DSTYLE_DIMBREAK
1070
391
1040
90.0
1001
ACAD_DSTYLE_DIMTALN
1070
392
1070
0
  0
DIMSTYLE
105
E1
330
A
100
AcDbSymbolTableRecord
100
AcDbDimStyleTableRecord
  2
Annotative
 70
0
 40
0.0
 41
3.0
 42
2.5
 43
10.0
 44
5.0
140
3.0
141
2.0
147
2.0
340
11
1001
AcadAnnotative
1000
AnnotativeData
1002
{
1070
1
1070
1
1002
}
1001
ACAD_DSTYLE_DIMJAG
1070
388
1040
38.0
1001
ACAD_DSTYLE_DIMBREAK
1070
391
1040
90.0
1001
ACAD_DSTYLE_DIMTALN
1070
392
1070
0
  0
DIMSTYLE
105
242
330
A
100
AcDbSymbolTableRecord
100
AcDbDimStyleTableRecord
  2
Civil-Metric
 70
0
 41
3.0
 42
1.5
 43
6.0
 44
3.0
 73
0
 74
0
 77
1
 78
3
 79
2
140
3.0
141
3.0
147
2.0
179
2
271
2
272
2
276
1
340
11
1001
ACAD_DSTYLE_DIMBREAK
1070
391
1040
3.0
1001
ACAD_DSTYLE_DIMJAG
1070
388
1040
38.0
1001
ACAD_DSTYLE_DIMTALN
1070
392
1070
0
  0
ENDTAB
  0
TABLE
  2
BLOCK_RECORD
  5
1
330
0
100
AcDbSymbolTable
 70
4
  0
BLOCK_RECORD
  5
1F
102
{ACAD_XDICTIONARY
360
15D
102
}
330
1
100
AcDbSymbolTableRecord
100
AcDbBlockTableRecord
  2
*Model_Space
340
22
 70
0
280
1
281
0
  0
BLOCK_RECORD
  5
58
330
1
100
AcDbSymbolTableRecord
100
AcDbBlockTableRecord
  2
*Paper_Space
340
59
 70
0
280
1
281
0
  0
BLOCK_RECORD
  5
238
330
1
100
AcDbSymbolTableRecord
100
AcDbBlockTableRecord
  2
_ArchTick
340
0
 70
0
280
1
281
0
  0
BLOCK_RECORD
  5
23C
330
1
100
AcDbSymbolTableRecord
100
AcDbBlockTableRecord
  2
_Open30
340
0
 70
0
280
1
281
0
  0
ENDTAB
  0
ENDSEC
  0
SECTION
  2
BLOCKS
  0
BLOCK
  5
240
330
23C
100
AcDbEntity
  8
0
100
AcDbBlockBegin
  2
_Open30
 70
0
 10
0.0
 20
0.0
 30
0.0
  3
_Open30
  1

  0
LINE
  5
23D
330
23C
100
AcDbEntity
  8
0
  6
ByBlock
 62
0
370
-2
100
AcDbLine
 10
-1.0
 20
0.26794919
 30
0.0
 11
0.0
 21
0.0
 31
0.0
  0
LINE
  5
23E
330
23C
100
AcDbEntity
  8
0
  6
ByBlock
 62
0
370
-2
100
AcDbLine
 10
0.0
 20
0.0
 30
0.0
 11
-1.0
 21
-0.26794919
 31
0.0
  0
LINE
  5
23F
330
23C
100
AcDbEntity
  8
0
  6
ByBlock
 62
0
370
-2
100
AcDbLine
 10
0.0
 20
0.0
 30
0.0
 11
-1.0
 21
0.0
 31
0.0
  0
ENDBLK
  5
241
330
23C
100
AcDbEntity
  8
0
100
AcDbBlockEnd
  0
BLOCK
  5
20
330
1F
100
AcDbEntity
  8
0
100
AcDbBlockBegin
  2
*Model_Space
 70
0
 10
0.0
 20
0.0
 30
0.0
  3
*Model_Space
  1

  0
ENDBLK
  5
21
330
1F
100
AcDbEntity
  8
0
100
AcDbBlockEnd
  0
BLOCK
  5
5A
330
58
100
AcDbEntity
 67
1
  8
0
100
AcDbBlockBegin
  2
*Paper_Space
 70
0
 10
0.0
 20
0.0
 30
0.0
  3
*Paper_Space
  1

  0
ENDBLK
  5
5B
330
58
100
AcDbEntity
 67
1
  8
0
100
AcDbBlockEnd
  0
BLOCK
  5
23A
330
238
100
AcDbEntity
  8
0
100
AcDbBlockBegin
  2
_ArchTick
 70
0
 10
0.0
 20
0.0
 30
0.0
  3
_ArchTick
  1

  0
LWPOLYLINE
  5
239
330
238
100
AcDbEntity
  8
0
  6
ByBlock
 62
0
100
AcDbPolyline
 90
2
 70
0
 43
0.15
 10
-0.5
 20
-0.5
 10
0.5
 20
0.5
  0
ENDBLK
  5
23B
330
238
100
AcDbEntity
  8
0
100
AcDbBlockEnd
  0
ENDSEC
  0
SECTION
  2
ENTITIES
  0
POLYLINE
  5
4E4
330
1F
100
AcDbEntity
  8
layer_73
 67
0
100
AcDb2dPolyline
 66
1
 70
0
 10
0.0
 20
0.0
 30
0.0
  0
VERTEX
  5
4E6
330
1F
100
AcDbEntity
  8
0
 67
0
100
AcDbVertex
100
AcDb2dVertex
 10
3.0
 20
164.1329
 40
0.0
 41
0.0
 42
0.0
 70
0
  0
VERTEX
  5
4E7
330
1F
100
AcDbEntity
  8
0
 67
0
100
AcDbVertex
100
AcDb2dVertex
 10
3.1202
 20
162.9894
 40
0.0
 41
0.0
 42
0.0
 70
0
  0
VERTEX
  5
4E8
330
1F
100
AcDbEntity
  8
0
 67
0
100
AcDbVertex
100
AcDb2dVertex
 10
3.4755
 20
161.8958
 40
0.0
 41
0.0
 42
0.0
 70
0
  0
VERTEX
  5
4E9
330
1F
100
AcDbEntity
  8
0
 67
0
100
AcDbVertex
100
AcDb2dVertex
 10
4.0504
 20
160.9001
 40
0.0
 41
0.0
 42
0.0
 70
0
  0
VERTEX
  5
4EA
330
1F
100
AcDbEntity
  8
0
 67
0
100
AcDbVertex
100
AcDb2dVertex
 10
4.8198
 20
160.0456
 40
0.0
 41
0.0
 42
0.0
 70
0
  0
VERTEX
  5
4EB
330
1F
100
AcDbEntity
  8
0
 67
0
100
AcDbVertex
100
AcDb2dVertex
 10
5.75
 20
159.3698
 40
0.0
 41
0.0
 42
0.0
 70
0
  0
VERTEX
  5
4EC
330
1F
100
AcDbEntity
  8
0
 67
0
100
AcDbVertex
100
AcDb2dVertex
 10
6.8004
 20
158.9021
 40
0.0
 41
0.0
 42
0.0
 70
0
  0
VERTEX
  5
4ED
330
1F
100
AcDbEntity
  8
0
 67
0
100
AcDbVertex
100
AcDb2dVertex
 10
7.9251
 20
158.663
 40
0.0
 41
0.0
 42
0.0
 70
0
  0
VERTEX
  5
4EE
330
1F
100
AcDbEntity
  8
0
 67
0
100
AcDbVertex
100
AcDb2dVertex
 10
9.0749
 20
158.663
 40
0.0
 41
0.0
 42
0.0
 70
0
  0
VERTEX
  5
4EF
330
1F
100
AcDbEntity
  8
0
 67
0
100
AcDbVertex
100
AcDb2dVertex
 10
10.1996
 20
158.9021
 40
0.0
 41
0.0
 42
0.0
 70
0
  0
VERTEX
  5
4F0
330
1F
100
AcDbEntity
  8
0
 67
0
100
AcDbVertex
100
AcDb2dVertex
 10
56.7678
 20
173.8176
 40
0.0
 41
0.0
 42
0.0
 70
0
  0
VERTEX
  5
4F1
330
1F
100
AcDbEntity
  8
0
 67
0
100
AcDbVertex
100
AcDb2dVertex
 10
57.8182
 20
174.28529
 40
0.0
 41
0.0
 42
0.0
 70
0
  0
VERTEX
  5
4F2
330
1F
100
AcDbEntity
  8
0
 67
0
100
AcDbVertex
100
AcDb2dVertex
 10
58.7485
 20
174.96113
 40
0.0
 41
0.0
 42
0.0
 70
0
  0
VERTEX
  5
4F3
330
1F
100
AcDbEntity
  8
0
 67
0
100
AcDbVertex
100
AcDb2dVertex
 10
59.5178
 20
175.81561
 40
0.0
 41
0.0
 42
0.0
 70
0
  0
VERTEX
  5
4F4
330
1F
100
AcDbEntity
  8
0
 67
0
100
AcDbVertex
100
AcDb2dVertex
 10
60.0927
 20
176.81137
 40
0.0
 41
0.0
 42
0.0
 70
0
  0
VERTEX
  5
4F5
330
1F
100
AcDbEntity
  8
0
 67
0
100
AcDbVertex
100
AcDb2dVertex
 10
60.448
 20
177.90491
 40
0.0
 41
0.0
 42
0.0
 70
0
  0
VERTEX
  5
4F6
330
1F
100
AcDbEntity
  8
0
 67
0
100
AcDbVertex
100
AcDb2dVertex
 10
60.5682
 20
179.04843
 40
0.0
 41
0.0
 42
0.0
 70
0
  0
VERTEX
  5
4F7
330
1F
100
AcDbEntity
  8
0
 67
0
100
AcDbVertex
100
AcDb2dVertex
 10
60.448
 20
180.19194
 40
0.0
 41
0.0
 42
0.0
 70
0
  0
VERTEX
  5
4F8
330
1F
100
AcDbEntity
  8
0
 67
0
100
AcDbVertex
100
AcDb2dVertex
 10
60.0927
 20
181.28548
 40
0.0
 41
0.0
 42
0.0
 70
0
  0
VERTEX
  5
4F9
330
1F
100
AcDbEntity
  8
0
 67
0
100
AcDbVertex
100
AcDb2dVertex
 10
59.5178
 20
182.28124
 40
0.0
 41
0.0
 42
0.0
 70
0
  0
VERTEX
  5
4FA
330
1F
100
AcDbEntity
  8
0
 67
0
100
AcDbVertex
100
AcDb2dVertex
 10
58.7485
 20
183.135722
 40
0.0
 41
0.0
 42
0.0
 70
0
  0
VERTEX
  5
4FB
330
1F
100
AcDbEntity
  8
0
 67
0
100
AcDbVertex
100
AcDb2dVertex
 10
57.8182
 20
183.811565
 40
0.0
 41
0.0
 42
0.0
 70
0
  0
VERTEX
  5
4FC
330
1F
100
AcDbEntity
  8
0
 67
0
100
AcDbVertex
100
AcDb2dVertex
 10
56.7678
 20
184.279236
 40
0.0
 41
0.0
 42
0.0
 70
0
  0
VERTEX
  5
4FD
330
1F
100
AcDbEntity
  8
0
 67
0
100
AcDbVertex
100
AcDb2dVertex
 10
55.6431
 20
184.518296
 40
0.0
 41
0.0
 42
0.0
 70
0
  0
VERTEX
  5
4FE
330
1F
100
AcDbEntity
  8
0
 67
0
100
AcDbVertex
100
AcDb2dVertex
 10
24.074907
 20
189.60277
 40
0.0
 41
0.0
 42
0.0
 70
0
  0
VERTEX
  5
4FF
330
1F
100
AcDbEntity
  8
0
 67
0
100
AcDbVertex
100
AcDb2dVertex
 10
22.925093
 20
189.60277
 40
0.0
 41
0.0
 42
0.0
 70
0
  0
VERTEX
  5
500
330
1F
100
AcDbEntity
  8
0
 67
0
100
AcDbVertex
100
AcDb2dVertex
 10
21.80041
 20
189.36371
 40
0.0
 41
0.0
 42
0.0
 70
0
  0
VERTEX
  5
501
330
1F
100
AcDbEntity
  8
0
 67
0
100
AcDbVertex
100
AcDb2dVertex
 10
20.75
 20
188.89604
 40
0.0
 41
0.0
 42
0.0
 70
0
  0
VERTEX
  5
502
330
1F
100
AcDbEntity
  8
0
 67
0
100
AcDbVertex
100
AcDb2dVertex
 10
19.81978
 20
188.2202
 40
0.0
 41
0.0
 42
0.0
 70
0
  0
VERTEX
  5
503
330
1F
100
AcDbEntity
  8
0
 67
0
100
AcDbVertex
100
AcDb2dVertex
 10
19.05041
 20
187.36572
 40
0.0
 41
0.0
 42
0.0
 70
0
  0
VERTEX
  5
504
330
1F
100
AcDbEntity
  8
0
 67
0
100
AcDbVertex
100
AcDb2dVertex
 10
4.0504
 20
167.3657
 40
0.0
 41
0.0
 42
0.0
 70
0
  0
VERTEX
  5
505
330
1F
100
AcDbEntity
  8
0
 67
0
100
AcDbVertex
100
AcDb2dVertex
 10
3.4755
 20
166.37
 40
0.0
 41
0.0
 42
0.0
 70
0
  0
VERTEX
  5
506
330
1F
100
AcDbEntity
  8
0
 67
0
100
AcDbVertex
100
AcDb2dVertex
 10
3.1202
 20
165.2764
 40
0.0
 41
0.0
 42
0.0
 70
0
  0
VERTEX
  5
507
330
1F
100
AcDbEntity
  8
0
 67
0
100
AcDbVertex
100
AcDb2dVertex
 10
3.0
 20
164.1329
 40
0.0
 41
0.0
 42
0.0
 70
0
  0
SEQEND
  5
4E5
330
0
100
AcDbEntity
 67
0
  0
POLYLINE
  5
508
330
1F
100
AcDbEntity
  8
layer_73
 67
0
100
AcDb2dPolyline
 66
1
 70
0
 10
0.0
 20
0.0
 30
0.0
  0
VERTEX
  5
50A
330
1F
100
AcDbEntity
  8
0
 67
0
100
AcDbVertex
100
AcDb2dVertex
 10
24.182816
 20
180.70016
 40
0.0
 41
0.0
 42
0.0
 70
0
  0
VERTEX
  5
50B
330
1F
100
AcDbEntity
  8
0
 67
0
100
AcDbVertex
100
AcDb2dVertex
 10
24.83939
 20
180.89933
 40
0.0
 41
0.0
 42
0.0
 70
0
  0
VERTEX
  5
50C
330
1F
100
AcDbEntity
  8
0
 67
0
100
AcDbVertex
100
AcDb2dVertex
 10
25.44449
 20
181.22276
 40
0.0
 41
0.0
 42
0.0
 70
0
  0
VERTEX
  5
50D
330
1F
100
AcDbEntity
  8
0
 67
0
100
AcDbVertex
100
AcDb2dVertex
 10
25.97487
 20
181.65803
 40
0.0
 41
0.0
 42
0.0
 70
0
  0
VERTEX
  5
50E
330
1F
100
AcDbEntity
  8
0
 67
0
100
AcDbVertex
100
AcDb2dVertex
 10
26.41014
 20
182.18841
 40
0.0
 41
0.0
 42
0.0
 70
0
  0
VERTEX
  5
50F
330
1F
100
AcDbEntity
  8
0
 67
0
100
AcDbVertex
100
AcDb2dVertex
 10
26.73357
 20
182.79351
 40
0.0
 41
0.0
 42
0.0
 70
0
  0
VERTEX
  5
510
330
1F
100
AcDbEntity
  8
0
 67
0
100
AcDbVertex
100
AcDb2dVertex
 10
26.93274
 20
183.450084
 40
0.0
 41
0.0
 42
0.0
 70
0
  0
VERTEX
  5
511
330
1F
100
AcDbEntity
  8
0
 67
0
100
AcDbVertex
100
AcDb2dVertex
 10
27.0
 20
184.1329
 40
0.0
 41
0.0
 42
0.0
 70
0
  0
VERTEX
  5
512
330
1F
100
AcDbEntity
  8
0
 67
0
100
AcDbVertex
100
AcDb2dVertex
 10
26.93274
 20
184.815716
 40
0.0
 41
0.0
 42
0.0
 70
0
  0
VERTEX
  5
513
330
1F
100
AcDbEntity
  8
0
 67
0
100
AcDbVertex
100
AcDb2dVertex
 10
26.73357
 20
185.47229
 40
0.0
 41
0.0
 42
0.0
 70
0
  0
VERTEX
  5
514
330
1F
100
AcDbEntity
  8
0
 67
0
100
AcDbVertex
100
AcDb2dVertex
 10
26.41014
 20
186.07739
 40
0.0
 41
0.0
 42
0.0
 70
0
  0
VERTEX
  5
515
330
1F
100
AcDbEntity
  8
0
 67
0
100
AcDbVertex
100
AcDb2dVertex
 10
25.97487
 20
186.60777
 40
0.0
 41
0.0
 42
0.0
 70
0
  0
VERTEX
  5
516
330
1F
100
AcDbEntity
  8
0
 67
0
100
AcDbVertex
100
AcDb2dVertex
 10
25.44449
 20
187.04304
 40
0.0
 41
0.0
 42
0.0
 70
0
  0
VERTEX
  5
517
330
1F
100
AcDbEntity
  8
0
 67
0
100
AcDbVertex
100
AcDb2dVertex
 10
24.83939
 20
187.36647
 40
0.0
 41
0.0
 42
0.0
 70
0
  0
VERTEX
  5
518
330
1F
100
AcDbEntity
  8
0
 67
0
100
AcDbVertex
100
AcDb2dVertex
 10
24.182816
 20
187.56564
 40
0.0
 41
0.0
 42
0.0
 70
0
  0
VERTEX
  5
519
330
1F
100
AcDbEntity
  8
0
 67
0
100
AcDbVertex
100
AcDb2dVertex
 10
23.5
 20
187.6329
 40
0.0
 41
0.0
 42
0.0
 70
0
  0
VERTEX
  5
51A
330
1F
100
AcDbEntity
  8
0
 67
0
100
AcDbVertex
100
AcDb2dVertex
 10
22.817184
 20
187.56564
 40
0.0
 41
0.0
 42
0.0
 70
0
  0
VERTEX
  5
51B
330
1F
100
AcDbEntity
  8
0
 67
0
100
AcDbVertex
100
AcDb2dVertex
 10
22.16061
 20
187.36647
 40
0.0
 41
0.0
 42
0.0
 70
0
  0
VERTEX
  5
51C
330
1F
100
AcDbEntity
  8
0
 67
0
100
AcDbVertex
100
AcDb2dVertex
 10
21.55551
 20
187.04304
 40
0.0
 41
0.0
 42
0.0
 70
0
  0
VERTEX
  5
51D
330
1F
100
AcDbEntity
  8
0
 67
0
100
AcDbVertex
100
AcDb2dVertex
 10
21.02513
 20
186.60777
 40
0.0
 41
0.0
 42
0.0
 70
0
  0
VERTEX
  5
51E
330
1F
100
AcDbEntity
  8
0
 67
0
100
AcDbVertex
100
AcDb2dVertex
 10
20.58986
 20
186.07739
 40
0.0
 41
0.0
 42
0.0
 70
0
  0
VERTEX
  5
51F
330
1F
100
AcDbEntity
  8
0
 67
0
100
AcDbVertex
100
AcDb2dVertex
 10
20.26643
 20
185.47229
 40
0.0
 41
0.0
 42
0.0
 70
0
  0
VERTEX
  5
520
330
1F
100
AcDbEntity
  8
0
 67
0
100
AcDbVertex
100
AcDb2dVertex
 10
20.06726
 20
184.815716
 40
0.0
 41
0.0
 42
0.0
 70
0
  0
VERTEX
  5
521
330
1F
100
AcDbEntity
  8
0
 67
0
100
AcDbVertex
100
AcDb2dVertex
 10
20.0
 20
184.1329
 40
0.0
 41
0.0
 42
0.0
 70
0
  0
VERTEX
  5
522
330
1F
100
AcDbEntity
  8
0
 67
0
100
AcDbVertex
100
AcDb2dVertex
 10
20.06726
 20
183.450084
 40
0.0
 41
0.0
 42
0.0
 70
0
  0
VERTEX
  5
523
330
1F
100
AcDbEntity
  8
0
 67
0
100
AcDbVertex
100
AcDb2dVertex
 10
20.26643
 20
182.79351
 40
0.0
 41
0.0
 42
0.0
 70
0
  0
VERTEX
  5
524
330
1F
100
AcDbEntity
  8
0
 67
0
100
AcDbVertex
100
AcDb2dVertex
 10
20.58986
 20
182.18841
 40
0.0
 41
0.0
 42
0.0
 70
0
  0
VERTEX
  5
525
330
1F
100
AcDbEntity
  8
0
 67
0
100
AcDbVertex
100
AcDb2dVertex
 10
21.02513
 20
181.65803
 40
0.0
 41
0.0
 42
0.0
 70
0
  0
VERTEX
  5
526
330
1F
100
AcDbEntity
  8
0
 67
0
100
AcDbVertex
100
AcDb2dVertex
 10
21.55551
 20
181.22276
 40
0.0
 41
0.0
 42
0.0
 70
0
  0
VERTEX
  5
527
330
1F
100
AcDbEntity
  8
0
 67
0
100
AcDbVertex
100
AcDb2dVertex
 10
22.16061
 20
180.89933
 40
0.0
 41
0.0
 42
0.0
 70
0
  0
VERTEX
  5
528
330
1F
100
AcDbEntity
  8
0
 67
0
100
AcDbVertex
100
AcDb2dVertex
 10
22.817184
 20
180.70016
 40
0.0
 41
0.0
 42
0.0
 70
0
  0
VERTEX
  5
529
330
1F
100
AcDbEntity
  8
0
 67
0
100
AcDbVertex
100
AcDb2dVertex
 10
23.5
 20
180.6329
 40
0.0
 41
0.0
 42
0.0
 70
0
  0
VERTEX
  5
52A
330
1F
100
AcDbEntity
  8
0
 67
0
100
AcDbVertex
100
AcDb2dVertex
 10
24.182816
 20
180.70016
 40
0.0
 41
0.0
 42
0.0
 70
0
  0
SEQEND
  5
509
330
0
100
AcDbEntity
 67
0
  0
POLYLINE
  5
52B
330
1F
100
AcDbEntity
  8
layer_73
 67
0
100
AcDb2dPolyline
 66
1
 70
0
 10
0.0
 20
0.0
 30
0.0
  0
VERTEX
  5
52D
330
1F
100
AcDbEntity
  8
0
 67
0
100
AcDbVertex
100
AcDb2dVertex
 10
55.751
 20
175.61569
 40
0.0
 41
0.0
 42
0.0
 70
0
  0
VERTEX
  5
52E
330
1F
100
AcDbEntity
  8
0
 67
0
100
AcDbVertex
100
AcDb2dVertex
 10
56.4076
 20
175.81486
 40
0.0
 41
0.0
 42
0.0
 70
0
  0
VERTEX
  5
52F
330
1F
100
AcDbEntity
  8
0
 67
0
100
AcDbVertex
100
AcDb2dVertex
 10
57.0127
 20
176.13829
 40
0.0
 41
0.0
 42
0.0
 70
0
  0
VERTEX
  5
530
330
1F
100
AcDbEntity
  8
0
 67
0
100
AcDbVertex
100
AcDb2dVertex
 10
57.5431
 20
176.57356
 40
0.0
 41
0.0
 42
0.0
 70
0
  0
VERTEX
  5
531
330
1F
100
AcDbEntity
  8
0
 67
0
100
AcDbVertex
100
AcDb2dVertex
 10
57.9784
 20
177.10394
 40
0.0
 41
0.0
 42
0.0
 70
0
  0
VERTEX
  5
532
330
1F
100
AcDbEntity
  8
0
 67
0
100
AcDbVertex
100
AcDb2dVertex
 10
58.3018
 20
177.70904
 40
0.0
 41
0.0
 42
0.0
 70
0
  0
VERTEX
  5
533
330
1F
100
AcDbEntity
  8
0
 67
0
100
AcDbVertex
100
AcDb2dVertex
 10
58.501
 20
178.36561
 40
0.0
 41
0.0
 42
0.0
 70
0
  0
VERTEX
  5
534
330
1F
100
AcDbEntity
  8
0
 67
0
100
AcDbVertex
100
AcDb2dVertex
 10
58.5682
 20
179.04843
 40
0.0
 41
0.0
 42
0.0
 70
0
  0
VERTEX
  5
535
330
1F
100
AcDbEntity
  8
0
 67
0
100
AcDbVertex
100
AcDb2dVertex
 10
58.501
 20
179.73124
 40
0.0
 41
0.0
 42
0.0
 70
0
  0
VERTEX
  5
536
330
1F
100
AcDbEntity
  8
0
 67
0
100
AcDbVertex
100
AcDb2dVertex
 10
58.3018
 20
180.38783
 40
0.0
 41
0.0
 42
0.0
 70
0
  0
VERTEX
  5
537
330
1F
100
AcDbEntity
  8
0
 67
0
100
AcDbVertex
100
AcDb2dVertex
 10
57.9784
 20
180.99293
 40
0.0
 41
0.0
 42
0.0
 70
0
  0
VERTEX
  5
538
330
1F
100
AcDbEntity
  8
0
 67
0
100
AcDbVertex
100
AcDb2dVertex
 10
57.5431
 20
181.52331
 40
0.0
 41
0.0
 42
0.0
 70
0
  0
VERTEX
  5
539
330
1F
100
AcDbEntity
  8
0
 67
0
100
AcDbVertex
100
AcDb2dVertex
 10
57.0127
 20
181.95858
 40
0.0
 41
0.0
 42
0.0
 70
0
  0
VERTEX
  5
53A
330
1F
100
AcDbEntity
  8
0
 67
0
100
AcDbVertex
100
AcDb2dVertex
 10
56.4076
 20
182.28201
 40
0.0
 41
0.0
 42
0.0
 70
0
  0
VERTEX
  5
53B
330
1F
100
AcDbEntity
  8
0
 67
0
100
AcDbVertex
100
AcDb2dVertex
 10
55.751
 20
182.48118
 40
0.0
 41
0.0
 42
0.0
 70
0
  0
VERTEX
  5
53C
330
1F
100
AcDbEntity
  8
0
 67
0
100
AcDbVertex
100
AcDb2dVertex
 10
55.0682
 20
182.54843
 40
0.0
 41
0.0
 42
0.0
 70
0
  0
VERTEX
  5
53D
330
1F
100
AcDbEntity
  8
0
 67
0
100
AcDbVertex
100
AcDb2dVertex
 10
54.3854
 20
182.48118
 40
0.0
 41
0.0
 42
0.0
 70
0
  0
VERTEX
  5
53E
330
1F
100
AcDbEntity
  8
0
 67
0
100
AcDbVertex
100
AcDb2dVertex
 10
53.7288
 20
182.28201
 40
0.0
 41
0.0
 42
0.0
 70
0
  0
VERTEX
  5
53F
330
1F
100
AcDbEntity
  8
0
 67
0
100
AcDbVertex
100
AcDb2dVertex
 10
53.1237
 20
181.95858
 40
0.0
 41
0.0
 42
0.0
 70
0
  0
VERTEX
  5
540
330
1F
100
AcDbEntity
  8
0
 67
0
100
AcDbVertex
100
AcDb2dVertex
 10
52.5934
 20
181.52331
 40
0.0
 41
0.0
 42
0.0
 70
0
  0
VERTEX
  5
541
330
1F
100
AcDbEntity
  8
0
 67
0
100
AcDbVertex
100
AcDb2dVertex
 10
52.1581
 20
180.99293
 40
0.0
 41
0.0
 42
0.0
 70
0
  0
VERTEX
  5
542
330
1F
100
AcDbEntity
  8
0
 67
0
100
AcDbVertex
100
AcDb2dVertex
 10
51.8347
 20
180.38783
 40
0.0
 41
0.0
 42
0.0
 70
0
  0
VERTEX
  5
543
330
1F
100
AcDbEntity
  8
0
 67
0
100
AcDbVertex
100
AcDb2dVertex
 10
51.6355
 20
179.73124
 40
0.0
 41
0.0
 42
0.0
 70
0
  0
VERTEX
  5
544
330
1F
100
AcDbEntity
  8
0
 67
0
100
AcDbVertex
100
AcDb2dVertex
 10
51.5682
 20
179.04843
 40
0.0
 41
0.0
 42
0.0
 70
0
  0
VERTEX
  5
545
330
1F
100
AcDbEntity
  8
0
 67
0
100
AcDbVertex
100
AcDb2dVertex
 10
51.6355
 20
178.36561
 40
0.0
 41
0.0
 42
0.0
 70
0
  0
VERTEX
  5
546
330
1F
100
AcDbEntity
  8
0
 67
0
100
AcDbVertex
100
AcDb2dVertex
 10
51.8347
 20
177.70904
 40
0.0
 41
0.0
 42
0.0
 70
0
  0
VERTEX
  5
547
330
1F
100
AcDbEntity
  8
0
 67
0
100
AcDbVertex
100
AcDb2dVertex
 10
52.1581
 20
177.10394
 40
0.0
 41
0.0
 42
0.0
 70
0
  0
VERTEX
  5
548
330
1F
100
AcDbEntity
  8
0
 67
0
100
AcDbVertex
100
AcDb2dVertex
 10
52.5934
 20
176.57356
 40
0.0
 41
0.0
 42
0.0
 70
0
  0
VERTEX
  5
549
330
1F
100
AcDbEntity
  8
0
 67
0
100
AcDbVertex
100
AcDb2dVertex
 10
53.1237
 20
176.13829
 40
0.0
 41
0.0
 42
0.0
 70
0
  0
VERTEX
  5
54A
330
1F
100
AcDbEntity
  8
0
 67
0
100
AcDbVertex
100
AcDb2dVertex
 10
53.7288
 20
175.81486
 40
0.0
 41
0.0
 42
0.0
 70
0
  0
VERTEX
  5
54B
330
1F
100
AcDbEntity
  8
0
 67
0
100
AcDbVertex
100
AcDb2dVertex
 10
54.3854
 20
175.61569
 40
0.0
 41
0.0
 42
0.0
 70
0
  0
VERTEX
  5
54C
330
1F
100
AcDbEntity
  8
0
 67
0
100
AcDbVertex
100
AcDb2dVertex
 10
55.0682
 20
175.54843
 40
0.0
 41
0.0
 42
0.0
 70
0
  0
VERTEX
  5
54D
330
1F
100
AcDbEntity
  8
0
 67
0
100
AcDbVertex
100
AcDb2dVertex
 10
55.751
 20
175.61569
 40
0.0
 41
0.0
 42
0.0
 70
0
  0
SEQEND
  5
52C
330
0
100
AcDbEntity
 67
0
  0
POLYLINE
  5
54E
330
1F
100
AcDbEntity
  8
layer_73
 67
0
100
AcDb2dPolyline
 66
1
 70
0
 10
0.0
 20
0.0
 30
0.0
  0
VERTEX
  5
550
330
1F
100
AcDbEntity
  8
0
 67
0
100
AcDbVertex
100
AcDb2dVertex
 10
9.1828
 20
160.7002
 40
0.0
 41
0.0
 42
0.0
 70
0
  0
VERTEX
  5
551
330
1F
100
AcDbEntity
  8
0
 67
0
100
AcDbVertex
100
AcDb2dVertex
 10
9.8394
 20
160.8993
 40
0.0
 41
0.0
 42
0.0
 70
0
  0
VERTEX
  5
552
330
1F
100
AcDbEntity
  8
0
 67
0
100
AcDbVertex
100
AcDb2dVertex
 10
10.4445
 20
161.2228
 40
0.0
 41
0.0
 42
0.0
 70
0
  0
VERTEX
  5
553
330
1F
100
AcDbEntity
  8
0
 67
0
100
AcDbVertex
100
AcDb2dVertex
 10
10.9749
 20
161.658
 40
0.0
 41
0.0
 42
0.0
 70
0
  0
VERTEX
  5
554
330
1F
100
AcDbEntity
  8
0
 67
0
100
AcDbVertex
100
AcDb2dVertex
 10
11.4102
 20
162.1884
 40
0.0
 41
0.0
 42
0.0
 70
0
  0
VERTEX
  5
555
330
1F
100
AcDbEntity
  8
0
 67
0
100
AcDbVertex
100
AcDb2dVertex
 10
11.7336
 20
162.7935
 40
0.0
 41
0.0
 42
0.0
 70
0
  0
VERTEX
  5
556
330
1F
100
AcDbEntity
  8
0
 67
0
100
AcDbVertex
100
AcDb2dVertex
 10
11.9328
 20
163.4501
 40
0.0
 41
0.0
 42
0.0
 70
0
  0
VERTEX
  5
557
330
1F
100
AcDbEntity
  8
0
 67
0
100
AcDbVertex
100
AcDb2dVertex
 10
12.0
 20
164.1329
 40
0.0
 41
0.0
 42
0.0
 70
0
  0
VERTEX
  5
558
330
1F
100
AcDbEntity
  8
0
 67
0
100
AcDbVertex
100
AcDb2dVertex
 10
11.9328
 20
164.8157
 40
0.0
 41
0.0
 42
0.0
 70
0
  0
VERTEX
  5
559
330
1F
100
AcDbEntity
  8
0
 67
0
100
AcDbVertex
100
AcDb2dVertex
 10
11.7336
 20
165.4723
 40
0.0
 41
0.0
 42
0.0
 70
0
  0
VERTEX
  5
55A
330
1F
100
AcDbEntity
  8
0
 67
0
100
AcDbVertex
100
AcDb2dVertex
 10
11.4102
 20
166.0774
 40
0.0
 41
0.0
 42
0.0
 70
0
  0
VERTEX
  5
55B
330
1F
100
AcDbEntity
  8
0
 67
0
100
AcDbVertex
100
AcDb2dVertex
 10
10.9749
 20
166.6078
 40
0.0
 41
0.0
 42
0.0
 70
0
  0
VERTEX
  5
55C
330
1F
100
AcDbEntity
  8
0
 67
0
100
AcDbVertex
100
AcDb2dVertex
 10
10.4445
 20
167.0431
 40
0.0
 41
0.0
 42
0.0
 70
0
  0
VERTEX
  5
55D
330
1F
100
AcDbEntity
  8
0
 67
0
100
AcDbVertex
100
AcDb2dVertex
 10
9.8394
 20
167.3665
 40
0.0
 41
0.0
 42
0.0
 70
0
  0
VERTEX
  5
55E
330
1F
100
AcDbEntity
  8
0
 67
0
100
AcDbVertex
100
AcDb2dVertex
 10
9.1828
 20
167.5657
 40
0.0
 41
0.0
 42
0.0
 70
0
  0
VERTEX
  5
55F
330
1F
100
AcDbEntity
  8
0
 67
0
100
AcDbVertex
100
AcDb2dVertex
 10
8.5
 20
167.6329
 40
0.0
 41
0.0
 42
0.0
 70
0
  0
VERTEX
  5
560
330
1F
100
AcDbEntity
  8
0
 67
0
100
AcDbVertex
100
AcDb2dVertex
 10
7.8172
 20
167.5657
 40
0.0
 41
0.0
 42
0.0
 70
0
  0
VERTEX
  5
561
330
1F
100
AcDbEntity
  8
0
 67
0
100
AcDbVertex
100
AcDb2dVertex
 10
7.1606
 20
167.3665
 40
0.0
 41
0.0
 42
0.0
 70
0
  0
VERTEX
  5
562
330
1F
100
AcDbEntity
  8
0
 67
0
100
AcDbVertex
100
AcDb2dVertex
 10
6.5555
 20
167.0431
 40
0.0
 41
0.0
 42
0.0
 70
0
  0
VERTEX
  5
563
330
1F
100
AcDbEntity
  8
0
 67
0
100
AcDbVertex
100
AcDb2dVertex
 10
6.0251
 20
166.6078
 40
0.0
 41
0.0
 42
0.0
 70
0
  0
VERTEX
  5
564
330
1F
100
AcDbEntity
  8
0
 67
0
100
AcDbVertex
100
AcDb2dVertex
 10
5.5899
 20
166.0774
 40
0.0
 41
0.0
 42
0.0
 70
0
  0
VERTEX
  5
565
330
1F
100
AcDbEntity
  8
0
 67
0
100
AcDbVertex
100
AcDb2dVertex
 10
5.2664
 20
165.4723
 40
0.0
 41
0.0
 42
0.0
 70
0
  0
VERTEX
  5
566
330
1F
100
AcDbEntity
  8
0
 67
0
100
AcDbVertex
100
AcDb2dVertex
 10
5.0673
 20
164.8157
 40
0.0
 41
0.0
 42
0.0
 70
0
  0
VERTEX
  5
567
330
1F
100
AcDbEntity
  8
0
 67
0
100
AcDbVertex
100
AcDb2dVertex
 10
5.0
 20
164.1329
 40
0.0
 41
0.0
 42
0.0
 70
0
  0
VERTEX
  5
568
330
1F
100
AcDbEntity
  8
0
 67
0
100
AcDbVertex
100
AcDb2dVertex
 10
5.0673
 20
163.4501
 40
0.0
 41
0.0
 42
0.0
 70
0
  0
VERTEX
  5
569
330
1F
100
AcDbEntity
  8
0
 67
0
100
AcDbVertex
100
AcDb2dVertex
 10
5.2664
 20
162.7935
 40
0.0
 41
0.0
 42
0.0
 70
0
  0
VERTEX
  5
56A
330
1F
100
AcDbEntity
  8
0
 67
0
100
AcDbVertex
100
AcDb2dVertex
 10
5.5899
 20
162.1884
 40
0.0
 41
0.0
 42
0.0
 70
0
  0
VERTEX
  5
56B
330
1F
100
AcDbEntity
  8
0
 67
0
100
AcDbVertex
100
AcDb2dVertex
 10
6.0251
 20
161.658
 40
0.0
 41
0.0
 42
0.0
 70
0
  0
VERTEX
  5
56C
330
1F
100
AcDbEntity
  8
0
 67
0
100
AcDbVertex
100
AcDb2dVertex
 10
6.5555
 20
161.2228
 40
0.0
 41
0.0
 42
0.0
 70
0
  0
VERTEX
  5
56D
330
1F
100
AcDbEntity
  8
0
 67
0
100
AcDbVertex
100
AcDb2dVertex
 10
7.1606
 20
160.8993
 40
0.0
 41
0.0
 42
0.0
 70
0
  0
VERTEX
  5
56E
330
1F
100
AcDbEntity
  8
0
 67
0
100
AcDbVertex
100
AcDb2dVertex
 10
7.8172
 20
160.7002
 40
0.0
 41
0.0
 42
0.0
 70
0
  0
VERTEX
  5
56F
330
1F
100
AcDbEntity
  8
0
 67
0
100
AcDbVertex
100
AcDb2dVertex
 10
8.5
 20
160.6329
 40
0.0
 41
0.0
 42
0.0
 70
0
  0
VERTEX
  5
570
330
1F
100
AcDbEntity
  8
0
 67
0
100
AcDbVertex
100
AcDb2dVertex
 10
9.1828
 20
160.7002
 40
0.0
 41
0.0
 42
0.0
 70
0
  0
SEQEND
  5
54F
330
0
100
AcDbEntity
 67
0
  0
POLYLINE
  5
572
330
1F
100
AcDbEntity
  8
layer_70
 67
0
100
AcDb2dPolyline
 66
1
 70
0
 10
0.0
 20
0.0
 30
0.0
  0
VERTEX
  5
574
330
1F
100
AcDbEntity
  8
0
 67
0
100
AcDbVertex
100
AcDb2dVertex
 10
9.075989
 20
113.28891
 40
0.0
 41
0.0
 42
0.0
 70
0
  0
VERTEX
  5
575
330
1F
100
AcDbEntity
  8
0
 67
0
100
AcDbVertex
100
AcDb2dVertex
 10
9.075989
 20
114.56891
 40
0.0
 41
0.0
 42
0.0
 70
0
  0
VERTEX
  5
576
330
1F
100
AcDbEntity
  8
0
 67
0
100
AcDbVertex
100
AcDb2dVertex
 10
13.74799
 20
114.56891
 40
0.0
 41
0.0
 42
0.0
 70
0
  0
VERTEX
  5
577
330
1F
100
AcDbEntity
  8
0
 67
0
100
AcDbVertex
100
AcDb2dVertex
 10
13.74799
 20
115.2169
 40
0.0
 41
0.0
 42
0.0
 70
0
  0
VERTEX
  5
578
330
1F
100
AcDbEntity
  8
0
 67
0
100
AcDbVertex
100
AcDb2dVertex
 10
12.90799
 20
116.42491
 40
0.0
 41
0.0
 42
0.0
 70
0
  0
VERTEX
  5
579
330
1F
100
AcDbEntity
  8
0
 67
0
100
AcDbVertex
100
AcDb2dVertex
 10
12.27599
 20
116.42491
 40
0.0
 41
0.0
 42
0.0
 70
0
  0
VERTEX
  5
57A
330
1F
100
AcDbEntity
  8
0
 67
0
100
AcDbVertex
100
AcDb2dVertex
 10
13.10799
 20
115.2729
 40
0.0
 41
0.0
 42
0.0
 70
0
  0
VERTEX
  5
57B
330
1F
100
AcDbEntity
  8
0
 67
0
100
AcDbVertex
100
AcDb2dVertex
 10
9.075989
 20
115.2729
 40
0.0
 41
0.0
 42
0.0
 70
0
  0
VERTEX
  5
57C
330
1F
100
AcDbEntity
  8
0
 67
0
100
AcDbVertex
100
AcDb2dVertex
 10
9.075989
 20
116.616911
 40
0.0
 41
0.0
 42
0.0
 70
0
  0
VERTEX
  5
57D
330
1F
100
AcDbEntity
  8
0
 67
0
100
AcDbVertex
100
AcDb2dVertex
 10
8.5
 20
116.616911
 40
0.0
 41
0.0
 42
0.0
 70
0
  0
VERTEX
  5
57E
330
1F
100
AcDbEntity
  8
0
 67
0
100
AcDbVertex
100
AcDb2dVertex
 10
8.5
 20
113.28891
 40
0.0
 41
0.0
 42
0.0
 70
0
  0
VERTEX
  5
57F
330
1F
100
AcDbEntity
  8
0
 67
0
100
AcDbVertex
100
AcDb2dVertex
 10
9.075989
 20
113.28891
 40
0.0
 41
0.0
 42
0.0
 70
0
  0
SEQEND
  5
573
330
0
100
AcDbEntity
 67
0
  0
POLYLINE
  5
581
330
1F
100
AcDbEntity
  8
layer_77
 67
0
100
AcDb2dPolyline
 66
1
 70
0
 10
0.0
 20
0.0
 30
0.0
  0
VERTEX
  5
583
330
1F
100
AcDbEntity
  8
0
 67
0
100
AcDbVertex
100
AcDb2dVertex
 10
3.0
 20
201.07287
 40
0.0
 41
0.0
 42
0.0
 70
0
  0
VERTEX
  5
584
330
1F
100
AcDbEntity
  8
0
 67
0
100
AcDbVertex
100
AcDb2dVertex
 10
3.12019
 20
199.92936
 40
0.0
 41
0.0
 42
0.0
 70
0
  0
VERTEX
  5
585
330
1F
100
AcDbEntity
  8
0
 67
0
100
AcDbVertex
100
AcDb2dVertex
 10
3.4755
 20
198.83582
 40
0.0
 41
0.0
 42
0.0
 70
0
  0
VERTEX
  5
586
330
1F
100
AcDbEntity
  8
0
 67
0
100
AcDbVertex
100
AcDb2dVertex
 10
4.05041
 20
197.84005
 40
0.0
 41
0.0
 42
0.0
 70
0
  0
VERTEX
  5
587
330
1F
100
AcDbEntity
  8
0
 67
0
100
AcDbVertex
100
AcDb2dVertex
 10
4.81978
 20
196.98557
 40
0.0
 41
0.0
 42
0.0
 70
0
  0
VERTEX
  5
588
330
1F
100
AcDbEntity
  8
0
 67
0
100
AcDbVertex
100
AcDb2dVertex
 10
5.75
 20
196.30973
 40
0.0
 41
0.0
 42
0.0
 70
0
  0
VERTEX
  5
589
330
1F
100
AcDbEntity
  8
0
 67
0
100
AcDbVertex
100
AcDb2dVertex
 10
6.80041
 20
195.84206
 40
0.0
 41
0.0
 42
0.0
 70
0
  0
VERTEX
  5
58A
330
1F
100
AcDbEntity
  8
0
 67
0
100
AcDbVertex
100
AcDb2dVertex
 10
7.925093
 20
195.603
 40
0.0
 41
0.0
 42
0.0
 70
0
  0
VERTEX
  5
58B
330
1F
100
AcDbEntity
  8
0
 67
0
100
AcDbVertex
100
AcDb2dVertex
 10
9.074907
 20
195.603
 40
0.0
 41
0.0
 42
0.0
 70
0
  0
VERTEX
  5
58C
330
1F
100
AcDbEntity
  8
0
 67
0
100
AcDbVertex
100
AcDb2dVertex
 10
10.19959
 20
195.84206
 40
0.0
 41
0.0
 42
0.0
 70
0
  0
VERTEX
  5
58D
330
1F
100
AcDbEntity
  8
0
 67
0
100
AcDbVertex
100
AcDb2dVertex
 10
20.106
 20
199.14333
 40
0.0
 41
0.0
 42
0.0
 70
0
  0
VERTEX
  5
58E
330
1F
100
AcDbEntity
  8
0
 67
0
100
AcDbVertex
100
AcDb2dVertex
 10
21.1564
 20
199.611
 40
0.0
 41
0.0
 42
0.0
 70
0
  0
VERTEX
  5
58F
330
1F
100
AcDbEntity
  8
0
 67
0
100
AcDbVertex
100
AcDb2dVertex
 10
22.0866
 20
200.286842
 40
0.0
 41
0.0
 42
0.0
 70
0
  0
VERTEX
  5
590
330
1F
100
AcDbEntity
  8
0
 67
0
100
AcDbVertex
100
AcDb2dVertex
 10
22.856
 20
201.1413193
 40
0.0
 41
0.0
 42
0.0
 70
0
  0
VERTEX
  5
591
330
1F
100
AcDbEntity
  8
0
 67
0
100
AcDbVertex
100
AcDb2dVertex
 10
23.4309
 20
202.13709
 40
0.0
 41
0.0
 42
0.0
 70
0
  0
VERTEX
  5
592
330
1F
100
AcDbEntity
  8
0
 67
0
100
AcDbVertex
100
AcDb2dVertex
 10
23.7862
 20
203.23062
 40
0.0
 41
0.0
 42
0.0
 70
0
  0
VERTEX
  5
593
330
1F
100
AcDbEntity
  8
0
 67
0
100
AcDbVertex
100
AcDb2dVertex
 10
23.9064
 20
204.37414
 40
0.0
 41
0.0
 42
0.0
 70
0
  0
VERTEX
  5
594
330
1F
100
AcDbEntity
  8
0
 67
0
100
AcDbVertex
100
AcDb2dVertex
 10
23.7862
 20
205.51765
 40
0.0
 41
0.0
 42
0.0
 70
0
  0
VERTEX
  5
595
330
1F
100
AcDbEntity
  8
0
 67
0
100
AcDbVertex
100
AcDb2dVertex
 10
23.4309
 20
206.61119
 40
0.0
 41
0.0
 42
0.0
 70
0
  0
VERTEX
  5
596
330
1F
100
AcDbEntity
  8
0
 67
0
100
AcDbVertex
100
AcDb2dVertex
 10
22.856
 20
207.60696
 40
0.0
 41
0.0
 42
0.0
 70
0
  0
VERTEX
  5
597
330
1F
100
AcDbEntity
  8
0
 67
0
100
AcDbVertex
100
AcDb2dVertex
 10
22.0866
 20
208.46143
 40
0.0
 41
0.0
 42
0.0
 70
0
  0
VERTEX
  5
598
330
1F
100
AcDbEntity
  8
0
 67
0
100
AcDbVertex
100
AcDb2dVertex
 10
21.1564
 20
209.13728
 40
0.0
 41
0.0
 42
0.0
 70
0
  0
VERTEX
  5
599
330
1F
100
AcDbEntity
  8
0
 67
0
100
AcDbVertex
100
AcDb2dVertex
 10
20.106
 20
209.60495
 40
0.0
 41
0.0
 42
0.0
 70
0
  0
VERTEX
  5
59A
330
1F
100
AcDbEntity
  8
0
 67
0
100
AcDbVertex
100
AcDb2dVertex
 10
18.9813
 20
209.84401
 40
0.0
 41
0.0
 42
0.0
 70
0
  0
VERTEX
  5
59B
330
1F
100
AcDbEntity
  8
0
 67
0
100
AcDbVertex
100
AcDb2dVertex
 10
17.83149
 20
209.84401
 40
0.0
 41
0.0
 42
0.0
 70
0
  0
VERTEX
  5
59C
330
1F
100
AcDbEntity
  8
0
 67
0
100
AcDbVertex
100
AcDb2dVertex
 10
16.7068
 20
209.60495
 40
0.0
 41
0.0
 42
0.0
 70
0
  0
VERTEX
  5
59D
330
1F
100
AcDbEntity
  8
0
 67
0
100
AcDbVertex
100
AcDb2dVertex
 10
6.80041
 20
206.30368
 40
0.0
 41
0.0
 42
0.0
 70
0
  0
VERTEX
  5
59E
330
1F
100
AcDbEntity
  8
0
 67
0
100
AcDbVertex
100
AcDb2dVertex
 10
5.75
 20
205.83601
 40
0.0
 41
0.0
 42
0.0
 70
0
  0
VERTEX
  5
59F
330
1F
100
AcDbEntity
  8
0
 67
0
100
AcDbVertex
100
AcDb2dVertex
 10
4.81978
 20
205.16017
 40
0.0
 41
0.0
 42
0.0
 70
0
  0
VERTEX
  5
5A0
330
1F
100
AcDbEntity
  8
0
 67
0
100
AcDbVertex
100
AcDb2dVertex
 10
4.05041
 20
204.30569
 40
0.0
 41
0.0
 42
0.0
 70
0
  0
VERTEX
  5
5A1
330
1F
100
AcDbEntity
  8
0
 67
0
100
AcDbVertex
100
AcDb2dVertex
 10
3.4755
 20
203.30992
 40
0.0
 41
0.0
 42
0.0
 70
0
  0
VERTEX
  5
5A2
330
1F
100
AcDbEntity
  8
0
 67
0
100
AcDbVertex
100
AcDb2dVertex
 10
3.12019
 20
202.21638
 40
0.0
 41
0.0
 42
0.0
 70
0
  0
VERTEX
  5
5A3
330
1F
100
AcDbEntity
  8
0
 67
0
100
AcDbVertex
100
AcDb2dVertex
 10
3.0
 20
201.07287
 40
0.0
 41
0.0
 42
0.0
 70
0
  0
SEQEND
  5
582
330
0
100
AcDbEntity
 67
0
  0
POLYLINE
  5
5A4
330
1F
100
AcDbEntity
  8
layer_77
 67
0
100
AcDb2dPolyline
 66
1
 70
0
 10
0.0
 20
0.0
 30
0.0
  0
VERTEX
  5
5A6
330
1F
100
AcDbEntity
  8
0
 67
0
100
AcDbVertex
100
AcDb2dVertex
 10
19.0892
 20
200.9414
 40
0.0
 41
0.0
 42
0.0
 70
0
  0
VERTEX
  5
5A7
330
1F
100
AcDbEntity
  8
0
 67
0
100
AcDbVertex
100
AcDb2dVertex
 10
19.7458
 20
201.140558
 40
0.0
 41
0.0
 42
0.0
 70
0
  0
VERTEX
  5
5A8
330
1F
100
AcDbEntity
  8
0
 67
0
100
AcDbVertex
100
AcDb2dVertex
 10
20.3509
 20
201.463983
 40
0.0
 41
0.0
 42
0.0
 70
0
  0
VERTEX
  5
5A9
330
1F
100
AcDbEntity
  8
0
 67
0
100
AcDbVertex
100
AcDb2dVertex
 10
20.8813
 20
201.899255
 40
0.0
 41
0.0
 42
0.0
 70
0
  0
VERTEX
  5
5AA
330
1F
100
AcDbEntity
  8
0
 67
0
100
AcDbVertex
100
AcDb2dVertex
 10
21.3165
 20
202.42964
 40
0.0
 41
0.0
 42
0.0
 70
0
  0
VERTEX
  5
5AB
330
1F
100
AcDbEntity
  8
0
 67
0
100
AcDbVertex
100
AcDb2dVertex
 10
21.64
 20
203.03474
 40
0.0
 41
0.0
 42
0.0
 70
0
  0
VERTEX
  5
5AC
330
1F
100
AcDbEntity
  8
0
 67
0
100
AcDbVertex
100
AcDb2dVertex
 10
21.8391
 20
203.69131
 40
0.0
 41
0.0
 42
0.0
 70
0
  0
VERTEX
  5
5AD
330
1F
100
AcDbEntity
  8
0
 67
0
100
AcDbVertex
100
AcDb2dVertex
 10
21.9064
 20
204.37412
 40
0.0
 41
0.0
 42
0.0
 70
0
  0
VERTEX
  5
5AE
330
1F
100
AcDbEntity
  8
0
 67
0
100
AcDbVertex
100
AcDb2dVertex
 10
21.8391
 20
205.05694
 40
0.0
 41
0.0
 42
0.0
 70
0
  0
VERTEX
  5
5AF
330
1F
100
AcDbEntity
  8
0
 67
0
100
AcDbVertex
100
AcDb2dVertex
 10
21.64
 20
205.71353
 40
0.0
 41
0.0
 42
0.0
 70
0
  0
VERTEX
  5
5B0
330
1F
100
AcDbEntity
  8
0
 67
0
100
AcDbVertex
100
AcDb2dVertex
 10
21.3165
 20
206.31863
 40
0.0
 41
0.0
 42
0.0
 70
0
  0
VERTEX
  5
5B1
330
1F
100
AcDbEntity
  8
0
 67
0
100
AcDbVertex
100
AcDb2dVertex
 10
20.8813
 20
206.84901
 40
0.0
 41
0.0
 42
0.0
 70
0
  0
VERTEX
  5
5B2
330
1F
100
AcDbEntity
  8
0
 67
0
100
AcDbVertex
100
AcDb2dVertex
 10
20.3509
 20
207.28428
 40
0.0
 41
0.0
 42
0.0
 70
0
  0
VERTEX
  5
5B3
330
1F
100
AcDbEntity
  8
0
 67
0
100
AcDbVertex
100
AcDb2dVertex
 10
19.7458
 20
207.60771
 40
0.0
 41
0.0
 42
0.0
 70
0
  0
VERTEX
  5
5B4
330
1F
100
AcDbEntity
  8
0
 67
0
100
AcDbVertex
100
AcDb2dVertex
 10
19.0892
 20
207.80688
 40
0.0
 41
0.0
 42
0.0
 70
0
  0
VERTEX
  5
5B5
330
1F
100
AcDbEntity
  8
0
 67
0
100
AcDbVertex
100
AcDb2dVertex
 10
18.40639
 20
207.87412
 40
0.0
 41
0.0
 42
0.0
 70
0
  0
VERTEX
  5
5B6
330
1F
100
AcDbEntity
  8
0
 67
0
100
AcDbVertex
100
AcDb2dVertex
 10
17.72357
 20
207.80688
 40
0.0
 41
0.0
 42
0.0
 70
0
  0
VERTEX
  5
5B7
330
1F
100
AcDbEntity
  8
0
 67
0
100
AcDbVertex
100
AcDb2dVertex
 10
17.06699
 20
207.60771
 40
0.0
 41
0.0
 42
0.0
 70
0
  0
VERTEX
  5
5B8
330
1F
100
AcDbEntity
  8
0
 67
0
100
AcDbVertex
100
AcDb2dVertex
 10
16.46188
 20
207.28428
 40
0.0
 41
0.0
 42
0.0
 70
0
  0
VERTEX
  5
5B9
330
1F
100
AcDbEntity
  8
0
 67
0
100
AcDbVertex
100
AcDb2dVertex
 10
15.93152
 20
206.84901
 40
0.0
 41
0.0
 42
0.0
 70
0
  0
VERTEX
  5
5BA
330
1F
100
AcDbEntity
  8
0
 67
0
100
AcDbVertex
100
AcDb2dVertex
 10
15.49625
 20
206.31863
 40
0.0
 41
0.0
 42
0.0
 70
0
  0
VERTEX
  5
5BB
330
1F
100
AcDbEntity
  8
0
 67
0
100
AcDbVertex
100
AcDb2dVertex
 10
15.17281
 20
205.71353
 40
0.0
 41
0.0
 42
0.0
 70
0
  0
VERTEX
  5
5BC
330
1F
100
AcDbEntity
  8
0
 67
0
100
AcDbVertex
100
AcDb2dVertex
 10
14.97363
 20
205.05694
 40
0.0
 41
0.0
 42
0.0
 70
0
  0
VERTEX
  5
5BD
330
1F
100
AcDbEntity
  8
0
 67
0
100
AcDbVertex
100
AcDb2dVertex
 10
14.90639
 20
204.37412
 40
0.0
 41
0.0
 42
0.0
 70
0
  0
VERTEX
  5
5BE
330
1F
100
AcDbEntity
  8
0
 67
0
100
AcDbVertex
100
AcDb2dVertex
 10
14.97363
 20
203.69131
 40
0.0
 41
0.0
 42
0.0
 70
0
  0
VERTEX
  5
5BF
330
1F
100
AcDbEntity
  8
0
 67
0
100
AcDbVertex
100
AcDb2dVertex
 10
15.17281
 20
203.03474
 40
0.0
 41
0.0
 42
0.0
 70
0
  0
VERTEX
  5
5C0
330
1F
100
AcDbEntity
  8
0
 67
0
100
AcDbVertex
100
AcDb2dVertex
 10
15.49625
 20
202.42964
 40
0.0
 41
0.0
 42
0.0
 70
0
  0
VERTEX
  5
5C1
330
1F
100
AcDbEntity
  8
0
 67
0
100
AcDbVertex
100
AcDb2dVertex
 10
15.93152
 20
201.899255
 40
0.0
 41
0.0
 42
0.0
 70
0
  0
VERTEX
  5
5C2
330
1F
100
AcDbEntity
  8
0
 67
0
100
AcDbVertex
100
AcDb2dVertex
 10
16.46188
 20
201.463983
 40
0.0
 41
0.0
 42
0.0
 70
0
  0
VERTEX
  5
5C3
330
1F
100
AcDbEntity
  8
0
 67
0
100
AcDbVertex
100
AcDb2dVertex
 10
17.06699
 20
201.140558
 40
0.0
 41
0.0
 42
0.0
 70
0
  0
VERTEX
  5
5C4
330
1F
100
AcDbEntity
  8
0
 67
0
100
AcDbVertex
100
AcDb2dVertex
 10
17.72357
 20
200.9414
 40
0.0
 41
0.0
 42
0.0
 70
0
  0
VERTEX
  5
5C5
330
1F
100
AcDbEntity
  8
0
 67
0
100
AcDbVertex
100
AcDb2dVertex
 10
18.40639
 20
200.87414
 40
0.0
 41
0.0
 42
0.0
 70
0
  0
VERTEX
  5
5C6
330
1F
100
AcDbEntity
  8
0
 67
0
100
AcDbVertex
100
AcDb2dVertex
 10
19.0892
 20
200.9414
 40
0.0
 41
0.0
 42
0.0
 70
0
  0
SEQEND
  5
5A5
330
0
100
AcDbEntity
 67
0
  0
POLYLINE
  5
5C7
330
1F
100
AcDbEntity
  8
layer_77
 67
0
100
AcDb2dPolyline
 66
1
 70
0
 10
0.0
 20
0.0
 30
0.0
  0
VERTEX
  5
5C9
330
1F
100
AcDbEntity
  8
0
 67
0
100
AcDbVertex
100
AcDb2dVertex
 10
9.182816
 20
197.64013
 40
0.0
 41
0.0
 42
0.0
 70
0
  0
VERTEX
  5
5CA
330
1F
100
AcDbEntity
  8
0
 67
0
100
AcDbVertex
100
AcDb2dVertex
 10
9.83939
 20
197.8393
 40
0.0
 41
0.0
 42
0.0
 70
0
  0
VERTEX
  5
5CB
330
1F
100
AcDbEntity
  8
0
 67
0
100
AcDbVertex
100
AcDb2dVertex
 10
10.44449
 20
198.16273
 40
0.0
 41
0.0
 42
0.0
 70
0
  0
VERTEX
  5
5CC
330
1F
100
AcDbEntity
  8
0
 67
0
100
AcDbVertex
100
AcDb2dVertex
 10
10.97487
 20
198.598
 40
0.0
 41
0.0
 42
0.0
 70
0
  0
VERTEX
  5
5CD
330
1F
100
AcDbEntity
  8
0
 67
0
100
AcDbVertex
100
AcDb2dVertex
 10
11.41014
 20
199.12838
 40
0.0
 41
0.0
 42
0.0
 70
0
  0
VERTEX
  5
5CE
330
1F
100
AcDbEntity
  8
0
 67
0
100
AcDbVertex
100
AcDb2dVertex
 10
11.73357
 20
199.73348
 40
0.0
 41
0.0
 42
0.0
 70
0
  0
VERTEX
  5
5CF
330
1F
100
AcDbEntity
  8
0
 67
0
100
AcDbVertex
100
AcDb2dVertex
 10
11.93274
 20
200.390054
 40
0.0
 41
0.0
 42
0.0
 70
0
  0
VERTEX
  5
5D0
330
1F
100
AcDbEntity
  8
0
 67
0
100
AcDbVertex
100
AcDb2dVertex
 10
12.0
 20
201.07287
 40
0.0
 41
0.0
 42
0.0
 70
0
  0
VERTEX
  5
5D1
330
1F
100
AcDbEntity
  8
0
 67
0
100
AcDbVertex
100
AcDb2dVertex
 10
11.93274
 20
201.755686
 40
0.0
 41
0.0
 42
0.0
 70
0
  0
VERTEX
  5
5D2
330
1F
100
AcDbEntity
  8
0
 67
0
100
AcDbVertex
100
AcDb2dVertex
 10
11.73357
 20
202.41226
 40
0.0
 41
0.0
 42
0.0
 70
0
  0
VERTEX
  5
5D3
330
1F
100
AcDbEntity
  8
0
 67
0
100
AcDbVertex
100
AcDb2dVertex
 10
11.41014
 20
203.01736
 40
0.0
 41
0.0
 42
0.0
 70
0
  0
VERTEX
  5
5D4
330
1F
100
AcDbEntity
  8
0
 67
0
100
AcDbVertex
100
AcDb2dVertex
 10
10.97487
 20
203.54774
 40
0.0
 41
0.0
 42
0.0
 70
0
  0
VERTEX
  5
5D5
330
1F
100
AcDbEntity
  8
0
 67
0
100
AcDbVertex
100
AcDb2dVertex
 10
10.44449
 20
203.98301
 40
0.0
 41
0.0
 42
0.0
 70
0
  0
VERTEX
  5
5D6
330
1F
100
AcDbEntity
  8
0
 67
0
100
AcDbVertex
100
AcDb2dVertex
 10
9.83939
 20
204.30644
 40
0.0
 41
0.0
 42
0.0
 70
0
  0
VERTEX
  5
5D7
330
1F
100
AcDbEntity
  8
0
 67
0
100
AcDbVertex
100
AcDb2dVertex
 10
9.182816
 20
204.50561
 40
0.0
 41
0.0
 42
0.0
 70
0
  0
VERTEX
  5
5D8
330
1F
100
AcDbEntity
  8
0
 67
0
100
AcDbVertex
100
AcDb2dVertex
 10
8.5
 20
204.57287
 40
0.0
 41
0.0
 42
0.0
 70
0
  0
VERTEX
  5
5D9
330
1F
100
AcDbEntity
  8
0
 67
0
100
AcDbVertex
100
AcDb2dVertex
 10
7.817184
 20
204.50561
 40
0.0
 41
0.0
 42
0.0
 70
0
  0
VERTEX
  5
5DA
330
1F
100
AcDbEntity
  8
0
 67
0
100
AcDbVertex
100
AcDb2dVertex
 10
7.16061
 20
204.30644
 40
0.0
 41
0.0
 42
0.0
 70
0
  0
VERTEX
  5
5DB
330
1F
100
AcDbEntity
  8
0
 67
0
100
AcDbVertex
100
AcDb2dVertex
 10
6.55551
 20
203.98301
 40
0.0
 41
0.0
 42
0.0
 70
0
  0
VERTEX
  5
5DC
330
1F
100
AcDbEntity
  8
0
 67
0
100
AcDbVertex
100
AcDb2dVertex
 10
6.02513
 20
203.54774
 40
0.0
 41
0.0
 42
0.0
 70
0
  0
VERTEX
  5
5DD
330
1F
100
AcDbEntity
  8
0
 67
0
100
AcDbVertex
100
AcDb2dVertex
 10
5.58986
 20
203.01736
 40
0.0
 41
0.0
 42
0.0
 70
0
  0
VERTEX
  5
5DE
330
1F
100
AcDbEntity
  8
0
 67
0
100
AcDbVertex
100
AcDb2dVertex
 10
5.26643
 20
202.41226
 40
0.0
 41
0.0
 42
0.0
 70
0
  0
VERTEX
  5
5DF
330
1F
100
AcDbEntity
  8
0
 67
0
100
AcDbVertex
100
AcDb2dVertex
 10
5.06726
 20
201.755686
 40
0.0
 41
0.0
 42
0.0
 70
0
  0
VERTEX
  5
5E0
330
1F
100
AcDbEntity
  8
0
 67
0
100
AcDbVertex
100
AcDb2dVertex
 10
5.0
 20
201.07287
 40
0.0
 41
0.0
 42
0.0
 70
0
  0
VERTEX
  5
5E1
330
1F
100
AcDbEntity
  8
0
 67
0
100
AcDbVertex
100
AcDb2dVertex
 10
5.06726
 20
200.390054
 40
0.0
 41
0.0
 42
0.0
 70
0
  0
VERTEX
  5
5E2
330
1F
100
AcDbEntity
  8
0
 67
0
100
AcDbVertex
100
AcDb2dVertex
 10
5.26643
 20
199.73348
 40
0.0
 41
0.0
 42
0.0
 70
0
  0
VERTEX
  5
5E3
330
1F
100
AcDbEntity
  8
0
 67
0
100
AcDbVertex
100
AcDb2dVertex
 10
5.58986
 20
199.12838
 40
0.0
 41
0.0
 42
0.0
 70
0
  0
VERTEX
  5
5E4
330
1F
100
AcDbEntity
  8
0
 67
0
100
AcDbVertex
100
AcDb2dVertex
 10
6.02513
 20
198.598
 40
0.0
 41
0.0
 42
0.0
 70
0
  0
VERTEX
  5
5E5
330
1F
100
AcDbEntity
  8
0
 67
0
100
AcDbVertex
100
AcDb2dVertex
 10
6.55551
 20
198.16273
 40
0.0
 41
0.0
 42
0.0
 70
0
  0
VERTEX
  5
5E6
330
1F
100
AcDbEntity
  8
0
 67
0
100
AcDbVertex
100
AcDb2dVertex
 10
7.16061
 20
197.8393
 40
0.0
 41
0.0
 42
0.0
 70
0
  0
VERTEX
  5
5E7
330
1F
100
AcDbEntity
  8
0
 67
0
100
AcDbVertex
100
AcDb2dVertex
 10
7.817184
 20
197.64013
 40
0.0
 41
0.0
 42
0.0
 70
0
  0
VERTEX
  5
5E8
330
1F
100
AcDbEntity
  8
0
 67
0
100
AcDbVertex
100
AcDb2dVertex
 10
8.5
 20
197.57287
 40
0.0
 41
0.0
 42
0.0
 70
0
  0
VERTEX
  5
5E9
330
1F
100
AcDbEntity
  8
0
 67
0
100
AcDbVertex
100
AcDb2dVertex
 10
9.182816
 20
197.64013
 40
0.0
 41
0.0
 42
0.0
 70
0
  0
SEQEND
  5
5C8
330
0
100
AcDbEntity
 67
0
  0
POLYLINE
  5
5EB
330
1F
100
AcDbEntity
  8
layer_65
 67
0
100
AcDb2dPolyline
 66
1
 70
0
 10
0.0
 20
0.0
 30
0.0
  0
VERTEX
  5
5ED
330
1F
100
AcDbEntity
  8
0
 67
0
100
AcDbVertex
100
AcDb2dVertex
 10
-46.9746
 20
61.7832
 40
0.0
 41
0.0
 42
0.0
 70
0
  0
VERTEX
  5
5EE
330
1F
100
AcDbEntity
  8
0
 67
0
100
AcDbVertex
100
AcDb2dVertex
 10
-46.8544
 20
60.6397
 40
0.0
 41
0.0
 42
0.0
 70
0
  0
VERTEX
  5
5EF
330
1F
100
AcDbEntity
  8
0
 67
0
100
AcDbVertex
100
AcDb2dVertex
 10
-46.4991
 20
59.5462
 40
0.0
 41
0.0
 42
0.0
 70
0
  0
VERTEX
  5
5F0
330
1F
100
AcDbEntity
  8
0
 67
0
100
AcDbVertex
100
AcDb2dVertex
 10
-45.9242
 20
58.5504
 40
0.0
 41
0.0
 42
0.0
 70
0
  0
VERTEX
  5
5F1
330
1F
100
AcDbEntity
  8
0
 67
0
100
AcDbVertex
100
AcDb2dVertex
 10
-4.44959
 20
-3.23282
 40
0.0
 41
0.0
 42
0.0
 70
0
  0
VERTEX
  5
5F2
330
1F
100
AcDbEntity
  8
0
 67
0
100
AcDbVertex
100
AcDb2dVertex
 10
-3.68022
 20
-4.0873
 40
0.0
 41
0.0
 42
0.0
 70
0
  0
VERTEX
  5
5F3
330
1F
100
AcDbEntity
  8
0
 67
0
100
AcDbVertex
100
AcDb2dVertex
 10
-2.75
 20
-4.76314
 40
0.0
 41
0.0
 42
0.0
 70
0
  0
VERTEX
  5
5F4
330
1F
100
AcDbEntity
  8
0
 67
0
100
AcDbVertex
100
AcDb2dVertex
 10
-1.69959
 20
-5.23081
 40
0.0
 41
0.0
 42
0.0
 70
0
  0
VERTEX
  5
5F5
330
1F
100
AcDbEntity
  8
0
 67
0
100
AcDbVertex
100
AcDb2dVertex
 10
-0.574907
 20
-5.46987
 40
0.0
 41
0.0
 42
0.0
 70
0
  0
VERTEX
  5
5F6
330
1F
100
AcDbEntity
  8
0
 67
0
100
AcDbVertex
100
AcDb2dVertex
 10
0.574907
 20
-5.46987
 40
0.0
 41
0.0
 42
0.0
 70
0
  0
VERTEX
  5
5F7
330
1F
100
AcDbEntity
  8
0
 67
0
100
AcDbVertex
100
AcDb2dVertex
 10
1.69959
 20
-5.23081
 40
0.0
 41
0.0
 42
0.0
 70
0
  0
VERTEX
  5
5F8
330
1F
100
AcDbEntity
  8
0
 67
0
100
AcDbVertex
100
AcDb2dVertex
 10
2.75
 20
-4.76314
 40
0.0
 41
0.0
 42
0.0
 70
0
  0
VERTEX
  5
5F9
330
1F
100
AcDbEntity
  8
0
 67
0
100
AcDbVertex
100
AcDb2dVertex
 10
3.68022
 20
-4.0873
 40
0.0
 41
0.0
 42
0.0
 70
0
  0
VERTEX
  5
5FA
330
1F
100
AcDbEntity
  8
0
 67
0
100
AcDbVertex
100
AcDb2dVertex
 10
4.44959
 20
-3.23282
 40
0.0
 41
0.0
 42
0.0
 70
0
  0
VERTEX
  5
5FB
330
1F
100
AcDbEntity
  8
0
 67
0
100
AcDbVertex
100
AcDb2dVertex
 10
5.0245
 20
-2.23705
 40
0.0
 41
0.0
 42
0.0
 70
0
  0
VERTEX
  5
5FC
330
1F
100
AcDbEntity
  8
0
 67
0
100
AcDbVertex
100
AcDb2dVertex
 10
5.37981
 20
-1.14351
 40
0.0
 41
0.0
 42
0.0
 70
0
  0
VERTEX
  5
5FD
330
1F
100
AcDbEntity
  8
0
 67
0
100
AcDbVertex
100
AcDb2dVertex
 10
5.5
 20
0.0
 40
0.0
 41
0.0
 42
0.0
 70
0
  0
VERTEX
  5
5FE
330
1F
100
AcDbEntity
  8
0
 67
0
100
AcDbVertex
100
AcDb2dVertex
 10
5.37981
 20
1.14351
 40
0.0
 41
0.0
 42
0.0
 70
0
  0
VERTEX
  5
5FF
330
1F
100
AcDbEntity
  8
0
 67
0
100
AcDbVertex
100
AcDb2dVertex
 10
5.0245
 20
2.23705
 40
0.0
 41
0.0
 42
0.0
 70
0
  0
VERTEX
  5
600
330
1F
100
AcDbEntity
  8
0
 67
0
100
AcDbVertex
100
AcDb2dVertex
 10
4.44959
 20
3.23282
 40
0.0
 41
0.0
 42
0.0
 70
0
  0
VERTEX
  5
601
330
1F
100
AcDbEntity
  8
0
 67
0
100
AcDbVertex
100
AcDb2dVertex
 10
-37.025
 20
65.016
 40
0.0
 41
0.0
 42
0.0
 70
0
  0
VERTEX
  5
602
330
1F
100
AcDbEntity
  8
0
 67
0
100
AcDbVertex
100
AcDb2dVertex
 10
-37.7944
 20
65.8705
 40
0.0
 41
0.0
 42
0.0
 70
0
  0
VERTEX
  5
603
330
1F
100
AcDbEntity
  8
0
 67
0
100
AcDbVertex
100
AcDb2dVertex
 10
-38.7246
 20
66.5463
 40
0.0
 41
0.0
 42
0.0
 70
0
  0
VERTEX
  5
604
330
1F
100
AcDbEntity
  8
0
 67
0
100
AcDbVertex
100
AcDb2dVertex
 10
-39.775
 20
67.014
 40
0.0
 41
0.0
 42
0.0
 70
0
  0
VERTEX
  5
605
330
1F
100
AcDbEntity
  8
0
 67
0
100
AcDbVertex
100
AcDb2dVertex
 10
-40.8997
 20
67.2531
 40
0.0
 41
0.0
 42
0.0
 70
0
  0
VERTEX
  5
606
330
1F
100
AcDbEntity
  8
0
 67
0
100
AcDbVertex
100
AcDb2dVertex
 10
-42.0495
 20
67.2531
 40
0.0
 41
0.0
 42
0.0
 70
0
  0
VERTEX
  5
607
330
1F
100
AcDbEntity
  8
0
 67
0
100
AcDbVertex
100
AcDb2dVertex
 10
-43.1742
 20
67.014
 40
0.0
 41
0.0
 42
0.0
 70
0
  0
VERTEX
  5
608
330
1F
100
AcDbEntity
  8
0
 67
0
100
AcDbVertex
100
AcDb2dVertex
 10
-44.2246
 20
66.5463
 40
0.0
 41
0.0
 42
0.0
 70
0
  0
VERTEX
  5
609
330
1F
100
AcDbEntity
  8
0
 67
0
100
AcDbVertex
100
AcDb2dVertex
 10
-45.1548
 20
65.8705
 40
0.0
 41
0.0
 42
0.0
 70
0
  0
VERTEX
  5
60A
330
1F
100
AcDbEntity
  8
0
 67
0
100
AcDbVertex
100
AcDb2dVertex
 10
-45.9242
 20
65.016
 40
0.0
 41
0.0
 42
0.0
 70
0
  0
VERTEX
  5
60B
330
1F
100
AcDbEntity
  8
0
 67
0
100
AcDbVertex
100
AcDb2dVertex
 10
-46.4991
 20
64.0203
 40
0.0
 41
0.0
 42
0.0
 70
0
  0
VERTEX
  5
60C
330
1F
100
AcDbEntity
  8
0
 67
0
100
AcDbVertex
100
AcDb2dVertex
 10
-46.8544
 20
62.9267
 40
0.0
 41
0.0
 42
0.0
 70
0
  0
VERTEX
  5
60D
330
1F
100
AcDbEntity
  8
0
 67
0
100
AcDbVertex
100
AcDb2dVertex
 10
-46.9746
 20
61.7832
 40
0.0
 41
0.0
 42
0.0
 70
0
  0
SEQEND
  5
5EC
330
0
100
AcDbEntity
 67
0
  0
POLYLINE
  5
60E
330
1F
100
AcDbEntity
  8
layer_65
 67
0
100
AcDb2dPolyline
 66
1
 70
0
 10
0.0
 20
0.0
 30
0.0
  0
VERTEX
  5
610
330
1F
100
AcDbEntity
  8
0
 67
0
100
AcDbVertex
100
AcDb2dVertex
 10
-40.7918
 20
58.3504
 40
0.0
 41
0.0
 42
0.0
 70
0
  0
VERTEX
  5
611
330
1F
100
AcDbEntity
  8
0
 67
0
100
AcDbVertex
100
AcDb2dVertex
 10
-40.1352
 20
58.5496
 40
0.0
 41
0.0
 42
0.0
 70
0
  0
VERTEX
  5
612
330
1F
100
AcDbEntity
  8
0
 67
0
100
AcDbVertex
100
AcDb2dVertex
 10
-39.5301
 20
58.8731
 40
0.0
 41
0.0
 42
0.0
 70
0
  0
VERTEX
  5
613
330
1F
100
AcDbEntity
  8
0
 67
0
100
AcDbVertex
100
AcDb2dVertex
 10
-38.9997
 20
59.3083
 40
0.0
 41
0.0
 42
0.0
 70
0
  0
VERTEX
  5
614
330
1F
100
AcDbEntity
  8
0
 67
0
100
AcDbVertex
100
AcDb2dVertex
 10
-38.5645
 20
59.8387
 40
0.0
 41
0.0
 42
0.0
 70
0
  0
VERTEX
  5
615
330
1F
100
AcDbEntity
  8
0
 67
0
100
AcDbVertex
100
AcDb2dVertex
 10
-38.241
 20
60.4438
 40
0.0
 41
0.0
 42
0.0
 70
0
  0
VERTEX
  5
616
330
1F
100
AcDbEntity
  8
0
 67
0
100
AcDbVertex
100
AcDb2dVertex
 10
-38.0419
 20
61.1004
 40
0.0
 41
0.0
 42
0.0
 70
0
  0
VERTEX
  5
617
330
1F
100
AcDbEntity
  8
0
 67
0
100
AcDbVertex
100
AcDb2dVertex
 10
-37.9746
 20
61.7832
 40
0.0
 41
0.0
 42
0.0
 70
0
  0
VERTEX
  5
618
330
1F
100
AcDbEntity
  8
0
 67
0
100
AcDbVertex
100
AcDb2dVertex
 10
-38.0419
 20
62.466
 40
0.0
 41
0.0
 42
0.0
 70
0
  0
VERTEX
  5
619
330
1F
100
AcDbEntity
  8
0
 67
0
100
AcDbVertex
100
AcDb2dVertex
 10
-38.241
 20
63.1226
 40
0.0
 41
0.0
 42
0.0
 70
0
  0
VERTEX
  5
61A
330
1F
100
AcDbEntity
  8
0
 67
0
100
AcDbVertex
100
AcDb2dVertex
 10
-38.5645
 20
63.7277
 40
0.0
 41
0.0
 42
0.0
 70
0
  0
VERTEX
  5
61B
330
1F
100
AcDbEntity
  8
0
 67
0
100
AcDbVertex
100
AcDb2dVertex
 10
-38.9997
 20
64.2581
 40
0.0
 41
0.0
 42
0.0
 70
0
  0
VERTEX
  5
61C
330
1F
100
AcDbEntity
  8
0
 67
0
100
AcDbVertex
100
AcDb2dVertex
 10
-39.5301
 20
64.6933
 40
0.0
 41
0.0
 42
0.0
 70
0
  0
VERTEX
  5
61D
330
1F
100
AcDbEntity
  8
0
 67
0
100
AcDbVertex
100
AcDb2dVertex
 10
-40.1352
 20
65.0168
 40
0.0
 41
0.0
 42
0.0
 70
0
  0
VERTEX
  5
61E
330
1F
100
AcDbEntity
  8
0
 67
0
100
AcDbVertex
100
AcDb2dVertex
 10
-40.7918
 20
65.2159
 40
0.0
 41
0.0
 42
0.0
 70
0
  0
VERTEX
  5
61F
330
1F
100
AcDbEntity
  8
0
 67
0
100
AcDbVertex
100
AcDb2dVertex
 10
-41.4746
 20
65.2832
 40
0.0
 41
0.0
 42
0.0
 70
0
  0
VERTEX
  5
620
330
1F
100
AcDbEntity
  8
0
 67
0
100
AcDbVertex
100
AcDb2dVertex
 10
-42.1574
 20
65.2159
 40
0.0
 41
0.0
 42
0.0
 70
0
  0
VERTEX
  5
621
330
1F
100
AcDbEntity
  8
0
 67
0
100
AcDbVertex
100
AcDb2dVertex
 10
-42.814
 20
65.0168
 40
0.0
 41
0.0
 42
0.0
 70
0
  0
VERTEX
  5
622
330
1F
100
AcDbEntity
  8
0
 67
0
100
AcDbVertex
100
AcDb2dVertex
 10
-43.4191
 20
64.6933
 40
0.0
 41
0.0
 42
0.0
 70
0
  0
VERTEX
  5
623
330
1F
100
AcDbEntity
  8
0
 67
0
100
AcDbVertex
100
AcDb2dVertex
 10
-43.9495
 20
64.2581
 40
0.0
 41
0.0
 42
0.0
 70
0
  0
VERTEX
  5
624
330
1F
100
AcDbEntity
  8
0
 67
0
100
AcDbVertex
100
AcDb2dVertex
 10
-44.3848
 20
63.7277
 40
0.0
 41
0.0
 42
0.0
 70
0
  0
VERTEX
  5
625
330
1F
100
AcDbEntity
  8
0
 67
0
100
AcDbVertex
100
AcDb2dVertex
 10
-44.7082
 20
63.1226
 40
0.0
 41
0.0
 42
0.0
 70
0
  0
VERTEX
  5
626
330
1F
100
AcDbEntity
  8
0
 67
0
100
AcDbVertex
100
AcDb2dVertex
 10
-44.9074
 20
62.466
 40
0.0
 41
0.0
 42
0.0
 70
0
  0
VERTEX
  5
627
330
1F
100
AcDbEntity
  8
0
 67
0
100
AcDbVertex
100
AcDb2dVertex
 10
-44.9746
 20
61.7832
 40
0.0
 41
0.0
 42
0.0
 70
0
  0
VERTEX
  5
628
330
1F
100
AcDbEntity
  8
0
 67
0
100
AcDbVertex
100
AcDb2dVertex
 10
-44.9074
 20
61.1004
 40
0.0
 41
0.0
 42
0.0
 70
0
  0
VERTEX
  5
629
330
1F
100
AcDbEntity
  8
0
 67
0
100
AcDbVertex
100
AcDb2dVertex
 10
-44.7082
 20
60.4438
 40
0.0
 41
0.0
 42
0.0
 70
0
  0
VERTEX
  5
62A
330
1F
100
AcDbEntity
  8
0
 67
0
100
AcDbVertex
100
AcDb2dVertex
 10
-44.3848
 20
59.8387
 40
0.0
 41
0.0
 42
0.0
 70
0
  0
VERTEX
  5
62B
330
1F
100
AcDbEntity
  8
0
 67
0
100
AcDbVertex
100
AcDb2dVertex
 10
-43.9495
 20
59.3083
 40
0.0
 41
0.0
 42
0.0
 70
0
  0
VERTEX
  5
62C
330
1F
100
AcDbEntity
  8
0
 67
0
100
AcDbVertex
100
AcDb2dVertex
 10
-43.4191
 20
58.8731
 40
0.0
 41
0.0
 42
0.0
 70
0
  0
VERTEX
  5
62D
330
1F
100
AcDbEntity
  8
0
 67
0
100
AcDbVertex
100
AcDb2dVertex
 10
-42.814
 20
58.5496
 40
0.0
 41
0.0
 42
0.0
 70
0
  0
VERTEX
  5
62E
330
1F
100
AcDbEntity
  8
0
 67
0
100
AcDbVertex
100
AcDb2dVertex
 10
-42.1574
 20
58.3504
 40
0.0
 41
0.0
 42
0.0
 70
0
  0
VERTEX
  5
62F
330
1F
100
AcDbEntity
  8
0
 67
0
100
AcDbVertex
100
AcDb2dVertex
 10
-41.4746
 20
58.2832
 40
0.0
 41
0.0
 42
0.0
 70
0
  0
VERTEX
  5
630
330
1F
100
AcDbEntity
  8
0
 67
0
100
AcDbVertex
100
AcDb2dVertex
 10
-40.7918
 20
58.3504
 40
0.0
 41
0.0
 42
0.0
 70
0
  0
SEQEND
  5
60F
330
0
100
AcDbEntity
 67
0
  0
POLYLINE
  5
631
330
1F
100
AcDbEntity
  8
layer_65
 67
0
100
AcDb2dPolyline
 66
1
 70
0
 10
0.0
 20
0.0
 30
0.0
  0
VERTEX
  5
633
330
1F
100
AcDbEntity
  8
0
 67
0
100
AcDbVertex
100
AcDb2dVertex
 10
0.682816
 20
-3.43274
 40
0.0
 41
0.0
 42
0.0
 70
0
  0
VERTEX
  5
634
330
1F
100
AcDbEntity
  8
0
 67
0
100
AcDbVertex
100
AcDb2dVertex
 10
1.33939
 20
-3.23357
 40
0.0
 41
0.0
 42
0.0
 70
0
  0
VERTEX
  5
635
330
1F
100
AcDbEntity
  8
0
 67
0
100
AcDbVertex
100
AcDb2dVertex
 10
1.94449
 20
-2.91014
 40
0.0
 41
0.0
 42
0.0
 70
0
  0
VERTEX
  5
636
330
1F
100
AcDbEntity
  8
0
 67
0
100
AcDbVertex
100
AcDb2dVertex
 10
2.47487
 20
-2.47487
 40
0.0
 41
0.0
 42
0.0
 70
0
  0
VERTEX
  5
637
330
1F
100
AcDbEntity
  8
0
 67
0
100
AcDbVertex
100
AcDb2dVertex
 10
2.91014
 20
-1.94449
 40
0.0
 41
0.0
 42
0.0
 70
0
  0
VERTEX
  5
638
330
1F
100
AcDbEntity
  8
0
 67
0
100
AcDbVertex
100
AcDb2dVertex
 10
3.23357
 20
-1.33939
 40
0.0
 41
0.0
 42
0.0
 70
0
  0
VERTEX
  5
639
330
1F
100
AcDbEntity
  8
0
 67
0
100
AcDbVertex
100
AcDb2dVertex
 10
3.43274
 20
-0.682816
 40
0.0
 41
0.0
 42
0.0
 70
0
  0
VERTEX
  5
63A
330
1F
100
AcDbEntity
  8
0
 67
0
100
AcDbVertex
100
AcDb2dVertex
 10
3.5
 20
0.0
 40
0.0
 41
0.0
 42
0.0
 70
0
  0
VERTEX
  5
63B
330
1F
100
AcDbEntity
  8
0
 67
0
100
AcDbVertex
100
AcDb2dVertex
 10
3.43274
 20
0.682816
 40
0.0
 41
0.0
 42
0.0
 70
0
  0
VERTEX
  5
63C
330
1F
100
AcDbEntity
  8
0
 67
0
100
AcDbVertex
100
AcDb2dVertex
 10
3.23357
 20
1.33939
 40
0.0
 41
0.0
 42
0.0
 70
0
  0
VERTEX
  5
63D
330
1F
100
AcDbEntity
  8
0
 67
0
100
AcDbVertex
100
AcDb2dVertex
 10
2.91014
 20
1.94449
 40
0.0
 41
0.0
 42
0.0
 70
0
  0
VERTEX
  5
63E
330
1F
100
AcDbEntity
  8
0
 67
0
100
AcDbVertex
100
AcDb2dVertex
 10
2.47487
 20
2.47487
 40
0.0
 41
0.0
 42
0.0
 70
0
  0
VERTEX
  5
63F
330
1F
100
AcDbEntity
  8
0
 67
0
100
AcDbVertex
100
AcDb2dVertex
 10
1.94449
 20
2.91014
 40
0.0
 41
0.0
 42
0.0
 70
0
  0
VERTEX
  5
640
330
1F
100
AcDbEntity
  8
0
 67
0
100
AcDbVertex
100
AcDb2dVertex
 10
1.33939
 20
3.23357
 40
0.0
 41
0.0
 42
0.0
 70
0
  0
VERTEX
  5
641
330
1F
100
AcDbEntity
  8
0
 67
0
100
AcDbVertex
100
AcDb2dVertex
 10
0.682816
 20
3.43274
 40
0.0
 41
0.0
 42
0.0
 70
0
  0
VERTEX
  5
642
330
1F
100
AcDbEntity
  8
0
 67
0
100
AcDbVertex
100
AcDb2dVertex
 10
0.0
 20
3.5
 40
0.0
 41
0.0
 42
0.0
 70
0
  0
VERTEX
  5
643
330
1F
100
AcDbEntity
  8
0
 67
0
100
AcDbVertex
100
AcDb2dVertex
 10
-0.682816
 20
3.43274
 40
0.0
 41
0.0
 42
0.0
 70
0
  0
VERTEX
  5
644
330
1F
100
AcDbEntity
  8
0
 67
0
100
AcDbVertex
100
AcDb2dVertex
 10
-1.33939
 20
3.23357
 40
0.0
 41
0.0
 42
0.0
 70
0
  0
VERTEX
  5
645
330
1F
100
AcDbEntity
  8
0
 67
0
100
AcDbVertex
100
AcDb2dVertex
 10
-1.94449
 20
2.91014
 40
0.0
 41
0.0
 42
0.0
 70
0
  0
VERTEX
  5
646
330
1F
100
AcDbEntity
  8
0
 67
0
100
AcDbVertex
100
AcDb2dVertex
 10
-2.47487
 20
2.47487
 40
0.0
 41
0.0
 42
0.0
 70
0
  0
VERTEX
  5
647
330
1F
100
AcDbEntity
  8
0
 67
0
100
AcDbVertex
100
AcDb2dVertex
 10
-2.91014
 20
1.94449
 40
0.0
 41
0.0
 42
0.0
 70
0
  0
VERTEX
  5
648
330
1F
100
AcDbEntity
  8
0
 67
0
100
AcDbVertex
100
AcDb2dVertex
 10
-3.23357
 20
1.33939
 40
0.0
 41
0.0
 42
0.0
 70
0
  0
VERTEX
  5
649
330
1F
100
AcDbEntity
  8
0
 67
0
100
AcDbVertex
100
AcDb2dVertex
 10
-3.43274
 20
0.682816
 40
0.0
 41
0.0
 42
0.0
 70
0
  0
VERTEX
  5
64A
330
1F
100
AcDbEntity
  8
0
 67
0
100
AcDbVertex
100
AcDb2dVertex
 10
-3.5
 20
0.0
 40
0.0
 41
0.0
 42
0.0
 70
0
  0
VERTEX
  5
64B
330
1F
100
AcDbEntity
  8
0
 67
0
100
AcDbVertex
100
AcDb2dVertex
 10
-3.43274
 20
-0.682816
 40
0.0
 41
0.0
 42
0.0
 70
0
  0
VERTEX
  5
64C
330
1F
100
AcDbEntity
  8
0
 67
0
100
AcDbVertex
100
AcDb2dVertex
 10
-3.23357
 20
-1.33939
 40
0.0
 41
0.0
 42
0.0
 70
0
  0
VERTEX
  5
64D
330
1F
100
AcDbEntity
  8
0
 67
0
100
AcDbVertex
100
AcDb2dVertex
 10
-2.91014
 20
-1.94449
 40
0.0
 41
0.0
 42
0.0
 70
0
  0
VERTEX
  5
64E
330
1F
100
AcDbEntity
  8
0
 67
0
100
AcDbVertex
100
AcDb2dVertex
 10
-2.47487
 20
-2.47487
 40
0.0
 41
0.0
 42
0.0
 70
0
  0
VERTEX
  5
64F
330
1F
100
AcDbEntity
  8
0
 67
0
100
AcDbVertex
100
AcDb2dVertex
 10
-1.94449
 20
-2.91014
 40
0.0
 41
0.0
 42
0.0
 70
0
  0
VERTEX
  5
650
330
1F
100
AcDbEntity
  8
0
 67
0
100
AcDbVertex
100
AcDb2dVertex
 10
-1.33939
 20
-3.23357
 40
0.0
 41
0.0
 42
0.0
 70
0
  0
VERTEX
  5
651
330
1F
100
AcDbEntity
  8
0
 67
0
100
AcDbVertex
100
AcDb2dVertex
 10
-0.682816
 20
-3.43274
 40
0.0
 41
0.0
 42
0.0
 70
0
  0
VERTEX
  5
652
330
1F
100
AcDbEntity
  8
0
 67
0
100
AcDbVertex
100
AcDb2dVertex
 10
0.0
 20
-3.5
 40
0.0
 41
0.0
 42
0.0
 70
0
  0
VERTEX
  5
653
330
1F
100
AcDbEntity
  8
0
 67
0
100
AcDbVertex
100
AcDb2dVertex
 10
0.682816
 20
-3.43274
 40
0.0
 41
0.0
 42
0.0
 70
0
  0
SEQEND
  5
632
330
0
100
AcDbEntity
 67
0
  0
POLYLINE
  5
655
330
1F
100
AcDbEntity
  8
layer_66
 67
0
100
AcDb2dPolyline
 66
1
 70
0
 10
0.0
 20
0.0
 30
0.0
  0
VERTEX
  5
657
330
1F
100
AcDbEntity
  8
0
 67
0
100
AcDbVertex
100
AcDb2dVertex
 10
-21.9855636859
 20
32.8505361005
 40
0.0
 41
0.0
 42
0.0
 70
0
  0
VERTEX
  5
658
330
1F
100
AcDbEntity
  8
0
 67
0
100
AcDbVertex
100
AcDb2dVertex
 10
-22.1080974475
 20
32.9869670951
 40
0.0
 41
0.0
 42
0.0
 70
0
  0
VERTEX
  5
659
330
1F
100
AcDbEntity
  8
0
 67
0
100
AcDbVertex
100
AcDb2dVertex
 10
-22.2417007727
 20
33.1091983148
 40
0.0
 41
0.0
 42
0.0
 70
0
  0
VERTEX
  5
65A
330
1F
100
AcDbEntity
  8
0
 67
0
100
AcDbVertex
100
AcDb2dVertex
 10
-22.3863822639
 20
33.2171878519
 40
0.0
 41
0.0
 42
0.0
 70
0
  0
VERTEX
  5
65B
330
1F
100
AcDbEntity
  8
0
 67
0
100
AcDbVertex
100
AcDb2dVertex
 10
-22.5429151145
 20
33.3072972124
 40
0.0
 41
0.0
 42
0.0
 70
0
  0
VERTEX
  5
65C
330
1F
100
AcDbEntity
  8
0
 67
0
100
AcDbVertex
100
AcDb2dVertex
 10
-22.7120772902
 20
33.3758365217
 40
0.0
 41
0.0
 42
0.0
 70
0
  0
VERTEX
  5
65D
330
1F
100
AcDbEntity
  8
0
 67
0
100
AcDbVertex
100
AcDb2dVertex
 10
-22.8938663001
 20
33.4228074518
 40
0.0
 41
0.0
 42
0.0
 70
0
  0
VERTEX
  5
65E
330
1F
100
AcDbEntity
  8
0
 67
0
100
AcDbVertex
100
AcDb2dVertex
 10
-23.0882666076
 20
33.4482083883
 40
0.0
 41
0.0
 42
0.0
 70
0
  0
VERTEX
  5
65F
330
1F
100
AcDbEntity
  8
0
 67
0
100
AcDbVertex
100
AcDb2dVertex
 10
-23.2954828242
 20
33.4505409791
 40
0.0
 41
0.0
 42
0.0
 70
0
  0
VERTEX
  5
660
330
1F
100
AcDbEntity
  8
0
 67
0
100
AcDbVertex
100
AcDb2dVertex
 10
-23.5157323695
 20
33.4283223627
 40
0.0
 41
0.0
 42
0.0
 70
0
  0
VERTEX
  5
661
330
1F
100
AcDbEntity
  8
0
 67
0
100
AcDbVertex
100
AcDb2dVertex
 10
-23.7490185644
 20
33.3815503098
 40
0.0
 41
0.0
 42
0.0
 70
0
  0
VERTEX
  5
662
330
1F
100
AcDbEntity
  8
0
 67
0
100
AcDbVertex
100
AcDb2dVertex
 10
-23.9953117577
 20
33.310232681
 40
0.0
 41
0.0
 42
0.0
 70
0
  0
VERTEX
  5
663
330
1F
100
AcDbEntity
  8
0
 67
0
100
AcDbVertex
100
AcDb2dVertex
 10
-24.2562180336
 20
33.2109667873
 40
0.0
 41
0.0
 42
0.0
 70
0
  0
VERTEX
  5
664
330
1F
100
AcDbEntity
  8
0
 67
0
100
AcDbVertex
100
AcDb2dVertex
 10
-24.5318755489
 20
33.0801188823
 40
0.0
 41
0.0
 42
0.0
 70
0
  0
VERTEX
  5
665
330
1F
100
AcDbEntity
  8
0
 67
0
100
AcDbVertex
100
AcDb2dVertex
 10
-24.8223313908
 20
32.9176694009
 40
0.0
 41
0.0
 42
0.0
 70
0
  0
VERTEX
  5
666
330
1F
100
AcDbEntity
  8
0
 67
0
100
AcDbVertex
100
AcDb2dVertex
 10
-25.1275273249
 20
32.7236213027
 40
0.0
 41
0.0
 42
0.0
 70
0
  0
VERTEX
  5
667
330
1F
100
AcDbEntity
  8
0
 67
0
100
AcDbVertex
100
AcDb2dVertex
 10
-25.4363687474
 20
32.505615024
 40
0.0
 41
0.0
 42
0.0
 70
0
  0
VERTEX
  5
668
330
1F
100
AcDbEntity
  8
0
 67
0
100
AcDbVertex
100
AcDb2dVertex
 10
-25.7070047731
 20
32.2918772526
 40
0.0
 41
0.0
 42
0.0
 70
0
  0
VERTEX
  5
669
330
1F
100
AcDbEntity
  8
0
 67
0
100
AcDbVertex
100
AcDb2dVertex
 10
-25.9393883147
 20
32.0824275537
 40
0.0
 41
0.0
 42
0.0
 70
0
  0
VERTEX
  5
66A
330
1F
100
AcDbEntity
  8
0
 67
0
100
AcDbVertex
100
AcDb2dVertex
 10
-26.1335581568
 20
31.8772519357
 40
0.0
 41
0.0
 42
0.0
 70
0
  0
VERTEX
  5
66B
330
1F
100
AcDbEntity
  8
0
 67
0
100
AcDbVertex
100
AcDb2dVertex
 10
-26.2943905324
 20
31.6764734902
 40
0.0
 41
0.0
 42
0.0
 70
0
  0
VERTEX
  5
66C
330
1F
100
AcDbEntity
  8
0
 67
0
100
AcDbVertex
100
AcDb2dVertex
 10
-26.4262014736
 20
31.4793628566
 40
0.0
 41
0.0
 42
0.0
 70
0
  0
VERTEX
  5
66D
330
1F
100
AcDbEntity
  8
0
 67
0
100
AcDbVertex
100
AcDb2dVertex
 10
-26.5290270356
 20
31.2859199196
 40
0.0
 41
0.0
 42
0.0
 70
0
  0
VERTEX
  5
66E
330
1F
100
AcDbEntity
  8
0
 67
0
100
AcDbVertex
100
AcDb2dVertex
 10
-26.6028421952
 20
31.0961253445
 40
0.0
 41
0.0
 42
0.0
 70
0
  0
VERTEX
  5
66F
330
1F
100
AcDbEntity
  8
0
 67
0
100
AcDbVertex
100
AcDb2dVertex
 10
-26.6496751599
 20
30.9102194922
 40
0.0
 41
0.0
 42
0.0
 70
0
  0
VERTEX
  5
670
330
1F
100
AcDbEntity
  8
0
 67
0
100
AcDbVertex
100
AcDb2dVertex
 10
-26.6715512932
 20
30.7284205445
 40
0.0
 41
0.0
 42
0.0
 70
0
  0
VERTEX
  5
671
330
1F
100
AcDbEntity
  8
0
 67
0
100
AcDbVertex
100
AcDb2dVertex
 10
-26.668481627
 20
30.5507090515
 40
0.0
 41
0.0
 42
0.0
 70
0
  0
VERTEX
  5
672
330
1F
100
AcDbEntity
  8
0
 67
0
100
AcDbVertex
100
AcDb2dVertex
 10
-26.6404690057
 20
30.3771071922
 40
0.0
 41
0.0
 42
0.0
 70
0
  0
VERTEX
  5
673
330
1F
100
AcDbEntity
  8
0
 67
0
100
AcDbVertex
100
AcDb2dVertex
 10
-26.5919506181
 20
30.207478751
 40
0.0
 41
0.0
 42
0.0
 70
0
  0
VERTEX
  5
674
330
1F
100
AcDbEntity
  8
0
 67
0
100
AcDbVertex
100
AcDb2dVertex
 10
-26.5273527365
 20
30.0417430174
 40
0.0
 41
0.0
 42
0.0
 70
0
  0
VERTEX
  5
675
330
1F
100
AcDbEntity
  8
0
 67
0
100
AcDbVertex
100
AcDb2dVertex
 10
-26.4466779749
 20
29.8798500597
 40
0.0
 41
0.0
 42
0.0
 70
0
  0
VERTEX
  5
676
330
1F
100
AcDbEntity
  8
0
 67
0
100
AcDbVertex
100
AcDb2dVertex
 10
-26.3499430539
 20
29.7218247863
 40
0.0
 41
0.0
 42
0.0
 70
0
  0
VERTEX
  5
677
330
1F
100
AcDbEntity
  8
0
 67
0
100
AcDbVertex
100
AcDb2dVertex
 10
-26.2354732899
 20
29.5652263088
 40
0.0
 41
0.0
 42
0.0
 70
0
  0
VERTEX
  5
678
330
1F
100
AcDbEntity
  8
0
 67
0
100
AcDbVertex
100
AcDb2dVertex
 10
-26.1122614579
 20
29.4233970035
 40
0.0
 41
0.0
 42
0.0
 70
0
  0
VERTEX
  5
679
330
1F
100
AcDbEntity
  8
0
 67
0
100
AcDbVertex
100
AcDb2dVertex
 10
-25.9802964107
 20
29.2963202648
 40
0.0
 41
0.0
 42
0.0
 70
0
  0
VERTEX
  5
67A
330
1F
100
AcDbEntity
  8
0
 67
0
100
AcDbVertex
100
AcDb2dVertex
 10
-25.8395476665
 20
29.1840045108
 40
0.0
 41
0.0
 42
0.0
 70
0
  0
VERTEX
  5
67B
330
1F
100
AcDbEntity
  8
0
 67
0
100
AcDbVertex
100
AcDb2dVertex
 10
-25.6882642644
 20
29.0905157636
 40
0.0
 41
0.0
 42
0.0
 70
0
  0
VERTEX
  5
67C
330
1F
100
AcDbEntity
  8
0
 67
0
100
AcDbVertex
100
AcDb2dVertex
 10
-25.5240879555
 20
29.019087158
 40
0.0
 41
0.0
 42
0.0
 70
0
  0
VERTEX
  5
67D
330
1F
100
AcDbEntity
  8
0
 67
0
100
AcDbVertex
100
AcDb2dVertex
 10
-25.3470253704
 20
28.9697106298
 40
0.0
 41
0.0
 42
0.0
 70
0
  0
VERTEX
  5
67E
330
1F
100
AcDbEntity
  8
0
 67
0
100
AcDbVertex
100
AcDb2dVertex
 10
-25.1570515432
 20
28.942384872
 40
0.0
 41
0.0
 42
0.0
 70
0
  0
VERTEX
  5
67F
330
1F
100
AcDbEntity
  8
0
 67
0
100
AcDbVertex
100
AcDb2dVertex
 10
-24.9534815532
 20
28.9388885099
 40
0.0
 41
0.0
 42
0.0
 70
0
  0
VERTEX
  5
680
330
1F
100
AcDbEntity
  8
0
 67
0
100
AcDbVertex
100
AcDb2dVertex
 10
-24.7355986524
 20
28.9609348158
 40
0.0
 41
0.0
 42
0.0
 70
0
  0
VERTEX
  5
681
330
1F
100
AcDbEntity
  8
0
 67
0
100
AcDbVertex
100
AcDb2dVertex
 10
-24.5034278643
 20
29.0085431243
 40
0.0
 41
0.0
 42
0.0
 70
0
  0
VERTEX
  5
682
330
1F
100
AcDbEntity
  8
0
 67
0
100
AcDbVertex
100
AcDb2dVertex
 10
-24.2569442807
 20
29.0817301561
 40
0.0
 41
0.0
 42
0.0
 70
0
  0
VERTEX
  5
683
330
1F
100
AcDbEntity
  8
0
 67
0
100
AcDbVertex
100
AcDb2dVertex
 10
-23.9942463381
 20
29.1848220157
 40
0.0
 41
0.0
 42
0.0
 70
0
  0
VERTEX
  5
684
330
1F
100
AcDbEntity
  8
0
 67
0
100
AcDbVertex
100
AcDb2dVertex
 10
-23.7129146309
 20
29.3213554559
 40
0.0
 41
0.0
 42
0.0
 70
0
  0
VERTEX
  5
685
330
1F
100
AcDbEntity
  8
0
 67
0
100
AcDbVertex
100
AcDb2dVertex
 10
-23.4129159483
 20
29.4913527712
 40
0.0
 41
0.0
 42
0.0
 70
0
  0
VERTEX
  5
686
330
1F
100
AcDbEntity
  8
0
 67
0
100
AcDbVertex
100
AcDb2dVertex
 10
-23.0942918039
 20
29.6947860935
 40
0.0
 41
0.0
 42
0.0
 70
0
  0
VERTEX
  5
687
330
1F
100
AcDbEntity
  8
0
 67
0
100
AcDbVertex
100
AcDb2dVertex
 10
-22.7978495138
 20
29.9042424915
 40
0.0
 41
0.0
 42
0.0
 70
0
  0
VERTEX
  5
688
330
1F
100
AcDbEntity
  8
0
 67
0
100
AcDbVertex
100
AcDb2dVertex
 10
-22.5362098465
 20
30.1112690036
 40
0.0
 41
0.0
 42
0.0
 70
0
  0
VERTEX
  5
689
330
1F
100
AcDbEntity
  8
0
 67
0
100
AcDbVertex
100
AcDb2dVertex
 10
-22.3093561965
 20
30.3158767771
 40
0.0
 41
0.0
 42
0.0
 70
0
  0
VERTEX
  5
68A
330
1F
100
AcDbEntity
  8
0
 67
0
100
AcDbVertex
100
AcDb2dVertex
 10
-22.1173217748
 20
30.5180435176
 40
0.0
 41
0.0
 42
0.0
 70
0
  0
VERTEX
  5
68B
330
1F
100
AcDbEntity
  8
0
 67
0
100
AcDbVertex
100
AcDb2dVertex
 10
-21.9572106623
 20
30.7176536722
 40
0.0
 41
0.0
 42
0.0
 70
0
  0
VERTEX
  5
68C
330
1F
100
AcDbEntity
  8
0
 67
0
100
AcDbVertex
100
AcDb2dVertex
 10
-21.824807054
 20
30.9143407427
 40
0.0
 41
0.0
 42
0.0
 70
0
  0
VERTEX
  5
68D
330
1F
100
AcDbEntity
  8
0
 67
0
100
AcDbVertex
100
AcDb2dVertex
 10
-21.7200853692
 20
31.1080845643
 40
0.0
 41
0.0
 42
0.0
 70
0
  0
VERTEX
  5
68E
330
1F
100
AcDbEntity
  8
0
 67
0
100
AcDbVertex
100
AcDb2dVertex
 10
-21.6430462228
 20
31.2989039949
 40
0.0
 41
0.0
 42
0.0
 70
0
  0
VERTEX
  5
68F
330
1F
100
AcDbEntity
  8
0
 67
0
100
AcDbVertex
100
AcDb2dVertex
 10
-21.5927894659
 20
31.4866673958
 40
0.0
 41
0.0
 42
0.0
 70
0
  0
VERTEX
  5
690
330
1F
100
AcDbEntity
  8
0
 67
0
100
AcDbVertex
100
AcDb2dVertex
 10
-21.5669934245
 20
31.6709520147
 40
0.0
 41
0.0
 42
0.0
 70
0
  0
VERTEX
  5
691
330
1F
100
AcDbEntity
  8
0
 67
0
100
AcDbVertex
100
AcDb2dVertex
 10
-21.565667493
 20
31.8517467277
 40
0.0
 41
0.0
 42
0.0
 70
0
  0
VERTEX
  5
692
330
1F
100
AcDbEntity
  8
0
 67
0
100
AcDbVertex
100
AcDb2dVertex
 10
-21.5888050639
 20
32.0290668101
 40
0.0
 41
0.0
 42
0.0
 70
0
  0
VERTEX
  5
693
330
1F
100
AcDbEntity
  8
0
 67
0
100
AcDbVertex
100
AcDb2dVertex
 10
-21.6333739837
 20
32.20299656
 40
0.0
 41
0.0
 42
0.0
 70
0
  0
VERTEX
  5
694
330
1F
100
AcDbEntity
  8
0
 67
0
100
AcDbVertex
100
AcDb2dVertex
 10
-21.6957929516
 20
32.3727724476
 40
0.0
 41
0.0
 42
0.0
 70
0
  0
VERTEX
  5
695
330
1F
100
AcDbEntity
  8
0
 67
0
100
AcDbVertex
100
AcDb2dVertex
 10
-21.7760366441
 20
32.5384114721
 40
0.0
 41
0.0
 42
0.0
 70
0
  0
VERTEX
  5
696
330
1F
100
AcDbEntity
  8
0
 67
0
100
AcDbVertex
100
AcDb2dVertex
 10
-21.8741303847
 20
32.6998966342
 40
0.0
 41
0.0
 42
0.0
 70
0
  0
VERTEX
  5
697
330
1F
100
AcDbEntity
  8
0
 67
0
100
AcDbVertex
100
AcDb2dVertex
 10
-21.9855636859
 20
32.8505361005
 40
0.0
 41
0.0
 42
0.0
 70
0
  0
SEQEND
  5
656
330
0
100
AcDbEntity
 67
0
  0
POLYLINE
  5
698
330
1F
100
AcDbEntity
  8
layer_66
 67
0
100
AcDb2dPolyline
 66
1
 70
0
 10
0.0
 20
0.0
 30
0.0
  0
VERTEX
  5
69A
330
1F
100
AcDbEntity
  8
0
 67
0
100
AcDbVertex
100
AcDb2dVertex
 10
-22.2908186945
 20
32.2752003721
 40
0.0
 41
0.0
 42
0.0
 70
0
  0
VERTEX
  5
69B
330
1F
100
AcDbEntity
  8
0
 67
0
100
AcDbVertex
100
AcDb2dVertex
 10
-22.2394081741
 20
32.1626157394
 40
0.0
 41
0.0
 42
0.0
 70
0
  0
VERTEX
  5
69C
330
1F
100
AcDbEntity
  8
0
 67
0
100
AcDbVertex
100
AcDb2dVertex
 10
-22.2031423248
 20
32.0486087058
 40
0.0
 41
0.0
 42
0.0
 70
0
  0
VERTEX
  5
69D
330
1F
100
AcDbEntity
  8
0
 67
0
100
AcDbVertex
100
AcDb2dVertex
 10
-22.1820280273
 20
31.9331626083
 40
0.0
 41
0.0
 42
0.0
 70
0
  0
VERTEX
  5
69E
330
1F
100
AcDbEntity
  8
0
 67
0
100
AcDbVertex
100
AcDb2dVertex
 10
-22.1782801727
 20
31.8152241982
 40
0.0
 41
0.0
 42
0.0
 70
0
  0
VERTEX
  5
69F
330
1F
100
AcDbEntity
  8
0
 67
0
100
AcDbVertex
100
AcDb2dVertex
 10
-22.1933311735
 20
31.6943257207
 40
0.0
 41
0.0
 42
0.0
 70
0
  0
VERTEX
  5
6A0
330
1F
100
AcDbEntity
  8
0
 67
0
100
AcDbVertex
100
AcDb2dVertex
 10
-22.2271510247
 20
31.5704511851
 40
0.0
 41
0.0
 42
0.0
 70
0
  0
VERTEX
  5
6A1
330
1F
100
AcDbEntity
  8
0
 67
0
100
AcDbVertex
100
AcDb2dVertex
 10
-22.2797530106
 20
31.4435916739
 40
0.0
 41
0.0
 42
0.0
 70
0
  0
VERTEX
  5
6A2
330
1F
100
AcDbEntity
  8
0
 67
0
100
AcDbVertex
100
AcDb2dVertex
 10
-22.3527713078
 20
31.3130596796
 40
0.0
 41
0.0
 42
0.0
 70
0
  0
VERTEX
  5
6A3
330
1F
100
AcDbEntity
  8
0
 67
0
100
AcDbVertex
100
AcDb2dVertex
 10
-22.4469796997
 20
31.1786730054
 40
0.0
 41
0.0
 42
0.0
 70
0
  0
VERTEX
  5
6A4
330
1F
100
AcDbEntity
  8
0
 67
0
100
AcDbVertex
100
AcDb2dVertex
 10
-22.5624098517
 20
31.0404465271
 40
0.0
 41
0.0
 42
0.0
 70
0
  0
VERTEX
  5
6A5
330
1F
100
AcDbEntity
  8
0
 67
0
100
AcDbVertex
100
AcDb2dVertex
 10
-22.699042314
 20
30.8983692127
 40
0.0
 41
0.0
 42
0.0
 70
0
  0
VERTEX
  5
6A6
330
1F
100
AcDbEntity
  8
0
 67
0
100
AcDbVertex
100
AcDb2dVertex
 10
-22.8588850015
 20
30.7515387998
 40
0.0
 41
0.0
 42
0.0
 70
0
  0
VERTEX
  5
6A7
330
1F
100
AcDbEntity
  8
0
 67
0
100
AcDbVertex
100
AcDb2dVertex
 10
-23.0431682166
 20
30.59959912
 40
0.0
 41
0.0
 42
0.0
 70
0
  0
VERTEX
  5
6A8
330
1F
100
AcDbEntity
  8
0
 67
0
100
AcDbVertex
100
AcDb2dVertex
 10
-23.2518892302
 20
30.4425640494
 40
0.0
 41
0.0
 42
0.0
 70
0
  0
VERTEX
  5
6A9
330
1F
100
AcDbEntity
  8
0
 67
0
100
AcDbVertex
100
AcDb2dVertex
 10
-23.4850091426
 20
30.2804115244
 40
0.0
 41
0.0
 42
0.0
 70
0
  0
VERTEX
  5
6AA
330
1F
100
AcDbEntity
  8
0
 67
0
100
AcDbVertex
100
AcDb2dVertex
 10
-23.7302561691
 20
30.1212711085
 40
0.0
 41
0.0
 42
0.0
 70
0
  0
VERTEX
  5
6AB
330
1F
100
AcDbEntity
  8
0
 67
0
100
AcDbVertex
100
AcDb2dVertex
 10
-23.9595112226
 20
29.9838623699
 40
0.0
 41
0.0
 42
0.0
 70
0
  0
VERTEX
  5
6AC
330
1F
100
AcDbEntity
  8
0
 67
0
100
AcDbVertex
100
AcDb2dVertex
 10
-24.1727936377
 20
29.8681602852
 40
0.0
 41
0.0
 42
0.0
 70
0
  0
VERTEX
  5
6AD
330
1F
100
AcDbEntity
  8
0
 67
0
100
AcDbVertex
100
AcDb2dVertex
 10
-24.3700785062
 20
29.774181575
 40
0.0
 41
0.0
 42
0.0
 70
0
  0
VERTEX
  5
6AE
330
1F
100
AcDbEntity
  8
0
 67
0
100
AcDbVertex
100
AcDb2dVertex
 10
-24.5533469911
 20
29.7004638123
 40
0.0
 41
0.0
 42
0.0
 70
0
  0
VERTEX
  5
6AF
330
1F
100
AcDbEntity
  8
0
 67
0
100
AcDbVertex
100
AcDb2dVertex
 10
-24.7245442001
 20
29.6455446851
 40
0.0
 41
0.0
 42
0.0
 70
0
  0
VERTEX
  5
6B0
330
1F
100
AcDbEntity
  8
0
 67
0
100
AcDbVertex
100
AcDb2dVertex
 10
-24.8836645596
 20
29.6094158907
 40
0.0
 41
0.0
 42
0.0
 70
0
  0
VERTEX
  5
6B1
330
1F
100
AcDbEntity
  8
0
 67
0
100
AcDbVertex
100
AcDb2dVertex
 10
-25.0307136432
 20
29.5920857319
 40
0.0
 41
0.0
 42
0.0
 70
0
  0
VERTEX
  5
6B2
330
1F
100
AcDbEntity
  8
0
 67
0
100
AcDbVertex
100
AcDb2dVertex
 10
-25.1667282555
 20
29.5925330149
 40
0.0
 41
0.0
 42
0.0
 70
0
  0
VERTEX
  5
6B3
330
1F
100
AcDbEntity
  8
0
 67
0
100
AcDbVertex
100
AcDb2dVertex
 10
-25.2928062796
 20
29.6097557657
 40
0.0
 41
0.0
 42
0.0
 70
0
  0
VERTEX
  5
6B4
330
1F
100
AcDbEntity
  8
0
 67
0
100
AcDbVertex
100
AcDb2dVertex
 10
-25.4088756048
 20
29.6437542146
 40
0.0
 41
0.0
 42
0.0
 70
0
  0
VERTEX
  5
6B5
330
1F
100
AcDbEntity
  8
0
 67
0
100
AcDbVertex
100
AcDb2dVertex
 10
-25.5150139155
 20
29.6945364339
 40
0.0
 41
0.0
 42
0.0
 70
0
  0
VERTEX
  5
6B6
330
1F
100
AcDbEntity
  8
0
 67
0
100
AcDbVertex
100
AcDb2dVertex
 10
-25.6134451129
 20
29.7610913037
 40
0.0
 41
0.0
 42
0.0
 70
0
  0
VERTEX
  5
6B7
330
1F
100
AcDbEntity
  8
0
 67
0
100
AcDbVertex
100
AcDb2dVertex
 10
-25.7058857883
 20
29.8416161001
 40
0.0
 41
0.0
 42
0.0
 70
0
  0
VERTEX
  5
6B8
330
1F
100
AcDbEntity
  8
0
 67
0
100
AcDbVertex
100
AcDb2dVertex
 10
-25.792338671
 20
29.9360969466
 40
0.0
 41
0.0
 42
0.0
 70
0
  0
VERTEX
  5
6B9
330
1F
100
AcDbEntity
  8
0
 67
0
100
AcDbVertex
100
AcDb2dVertex
 10
-25.8728120637
 20
30.0445282699
 40
0.0
 41
0.0
 42
0.0
 70
0
  0
VERTEX
  5
6BA
330
1F
100
AcDbEntity
  8
0
 67
0
100
AcDbVertex
100
AcDb2dVertex
 10
-25.9386359975
 20
30.1539050309
 40
0.0
 41
0.0
 42
0.0
 70
0
  0
VERTEX
  5
6BB
330
1F
100
AcDbEntity
  8
0
 67
0
100
AcDbVertex
100
AcDb2dVertex
 10
-25.9900720842
 20
30.264509292
 40
0.0
 41
0.0
 42
0.0
 70
0
  0
VERTEX
  5
6BC
330
1F
100
AcDbEntity
  8
0
 67
0
100
AcDbVertex
100
AcDb2dVertex
 10
-26.027123053
 20
30.3763271771
 40
0.0
 41
0.0
 42
0.0
 70
0
  0
VERTEX
  5
6BD
330
1F
100
AcDbEntity
  8
0
 67
0
100
AcDbVertex
100
AcDb2dVertex
 10
-26.0497973219
 20
30.4893891677
 40
0.0
 41
0.0
 42
0.0
 70
0
  0
VERTEX
  5
6BE
330
1F
100
AcDbEntity
  8
0
 67
0
100
AcDbVertex
100
AcDb2dVertex
 10
-26.0562789758
 20
30.6047938325
 40
0.0
 41
0.0
 42
0.0
 70
0
  0
VERTEX
  5
6BF
330
1F
100
AcDbEntity
  8
0
 67
0
100
AcDbVertex
100
AcDb2dVertex
 10
-26.043403485
 20
30.7234249424
 40
0.0
 41
0.0
 42
0.0
 70
0
  0
VERTEX
  5
6C0
330
1F
100
AcDbEntity
  8
0
 67
0
100
AcDbVertex
100
AcDb2dVertex
 10
-26.0111485552
 20
30.8452492865
 40
0.0
 41
0.0
 42
0.0
 70
0
  0
VERTEX
  5
6C1
330
1F
100
AcDbEntity
  8
0
 67
0
100
AcDbVertex
100
AcDb2dVertex
 10
-25.9595310224
 20
30.9703278282
 40
0.0
 41
0.0
 42
0.0
 70
0
  0
VERTEX
  5
6C2
330
1F
100
AcDbEntity
  8
0
 67
0
100
AcDbVertex
100
AcDb2dVertex
 10
-25.8876723737
 20
31.098876936
 40
0.0
 41
0.0
 42
0.0
 70
0
  0
VERTEX
  5
6C3
330
1F
100
AcDbEntity
  8
0
 67
0
100
AcDbVertex
100
AcDb2dVertex
 10
-25.7938807742
 20
31.2317673535
 40
0.0
 41
0.0
 42
0.0
 70
0
  0
VERTEX
  5
6C4
330
1F
100
AcDbEntity
  8
0
 67
0
100
AcDbVertex
100
AcDb2dVertex
 10
-25.6781645267
 20
31.3689935072
 40
0.0
 41
0.0
 42
0.0
 70
0
  0
VERTEX
  5
6C5
330
1F
100
AcDbEntity
  8
0
 67
0
100
AcDbVertex
100
AcDb2dVertex
 10
-25.5405097548
 20
31.5105526679
 40
0.0
 41
0.0
 42
0.0
 70
0
  0
VERTEX
  5
6C6
330
1F
100
AcDbEntity
  8
0
 67
0
100
AcDbVertex
100
AcDb2dVertex
 10
-25.3786156798
 20
31.6577002706
 40
0.0
 41
0.0
 42
0.0
 70
0
  0
VERTEX
  5
6C7
330
1F
100
AcDbEntity
  8
0
 67
0
100
AcDbVertex
100
AcDb2dVertex
 10
-25.1901454676
 20
31.8116918655
 40
0.0
 41
0.0
 42
0.0
 70
0
  0
VERTEX
  5
6C8
330
1F
100
AcDbEntity
  8
0
 67
0
100
AcDbVertex
100
AcDb2dVertex
 10
-24.9751046917
 20
31.9725357554
 40
0.0
 41
0.0
 42
0.0
 70
0
  0
VERTEX
  5
6C9
330
1F
100
AcDbEntity
  8
0
 67
0
100
AcDbVertex
100
AcDb2dVertex
 10
-24.7334877785
 20
32.1402236374
 40
0.0
 41
0.0
 42
0.0
 70
0
  0
VERTEX
  5
6CA
330
1F
100
AcDbEntity
  8
0
 67
0
100
AcDbVertex
100
AcDb2dVertex
 10
-24.4949949492
 20
32.2943723281
 40
0.0
 41
0.0
 42
0.0
 70
0
  0
VERTEX
  5
6CB
330
1F
100
AcDbEntity
  8
0
 67
0
100
AcDbVertex
100
AcDb2dVertex
 10
-24.2701941996
 20
32.427454015
 40
0.0
 41
0.0
 42
0.0
 70
0
  0
VERTEX
  5
6CC
330
1F
100
AcDbEntity
  8
0
 67
0
100
AcDbVertex
100
AcDb2dVertex
 10
-24.0590854145
 20
32.5394326426
 40
0.0
 41
0.0
 42
0.0
 70
0
  0
VERTEX
  5
6CD
330
1F
100
AcDbEntity
  8
0
 67
0
100
AcDbVertex
100
AcDb2dVertex
 10
-23.8616880437
 20
32.6303192429
 40
0.0
 41
0.0
 42
0.0
 70
0
  0
VERTEX
  5
6CE
330
1F
100
AcDbEntity
  8
0
 67
0
100
AcDbVertex
100
AcDb2dVertex
 10
-23.6777081439
 20
32.7018648434
 40
0.0
 41
0.0
 42
0.0
 70
0
  0
VERTEX
  5
6CF
330
1F
100
AcDbEntity
  8
0
 67
0
100
AcDbVertex
100
AcDb2dVertex
 10
-23.5055446703
 20
32.7555778061
 40
0.0
 41
0.0
 42
0.0
 70
0
  0
VERTEX
  5
6D0
330
1F
100
AcDbEntity
  8
0
 67
0
100
AcDbVertex
100
AcDb2dVertex
 10
-23.3451780579
 20
32.7914110438
 40
0.0
 41
0.0
 42
0.0
 70
0
  0
VERTEX
  5
6D1
330
1F
100
AcDbEntity
  8
0
 67
0
100
AcDbVertex
100
AcDb2dVertex
 10
-23.1966100824
 20
32.8093994971
 40
0.0
 41
0.0
 42
0.0
 70
0
  0
VERTEX
  5
6D2
330
1F
100
AcDbEntity
  8
0
 67
0
100
AcDbVertex
100
AcDb2dVertex
 10
-23.0592787563
 20
32.8100408666
 40
0.0
 41
0.0
 42
0.0
 70
0
  0
VERTEX
  5
6D3
330
1F
100
AcDbEntity
  8
0
 67
0
100
AcDbVertex
100
AcDb2dVertex
 10
-22.9318230074
 20
32.7944294937
 40
0.0
 41
0.0
 42
0.0
 70
0
  0
VERTEX
  5
6D4
330
1F
100
AcDbEntity
  8
0
 67
0
100
AcDbVertex
100
AcDb2dVertex
 10
-22.8142295514
 20
32.762574296
 40
0.0
 41
0.0
 42
0.0
 70
0
  0
VERTEX
  5
6D5
330
1F
100
AcDbEntity
  8
0
 67
0
100
AcDbVertex
100
AcDb2dVertex
 10
-22.7064949521
 20
32.7144414477
 40
0.0
 41
0.0
 42
0.0
 70
0
  0
VERTEX
  5
6D6
330
1F
100
AcDbEntity
  8
0
 67
0
100
AcDbVertex
100
AcDb2dVertex
 10
-22.6078834926
 20
32.6515365452
 40
0.0
 41
0.0
 42
0.0
 70
0
  0
VERTEX
  5
6D7
330
1F
100
AcDbEntity
  8
0
 67
0
100
AcDbVertex
100
AcDb2dVertex
 10
-22.5168323888
 20
32.5758842569
 40
0.0
 41
0.0
 42
0.0
 70
0
  0
VERTEX
  5
6D8
330
1F
100
AcDbEntity
  8
0
 67
0
100
AcDbVertex
100
AcDb2dVertex
 10
-22.4333291867
 20
32.4874929431
 40
0.0
 41
0.0
 42
0.0
 70
0
  0
VERTEX
  5
6D9
330
1F
100
AcDbEntity
  8
0
 67
0
100
AcDbVertex
100
AcDb2dVertex
 10
-22.3573799364
 20
32.3863464981
 40
0.0
 41
0.0
 42
0.0
 70
0
  0
VERTEX
  5
6DA
330
1F
100
AcDbEntity
  8
0
 67
0
100
AcDbVertex
100
AcDb2dVertex
 10
-22.2908186945
 20
32.2752003721
 40
0.0
 41
0.0
 42
0.0
 70
0
  0
SEQEND
  5
699
330
0
100
AcDbEntity
 67
0
  0
POLYLINE
  5
6DC
330
1F
100
AcDbEntity
  8
layer_74
 67
0
100
AcDb2dPolyline
 66
1
 70
0
 10
0.0
 20
0.0
 30
0.0
  0
VERTEX
  5
6DE
330
1F
100
AcDbEntity
  8
0
 67
0
100
AcDbVertex
100
AcDb2dVertex
 10
32.9232373633
 20
175.72659549
 40
0.0
 41
0.0
 42
0.0
 70
0
  0
VERTEX
  5
6DF
330
1F
100
AcDbEntity
  8
0
 67
0
100
AcDbVertex
100
AcDb2dVertex
 10
30.220084518
 20
176.161973412
 40
0.0
 41
0.0
 42
0.0
 70
0
  0
VERTEX
  5
6E0
330
1F
100
AcDbEntity
  8
0
 67
0
100
AcDbVertex
100
AcDb2dVertex
 10
30.2850099959
 20
176.257370164
 40
0.0
 41
0.0
 42
0.0
 70
0
  0
VERTEX
  5
6E1
330
1F
100
AcDbEntity
  8
0
 67
0
100
AcDbVertex
100
AcDb2dVertex
 10
30.3583922662
 20
176.349365896
 40
0.0
 41
0.0
 42
0.0
 70
0
  0
VERTEX
  5
6E2
330
1F
100
AcDbEntity
  8
0
 67
0
100
AcDbVertex
100
AcDb2dVertex
 10
30.4402061629
 20
176.437993024
 40
0.0
 41
0.0
 42
0.0
 70
0
  0
VERTEX
  5
6E3
330
1F
100
AcDbEntity
  8
0
 67
0
100
AcDbVertex
100
AcDb2dVertex
 10
30.5304669794
 20
176.523220723
 40
0.0
 41
0.0
 42
0.0
 70
0
  0
VERTEX
  5
6E4
330
1F
100
AcDbEntity
  8
0
 67
0
100
AcDbVertex
100
AcDb2dVertex
 10
30.6279834702
 20
176.605891132
 40
0.0
 41
0.0
 42
0.0
 70
0
  0
VERTEX
  5
6E5
330
1F
100
AcDbEntity
  8
0
 67
0
100
AcDbVertex
100
AcDb2dVertex
 10
30.7305631066
 20
176.686981325
 40
0.0
 41
0.0
 42
0.0
 70
0
  0
VERTEX
  5
6E6
330
1F
100
AcDbEntity
  8
0
 67
0
100
AcDbVertex
100
AcDb2dVertex
 10
30.8381984011
 20
176.766507703
 40
0.0
 41
0.0
 42
0.0
 70
0
  0
VERTEX
  5
6E7
330
1F
100
AcDbEntity
  8
0
 67
0
100
AcDbVertex
100
AcDb2dVertex
 10
30.9508976364
 20
176.844458801
 40
0.0
 41
0.0
 42
0.0
 70
0
  0
VERTEX
  5
6E8
330
1F
100
AcDbEntity
  8
0
 67
0
100
AcDbVertex
100
AcDb2dVertex
 10
31.0678400451
 20
176.921209908
 40
0.0
 41
0.0
 42
0.0
 70
0
  0
VERTEX
  5
6E9
330
1F
100
AcDbEntity
  8
0
 67
0
100
AcDbVertex
100
AcDb2dVertex
 10
31.1881981678
 20
176.997157648
 40
0.0
 41
0.0
 42
0.0
 70
0
  0
VERTEX
  5
6EA
330
1F
100
AcDbEntity
  8
0
 67
0
100
AcDbVertex
100
AcDb2dVertex
 10
31.3119720043
 20
177.072302021
 40
0.0
 41
0.0
 42
0.0
 70
0
  0
VERTEX
  5
6EB
330
1F
100
AcDbEntity
  8
0
 67
0
100
AcDbVertex
100
AcDb2dVertex
 10
31.9516117905
 20
177.448000781
 40
0.0
 41
0.0
 42
0.0
 70
0
  0
VERTEX
  5
6EC
330
1F
100
AcDbEntity
  8
0
 67
0
100
AcDbVertex
100
AcDb2dVertex
 10
32.0777593737
 20
177.524991184
 40
0.0
 41
0.0
 42
0.0
 70
0
  0
VERTEX
  5
6ED
330
1F
100
AcDbEntity
  8
0
 67
0
100
AcDbVertex
100
AcDb2dVertex
 10
32.2017534899
 20
177.603452736
 40
0.0
 41
0.0
 42
0.0
 70
0
  0
VERTEX
  5
6EE
330
1F
100
AcDbEntity
  8
0
 67
0
100
AcDbVertex
100
AcDb2dVertex
 10
32.3235775738
 20
177.683408363
 40
0.0
 41
0.0
 42
0.0
 70
0
  0
VERTEX
  5
6EF
330
1F
100
AcDbEntity
  8
0
 67
0
100
AcDbVertex
100
AcDb2dVertex
 10
32.443251371
 20
177.764854884
 40
0.0
 41
0.0
 42
0.0
 70
0
  0
VERTEX
  5
6F0
330
1F
100
AcDbEntity
  8
0
 67
0
100
AcDbVertex
100
AcDb2dVertex
 10
32.5593133108
 20
177.848402474
 40
0.0
 41
0.0
 42
0.0
 70
0
  0
VERTEX
  5
6F1
330
1F
100
AcDbEntity
  8
0
 67
0
100
AcDbVertex
100
AcDb2dVertex
 10
32.6693935285
 20
177.934807598
 40
0.0
 41
0.0
 42
0.0
 70
0
  0
VERTEX
  5
6F2
330
1F
100
AcDbEntity
  8
0
 67
0
100
AcDbVertex
100
AcDb2dVertex
 10
32.7734738687
 20
178.024083308
 40
0.0
 41
0.0
 42
0.0
 70
0
  0
VERTEX
  5
6F3
330
1F
100
AcDbEntity
  8
0
 67
0
100
AcDbVertex
100
AcDb2dVertex
 10
32.871562614
 20
178.116218143
 40
0.0
 41
0.0
 42
0.0
 70
0
  0
VERTEX
  5
6F4
330
1F
100
AcDbEntity
  8
0
 67
0
100
AcDbVertex
100
AcDb2dVertex
 10
32.9634153921
 20
178.21170726
 40
0.0
 41
0.0
 42
0.0
 70
0
  0
VERTEX
  5
6F5
330
1F
100
AcDbEntity
  8
0
 67
0
100
AcDbVertex
100
AcDb2dVertex
 10
33.0478056568
 20
178.311173624
 40
0.0
 41
0.0
 42
0.0
 70
0
  0
VERTEX
  5
6F6
330
1F
100
AcDbEntity
  8
0
 67
0
100
AcDbVertex
100
AcDb2dVertex
 10
33.1247365882
 20
178.414636981
 40
0.0
 41
0.0
 42
0.0
 70
0
  0
VERTEX
  5
6F7
330
1F
100
AcDbEntity
  8
0
 67
0
100
AcDbVertex
100
AcDb2dVertex
 10
33.1942164691
 20
178.522085867
 40
0.0
 41
0.0
 42
0.0
 70
0
  0
VERTEX
  5
6F8
330
1F
100
AcDbEntity
  8
0
 67
0
100
AcDbVertex
100
AcDb2dVertex
 10
33.2544084942
 20
178.634504888
 40
0.0
 41
0.0
 42
0.0
 70
0
  0
VERTEX
  5
6F9
330
1F
100
AcDbEntity
  8
0
 67
0
100
AcDbVertex
100
AcDb2dVertex
 10
33.3033891345
 20
178.751899986
 40
0.0
 41
0.0
 42
0.0
 70
0
  0
VERTEX
  5
6FA
330
1F
100
AcDbEntity
  8
0
 67
0
100
AcDbVertex
100
AcDb2dVertex
 10
33.3411370541
 20
178.87426447
 40
0.0
 41
0.0
 42
0.0
 70
0
  0
VERTEX
  5
6FB
330
1F
100
AcDbEntity
  8
0
 67
0
100
AcDbVertex
100
AcDb2dVertex
 10
33.3676621259
 20
179.001596748
 40
0.0
 41
0.0
 42
0.0
 70
0
  0
VERTEX
  5
6FC
330
1F
100
AcDbEntity
  8
0
 67
0
100
AcDbVertex
100
AcDb2dVertex
 10
33.3876339779
 20
179.169932794
 40
0.0
 41
0.0
 42
0.0
 70
0
  0
VERTEX
  5
6FD
330
1F
100
AcDbEntity
  8
0
 67
0
100
AcDbVertex
100
AcDb2dVertex
 10
33.392009159
 20
179.330419047
 40
0.0
 41
0.0
 42
0.0
 70
0
  0
VERTEX
  5
6FE
330
1F
100
AcDbEntity
  8
0
 67
0
100
AcDbVertex
100
AcDb2dVertex
 10
33.3808192096
 20
179.482999782
 40
0.0
 41
0.0
 42
0.0
 70
0
  0
VERTEX
  5
6FF
330
1F
100
AcDbEntity
  8
0
 67
0
100
AcDbVertex
100
AcDb2dVertex
 10
33.3540523348
 20
179.627727544
 40
0.0
 41
0.0
 42
0.0
 70
0
  0
VERTEX
  5
700
330
1F
100
AcDbEntity
  8
0
 67
0
100
AcDbVertex
100
AcDb2dVertex
 10
33.3129191101
 20
179.764194646
 40
0.0
 41
0.0
 42
0.0
 70
0
  0
VERTEX
  5
701
330
1F
100
AcDbEntity
  8
0
 67
0
100
AcDbVertex
100
AcDb2dVertex
 10
33.2576262691
 20
179.892175343
 40
0.0
 41
0.0
 42
0.0
 70
0
  0
VERTEX
  5
702
330
1F
100
AcDbEntity
  8
0
 67
0
100
AcDbVertex
100
AcDb2dVertex
 10
33.1881951475
 20
180.011676329
 40
0.0
 41
0.0
 42
0.0
 70
0
  0
VERTEX
  5
703
330
1F
100
AcDbEntity
  8
0
 67
0
100
AcDbVertex
100
AcDb2dVertex
 10
33.1045945368
 20
180.122692499
 40
0.0
 41
0.0
 42
0.0
 70
0
  0
VERTEX
  5
704
330
1F
100
AcDbEntity
  8
0
 67
0
100
AcDbVertex
100
AcDb2dVertex
 10
33.0075945823
 20
180.224785818
 40
0.0
 41
0.0
 42
0.0
 70
0
  0
VERTEX
  5
705
330
1F
100
AcDbEntity
  8
0
 67
0
100
AcDbVertex
100
AcDb2dVertex
 10
32.8969501245
 20
180.317691905
 40
0.0
 41
0.0
 42
0.0
 70
0
  0
VERTEX
  5
706
330
1F
100
AcDbEntity
  8
0
 67
0
100
AcDbVertex
100
AcDb2dVertex
 10
32.7726793188
 20
180.401397706
 40
0.0
 41
0.0
 42
0.0
 70
0
  0
VERTEX
  5
707
330
1F
100
AcDbEntity
  8
0
 67
0
100
AcDbVertex
100
AcDb2dVertex
 10
32.6347707024
 20
180.475894941
 40
0.0
 41
0.0
 42
0.0
 70
0
  0
VERTEX
  5
708
330
1F
100
AcDbEntity
  8
0
 67
0
100
AcDbVertex
100
AcDb2dVertex
 10
32.4838971436
 20
180.541399357
 40
0.0
 41
0.0
 42
0.0
 70
0
  0
VERTEX
  5
709
330
1F
100
AcDbEntity
  8
0
 67
0
100
AcDbVertex
100
AcDb2dVertex
 10
32.320554342
 20
180.597152482
 40
0.0
 41
0.0
 42
0.0
 70
0
  0
VERTEX
  5
70A
330
1F
100
AcDbEntity
  8
0
 67
0
100
AcDbVertex
100
AcDb2dVertex
 10
32.1447588628
 20
180.64313139
 40
0.0
 41
0.0
 42
0.0
 70
0
  0
VERTEX
  5
70B
330
1F
100
AcDbEntity
  8
0
 67
0
100
AcDbVertex
100
AcDb2dVertex
 10
31.9565024233
 20
180.679347544
 40
0.0
 41
0.0
 42
0.0
 70
0
  0
VERTEX
  5
70C
330
1F
100
AcDbEntity
  8
0
 67
0
100
AcDbVertex
100
AcDb2dVertex
 10
31.762839488
 20
180.703692358
 40
0.0
 41
0.0
 42
0.0
 70
0
  0
VERTEX
  5
70D
330
1F
100
AcDbEntity
  8
0
 67
0
100
AcDbVertex
100
AcDb2dVertex
 10
31.5787701739
 20
180.712828141
 40
0.0
 41
0.0
 42
0.0
 70
0
  0
VERTEX
  5
70E
330
1F
100
AcDbEntity
  8
0
 67
0
100
AcDbVertex
100
AcDb2dVertex
 10
31.4042731455
 20
180.706748201
 40
0.0
 41
0.0
 42
0.0
 70
0
  0
VERTEX
  5
70F
330
1F
100
AcDbEntity
  8
0
 67
0
100
AcDbVertex
100
AcDb2dVertex
 10
31.2393484028
 20
180.685452536
 40
0.0
 41
0.0
 42
0.0
 70
0
  0
VERTEX
  5
710
330
1F
100
AcDbEntity
  8
0
 67
0
100
AcDbVertex
100
AcDb2dVertex
 10
31.0843334562
 20
180.650659341
 40
0.0
 41
0.0
 42
0.0
 70
0
  0
VERTEX
  5
711
330
1F
100
AcDbEntity
  8
0
 67
0
100
AcDbVertex
100
AcDb2dVertex
 10
30.9385982855
 20
180.604242641
 40
0.0
 41
0.0
 42
0.0
 70
0
  0
VERTEX
  5
712
330
1F
100
AcDbEntity
  8
0
 67
0
100
AcDbVertex
100
AcDb2dVertex
 10
30.8021409161
 20
180.546202755
 40
0.0
 41
0.0
 42
0.0
 70
0
  0
VERTEX
  5
713
330
1F
100
AcDbEntity
  8
0
 67
0
100
AcDbVertex
100
AcDb2dVertex
 10
30.6749435772
 20
180.476542544
 40
0.0
 41
0.0
 42
0.0
 70
0
  0
VERTEX
  5
714
330
1F
100
AcDbEntity
  8
0
 67
0
100
AcDbVertex
100
AcDb2dVertex
 10
30.5580050615
 20
180.396306476
 40
0.0
 41
0.0
 42
0.0
 70
0
  0
VERTEX
  5
715
330
1F
100
AcDbEntity
  8
0
 67
0
100
AcDbVertex
100
AcDb2dVertex
 10
30.451333321
 20
180.306688479
 40
0.0
 41
0.0
 42
0.0
 70
0
  0
VERTEX
  5
716
330
1F
100
AcDbEntity
  8
0
 67
0
100
AcDbVertex
100
AcDb2dVertex
 10
30.3549263811
 20
180.207688869
 40
0.0
 41
0.0
 42
0.0
 70
0
  0
VERTEX
  5
717
330
1F
100
AcDbEntity
  8
0
 67
0
100
AcDbVertex
100
AcDb2dVertex
 10
30.2687893967
 20
180.099327075
 40
0.0
 41
0.0
 42
0.0
 70
0
  0
VERTEX
  5
718
330
1F
100
AcDbEntity
  8
0
 67
0
100
AcDbVertex
100
AcDb2dVertex
 10
30.1929898624
 20
179.983273619
 40
0.0
 41
0.0
 42
0.0
 70
0
  0
VERTEX
  5
719
330
1F
100
AcDbEntity
  8
0
 67
0
100
AcDbVertex
100
AcDb2dVertex
 10
30.1276338293
 20
179.861243458
 40
0.0
 41
0.0
 42
0.0
 70
0
  0
VERTEX
  5
71A
330
1F
100
AcDbEntity
  8
0
 67
0
100
AcDbVertex
100
AcDb2dVertex
 10
30.0727039109
 20
179.733229263
 40
0.0
 41
0.0
 42
0.0
 70
0
  0
VERTEX
  5
71B
330
1F
100
AcDbEntity
  8
0
 67
0
100
AcDbVertex
100
AcDb2dVertex
 10
30.0282010943
 20
179.599230876
 40
0.0
 41
0.0
 42
0.0
 70
0
  0
VERTEX
  5
71C
330
1F
100
AcDbEntity
  8
0
 67
0
100
AcDbVertex
100
AcDb2dVertex
 10
30.7132370445
 20
179.425074879
 40
0.0
 41
0.0
 42
0.0
 70
0
  0
VERTEX
  5
71D
330
1F
100
AcDbEntity
  8
0
 67
0
100
AcDbVertex
100
AcDb2dVertex
 10
30.7462430423
 20
179.524349607
 40
0.0
 41
0.0
 42
0.0
 70
0
  0
VERTEX
  5
71E
330
1F
100
AcDbEntity
  8
0
 67
0
100
AcDbVertex
100
AcDb2dVertex
 10
30.7857550624
 20
179.615972429
 40
0.0
 41
0.0
 42
0.0
 70
0
  0
VERTEX
  5
71F
330
1F
100
AcDbEntity
  8
0
 67
0
100
AcDbVertex
100
AcDb2dVertex
 10
30.8317581295
 20
179.699976143
 40
0.0
 41
0.0
 42
0.0
 70
0
  0
VERTEX
  5
720
330
1F
100
AcDbEntity
  8
0
 67
0
100
AcDbVertex
100
AcDb2dVertex
 10
30.8842621164
 20
179.776359158
 40
0.0
 41
0.0
 42
0.0
 70
0
  0
VERTEX
  5
721
330
1F
100
AcDbEntity
  8
0
 67
0
100
AcDbVertex
100
AcDb2dVertex
 10
30.9430058928
 20
179.845072374
 40
0.0
 41
0.0
 42
0.0
 70
0
  0
VERTEX
  5
722
330
1F
100
AcDbEntity
  8
0
 67
0
100
AcDbVertex
100
AcDb2dVertex
 10
31.0067292572
 20
179.906278247
 40
0.0
 41
0.0
 42
0.0
 70
0
  0
VERTEX
  5
723
330
1F
100
AcDbEntity
  8
0
 67
0
100
AcDbVertex
100
AcDb2dVertex
 10
31.0754535452
 20
179.959983468
 40
0.0
 41
0.0
 42
0.0
 70
0
  0
VERTEX
  5
724
330
1F
100
AcDbEntity
  8
0
 67
0
100
AcDbVertex
100
AcDb2dVertex
 10
31.1491739865
 20
180.006158421
 40
0.0
 41
0.0
 42
0.0
 70
0
  0
VERTEX
  5
725
330
1F
100
AcDbEntity
  8
0
 67
0
100
AcDbVertex
100
AcDb2dVertex
 10
31.2277535508
 20
180.045210072
 40
0.0
 41
0.0
 42
0.0
 70
0
  0
VERTEX
  5
726
330
1F
100
AcDbEntity
  8
0
 67
0
100
AcDbVertex
100
AcDb2dVertex
 10
31.3099417168
 20
180.076732102
 40
0.0
 41
0.0
 42
0.0
 70
0
  0
VERTEX
  5
727
330
1F
100
AcDbEntity
  8
0
 67
0
100
AcDbVertex
100
AcDb2dVertex
 10
31.3957254313
 20
180.100706356
 40
0.0
 41
0.0
 42
0.0
 70
0
  0
VERTEX
  5
728
330
1F
100
AcDbEntity
  8
0
 67
0
100
AcDbVertex
100
AcDb2dVertex
 10
31.4850964116
 20
180.117144296
 40
0.0
 41
0.0
 42
0.0
 70
0
  0
VERTEX
  5
729
330
1F
100
AcDbEntity
  8
0
 67
0
100
AcDbVertex
100
AcDb2dVertex
 10
31.5776479525
 20
180.126162071
 40
0.0
 41
0.0
 42
0.0
 70
0
  0
VERTEX
  5
72A
330
1F
100
AcDbEntity
  8
0
 67
0
100
AcDbVertex
100
AcDb2dVertex
 10
31.6719612243
 20
180.128069235
 40
0.0
 41
0.0
 42
0.0
 70
0
  0
VERTEX
  5
72B
330
1F
100
AcDbEntity
  8
0
 67
0
100
AcDbVertex
100
AcDb2dVertex
 10
31.7680445095
 20
180.122854324
 40
0.0
 41
0.0
 42
0.0
 70
0
  0
VERTEX
  5
72C
330
1F
100
AcDbEntity
  8
0
 67
0
100
AcDbVertex
100
AcDb2dVertex
 10
31.8658863453
 20
180.110509055
 40
0.0
 41
0.0
 42
0.0
 70
0
  0
VERTEX
  5
72D
330
1F
100
AcDbEntity
  8
0
 67
0
100
AcDbVertex
100
AcDb2dVertex
 10
31.9694890452
 20
180.090287515
 40
0.0
 41
0.0
 42
0.0
 70
0
  0
VERTEX
  5
72E
330
1F
100
AcDbEntity
  8
0
 67
0
100
AcDbVertex
100
AcDb2dVertex
 10
32.0670473696
 20
180.0639189
 40
0.0
 41
0.0
 42
0.0
 70
0
  0
VERTEX
  5
72F
330
1F
100
AcDbEntity
  8
0
 67
0
100
AcDbVertex
100
AcDb2dVertex
 10
32.1585428313
 20
180.031477091
 40
0.0
 41
0.0
 42
0.0
 70
0
  0
VERTEX
  5
730
330
1F
100
AcDbEntity
  8
0
 67
0
100
AcDbVertex
100
AcDb2dVertex
 10
32.2439939176
 20
179.992888207
 40
0.0
 41
0.0
 42
0.0
 70
0
  0
VERTEX
  5
731
330
1F
100
AcDbEntity
  8
0
 67
0
100
AcDbVertex
100
AcDb2dVertex
 10
32.3232111238
 20
179.948233415
 40
0.0
 41
0.0
 42
0.0
 70
0
  0
VERTEX
  5
732
330
1F
100
AcDbEntity
  8
0
 67
0
100
AcDbVertex
100
AcDb2dVertex
 10
32.3950329761
 20
179.89765927
 40
0.0
 41
0.0
 42
0.0
 70
0
  0
VERTEX
  5
733
330
1F
100
AcDbEntity
  8
0
 67
0
100
AcDbVertex
100
AcDb2dVertex
 10
32.4594263439
 20
179.841211624
 40
0.0
 41
0.0
 42
0.0
 70
0
  0
VERTEX
  5
734
330
1F
100
AcDbEntity
  8
0
 67
0
100
AcDbVertex
100
AcDb2dVertex
 10
32.5164342306
 20
179.778843035
 40
0.0
 41
0.0
 42
0.0
 70
0
  0
VERTEX
  5
735
330
1F
100
AcDbEntity
  8
0
 67
0
100
AcDbVertex
100
AcDb2dVertex
 10
32.5656395869
 20
179.711360081
 40
0.0
 41
0.0
 42
0.0
 70
0
  0
VERTEX
  5
736
330
1F
100
AcDbEntity
  8
0
 67
0
100
AcDbVertex
100
AcDb2dVertex
 10
32.6065112752
 20
179.638483671
 40
0.0
 41
0.0
 42
0.0
 70
0
  0
VERTEX
  5
737
330
1F
100
AcDbEntity
  8
0
 67
0
100
AcDbVertex
100
AcDb2dVertex
 10
32.6390343204
 20
179.560246602
 40
0.0
 41
0.0
 42
0.0
 70
0
  0
VERTEX
  5
738
330
1F
100
AcDbEntity
  8
0
 67
0
100
AcDbVertex
100
AcDb2dVertex
 10
32.663241521
 20
179.47666385
 40
0.0
 41
0.0
 42
0.0
 70
0
  0
VERTEX
  5
739
330
1F
100
AcDbEntity
  8
0
 67
0
100
AcDbVertex
100
AcDb2dVertex
 10
32.6786910495
 20
179.388262376
 40
0.0
 41
0.0
 42
0.0
 70
0
  0
VERTEX
  5
73A
330
1F
100
AcDbEntity
  8
0
 67
0
100
AcDbVertex
100
AcDb2dVertex
 10
32.6848259942
 20
179.29466595
 40
0.0
 41
0.0
 42
0.0
 70
0
  0
VERTEX
  5
73B
330
1F
100
AcDbEntity
  8
0
 67
0
100
AcDbVertex
100
AcDb2dVertex
 10
32.6816415846
 20
179.195844954
 40
0.0
 41
0.0
 42
0.0
 70
0
  0
VERTEX
  5
73C
330
1F
100
AcDbEntity
  8
0
 67
0
100
AcDbVertex
100
AcDb2dVertex
 10
32.6691212556
 20
179.091822313
 40
0.0
 41
0.0
 42
0.0
 70
0
  0
VERTEX
  5
73D
330
1F
100
AcDbEntity
  8
0
 67
0
100
AcDbVertex
100
AcDb2dVertex
 10
32.6354113364
 20
178.939879387
 40
0.0
 41
0.0
 42
0.0
 70
0
  0
VERTEX
  5
73E
330
1F
100
AcDbEntity
  8
0
 67
0
100
AcDbVertex
100
AcDb2dVertex
 10
32.5849856136
 20
178.798985082
 40
0.0
 41
0.0
 42
0.0
 70
0
  0
VERTEX
  5
73F
330
1F
100
AcDbEntity
  8
0
 67
0
100
AcDbVertex
100
AcDb2dVertex
 10
32.5178606525
 20
178.669116471
 40
0.0
 41
0.0
 42
0.0
 70
0
  0
VERTEX
  5
740
330
1F
100
AcDbEntity
  8
0
 67
0
100
AcDbVertex
100
AcDb2dVertex
 10
32.4340246581
 20
178.550326098
 40
0.0
 41
0.0
 42
0.0
 70
0
  0
VERTEX
  5
741
330
1F
100
AcDbEntity
  8
0
 67
0
100
AcDbVertex
100
AcDb2dVertex
 10
32.3365262852
 20
178.439783169
 40
0.0
 41
0.0
 42
0.0
 70
0
  0
VERTEX
  5
742
330
1F
100
AcDbEntity
  8
0
 67
0
100
AcDbVertex
100
AcDb2dVertex
 10
32.2282331751
 20
178.333784571
 40
0.0
 41
0.0
 42
0.0
 70
0
  0
VERTEX
  5
743
330
1F
100
AcDbEntity
  8
0
 67
0
100
AcDbVertex
100
AcDb2dVertex
 10
32.1091405574
 20
178.232300686
 40
0.0
 41
0.0
 42
0.0
 70
0
  0
VERTEX
  5
744
330
1F
100
AcDbEntity
  8
0
 67
0
100
AcDbVertex
100
AcDb2dVertex
 10
31.979261485
 20
178.135349669
 40
0.0
 41
0.0
 42
0.0
 70
0
  0
VERTEX
  5
745
330
1F
100
AcDbEntity
  8
0
 67
0
100
AcDbVertex
100
AcDb2dVertex
 10
31.8404004358
 20
178.041243102
 40
0.0
 41
0.0
 42
0.0
 70
0
  0
VERTEX
  5
746
330
1F
100
AcDbEntity
  8
0
 67
0
100
AcDbVertex
100
AcDb2dVertex
 10
31.6943784525
 20
177.948269639
 40
0.0
 41
0.0
 42
0.0
 70
0
  0
VERTEX
  5
747
330
1F
100
AcDbEntity
  8
0
 67
0
100
AcDbVertex
100
AcDb2dVertex
 10
31.5412018958
 20
177.85646877
 40
0.0
 41
0.0
 42
0.0
 70
0
  0
VERTEX
  5
748
330
1F
100
AcDbEntity
  8
0
 67
0
100
AcDbVertex
100
AcDb2dVertex
 10
31.2167063795
 20
177.673297399
 40
0.0
 41
0.0
 42
0.0
 70
0
  0
VERTEX
  5
749
330
1F
100
AcDbEntity
  8
0
 67
0
100
AcDbVertex
100
AcDb2dVertex
 10
31.0510220369
 20
177.576096735
 40
0.0
 41
0.0
 42
0.0
 70
0
  0
VERTEX
  5
74A
330
1F
100
AcDbEntity
  8
0
 67
0
100
AcDbVertex
100
AcDb2dVertex
 10
30.8838097873
 20
177.47418914
 40
0.0
 41
0.0
 42
0.0
 70
0
  0
VERTEX
  5
74B
330
1F
100
AcDbEntity
  8
0
 67
0
100
AcDbVertex
100
AcDb2dVertex
 10
30.7150842739
 20
177.367602642
 40
0.0
 41
0.0
 42
0.0
 70
0
  0
VERTEX
  5
74C
330
1F
100
AcDbEntity
  8
0
 67
0
100
AcDbVertex
100
AcDb2dVertex
 10
30.5467082845
 20
177.254507754
 40
0.0
 41
0.0
 42
0.0
 70
0
  0
VERTEX
  5
74D
330
1F
100
AcDbEntity
  8
0
 67
0
100
AcDbVertex
100
AcDb2dVertex
 10
30.3805331444
 20
177.133066708
 40
0.0
 41
0.0
 42
0.0
 70
0
  0
VERTEX
  5
74E
330
1F
100
AcDbEntity
  8
0
 67
0
100
AcDbVertex
100
AcDb2dVertex
 10
30.2165640084
 20
177.00329893
 40
0.0
 41
0.0
 42
0.0
 70
0
  0
VERTEX
  5
74F
330
1F
100
AcDbEntity
  8
0
 67
0
100
AcDbVertex
100
AcDb2dVertex
 10
30.0547910036
 20
176.865206012
 40
0.0
 41
0.0
 42
0.0
 70
0
  0
VERTEX
  5
750
330
1F
100
AcDbEntity
  8
0
 67
0
100
AcDbVertex
100
AcDb2dVertex
 10
29.8982322401
 20
176.715830401
 40
0.0
 41
0.0
 42
0.0
 70
0
  0
VERTEX
  5
751
330
1F
100
AcDbEntity
  8
0
 67
0
100
AcDbVertex
100
AcDb2dVertex
 10
29.749904238
 20
176.552204674
 40
0.0
 41
0.0
 42
0.0
 70
0
  0
VERTEX
  5
752
330
1F
100
AcDbEntity
  8
0
 67
0
100
AcDbVertex
100
AcDb2dVertex
 10
29.6097628213
 20
176.374350125
 40
0.0
 41
0.0
 42
0.0
 70
0
  0
VERTEX
  5
753
330
1F
100
AcDbEntity
  8
0
 67
0
100
AcDbVertex
100
AcDb2dVertex
 10
29.4778541999
 20
176.182264376
 40
0.0
 41
0.0
 42
0.0
 70
0
  0
VERTEX
  5
754
330
1F
100
AcDbEntity
  8
0
 67
0
100
AcDbVertex
100
AcDb2dVertex
 10
29.4018461282
 20
175.71034923
 40
0.0
 41
0.0
 42
0.0
 70
0
  0
VERTEX
  5
755
330
1F
100
AcDbEntity
  8
0
 67
0
100
AcDbVertex
100
AcDb2dVertex
 10
32.831647221
 20
175.157935157
 40
0.0
 41
0.0
 42
0.0
 70
0
  0
VERTEX
  5
756
330
1F
100
AcDbEntity
  8
0
 67
0
100
AcDbVertex
100
AcDb2dVertex
 10
32.9232373633
 20
175.72659549
 40
0.0
 41
0.0
 42
0.0
 70
0
  0
SEQEND
  5
6DD
330
0
100
AcDbEntity
 67
0
  0
POLYLINE
  5
758
330
1F
100
AcDbEntity
  8
layer_69
 67
0
100
AcDb2dPolyline
 66
1
 70
0
 10
0.0
 20
0.0
 30
0.0
  0
VERTEX
  5
75A
330
1F
100
AcDbEntity
  8
0
 67
0
100
AcDbVertex
100
AcDb2dVertex
 10
3.0
 20
87.1929
 40
0.0
 41
0.0
 42
0.0
 70
0
  0
VERTEX
  5
75B
330
1F
100
AcDbEntity
  8
0
 67
0
100
AcDbVertex
100
AcDb2dVertex
 10
3.12019
 20
86.0494
 40
0.0
 41
0.0
 42
0.0
 70
0
  0
VERTEX
  5
75C
330
1F
100
AcDbEntity
  8
0
 67
0
100
AcDbVertex
100
AcDb2dVertex
 10
3.4755
 20
84.9558
 40
0.0
 41
0.0
 42
0.0
 70
0
  0
VERTEX
  5
75D
330
1F
100
AcDbEntity
  8
0
 67
0
100
AcDbVertex
100
AcDb2dVertex
 10
4.05041
 20
83.9601
 40
0.0
 41
0.0
 42
0.0
 70
0
  0
VERTEX
  5
75E
330
1F
100
AcDbEntity
  8
0
 67
0
100
AcDbVertex
100
AcDb2dVertex
 10
4.81978
 20
83.1056
 40
0.0
 41
0.0
 42
0.0
 70
0
  0
VERTEX
  5
75F
330
1F
100
AcDbEntity
  8
0
 67
0
100
AcDbVertex
100
AcDb2dVertex
 10
5.75
 20
82.4298
 40
0.0
 41
0.0
 42
0.0
 70
0
  0
VERTEX
  5
760
330
1F
100
AcDbEntity
  8
0
 67
0
100
AcDbVertex
100
AcDb2dVertex
 10
6.80041
 20
81.9621
 40
0.0
 41
0.0
 42
0.0
 70
0
  0
VERTEX
  5
761
330
1F
100
AcDbEntity
  8
0
 67
0
100
AcDbVertex
100
AcDb2dVertex
 10
7.925093
 20
81.723
 40
0.0
 41
0.0
 42
0.0
 70
0
  0
VERTEX
  5
762
330
1F
100
AcDbEntity
  8
0
 67
0
100
AcDbVertex
100
AcDb2dVertex
 10
9.074907
 20
81.723
 40
0.0
 41
0.0
 42
0.0
 70
0
  0
VERTEX
  5
763
330
1F
100
AcDbEntity
  8
0
 67
0
100
AcDbVertex
100
AcDb2dVertex
 10
10.19959
 20
81.9621
 40
0.0
 41
0.0
 42
0.0
 70
0
  0
VERTEX
  5
764
330
1F
100
AcDbEntity
  8
0
 67
0
100
AcDbVertex
100
AcDb2dVertex
 10
11.25
 20
82.4298
 40
0.0
 41
0.0
 42
0.0
 70
0
  0
VERTEX
  5
765
330
1F
100
AcDbEntity
  8
0
 67
0
100
AcDbVertex
100
AcDb2dVertex
 10
12.18022
 20
83.1056
 40
0.0
 41
0.0
 42
0.0
 70
0
  0
VERTEX
  5
766
330
1F
100
AcDbEntity
  8
0
 67
0
100
AcDbVertex
100
AcDb2dVertex
 10
12.94959
 20
83.9601
 40
0.0
 41
0.0
 42
0.0
 70
0
  0
VERTEX
  5
767
330
1F
100
AcDbEntity
  8
0
 67
0
100
AcDbVertex
100
AcDb2dVertex
 10
13.5245
 20
84.9558
 40
0.0
 41
0.0
 42
0.0
 70
0
  0
VERTEX
  5
768
330
1F
100
AcDbEntity
  8
0
 67
0
100
AcDbVertex
100
AcDb2dVertex
 10
13.87981
 20
86.0494
 40
0.0
 41
0.0
 42
0.0
 70
0
  0
VERTEX
  5
769
330
1F
100
AcDbEntity
  8
0
 67
0
100
AcDbVertex
100
AcDb2dVertex
 10
14.0
 20
87.1929
 40
0.0
 41
0.0
 42
0.0
 70
0
  0
VERTEX
  5
76A
330
1F
100
AcDbEntity
  8
0
 67
0
100
AcDbVertex
100
AcDb2dVertex
 10
14.0
 20
147.1929
 40
0.0
 41
0.0
 42
0.0
 70
0
  0
VERTEX
  5
76B
330
1F
100
AcDbEntity
  8
0
 67
0
100
AcDbVertex
100
AcDb2dVertex
 10
13.87981
 20
148.33641
 40
0.0
 41
0.0
 42
0.0
 70
0
  0
VERTEX
  5
76C
330
1F
100
AcDbEntity
  8
0
 67
0
100
AcDbVertex
100
AcDb2dVertex
 10
13.5245
 20
149.42995
 40
0.0
 41
0.0
 42
0.0
 70
0
  0
VERTEX
  5
76D
330
1F
100
AcDbEntity
  8
0
 67
0
100
AcDbVertex
100
AcDb2dVertex
 10
12.94959
 20
150.42572
 40
0.0
 41
0.0
 42
0.0
 70
0
  0
VERTEX
  5
76E
330
1F
100
AcDbEntity
  8
0
 67
0
100
AcDbVertex
100
AcDb2dVertex
 10
12.18022
 20
151.2802
 40
0.0
 41
0.0
 42
0.0
 70
0
  0
VERTEX
  5
76F
330
1F
100
AcDbEntity
  8
0
 67
0
100
AcDbVertex
100
AcDb2dVertex
 10
11.25
 20
151.95604
 40
0.0
 41
0.0
 42
0.0
 70
0
  0
VERTEX
  5
770
330
1F
100
AcDbEntity
  8
0
 67
0
100
AcDbVertex
100
AcDb2dVertex
 10
10.19959
 20
152.42371
 40
0.0
 41
0.0
 42
0.0
 70
0
  0
VERTEX
  5
771
330
1F
100
AcDbEntity
  8
0
 67
0
100
AcDbVertex
100
AcDb2dVertex
 10
9.074907
 20
152.66277
 40
0.0
 41
0.0
 42
0.0
 70
0
  0
VERTEX
  5
772
330
1F
100
AcDbEntity
  8
0
 67
0
100
AcDbVertex
100
AcDb2dVertex
 10
7.925093
 20
152.66277
 40
0.0
 41
0.0
 42
0.0
 70
0
  0
VERTEX
  5
773
330
1F
100
AcDbEntity
  8
0
 67
0
100
AcDbVertex
100
AcDb2dVertex
 10
6.80041
 20
152.42371
 40
0.0
 41
0.0
 42
0.0
 70
0
  0
VERTEX
  5
774
330
1F
100
AcDbEntity
  8
0
 67
0
100
AcDbVertex
100
AcDb2dVertex
 10
5.75
 20
151.95604
 40
0.0
 41
0.0
 42
0.0
 70
0
  0
VERTEX
  5
775
330
1F
100
AcDbEntity
  8
0
 67
0
100
AcDbVertex
100
AcDb2dVertex
 10
4.81978
 20
151.2802
 40
0.0
 41
0.0
 42
0.0
 70
0
  0
VERTEX
  5
776
330
1F
100
AcDbEntity
  8
0
 67
0
100
AcDbVertex
100
AcDb2dVertex
 10
4.05041
 20
150.42572
 40
0.0
 41
0.0
 42
0.0
 70
0
  0
VERTEX
  5
777
330
1F
100
AcDbEntity
  8
0
 67
0
100
AcDbVertex
100
AcDb2dVertex
 10
3.4755
 20
149.42995
 40
0.0
 41
0.0
 42
0.0
 70
0
  0
VERTEX
  5
778
330
1F
100
AcDbEntity
  8
0
 67
0
100
AcDbVertex
100
AcDb2dVertex
 10
3.12019
 20
148.33641
 40
0.0
 41
0.0
 42
0.0
 70
0
  0
VERTEX
  5
779
330
1F
100
AcDbEntity
  8
0
 67
0
100
AcDbVertex
100
AcDb2dVertex
 10
3.0
 20
147.1929
 40
0.0
 41
0.0
 42
0.0
 70
0
  0
VERTEX
  5
77A
330
1F
100
AcDbEntity
  8
0
 67
0
100
AcDbVertex
100
AcDb2dVertex
 10
3.0
 20
87.1929
 40
0.0
 41
0.0
 42
0.0
 70
0
  0
SEQEND
  5
759
330
0
100
AcDbEntity
 67
0
  0
POLYLINE
  5
77B
330
1F
100
AcDbEntity
  8
layer_69
 67
0
100
AcDb2dPolyline
 66
1
 70
0
 10
0.0
 20
0.0
 30
0.0
  0
VERTEX
  5
77D
330
1F
100
AcDbEntity
  8
0
 67
0
100
AcDbVertex
100
AcDb2dVertex
 10
9.182816
 20
143.76016
 40
0.0
 41
0.0
 42
0.0
 70
0
  0
VERTEX
  5
77E
330
1F
100
AcDbEntity
  8
0
 67
0
100
AcDbVertex
100
AcDb2dVertex
 10
9.83939
 20
143.95933
 40
0.0
 41
0.0
 42
0.0
 70
0
  0
VERTEX
  5
77F
330
1F
100
AcDbEntity
  8
0
 67
0
100
AcDbVertex
100
AcDb2dVertex
 10
10.44449
 20
144.28276
 40
0.0
 41
0.0
 42
0.0
 70
0
  0
VERTEX
  5
780
330
1F
100
AcDbEntity
  8
0
 67
0
100
AcDbVertex
100
AcDb2dVertex
 10
10.97487
 20
144.71803
 40
0.0
 41
0.0
 42
0.0
 70
0
  0
VERTEX
  5
781
330
1F
100
AcDbEntity
  8
0
 67
0
100
AcDbVertex
100
AcDb2dVertex
 10
11.41014
 20
145.24841
 40
0.0
 41
0.0
 42
0.0
 70
0
  0
VERTEX
  5
782
330
1F
100
AcDbEntity
  8
0
 67
0
100
AcDbVertex
100
AcDb2dVertex
 10
11.73357
 20
145.85351
 40
0.0
 41
0.0
 42
0.0
 70
0
  0
VERTEX
  5
783
330
1F
100
AcDbEntity
  8
0
 67
0
100
AcDbVertex
100
AcDb2dVertex
 10
11.93274
 20
146.510084
 40
0.0
 41
0.0
 42
0.0
 70
0
  0
VERTEX
  5
784
330
1F
100
AcDbEntity
  8
0
 67
0
100
AcDbVertex
100
AcDb2dVertex
 10
12.0
 20
147.1929
 40
0.0
 41
0.0
 42
0.0
 70
0
  0
VERTEX
  5
785
330
1F
100
AcDbEntity
  8
0
 67
0
100
AcDbVertex
100
AcDb2dVertex
 10
11.93274
 20
147.875716
 40
0.0
 41
0.0
 42
0.0
 70
0
  0
VERTEX
  5
786
330
1F
100
AcDbEntity
  8
0
 67
0
100
AcDbVertex
100
AcDb2dVertex
 10
11.73357
 20
148.53229
 40
0.0
 41
0.0
 42
0.0
 70
0
  0
VERTEX
  5
787
330
1F
100
AcDbEntity
  8
0
 67
0
100
AcDbVertex
100
AcDb2dVertex
 10
11.41014
 20
149.13739
 40
0.0
 41
0.0
 42
0.0
 70
0
  0
VERTEX
  5
788
330
1F
100
AcDbEntity
  8
0
 67
0
100
AcDbVertex
100
AcDb2dVertex
 10
10.97487
 20
149.66777
 40
0.0
 41
0.0
 42
0.0
 70
0
  0
VERTEX
  5
789
330
1F
100
AcDbEntity
  8
0
 67
0
100
AcDbVertex
100
AcDb2dVertex
 10
10.44449
 20
150.10304
 40
0.0
 41
0.0
 42
0.0
 70
0
  0
VERTEX
  5
78A
330
1F
100
AcDbEntity
  8
0
 67
0
100
AcDbVertex
100
AcDb2dVertex
 10
9.83939
 20
150.42647
 40
0.0
 41
0.0
 42
0.0
 70
0
  0
VERTEX
  5
78B
330
1F
100
AcDbEntity
  8
0
 67
0
100
AcDbVertex
100
AcDb2dVertex
 10
9.182816
 20
150.62564
 40
0.0
 41
0.0
 42
0.0
 70
0
  0
VERTEX
  5
78C
330
1F
100
AcDbEntity
  8
0
 67
0
100
AcDbVertex
100
AcDb2dVertex
 10
8.5
 20
150.6929
 40
0.0
 41
0.0
 42
0.0
 70
0
  0
VERTEX
  5
78D
330
1F
100
AcDbEntity
  8
0
 67
0
100
AcDbVertex
100
AcDb2dVertex
 10
7.817184
 20
150.62564
 40
0.0
 41
0.0
 42
0.0
 70
0
  0
VERTEX
  5
78E
330
1F
100
AcDbEntity
  8
0
 67
0
100
AcDbVertex
100
AcDb2dVertex
 10
7.16061
 20
150.42647
 40
0.0
 41
0.0
 42
0.0
 70
0
  0
VERTEX
  5
78F
330
1F
100
AcDbEntity
  8
0
 67
0
100
AcDbVertex
100
AcDb2dVertex
 10
6.55551
 20
150.10304
 40
0.0
 41
0.0
 42
0.0
 70
0
  0
VERTEX
  5
790
330
1F
100
AcDbEntity
  8
0
 67
0
100
AcDbVertex
100
AcDb2dVertex
 10
6.02513
 20
149.66777
 40
0.0
 41
0.0
 42
0.0
 70
0
  0
VERTEX
  5
791
330
1F
100
AcDbEntity
  8
0
 67
0
100
AcDbVertex
100
AcDb2dVertex
 10
5.58986
 20
149.13739
 40
0.0
 41
0.0
 42
0.0
 70
0
  0
VERTEX
  5
792
330
1F
100
AcDbEntity
  8
0
 67
0
100
AcDbVertex
100
AcDb2dVertex
 10
5.26643
 20
148.53229
 40
0.0
 41
0.0
 42
0.0
 70
0
  0
VERTEX
  5
793
330
1F
100
AcDbEntity
  8
0
 67
0
100
AcDbVertex
100
AcDb2dVertex
 10
5.06726
 20
147.875716
 40
0.0
 41
0.0
 42
0.0
 70
0
  0
VERTEX
  5
794
330
1F
100
AcDbEntity
  8
0
 67
0
100
AcDbVertex
100
AcDb2dVertex
 10
5.0
 20
147.1929
 40
0.0
 41
0.0
 42
0.0
 70
0
  0
VERTEX
  5
795
330
1F
100
AcDbEntity
  8
0
 67
0
100
AcDbVertex
100
AcDb2dVertex
 10
5.06726
 20
146.510084
 40
0.0
 41
0.0
 42
0.0
 70
0
  0
VERTEX
  5
796
330
1F
100
AcDbEntity
  8
0
 67
0
100
AcDbVertex
100
AcDb2dVertex
 10
5.26643
 20
145.85351
 40
0.0
 41
0.0
 42
0.0
 70
0
  0
VERTEX
  5
797
330
1F
100
AcDbEntity
  8
0
 67
0
100
AcDbVertex
100
AcDb2dVertex
 10
5.58986
 20
145.24841
 40
0.0
 41
0.0
 42
0.0
 70
0
  0
VERTEX
  5
798
330
1F
100
AcDbEntity
  8
0
 67
0
100
AcDbVertex
100
AcDb2dVertex
 10
6.02513
 20
144.71803
 40
0.0
 41
0.0
 42
0.0
 70
0
  0
VERTEX
  5
799
330
1F
100
AcDbEntity
  8
0
 67
0
100
AcDbVertex
100
AcDb2dVertex
 10
6.55551
 20
144.28276
 40
0.0
 41
0.0
 42
0.0
 70
0
  0
VERTEX
  5
79A
330
1F
100
AcDbEntity
  8
0
 67
0
100
AcDbVertex
100
AcDb2dVertex
 10
7.16061
 20
143.95933
 40
0.0
 41
0.0
 42
0.0
 70
0
  0
VERTEX
  5
79B
330
1F
100
AcDbEntity
  8
0
 67
0
100
AcDbVertex
100
AcDb2dVertex
 10
7.817184
 20
143.76016
 40
0.0
 41
0.0
 42
0.0
 70
0
  0
VERTEX
  5
79C
330
1F
100
AcDbEntity
  8
0
 67
0
100
AcDbVertex
100
AcDb2dVertex
 10
8.5
 20
143.6929
 40
0.0
 41
0.0
 42
0.0
 70
0
  0
VERTEX
  5
79D
330
1F
100
AcDbEntity
  8
0
 67
0
100
AcDbVertex
100
AcDb2dVertex
 10
9.182816
 20
143.76016
 40
0.0
 41
0.0
 42
0.0
 70
0
  0
SEQEND
  5
77C
330
0
100
AcDbEntity
 67
0
  0
POLYLINE
  5
79E
330
1F
100
AcDbEntity
  8
layer_69
 67
0
100
AcDb2dPolyline
 66
1
 70
0
 10
0.0
 20
0.0
 30
0.0
  0
VERTEX
  5
7A0
330
1F
100
AcDbEntity
  8
0
 67
0
100
AcDbVertex
100
AcDb2dVertex
 10
9.182816
 20
83.7602
 40
0.0
 41
0.0
 42
0.0
 70
0
  0
VERTEX
  5
7A1
330
1F
100
AcDbEntity
  8
0
 67
0
100
AcDbVertex
100
AcDb2dVertex
 10
9.83939
 20
83.9593
 40
0.0
 41
0.0
 42
0.0
 70
0
  0
VERTEX
  5
7A2
330
1F
100
AcDbEntity
  8
0
 67
0
100
AcDbVertex
100
AcDb2dVertex
 10
10.44449
 20
84.2828
 40
0.0
 41
0.0
 42
0.0
 70
0
  0
VERTEX
  5
7A3
330
1F
100
AcDbEntity
  8
0
 67
0
100
AcDbVertex
100
AcDb2dVertex
 10
10.97487
 20
84.718
 40
0.0
 41
0.0
 42
0.0
 70
0
  0
VERTEX
  5
7A4
330
1F
100
AcDbEntity
  8
0
 67
0
100
AcDbVertex
100
AcDb2dVertex
 10
11.41014
 20
85.2484
 40
0.0
 41
0.0
 42
0.0
 70
0
  0
VERTEX
  5
7A5
330
1F
100
AcDbEntity
  8
0
 67
0
100
AcDbVertex
100
AcDb2dVertex
 10
11.73357
 20
85.8535
 40
0.0
 41
0.0
 42
0.0
 70
0
  0
VERTEX
  5
7A6
330
1F
100
AcDbEntity
  8
0
 67
0
100
AcDbVertex
100
AcDb2dVertex
 10
11.93274
 20
86.5101
 40
0.0
 41
0.0
 42
0.0
 70
0
  0
VERTEX
  5
7A7
330
1F
100
AcDbEntity
  8
0
 67
0
100
AcDbVertex
100
AcDb2dVertex
 10
12.0
 20
87.1929
 40
0.0
 41
0.0
 42
0.0
 70
0
  0
VERTEX
  5
7A8
330
1F
100
AcDbEntity
  8
0
 67
0
100
AcDbVertex
100
AcDb2dVertex
 10
11.93274
 20
87.8757
 40
0.0
 41
0.0
 42
0.0
 70
0
  0
VERTEX
  5
7A9
330
1F
100
AcDbEntity
  8
0
 67
0
100
AcDbVertex
100
AcDb2dVertex
 10
11.73357
 20
88.5323
 40
0.0
 41
0.0
 42
0.0
 70
0
  0
VERTEX
  5
7AA
330
1F
100
AcDbEntity
  8
0
 67
0
100
AcDbVertex
100
AcDb2dVertex
 10
11.41014
 20
89.1374
 40
0.0
 41
0.0
 42
0.0
 70
0
  0
VERTEX
  5
7AB
330
1F
100
AcDbEntity
  8
0
 67
0
100
AcDbVertex
100
AcDb2dVertex
 10
10.97487
 20
89.6678
 40
0.0
 41
0.0
 42
0.0
 70
0
  0
VERTEX
  5
7AC
330
1F
100
AcDbEntity
  8
0
 67
0
100
AcDbVertex
100
AcDb2dVertex
 10
10.44449
 20
90.1031
 40
0.0
 41
0.0
 42
0.0
 70
0
  0
VERTEX
  5
7AD
330
1F
100
AcDbEntity
  8
0
 67
0
100
AcDbVertex
100
AcDb2dVertex
 10
9.83939
 20
90.4265
 40
0.0
 41
0.0
 42
0.0
 70
0
  0
VERTEX
  5
7AE
330
1F
100
AcDbEntity
  8
0
 67
0
100
AcDbVertex
100
AcDb2dVertex
 10
9.182816
 20
90.6257
 40
0.0
 41
0.0
 42
0.0
 70
0
  0
VERTEX
  5
7AF
330
1F
100
AcDbEntity
  8
0
 67
0
100
AcDbVertex
100
AcDb2dVertex
 10
8.5
 20
90.6929
 40
0.0
 41
0.0
 42
0.0
 70
0
  0
VERTEX
  5
7B0
330
1F
100
AcDbEntity
  8
0
 67
0
100
AcDbVertex
100
AcDb2dVertex
 10
7.817184
 20
90.6257
 40
0.0
 41
0.0
 42
0.0
 70
0
  0
VERTEX
  5
7B1
330
1F
100
AcDbEntity
  8
0
 67
0
100
AcDbVertex
100
AcDb2dVertex
 10
7.16061
 20
90.4265
 40
0.0
 41
0.0
 42
0.0
 70
0
  0
VERTEX
  5
7B2
330
1F
100
AcDbEntity
  8
0
 67
0
100
AcDbVertex
100
AcDb2dVertex
 10
6.55551
 20
90.1031
 40
0.0
 41
0.0
 42
0.0
 70
0
  0
VERTEX
  5
7B3
330
1F
100
AcDbEntity
  8
0
 67
0
100
AcDbVertex
100
AcDb2dVertex
 10
6.02513
 20
89.6678
 40
0.0
 41
0.0
 42
0.0
 70
0
  0
VERTEX
  5
7B4
330
1F
100
AcDbEntity
  8
0
 67
0
100
AcDbVertex
100
AcDb2dVertex
 10
5.58986
 20
89.1374
 40
0.0
 41
0.0
 42
0.0
 70
0
  0
VERTEX
  5
7B5
330
1F
100
AcDbEntity
  8
0
 67
0
100
AcDbVertex
100
AcDb2dVertex
 10
5.26643
 20
88.5323
 40
0.0
 41
0.0
 42
0.0
 70
0
  0
VERTEX
  5
7B6
330
1F
100
AcDbEntity
  8
0
 67
0
100
AcDbVertex
100
AcDb2dVertex
 10
5.06726
 20
87.8757
 40
0.0
 41
0.0
 42
0.0
 70
0
  0
VERTEX
  5
7B7
330
1F
100
AcDbEntity
  8
0
 67
0
100
AcDbVertex
100
AcDb2dVertex
 10
5.0
 20
87.1929
 40
0.0
 41
0.0
 42
0.0
 70
0
  0
VERTEX
  5
7B8
330
1F
100
AcDbEntity
  8
0
 67
0
100
AcDbVertex
100
AcDb2dVertex
 10
5.06726
 20
86.5101
 40
0.0
 41
0.0
 42
0.0
 70
0
  0
VERTEX
  5
7B9
330
1F
100
AcDbEntity
  8
0
 67
0
100
AcDbVertex
100
AcDb2dVertex
 10
5.26643
 20
85.8535
 40
0.0
 41
0.0
 42
0.0
 70
0
  0
VERTEX
  5
7BA
330
1F
100
AcDbEntity
  8
0
 67
0
100
AcDbVertex
100
AcDb2dVertex
 10
5.58986
 20
85.2484
 40
0.0
 41
0.0
 42
0.0
 70
0
  0
VERTEX
  5
7BB
330
1F
100
AcDbEntity
  8
0
 67
0
100
AcDbVertex
100
AcDb2dVertex
 10
6.02513
 20
84.718
 40
0.0
 41
0.0
 42
0.0
 70
0
  0
VERTEX
  5
7BC
330
1F
100
AcDbEntity
  8
0
 67
0
100
AcDbVertex
100
AcDb2dVertex
 10
6.55551
 20
84.2828
 40
0.0
 41
0.0
 42
0.0
 70
0
  0
VERTEX
  5
7BD
330
1F
100
AcDbEntity
  8
0
 67
0
100
AcDbVertex
100
AcDb2dVertex
 10
7.16061
 20
83.9593
 40
0.0
 41
0.0
 42
0.0
 70
0
  0
VERTEX
  5
7BE
330
1F
100
AcDbEntity
  8
0
 67
0
100
AcDbVertex
100
AcDb2dVertex
 10
7.817184
 20
83.7602
 40
0.0
 41
0.0
 42
0.0
 70
0
  0
VERTEX
  5
7BF
330
1F
100
AcDbEntity
  8
0
 67
0
100
AcDbVertex
100
AcDb2dVertex
 10
8.5
 20
83.6929
 40
0.0
 41
0.0
 42
0.0
 70
0
  0
VERTEX
  5
7C0
330
1F
100
AcDbEntity
  8
0
 67
0
100
AcDbVertex
100
AcDb2dVertex
 10
9.182816
 20
83.7602
 40
0.0
 41
0.0
 42
0.0
 70
0
  0
SEQEND
  5
79F
330
0
100
AcDbEntity
 67
0
  0
POLYLINE
  5
7C2
330
1F
100
AcDbEntity
  8
layer_78
 67
0
100
AcDb2dPolyline
 66
1
 70
0
 10
0.0
 20
0.0
 30
0.0
  0
VERTEX
  5
7C4
330
1F
100
AcDbEntity
  8
0
 67
0
100
AcDbVertex
100
AcDb2dVertex
 10
15.6972143309
 20
203.410518187
 40
0.0
 41
0.0
 42
0.0
 70
0
  0
VERTEX
  5
7C5
330
1F
100
AcDbEntity
  8
0
 67
0
100
AcDbVertex
100
AcDb2dVertex
 10
15.8756374942
 20
203.489936919
 40
0.0
 41
0.0
 42
0.0
 70
0
  0
VERTEX
  5
7C6
330
1F
100
AcDbEntity
  8
0
 67
0
100
AcDbVertex
100
AcDb2dVertex
 10
16.0389047886
 20
203.577606378
 40
0.0
 41
0.0
 42
0.0
 70
0
  0
VERTEX
  5
7C7
330
1F
100
AcDbEntity
  8
0
 67
0
100
AcDbVertex
100
AcDb2dVertex
 10
16.1870636907
 20
203.673542247
 40
0.0
 41
0.0
 42
0.0
 70
0
  0
VERTEX
  5
7C8
330
1F
100
AcDbEntity
  8
0
 67
0
100
AcDbVertex
100
AcDb2dVertex
 10
16.3197494988
 20
203.777510447
 40
0.0
 41
0.0
 42
0.0
 70
0
  0
VERTEX
  5
7C9
330
1F
100
AcDbEntity
  8
0
 67
0
100
AcDbVertex
100
AcDb2dVertex
 10
16.4360290051
 20
203.888009626
 40
0.0
 41
0.0
 42
0.0
 70
0
  0
VERTEX
  5
7CA
330
1F
100
AcDbEntity
  8
0
 67
0
100
AcDbVertex
100
AcDb2dVertex
 10
16.5358975281
 20
204.005022201
 40
0.0
 41
0.0
 42
0.0
 70
0
  0
VERTEX
  5
7CB
330
1F
100
AcDbEntity
  8
0
 67
0
100
AcDbVertex
100
AcDb2dVertex
 10
16.6193834341
 20
204.128557941
 40
0.0
 41
0.0
 42
0.0
 70
0
  0
VERTEX
  5
7CC
330
1F
100
AcDbEntity
  8
0
 67
0
100
AcDbVertex
100
AcDb2dVertex
 10
16.6864475276
 20
204.258829355
 40
0.0
 41
0.0
 42
0.0
 70
0
  0
VERTEX
  5
7CD
330
1F
100
AcDbEntity
  8
0
 67
0
100
AcDbVertex
100
AcDb2dVertex
 10
16.7374268454
 20
204.395046479
 40
0.0
 41
0.0
 42
0.0
 70
0
  0
VERTEX
  5
7CE
330
1F
100
AcDbEntity
  8
0
 67
0
100
AcDbVertex
100
AcDb2dVertex
 10
16.7723255026
 20
204.537260225
 40
0.0
 41
0.0
 42
0.0
 70
0
  0
VERTEX
  5
7CF
330
1F
100
AcDbEntity
  8
0
 67
0
100
AcDbVertex
100
AcDb2dVertex
 10
16.7911245224
 20
204.685432648
 40
0.0
 41
0.0
 42
0.0
 70
0
  0
VERTEX
  5
7D0
330
1F
100
AcDbEntity
  8
0
 67
0
100
AcDbVertex
100
AcDb2dVertex
 10
16.7937489517
 20
204.839472363
 40
0.0
 41
0.0
 42
0.0
 70
0
  0
VERTEX
  5
7D1
330
1F
100
AcDbEntity
  8
0
 67
0
100
AcDbVertex
100
AcDb2dVertex
 10
16.7794485922
 20
204.998024711
 40
0.0
 41
0.0
 42
0.0
 70
0
  0
VERTEX
  5
7D2
330
1F
100
AcDbEntity
  8
0
 67
0
100
AcDbVertex
100
AcDb2dVertex
 10
16.7482402023
 20
205.161071031
 40
0.0
 41
0.0
 42
0.0
 70
0
  0
VERTEX
  5
7D3
330
1F
100
AcDbEntity
  8
0
 67
0
100
AcDbVertex
100
AcDb2dVertex
 10
16.7001044943
 20
205.328637572
 40
0.0
 41
0.0
 42
0.0
 70
0
  0
VERTEX
  5
7D4
330
1F
100
AcDbEntity
  8
0
 67
0
100
AcDbVertex
100
AcDb2dVertex
 10
16.6598411818
 20
205.43446635
 40
0.0
 41
0.0
 42
0.0
 70
0
  0
VERTEX
  5
7D5
330
1F
100
AcDbEntity
  8
0
 67
0
100
AcDbVertex
100
AcDb2dVertex
 10
16.6114187518
 20
205.534666913
 40
0.0
 41
0.0
 42
0.0
 70
0
  0
VERTEX
  5
7D6
330
1F
100
AcDbEntity
  8
0
 67
0
100
AcDbVertex
100
AcDb2dVertex
 10
16.5548593425
 20
205.629267719
 40
0.0
 41
0.0
 42
0.0
 70
0
  0
VERTEX
  5
7D7
330
1F
100
AcDbEntity
  8
0
 67
0
100
AcDbVertex
100
AcDb2dVertex
 10
16.4901566283
 20
205.718256121
 40
0.0
 41
0.0
 42
0.0
 70
0
  0
VERTEX
  5
7D8
330
1F
100
AcDbEntity
  8
0
 67
0
100
AcDbVertex
100
AcDb2dVertex
 10
16.417724758
 20
205.800231197
 40
0.0
 41
0.0
 42
0.0
 70
0
  0
VERTEX
  5
7D9
330
1F
100
AcDbEntity
  8
0
 67
0
100
AcDbVertex
100
AcDb2dVertex
 10
16.3379083138
 20
205.873842627
 40
0.0
 41
0.0
 42
0.0
 70
0
  0
VERTEX
  5
7DA
330
1F
100
AcDbEntity
  8
0
 67
0
100
AcDbVertex
100
AcDb2dVertex
 10
16.2507547287
 20
205.939074596
 40
0.0
 41
0.0
 42
0.0
 70
0
  0
VERTEX
  5
7DB
330
1F
100
AcDbEntity
  8
0
 67
0
100
AcDbVertex
100
AcDb2dVertex
 10
16.1562513542
 20
205.99593343
 40
0.0
 41
0.0
 42
0.0
 70
0
  0
VERTEX
  5
7DC
330
1F
100
AcDbEntity
  8
0
 67
0
100
AcDbVertex
100
AcDb2dVertex
 10
16.0547238703
 20
206.043979547
 40
0.0
 41
0.0
 42
0.0
 70
0
  0
VERTEX
  5
7DD
330
1F
100
AcDbEntity
  8
0
 67
0
100
AcDbVertex
100
AcDb2dVertex
 10
15.9455745514
 20
206.082507805
 40
0.0
 41
0.0
 42
0.0
 70
0
  0
VERTEX
  5
7DE
330
1F
100
AcDbEntity
  8
0
 67
0
100
AcDbVertex
100
AcDb2dVertex
 10
15.8287844232
 20
206.111511881
 40
0.0
 41
0.0
 42
0.0
 70
0
  0
VERTEX
  5
7DF
330
1F
100
AcDbEntity
  8
0
 67
0
100
AcDbVertex
100
AcDb2dVertex
 10
15.7043724599
 20
206.1309981
 40
0.0
 41
0.0
 42
0.0
 70
0
  0
VERTEX
  5
7E0
330
1F
100
AcDbEntity
  8
0
 67
0
100
AcDbVertex
100
AcDb2dVertex
 10
15.5731987029
 20
206.13971413
 40
0.0
 41
0.0
 42
0.0
 70
0
  0
VERTEX
  5
7E1
330
1F
100
AcDbEntity
  8
0
 67
0
100
AcDbVertex
100
AcDb2dVertex
 10
15.4351776521
 20
206.136145248
 40
0.0
 41
0.0
 42
0.0
 70
0
  0
VERTEX
  5
7E2
330
1F
100
AcDbEntity
  8
0
 67
0
100
AcDbVertex
100
AcDb2dVertex
 10
15.2903219559
 20
206.120285128
 40
0.0
 41
0.0
 42
0.0
 70
0
  0
VERTEX
  5
7E3
330
1F
100
AcDbEntity
  8
0
 67
0
100
AcDbVertex
100
AcDb2dVertex
 10
15.1386316145
 20
206.092133771
 40
0.0
 41
0.0
 42
0.0
 70
0
  0
VERTEX
  5
7E4
330
1F
100
AcDbEntity
  8
0
 67
0
100
AcDbVertex
100
AcDb2dVertex
 10
15.1338893132
 20
206.106364392
 40
0.0
 41
0.0
 42
0.0
 70
0
  0
VERTEX
  5
7E5
330
1F
100
AcDbEntity
  8
0
 67
0
100
AcDbVertex
100
AcDb2dVertex
 10
15.2577395903
 20
206.182884968
 40
0.0
 41
0.0
 42
0.0
 70
0
  0
VERTEX
  5
7E6
330
1F
100
AcDbEntity
  8
0
 67
0
100
AcDbVertex
100
AcDb2dVertex
 10
15.3693331266
 20
206.262562458
 40
0.0
 41
0.0
 42
0.0
 70
0
  0
VERTEX
  5
7E7
330
1F
100
AcDbEntity
  8
0
 67
0
100
AcDbVertex
100
AcDb2dVertex
 10
15.4686667605
 20
206.345406348
 40
0.0
 41
0.0
 42
0.0
 70
0
  0
VERTEX
  5
7E8
330
1F
100
AcDbEntity
  8
0
 67
0
100
AcDbVertex
100
AcDb2dVertex
 10
15.5557594662
 20
206.431422962
 40
0.0
 41
0.0
 42
0.0
 70
0
  0
VERTEX
  5
7E9
330
1F
100
AcDbEntity
  8
0
 67
0
100
AcDbVertex
100
AcDb2dVertex
 10
15.6313796799
 20
206.520647025
 40
0.0
 41
0.0
 42
0.0
 70
0
  0
VERTEX
  5
7EA
330
1F
100
AcDbEntity
  8
0
 67
0
100
AcDbVertex
100
AcDb2dVertex
 10
15.6965740478
 20
206.612215153
 40
0.0
 41
0.0
 42
0.0
 70
0
  0
VERTEX
  5
7EB
330
1F
100
AcDbEntity
  8
0
 67
0
100
AcDbVertex
100
AcDb2dVertex
 10
15.7513836772
 20
206.706098881
 40
0.0
 41
0.0
 42
0.0
 70
0
  0
VERTEX
  5
7EC
330
1F
100
AcDbEntity
  8
0
 67
0
100
AcDbVertex
100
AcDb2dVertex
 10
15.7958054093
 20
206.802339321
 40
0.0
 41
0.0
 42
0.0
 70
0
  0
VERTEX
  5
7ED
330
1F
100
AcDbEntity
  8
0
 67
0
100
AcDbVertex
100
AcDb2dVertex
 10
15.8299499074
 20
206.900730915
 40
0.0
 41
0.0
 42
0.0
 70
0
  0
VERTEX
  5
7EE
330
1F
100
AcDbEntity
  8
0
 67
0
100
AcDbVertex
100
AcDb2dVertex
 10
15.8539310044
 20
207.001153488
 40
0.0
 41
0.0
 42
0.0
 70
0
  0
VERTEX
  5
7EF
330
1F
100
AcDbEntity
  8
0
 67
0
100
AcDbVertex
100
AcDb2dVertex
 10
15.8677518615
 20
207.103597552
 40
0.0
 41
0.0
 42
0.0
 70
0
  0
VERTEX
  5
7F0
330
1F
100
AcDbEntity
  8
0
 67
0
100
AcDbVertex
100
AcDb2dVertex
 10
15.8714188021
 20
207.208044134
 40
0.0
 41
0.0
 42
0.0
 70
0
  0
VERTEX
  5
7F1
330
1F
100
AcDbEntity
  8
0
 67
0
100
AcDbVertex
100
AcDb2dVertex
 10
15.8656180027
 20
207.314015675
 40
0.0
 41
0.0
 42
0.0
 70
0
  0
VERTEX
  5
7F2
330
1F
100
AcDbEntity
  8
0
 67
0
100
AcDbVertex
100
AcDb2dVertex
 10
15.8510388019
 20
207.421025132
 40
0.0
 41
0.0
 42
0.0
 70
0
  0
VERTEX
  5
7F3
330
1F
100
AcDbEntity
  8
0
 67
0
100
AcDbVertex
100
AcDb2dVertex
 10
15.8276875227
 20
207.529053529
 40
0.0
 41
0.0
 42
0.0
 70
0
  0
VERTEX
  5
7F4
330
1F
100
AcDbEntity
  8
0
 67
0
100
AcDbVertex
100
AcDb2dVertex
 10
15.7955546805
 20
207.638129329
 40
0.0
 41
0.0
 42
0.0
 70
0
  0
VERTEX
  5
7F5
330
1F
100
AcDbEntity
  8
0
 67
0
100
AcDbVertex
100
AcDb2dVertex
 10
15.7451678233
 20
207.770351269
 40
0.0
 41
0.0
 42
0.0
 70
0
  0
VERTEX
  5
7F6
330
1F
100
AcDbEntity
  8
0
 67
0
100
AcDbVertex
100
AcDb2dVertex
 10
15.6847496082
 20
207.894750521
 40
0.0
 41
0.0
 42
0.0
 70
0
  0
VERTEX
  5
7F7
330
1F
100
AcDbEntity
  8
0
 67
0
100
AcDbVertex
100
AcDb2dVertex
 10
15.6142589254
 20
208.011323925
 40
0.0
 41
0.0
 42
0.0
 70
0
  0
VERTEX
  5
7F8
330
1F
100
AcDbEntity
  8
0
 67
0
100
AcDbVertex
100
AcDb2dVertex
 10
15.5337590205
 20
208.120071475
 40
0.0
 41
0.0
 42
0.0
 70
0
  0
VERTEX
  5
7F9
330
1F
100
AcDbEntity
  8
0
 67
0
100
AcDbVertex
100
AcDb2dVertex
 10
15.4435090848
 20
208.219519532
 40
0.0
 41
0.0
 42
0.0
 70
0
  0
VERTEX
  5
7FA
330
1F
100
AcDbEntity
  8
0
 67
0
100
AcDbVertex
100
AcDb2dVertex
 10
15.3431673751
 20
208.306897965
 40
0.0
 41
0.0
 42
0.0
 70
0
  0
VERTEX
  5
7FB
330
1F
100
AcDbEntity
  8
0
 67
0
100
AcDbVertex
100
AcDb2dVertex
 10
15.2327591913
 20
208.382225747
 40
0.0
 41
0.0
 42
0.0
 70
0
  0
VERTEX
  5
7FC
330
1F
100
AcDbEntity
  8
0
 67
0
100
AcDbVertex
100
AcDb2dVertex
 10
15.1122623975
 20
208.445506042
 40
0.0
 41
0.0
 42
0.0
 70
0
  0
VERTEX
  5
7FD
330
1F
100
AcDbEntity
  8
0
 67
0
100
AcDbVertex
100
AcDb2dVertex
 10
14.9817939384
 20
208.495976731
 40
0.0
 41
0.0
 42
0.0
 70
0
  0
VERTEX
  5
7FE
330
1F
100
AcDbEntity
  8
0
 67
0
100
AcDbVertex
100
AcDb2dVertex
 10
14.8405410246
 20
208.532565866
 40
0.0
 41
0.0
 42
0.0
 70
0
  0
VERTEX
  5
7FF
330
1F
100
AcDbEntity
  8
0
 67
0
100
AcDbVertex
100
AcDb2dVertex
 10
14.6885068201
 20
208.555295584
 40
0.0
 41
0.0
 42
0.0
 70
0
  0
VERTEX
  5
800
330
1F
100
AcDbEntity
  8
0
 67
0
100
AcDbVertex
100
AcDb2dVertex
 10
14.5256660251
 20
208.564146911
 40
0.0
 41
0.0
 42
0.0
 70
0
  0
VERTEX
  5
801
330
1F
100
AcDbEntity
  8
0
 67
0
100
AcDbVertex
100
AcDb2dVertex
 10
14.3527205177
 20
208.557235077
 40
0.0
 41
0.0
 42
0.0
 70
0
  0
VERTEX
  5
802
330
1F
100
AcDbEntity
  8
0
 67
0
100
AcDbVertex
100
AcDb2dVertex
 10
14.1694297932
 20
208.532371802
 40
0.0
 41
0.0
 42
0.0
 70
0
  0
VERTEX
  5
803
330
1F
100
AcDbEntity
  8
0
 67
0
100
AcDbVertex
100
AcDb2dVertex
 10
13.9757748799
 20
208.489582388
 40
0.0
 41
0.0
 42
0.0
 70
0
  0
VERTEX
  5
804
330
1F
100
AcDbEntity
  8
0
 67
0
100
AcDbVertex
100
AcDb2dVertex
 10
13.7717589394
 20
208.428857347
 40
0.0
 41
0.0
 42
0.0
 70
0
  0
VERTEX
  5
805
330
1F
100
AcDbEntity
  8
0
 67
0
100
AcDbVertex
100
AcDb2dVertex
 10
13.6180772843
 20
208.372109669
 40
0.0
 41
0.0
 42
0.0
 70
0
  0
VERTEX
  5
806
330
1F
100
AcDbEntity
  8
0
 67
0
100
AcDbVertex
100
AcDb2dVertex
 10
13.4719686138
 20
208.306807436
 40
0.0
 41
0.0
 42
0.0
 70
0
  0
VERTEX
  5
807
330
1F
100
AcDbEntity
  8
0
 67
0
100
AcDbVertex
100
AcDb2dVertex
 10
13.333445579
 20
208.232975946
 40
0.0
 41
0.0
 42
0.0
 70
0
  0
VERTEX
  5
808
330
1F
100
AcDbEntity
  8
0
 67
0
100
AcDbVertex
100
AcDb2dVertex
 10
13.2025366412
 20
208.150624683
 40
0.0
 41
0.0
 42
0.0
 70
0
  0
VERTEX
  5
809
330
1F
100
AcDbEntity
  8
0
 67
0
100
AcDbVertex
100
AcDb2dVertex
 10
13.081284709
 20
208.060740118
 40
0.0
 41
0.0
 42
0.0
 70
0
  0
VERTEX
  5
80A
330
1F
100
AcDbEntity
  8
0
 67
0
100
AcDbVertex
100
AcDb2dVertex
 10
12.9712013353
 20
207.963119746
 40
0.0
 41
0.0
 42
0.0
 70
0
  0
VERTEX
  5
80B
330
1F
100
AcDbEntity
  8
0
 67
0
100
AcDbVertex
100
AcDb2dVertex
 10
12.8722454078
 20
207.857728787
 40
0.0
 41
0.0
 42
0.0
 70
0
  0
VERTEX
  5
80C
330
1F
100
AcDbEntity
  8
0
 67
0
100
AcDbVertex
100
AcDb2dVertex
 10
12.7844434927
 20
207.744607714
 40
0.0
 41
0.0
 42
0.0
 70
0
  0
VERTEX
  5
80D
330
1F
100
AcDbEntity
  8
0
 67
0
100
AcDbVertex
100
AcDb2dVertex
 10
12.7089587408
 20
207.62458685
 40
0.0
 41
0.0
 42
0.0
 70
0
  0
VERTEX
  5
80E
330
1F
100
AcDbEntity
  8
0
 67
0
100
AcDbVertex
100
AcDb2dVertex
 10
12.6463141612
 20
207.497260752
 40
0.0
 41
0.0
 42
0.0
 70
0
  0
VERTEX
  5
80F
330
1F
100
AcDbEntity
  8
0
 67
0
100
AcDbVertex
100
AcDb2dVertex
 10
12.5965170256
 20
207.36261076
 40
0.0
 41
0.0
 42
0.0
 70
0
  0
VERTEX
  5
810
330
1F
100
AcDbEntity
  8
0
 67
0
100
AcDbVertex
100
AcDb2dVertex
 10
12.5595632237
 20
207.220646046
 40
0.0
 41
0.0
 42
0.0
 70
0
  0
VERTEX
  5
811
330
1F
100
AcDbEntity
  8
0
 67
0
100
AcDbVertex
100
AcDb2dVertex
 10
12.5375367815
 20
207.072451108
 40
0.0
 41
0.0
 42
0.0
 70
0
  0
VERTEX
  5
812
330
1F
100
AcDbEntity
  8
0
 67
0
100
AcDbVertex
100
AcDb2dVertex
 10
12.5318784192
 20
206.91785254
 40
0.0
 41
0.0
 42
0.0
 70
0
  0
VERTEX
  5
813
330
1F
100
AcDbEntity
  8
0
 67
0
100
AcDbVertex
100
AcDb2dVertex
 10
12.5425739061
 20
206.756845599
 40
0.0
 41
0.0
 42
0.0
 70
0
  0
VERTEX
  5
814
330
1F
100
AcDbEntity
  8
0
 67
0
100
AcDbVertex
100
AcDb2dVertex
 10
12.5696333626
 20
206.589444199
 40
0.0
 41
0.0
 42
0.0
 70
0
  0
VERTEX
  5
815
330
1F
100
AcDbEntity
  8
0
 67
0
100
AcDbVertex
100
AcDb2dVertex
 10
13.2539761599
 20
206.762687496
 40
0.0
 41
0.0
 42
0.0
 70
0
  0
VERTEX
  5
816
330
1F
100
AcDbEntity
  8
0
 67
0
100
AcDbVertex
100
AcDb2dVertex
 10
13.2283640208
 20
206.953570907
 40
0.0
 41
0.0
 42
0.0
 70
0
  0
VERTEX
  5
817
330
1F
100
AcDbEntity
  8
0
 67
0
100
AcDbVertex
100
AcDb2dVertex
 10
13.2366094044
 20
207.131894261
 40
0.0
 41
0.0
 42
0.0
 70
0
  0
VERTEX
  5
818
330
1F
100
AcDbEntity
  8
0
 67
0
100
AcDbVertex
100
AcDb2dVertex
 10
13.2786711983
 20
207.297622775
 40
0.0
 41
0.0
 42
0.0
 70
0
  0
VERTEX
  5
819
330
1F
100
AcDbEntity
  8
0
 67
0
100
AcDbVertex
100
AcDb2dVertex
 10
13.3545810279
 20
207.45078807
 40
0.0
 41
0.0
 42
0.0
 70
0
  0
VERTEX
  5
81A
330
1F
100
AcDbEntity
  8
0
 67
0
100
AcDbVertex
100
AcDb2dVertex
 10
13.4616570101
 20
207.587924499
 40
0.0
 41
0.0
 42
0.0
 70
0
  0
VERTEX
  5
81B
330
1F
100
AcDbEntity
  8
0
 67
0
100
AcDbVertex
100
AcDb2dVertex
 10
13.5972330743
 20
207.705582226
 40
0.0
 41
0.0
 42
0.0
 70
0
  0
VERTEX
  5
81C
330
1F
100
AcDbEntity
  8
0
 67
0
100
AcDbVertex
100
AcDb2dVertex
 10
13.7613092183
 20
207.803729629
 40
0.0
 41
0.0
 42
0.0
 70
0
  0
VERTEX
  5
81D
330
1F
100
AcDbEntity
  8
0
 67
0
100
AcDbVertex
100
AcDb2dVertex
 10
13.9538664702
 20
207.882392007
 40
0.0
 41
0.0
 42
0.0
 70
0
  0
VERTEX
  5
81E
330
1F
100
AcDbEntity
  8
0
 67
0
100
AcDbVertex
100
AcDb2dVertex
 10
14.1718593681
 20
207.939163106
 40
0.0
 41
0.0
 42
0.0
 70
0
  0
VERTEX
  5
81F
330
1F
100
AcDbEntity
  8
0
 67
0
100
AcDbVertex
100
AcDb2dVertex
 10
14.3713721061
 20
207.958016782
 40
0.0
 41
0.0
 42
0.0
 70
0
  0
VERTEX
  5
820
330
1F
100
AcDbEntity
  8
0
 67
0
100
AcDbVertex
100
AcDb2dVertex
 10
14.5524299839
 20
207.938972005
 40
0.0
 41
0.0
 42
0.0
 70
0
  0
VERTEX
  5
821
330
1F
100
AcDbEntity
  8
0
 67
0
100
AcDbVertex
100
AcDb2dVertex
 10
14.7150235144
 20
207.882025616
 40
0.0
 41
0.0
 42
0.0
 70
0
  0
VERTEX
  5
822
330
1F
100
AcDbEntity
  8
0
 67
0
100
AcDbVertex
100
AcDb2dVertex
 10
14.857853307
 20
207.791076804
 40
0.0
 41
0.0
 42
0.0
 70
0
  0
VERTEX
  5
823
330
1F
100
AcDbEntity
  8
0
 67
0
100
AcDbVertex
100
AcDb2dVertex
 10
14.97866494
 20
207.66972758
 40
0.0
 41
0.0
 42
0.0
 70
0
  0
VERTEX
  5
824
330
1F
100
AcDbEntity
  8
0
 67
0
100
AcDbVertex
100
AcDb2dVertex
 10
15.0774647391
 20
207.517990592
 40
0.0
 41
0.0
 42
0.0
 70
0
  0
VERTEX
  5
825
330
1F
100
AcDbEntity
  8
0
 67
0
100
AcDbVertex
100
AcDb2dVertex
 10
15.1542210814
 20
207.335865844
 40
0.0
 41
0.0
 42
0.0
 70
0
  0
VERTEX
  5
826
330
1F
100
AcDbEntity
  8
0
 67
0
100
AcDbVertex
100
AcDb2dVertex
 10
15.1881268156
 20
207.212170695
 40
0.0
 41
0.0
 42
0.0
 70
0
  0
VERTEX
  5
827
330
1F
100
AcDbEntity
  8
0
 67
0
100
AcDbVertex
100
AcDb2dVertex
 10
15.2051149048
 20
207.095370638
 40
0.0
 41
0.0
 42
0.0
 70
0
  0
VERTEX
  5
828
330
1F
100
AcDbEntity
  8
0
 67
0
100
AcDbVertex
100
AcDb2dVertex
 10
15.2051853462
 20
206.98543405
 40
0.0
 41
0.0
 42
0.0
 70
0
  0
VERTEX
  5
829
330
1F
100
AcDbEntity
  8
0
 67
0
100
AcDbVertex
100
AcDb2dVertex
 10
15.1883507911
 20
206.882386227
 40
0.0
 41
0.0
 42
0.0
 70
0
  0
VERTEX
  5
82A
330
1F
100
AcDbEntity
  8
0
 67
0
100
AcDbVertex
100
AcDb2dVertex
 10
15.1580833871
 20
206.785803152
 40
0.0
 41
0.0
 42
0.0
 70
0
  0
VERTEX
  5
82B
330
1F
100
AcDbEntity
  8
0
 67
0
100
AcDbVertex
100
AcDb2dVertex
 10
15.1178869046
 20
206.695260805
 40
0.0
 41
0.0
 42
0.0
 70
0
  0
VERTEX
  5
82C
330
1F
100
AcDbEntity
  8
0
 67
0
100
AcDbVertex
100
AcDb2dVertex
 10
15.0677771562
 20
206.610774997
 40
0.0
 41
0.0
 42
0.0
 70
0
  0
VERTEX
  5
82D
330
1F
100
AcDbEntity
  8
0
 67
0
100
AcDbVertex
100
AcDb2dVertex
 10
15.0077478164
 20
206.53233308
 40
0.0
 41
0.0
 42
0.0
 70
0
  0
VERTEX
  5
82E
330
1F
100
AcDbEntity
  8
0
 67
0
100
AcDbVertex
100
AcDb2dVertex
 10
14.939648861
 20
206.460488305
 40
0.0
 41
0.0
 42
0.0
 70
0
  0
VERTEX
  5
82F
330
1F
100
AcDbEntity
  8
0
 67
0
100
AcDbVertex
100
AcDb2dVertex
 10
14.8647198493
 20
206.394557526
 40
0.0
 41
0.0
 42
0.0
 70
0
  0
VERTEX
  5
830
330
1F
100
AcDbEntity
  8
0
 67
0
100
AcDbVertex
100
AcDb2dVertex
 10
14.7829544533
 20
206.334496469
 40
0.0
 41
0.0
 42
0.0
 70
0
  0
VERTEX
  5
831
330
1F
100
AcDbEntity
  8
0
 67
0
100
AcDbVertex
100
AcDb2dVertex
 10
14.6943463499
 20
206.28032411
 40
0.0
 41
0.0
 42
0.0
 70
0
  0
VERTEX
  5
832
330
1F
100
AcDbEntity
  8
0
 67
0
100
AcDbVertex
100
AcDb2dVertex
 10
14.6027219124
 20
206.232261507
 40
0.0
 41
0.0
 42
0.0
 70
0
  0
VERTEX
  5
833
330
1F
100
AcDbEntity
  8
0
 67
0
100
AcDbVertex
100
AcDb2dVertex
 10
14.5112433367
 20
206.189264862
 40
0.0
 41
0.0
 42
0.0
 70
0
  0
VERTEX
  5
834
330
1F
100
AcDbEntity
  8
0
 67
0
100
AcDbVertex
100
AcDb2dVertex
 10
14.4199327585
 20
206.151331011
 40
0.0
 41
0.0
 42
0.0
 70
0
  0
VERTEX
  5
835
330
1F
100
AcDbEntity
  8
0
 67
0
100
AcDbVertex
100
AcDb2dVertex
 10
14.3287775267
 20
206.118434655
 40
0.0
 41
0.0
 42
0.0
 70
0
  0
VERTEX
  5
836
330
1F
100
AcDbEntity
  8
0
 67
0
100
AcDbVertex
100
AcDb2dVertex
 10
13.9796624413
 20
206.002093359
 40
0.0
 41
0.0
 42
0.0
 70
0
  0
VERTEX
  5
837
330
1F
100
AcDbEntity
  8
0
 67
0
100
AcDbVertex
100
AcDb2dVertex
 10
14.1617604875
 20
205.45565648
 40
0.0
 41
0.0
 42
0.0
 70
0
  0
VERTEX
  5
838
330
1F
100
AcDbEntity
  8
0
 67
0
100
AcDbVertex
100
AcDb2dVertex
 10
14.5232087778
 20
205.576107771
 40
0.0
 41
0.0
 42
0.0
 70
0
  0
VERTEX
  5
839
330
1F
100
AcDbEntity
  8
0
 67
0
100
AcDbVertex
100
AcDb2dVertex
 10
14.6160649919
 20
205.604880384
 40
0.0
 41
0.0
 42
0.0
 70
0
  0
VERTEX
  5
83A
330
1F
100
AcDbEntity
  8
0
 67
0
100
AcDbVertex
100
AcDb2dVertex
 10
14.7143759354
 20
205.631106935
 40
0.0
 41
0.0
 42
0.0
 70
0
  0
VERTEX
  5
83B
330
1F
100
AcDbEntity
  8
0
 67
0
100
AcDbVertex
100
AcDb2dVertex
 10
14.8181416109
 20
205.654819048
 40
0.0
 41
0.0
 42
0.0
 70
0
  0
VERTEX
  5
83C
330
1F
100
AcDbEntity
  8
0
 67
0
100
AcDbVertex
100
AcDb2dVertex
 10
14.9273588542
 20
205.675994587
 40
0.0
 41
0.0
 42
0.0
 70
0
  0
VERTEX
  5
83D
330
1F
100
AcDbEntity
  8
0
 67
0
100
AcDbVertex
100
AcDb2dVertex
 10
15.0390106202
 20
205.691667572
 40
0.0
 41
0.0
 42
0.0
 70
0
  0
VERTEX
  5
83E
330
1F
100
AcDbEntity
  8
0
 67
0
100
AcDbVertex
100
AcDb2dVertex
 10
15.1491248273
 20
205.698511598
 40
0.0
 41
0.0
 42
0.0
 70
0
  0
VERTEX
  5
83F
330
1F
100
AcDbEntity
  8
0
 67
0
100
AcDbVertex
100
AcDb2dVertex
 10
15.2576825038
 20
205.696551965
 40
0.0
 41
0.0
 42
0.0
 70
0
  0
VERTEX
  5
840
330
1F
100
AcDbEntity
  8
0
 67
0
100
AcDbVertex
100
AcDb2dVertex
 10
15.3647121086
 20
205.685766535
 40
0.0
 41
0.0
 42
0.0
 70
0
  0
VERTEX
  5
841
330
1F
100
AcDbEntity
  8
0
 67
0
100
AcDbVertex
100
AcDb2dVertex
 10
15.4690877712
 20
205.664884161
 40
0.0
 41
0.0
 42
0.0
 70
0
  0
VERTEX
  5
842
330
1F
100
AcDbEntity
  8
0
 67
0
100
AcDbVertex
100
AcDb2dVertex
 10
15.5688234557
 20
205.632304885
 40
0.0
 41
0.0
 42
0.0
 70
0
  0
VERTEX
  5
843
330
1F
100
AcDbEntity
  8
0
 67
0
100
AcDbVertex
100
AcDb2dVertex
 10
15.6638875395
 20
205.588028709
 40
0.0
 41
0.0
 42
0.0
 70
0
  0
VERTEX
  5
844
330
1F
100
AcDbEntity
  8
0
 67
0
100
AcDbVertex
100
AcDb2dVertex
 10
15.7542895095
 20
205.532058797
 40
0.0
 41
0.0
 42
0.0
 70
0
  0
VERTEX
  5
845
330
1F
100
AcDbEntity
  8
0
 67
0
100
AcDbVertex
100
AcDb2dVertex
 10
15.8373696433
 20
205.461242565
 40
0.0
 41
0.0
 42
0.0
 70
0
  0
VERTEX
  5
846
330
1F
100
AcDbEntity
  8
0
 67
0
100
AcDbVertex
100
AcDb2dVertex
 10
15.9095384893
 20
205.372180845
 40
0.0
 41
0.0
 42
0.0
 70
0
  0
VERTEX
  5
847
330
1F
100
AcDbEntity
  8
0
 67
0
100
AcDbVertex
100
AcDb2dVertex
 10
15.9708023705
 20
205.264854664
 40
0.0
 41
0.0
 42
0.0
 70
0
  0
VERTEX
  5
848
330
1F
100
AcDbEntity
  8
0
 67
0
100
AcDbVertex
100
AcDb2dVertex
 10
16.0211549639
 20
205.139282997
 40
0.0
 41
0.0
 42
0.0
 70
0
  0
VERTEX
  5
849
330
1F
100
AcDbEntity
  8
0
 67
0
100
AcDbVertex
100
AcDb2dVertex
 10
16.0756427981
 20
204.920012718
 40
0.0
 41
0.0
 42
0.0
 70
0
  0
VERTEX
  5
84A
330
1F
100
AcDbEntity
  8
0
 67
0
100
AcDbVertex
100
AcDb2dVertex
 10
16.0873653082
 20
204.717575432
 40
0.0
 41
0.0
 42
0.0
 70
0
  0
VERTEX
  5
84B
330
1F
100
AcDbEntity
  8
0
 67
0
100
AcDbVertex
100
AcDb2dVertex
 10
16.0563237614
 20
204.531998967
 40
0.0
 41
0.0
 42
0.0
 70
0
  0
VERTEX
  5
84C
330
1F
100
AcDbEntity
  8
0
 67
0
100
AcDbVertex
100
AcDb2dVertex
 10
15.9825153098
 20
204.363260239
 40
0.0
 41
0.0
 42
0.0
 70
0
  0
VERTEX
  5
84D
330
1F
100
AcDbEntity
  8
0
 67
0
100
AcDbVertex
100
AcDb2dVertex
 10
15.86986986
 20
204.213199069
 40
0.0
 41
0.0
 42
0.0
 70
0
  0
VERTEX
  5
84E
330
1F
100
AcDbEntity
  8
0
 67
0
100
AcDbVertex
100
AcDb2dVertex
 10
15.7223166864
 20
204.083657175
 40
0.0
 41
0.0
 42
0.0
 70
0
  0
VERTEX
  5
84F
330
1F
100
AcDbEntity
  8
0
 67
0
100
AcDbVertex
100
AcDb2dVertex
 10
15.5398608474
 20
203.97461938
 40
0.0
 41
0.0
 42
0.0
 70
0
  0
VERTEX
  5
850
330
1F
100
AcDbEntity
  8
0
 67
0
100
AcDbVertex
100
AcDb2dVertex
 10
15.3225023455
 20
203.886117305
 40
0.0
 41
0.0
 42
0.0
 70
0
  0
VERTEX
  5
851
330
1F
100
AcDbEntity
  8
0
 67
0
100
AcDbVertex
100
AcDb2dVertex
 10
15.1978870287
 20
203.848868167
 40
0.0
 41
0.0
 42
0.0
 70
0
  0
VERTEX
  5
852
330
1F
100
AcDbEntity
  8
0
 67
0
100
AcDbVertex
100
AcDb2dVertex
 10
15.079248296
 20
203.822183413
 40
0.0
 41
0.0
 42
0.0
 70
0
  0
VERTEX
  5
853
330
1F
100
AcDbEntity
  8
0
 67
0
100
AcDbVertex
100
AcDb2dVertex
 10
14.9665722316
 20
203.806041543
 40
0.0
 41
0.0
 42
0.0
 70
0
  0
VERTEX
  5
854
330
1F
100
AcDbEntity
  8
0
 67
0
100
AcDbVertex
100
AcDb2dVertex
 10
14.8598534608
 20
203.800458683
 40
0.0
 41
0.0
 42
0.0
 70
0
  0
VERTEX
  5
855
330
1F
100
AcDbEntity
  8
0
 67
0
100
AcDbVertex
100
AcDb2dVertex
 10
14.7590227066
 20
203.805136636
 40
0.0
 41
0.0
 42
0.0
 70
0
  0
VERTEX
  5
856
330
1F
100
AcDbEntity
  8
0
 67
0
100
AcDbVertex
100
AcDb2dVertex
 10
14.6633275399
 20
203.818506024
 40
0.0
 41
0.0
 42
0.0
 70
0
  0
VERTEX
  5
857
330
1F
100
AcDbEntity
  8
0
 67
0
100
AcDbVertex
100
AcDb2dVertex
 10
14.5727581576
 20
203.840564633
 40
0.0
 41
0.0
 42
0.0
 70
0
  0
VERTEX
  5
858
330
1F
100
AcDbEntity
  8
0
 67
0
100
AcDbVertex
100
AcDb2dVertex
 10
14.4873436533
 20
203.871320049
 40
0.0
 41
0.0
 42
0.0
 70
0
  0
VERTEX
  5
859
330
1F
100
AcDbEntity
  8
0
 67
0
100
AcDbVertex
100
AcDb2dVertex
 10
14.4071441232
 20
203.910939871
 40
0.0
 41
0.0
 42
0.0
 70
0
  0
VERTEX
  5
85A
330
1F
100
AcDbEntity
  8
0
 67
0
100
AcDbVertex
100
AcDb2dVertex
 10
14.3316098748
 20
203.958290146
 40
0.0
 41
0.0
 42
0.0
 70
0
  0
VERTEX
  5
85B
330
1F
100
AcDbEntity
  8
0
 67
0
100
AcDbVertex
100
AcDb2dVertex
 10
14.2607405943
 20
204.013403448
 40
0.0
 41
0.0
 42
0.0
 70
0
  0
VERTEX
  5
85C
330
1F
100
AcDbEntity
  8
0
 67
0
100
AcDbVertex
100
AcDb2dVertex
 10
14.1945400756
 20
204.076268392
 40
0.0
 41
0.0
 42
0.0
 70
0
  0
VERTEX
  5
85D
330
1F
100
AcDbEntity
  8
0
 67
0
100
AcDbVertex
100
AcDb2dVertex
 10
14.1333365132
 20
204.146248069
 40
0.0
 41
0.0
 42
0.0
 70
0
  0
VERTEX
  5
85E
330
1F
100
AcDbEntity
  8
0
 67
0
100
AcDbVertex
100
AcDb2dVertex
 10
14.0765226794
 20
204.222444439
 40
0.0
 41
0.0
 42
0.0
 70
0
  0
VERTEX
  5
85F
330
1F
100
AcDbEntity
  8
0
 67
0
100
AcDbVertex
100
AcDb2dVertex
 10
14.0240796
 20
204.30485118
 40
0.0
 41
0.0
 42
0.0
 70
0
  0
VERTEX
  5
860
330
1F
100
AcDbEntity
  8
0
 67
0
100
AcDbVertex
100
AcDb2dVertex
 10
13.9760452209
 20
204.393449316
 40
0.0
 41
0.0
 42
0.0
 70
0
  0
VERTEX
  5
861
330
1F
100
AcDbEntity
  8
0
 67
0
100
AcDbVertex
100
AcDb2dVertex
 10
13.3280742973
 20
204.111109333
 40
0.0
 41
0.0
 42
0.0
 70
0
  0
VERTEX
  5
862
330
1F
100
AcDbEntity
  8
0
 67
0
100
AcDbVertex
100
AcDb2dVertex
 10
13.3907708568
 20
203.989767193
 40
0.0
 41
0.0
 42
0.0
 70
0
  0
VERTEX
  5
863
330
1F
100
AcDbEntity
  8
0
 67
0
100
AcDbVertex
100
AcDb2dVertex
 10
13.4615809437
 20
203.873374014
 40
0.0
 41
0.0
 42
0.0
 70
0
  0
VERTEX
  5
864
330
1F
100
AcDbEntity
  8
0
 67
0
100
AcDbVertex
100
AcDb2dVertex
 10
13.5404944377
 20
203.761915883
 40
0.0
 41
0.0
 42
0.0
 70
0
  0
VERTEX
  5
865
330
1F
100
AcDbEntity
  8
0
 67
0
100
AcDbVertex
100
AcDb2dVertex
 10
13.6275037503
 20
203.655406082
 40
0.0
 41
0.0
 42
0.0
 70
0
  0
VERTEX
  5
866
330
1F
100
AcDbEntity
  8
0
 67
0
100
AcDbVertex
100
AcDb2dVertex
 10
13.7236779951
 20
203.557209191
 40
0.0
 41
0.0
 42
0.0
 70
0
  0
VERTEX
  5
867
330
1F
100
AcDbEntity
  8
0
 67
0
100
AcDbVertex
100
AcDb2dVertex
 10
13.8303578529
 20
203.469767332
 40
0.0
 41
0.0
 42
0.0
 70
0
  0
VERTEX
  5
868
330
1F
100
AcDbEntity
  8
0
 67
0
100
AcDbVertex
100
AcDb2dVertex
 10
13.9475471174
 20
203.393065957
 40
0.0
 41
0.0
 42
0.0
 70
0
  0
VERTEX
  5
869
330
1F
100
AcDbEntity
  8
0
 67
0
100
AcDbVertex
100
AcDb2dVertex
 10
14.0752574903
 20
203.327123724
 40
0.0
 41
0.0
 42
0.0
 70
0
  0
VERTEX
  5
86A
330
1F
100
AcDbEntity
  8
0
 67
0
100
AcDbVertex
100
AcDb2dVertex
 10
14.2134334681
 20
203.273884806
 40
0.0
 41
0.0
 42
0.0
 70
0
  0
VERTEX
  5
86B
330
1F
100
AcDbEntity
  8
0
 67
0
100
AcDbVertex
100
AcDb2dVertex
 10
14.3623072411
 20
203.234360479
 40
0.0
 41
0.0
 42
0.0
 70
0
  0
VERTEX
  5
86C
330
1F
100
AcDbEntity
  8
0
 67
0
100
AcDbVertex
100
AcDb2dVertex
 10
14.5219009457
 20
203.208557068
 40
0.0
 41
0.0
 42
0.0
 70
0
  0
VERTEX
  5
86D
330
1F
100
AcDbEntity
  8
0
 67
0
100
AcDbVertex
100
AcDb2dVertex
 10
14.6922162898
 20
203.196475773
 40
0.0
 41
0.0
 42
0.0
 70
0
  0
VERTEX
  5
86E
330
1F
100
AcDbEntity
  8
0
 67
0
100
AcDbVertex
100
AcDb2dVertex
 10
14.8750319988
 20
203.201603854
 40
0.0
 41
0.0
 42
0.0
 70
0
  0
VERTEX
  5
86F
330
1F
100
AcDbEntity
  8
0
 67
0
100
AcDbVertex
100
AcDb2dVertex
 10
15.0712014805
 20
203.227137116
 40
0.0
 41
0.0
 42
0.0
 70
0
  0
VERTEX
  5
870
330
1F
100
AcDbEntity
  8
0
 67
0
100
AcDbVertex
100
AcDb2dVertex
 10
15.2807533454
 20
203.273052967
 40
0.0
 41
0.0
 42
0.0
 70
0
  0
VERTEX
  5
871
330
1F
100
AcDbEntity
  8
0
 67
0
100
AcDbVertex
100
AcDb2dVertex
 10
15.5036638264
 20
203.339359466
 40
0.0
 41
0.0
 42
0.0
 70
0
  0
VERTEX
  5
872
330
1F
100
AcDbEntity
  8
0
 67
0
100
AcDbVertex
100
AcDb2dVertex
 10
15.6972143309
 20
203.410518187
 40
0.0
 41
0.0
 42
0.0
 70
0
  0
SEQEND
  5
7C3
330
0
100
AcDbEntity
 67
0
  0
ENDSEC
  0
SECTION
  2
OBJECTS
  0
DICTIONARY
  5
C
330
0
100
AcDbDictionary
281
1
  3
ACAD_CIP_PREVIOUS_PRODUCT_INFO
350
4AD
  3
ACAD_COLOR
350
73
  3
ACAD_DETAILVIEWSTYLE
350
4A8
  3
ACAD_GROUP
350
D
  3
ACAD_LAYOUT
350
1A
  3
ACAD_MATERIAL
350
72
  3
ACAD_MLEADERSTYLE
350
D7
  3
ACAD_MLINESTYLE
350
17
  3
ACAD_PLOTSETTINGS
350
19
  3
ACAD_PLOTSTYLENAME
350
E
  3
ACAD_SCALELIST
350
B6
  3
ACAD_SECTIONVIEWSTYLE
350
4A6
  3
ACAD_TABLESTYLE
350
86
  3
ACAD_VISUALSTYLE
350
99
  3
ACDB_RECOMPOSE_DATA
350
4B2
  3
AcDbVariableDictionary
350
66
  0
DICTIONARY
  5
2A2
330
2
100
AcDbDictionary
280
1
281
1
  3
ACAD_LAYERSTATES
360
2A3
  0
DICTIONARY
  5
E6
330
10
100
AcDbDictionary
280
1
281
1
  0
DICTIONARY
  5
15D
330
1F
100
AcDbDictionary
280
1
281
1
  0
DICTIONARY
  5
28C
330
28B
100
AcDbDictionary
280
1
281
1
  3
ASDK_XREC_ANNOTATION_SCALE_INFO
360
28D
  0
DICTIONARY
  5
291
330
290
100
AcDbDictionary
280
1
281
1
  3
ASDK_XREC_ANNOTATION_SCALE_INFO
360
292
  0
XRECORD
  5
4AD
102
{ACAD_REACTORS
330
C
102
}
330
C
100
AcDbXrecord
280
1
300
STRDET
300
2013
300
REVSU_F_S
  0
DICTIONARY
  5
73
102
{ACAD_REACTORS
330
C
102
}
330
C
100
AcDbDictionary
281
1
  0
DICTIONARY
  5
4A8
102
{ACAD_REACTORS
330
C
102
}
330
C
100
AcDbDictionary
281
1
  3
Metric50
350
4A9
  0
DICTIONARY
  5
D
102
{ACAD_REACTORS
330
C
102
}
330
C
100
AcDbDictionary
281
1
  0
DICTIONARY
  5
1A
102
{ACAD_REACTORS
330
C
102
}
330
C
100
AcDbDictionary
281
1
  3
Layout1
350
59
  3
Model
350
22
  0
DICTIONARY
  5
72
102
{ACAD_REACTORS
330
C
102
}
330
C
100
AcDbDictionary
281
1
  3
ByBlock
350
97
  3
ByLayer
350
96
  3
Global
350
98
  0
DICTIONARY
  5
D7
102
{ACAD_REACTORS
330
C
102
}
330
C
100
AcDbDictionary
281
1
  3
Annotative
350
E5
  3
Civil-Metric
350
288
  3
Standard
350
D8
  0
DICTIONARY
  5
17
102
{ACAD_REACTORS
330
C
102
}
330
C
100
AcDbDictionary
281
1
  3
Standard
350
18
  0
DICTIONARY
  5
19
102
{ACAD_REACTORS
330
C
102
}
330
C
100
AcDbDictionary
281
1
  0
ACDBDICTIONARYWDFLT
  5
E
102
{ACAD_REACTORS
330
C
102
}
330
C
100
AcDbDictionary
281
1
  3
Normal
350
F
100
AcDbDictionaryWithDefault
340
F
  0
DICTIONARY
  5
B6
102
{ACAD_REACTORS
330
C
102
}
330
C
100
AcDbDictionary
281
1
  3
A0
350
B7
  3
A1
350
347
  3
A2
350
348
  3
A3
350
349
  3
A4
350
34A
  3
A5
350
34B
  3
A6
350
34C
  3
A7
350
34D
  3
A8
350
34E
  3
A9
350
34F
  3
B0
350
350
  3
B1
350
351
  3
B2
350
352
  3
B3
350
353
  3
B4
350
354
  3
B5
350
355
  3
B6
350
356
  0
DICTIONARY
  5
4A6
102
{ACAD_REACTORS
330
C
102
}
330
C
100
AcDbDictionary
281
1
  3
Metric50
350
4A7
  0
DICTIONARY
  5
86
102
{ACAD_REACTORS
330
C
102
}
330
C
100
AcDbDictionary
281
1
  3
Standard
350
87
  0
DICTIONARY
  5
99
102
{ACAD_REACTORS
330
C
102
}
330
C
100
AcDbDictionary
281
1
  3
2dWireframe
350
9F
  3
3D Hidden
350
A1
  3
3dWireframe
350
A0
  3
Basic
350
9E
  3
Brighten
350
A5
  3
ColorChange
350
A9
  3
Conceptual
350
A2
  3
Dim
350
A4
  3
EdgeColorOff
350
3B8
  3
Facepattern
350
A8
  3
Flat
350
9A
  3
FlatWithEdges
350
9B
  3
Gouraud
350
9C
  3
GouraudWithEdges
350
9D
  3
Hidden
350
4A0
  3
JitterOff
350
3B6
  3
Linepattern
350
A7
  3
OverhangOff
350
3B7
  3
Realistic
350
A3
  3
Shaded
350
4A5
  3
Shaded with edges
350
4A4
  3
Shades of Gray
350
4A1
  3
Sketchy
350
4A2
  3
Thicken
350
A6
  3
Wireframe
350
49F
  3
X-Ray
350
4A3
  0
XRECORD
  5
4B2
102
{ACAD_REACTORS
330
C
102
}
330
C
100
AcDbXrecord
280
1
 90
1
330
87
  0
DICTIONARY
  5
66
102
{ACAD_REACTORS
330
C
102
}
330
C
100
AcDbDictionary
281
1
  3
ANNOALLVISIBLE
350
38E
  3
CANNOSCALE
350
F0
  3
CMLEADERSTYLE
350
EF
  3
CTABLESTYLE
350
89
  3
CVIEWDETAILSTYLE
350
4AE
  3
CVIEWSECTIONSTYLE
350
4AF
  3
DIMASSOC
350
67
  3
HIDETEXT
350
6B
  3
INDEXCTL
350
3D2
  3
LAYEREVAL
350
14D
  3
LAYERNOTIFY
350
14E
  3
LIGHTINGUNITS
350
38F
  3
MSLTSCALE
350
3D0
  3
SORTENTS
350
3D1
  3
XCLIPFRAME
350
3D3
  0
DICTIONARY
  5
2A3
102
{ACAD_REACTORS
330
2A2
102
}
330
2A2
100
AcDbDictionary
281
1
  0
XRECORD
  5
28D
102
{ACAD_REACTORS
330
28C
102
}
330
28C
100
AcDbXrecord
280
1
 90
1
340
B7
  0
XRECORD
  5
292
102
{ACAD_REACTORS
330
291
102
}
330
291
100
AcDbXrecord
280
1
 90
1
340
B7
  0
ACDBDETAILVIEWSTYLE
  5
4A9
102
{ACAD_REACTORS
330
4A8
102
}
330
4A8
100
AcDbModelDocViewStyle
 70
0
  3
Metric50
290
0
100
AcDbDetailViewStyle
 70
0
 71
0
 90
3
 71
1
340
11
 62
256
 40
5.0
340
0
 62
256
 40
5.0
300

 40
0.0
280
1
 71
2
340
16
 90
25
 62
256
 71
3
340
11
 62
256
 40
5.0
 90
0
 40
15.0
 90
1
300
%<\AcVar ViewDetailId>% (%<\AcVar ViewScale \f "%sn">%)
 71
4
340
16
 90
25
 62
256
340
16
 90
25
 62
256
280
0
  0
LAYOUT
  5
59
102
{ACAD_XDICTIONARY
360
2A7
102
}
102
{ACAD_REACTORS
330
1A
102
}
330
1A
100
AcDbPlotSettings
  1

  2
DWFx ePlot (XPS Compatible).pc3
  4
ANSI_A_(8.50_x_11.00_Inches)
  6

 40
5.79374980927
 41
17.7937507629
 42
5.79374694824
 43
17.793762207
 44
215.899993896
 45
279.399993896
 46
0.0
 47
0.0
 48
0.0
 49
0.0
140
0.0
141
0.0
142
1.0
143
1.0
 70
688
 72
0
 73
1
 74
5
  7
acad.ctb
 75
16
147
1.0
 76
0
 77
2
 78
300
148
0.0
149
0.0
100
AcDbLayout
  1
Layout1
 70
1
 71
1
 10
-0.700541819174
 20
-0.228100386192
 11
10.2994579405
 21
8.27189937351
 12
0.0
 22
0.0
 32
0.0
 14
0.628866766397
 24
0.799999952316
 34
0.0
 15
9.02886638493
 25
7.19999957085
 35
0.0
146
0.0
 13
0.0
 23
0.0
 33
0.0
 16
1.0
 26
0.0
 36
0.0
 17
0.0
 27
1.0
 37
0.0
 76
0
330
58
331
28B
1001
ACAD_PSEXT
1000
DWFx ePlot (XPS Compatible).pc3
1000
DWFx ePlot (XPS Compatible)
1000
File
1000

1070
0
  0
LAYOUT
  5
22
102
{ACAD_REACTORS
330
1A
102
}
330
1A
100
AcDbPlotSettings
  1

  2
DWFx ePlot (XPS Compatible).pc3
  4
ANSI_A_(8.50_x_11.00_Inches)
  6

 40
5.79374980927
 41
17.7937507629
 42
5.79374694824
 43
17.793762207
 44
215.899993896
 45
279.399993896
 46
0.0
 47
0.0
 48
0.0
 49
0.0
140
0.0
141
0.0
142
1.0
143
14.5331733076
 70
11952
 72
0
 73
1
 74
0
  7

 75
0
147
0.0688080970917
 76
0
 77
2
 78
300
148
114.981416068
149
300.29102464
100
AcDbLayout
  1
Model
 70
1
 71
0
 10
0.0
 20
0.0
 11
12.0
 21
9.0
 12
0.0
 22
0.0
 32
0.0
 14
0.0
 24
0.0
 34
0.0
 15
0.0
 25
0.0
 35
0.0
146
0.0
 13
0.0
 23
0.0
 33
0.0
 16
1.0
 26
0.0
 36
0.0
 17
0.0
 27
1.0
 37
0.0
 76
0
330
1F
331
94
1001
ACAD_PSEXT
1000
DWFx ePlot (XPS Compatible).pc3
1000
DWFx ePlot (XPS Compatible)
1000
File
1000

1070
0
  0
MATERIAL
  5
97
102
{ACAD_REACTORS
330
72
102
}
330
72
100
AcDbMaterial
  1
ByBlock
 94
63
  0
MATERIAL
  5
96
102
{ACAD_REACTORS
330
72
102
}
330
72
100
AcDbMaterial
  1
ByLayer
 94
63
  0
MATERIAL
  5
98
102
{ACAD_XDICTIONARY
360
110
102
}
102
{ACAD_REACTORS
330
72
102
}
330
72
100
AcDbMaterial
  1
Global
 43
0.0208000000566
 43
0.0
 43
0.0
 43
0.0
 43
0.0
 43
0.0208000000566
 43
0.0
 43
0.0
 43
0.0
 43
0.0
 43
1.0
 43
0.0
 43
0.0
 43
0.0
 43
0.0
 43
1.0
 49
0.0208000000566
 49
0.0
 49
0.0
 49
0.0
 49
0.0
 49
0.0208000000566
 49
0.0
 49
0.0
 49
0.0
 49
0.0
 49
1.0
 49
0.0
 49
0.0
 49
0.0
 49
0.0
 49
1.0
142
0.0208000000566
142
0.0
142
0.0
142
0.0
142
0.0
142
0.0208000000566
142
0.0
142
0.0
142
0.0
142
0.0
142
1.0
142
0.0
142
0.0
142
0.0
142
0.0
142
1.0
144
0.0208000000566
144
0.0
144
0.0
144
0.0
144
0.0
144
0.0208000000566
144
0.0
144
0.0
144
0.0
144
0.0
144
1.0
144
0.0
144
0.0
144
0.0
144
0.0
144
1.0
 94
63
1001
ACAD
1070
-1
1070
3
1070
0
1000

1071
0
1070
0
  0
MLEADERSTYLE
  5
E5
102
{ACAD_REACTORS
330
D7
102
}
330
D7
100
AcDbMLeaderStyle
179
2
170
2
171
1
172
0
 90
2
 40
0.0
 41
0.0
173
1
 91
-1056964608
340
14
 92
-2
290
1
 42
2.0
291
1
 43
9.0
  3
Standard
 44
4.0
300

342
11
174
1
178
1
175
1
176
0
 93
-1056964608
 45
4.0
292
0
297
0
 46
0.18
 94
-1056964608
 47
1.0
 49
1.0
140
1.0
293
1
141
0.0
294
1
177
0
142
1.0
295
0
296
1
143
3.0
271
0
272
9
273
9
298
0
  0
MLEADERSTYLE
  5
288
102
{ACAD_REACTORS
330
D7
102
}
330
D7
100
AcDbMLeaderStyle
179
2
170
2
171
1
172
0
 90
2
 40
0.0
 41
0.0
173
1
 91
-1056964608
340
14
 92
-2
290
1
 42
2.0
291
1
 43
7.0
  3
Standard
 44
3.0
300

342
178
174
1
178
1
175
1
176
0
 93
-1056964608
 45
3.0
292
0
297
1
 46
0.18
 94
-1056964608
 47
1.0
 49
1.0
140
1.0
293
1
141
0.0
294
1
177
0
142
1.0
295
0
296
1
143
3.0
271
0
272
9
273
9
298
0
  0
MLEADERSTYLE
  5
D8
102
{ACAD_REACTORS
330
D7
102
}
330
D7
100
AcDbMLeaderStyle
179
2
170
2
171
1
172
0
 90
2
 40
0.0
 41
0.0
173
1
 91
-1056964608
340
14
 92
-2
290
1
 42
2.0
291
1
 43
9.0
  3
Standard
 44
4.0
300

342
11
174
1
178
1
175
1
176
0
 93
-1056964608
 45
4.0
292
0
297
0
 46
0.18
 94
-1056964608
 47
1.0
 49
1.0
140
1.0
293
1
141
0.0
294
1
177
0
142
1.0
295
0
296
0
143
3.0
271
0
272
9
273
9
298
0
  0
MLINESTYLE
  5
18
102
{ACAD_REACTORS
330
17
102
}
330
17
100
AcDbMlineStyle
  2
STANDARD
 70
0
  3

 62
256
 51
90.0
 52
90.0
 71
2
 49
0.5
 62
256
  6
BYLAYER
 49
-0.5
 62
256
  6
BYLAYER
  0
ACDBPLACEHOLDER
  5
F
102
{ACAD_REACTORS
330
E
102
}
330
E
  0
SCALE
  5
B7
102
{ACAD_REACTORS
330
B6
102
}
330
B6
100
AcDbScale
 70
0
300
1:1
140
1.0
141
1.0
290
1
  0
SCALE
  5
347
102
{ACAD_REACTORS
330
B6
102
}
330
B6
100
AcDbScale
 70
0
300
1:2
140
1.0
141
2.0
290
0
  0
SCALE
  5
348
102
{ACAD_REACTORS
330
B6
102
}
330
B6
100
AcDbScale
 70
0
300
1:4
140
1.0
141
4.0
290
0
  0
SCALE
  5
349
102
{ACAD_REACTORS
330
B6
102
}
330
B6
100
AcDbScale
 70
0
300
1:5
140
1.0
141
5.0
290
0
  0
SCALE
  5
34A
102
{ACAD_REACTORS
330
B6
102
}
330
B6
100
AcDbScale
 70
0
300
1:8
140
1.0
141
8.0
290
0
  0
SCALE
  5
34B
102
{ACAD_REACTORS
330
B6
102
}
330
B6
100
AcDbScale
 70
0
300
1:10
140
1.0
141
10.0
290
0
  0
SCALE
  5
34C
102
{ACAD_REACTORS
330
B6
102
}
330
B6
100
AcDbScale
 70
0
300
1:16
140
1.0
141
16.0
290
0
  0
SCALE
  5
34D
102
{ACAD_REACTORS
330
B6
102
}
330
B6
100
AcDbScale
 70
0
300
1:20
140
1.0
141
20.0
290
0
  0
SCALE
  5
34E
102
{ACAD_REACTORS
330
B6
102
}
330
B6
100
AcDbScale
 70
0
300
1:30
140
1.0
141
30.0
290
0
  0
SCALE
  5
34F
102
{ACAD_REACTORS
330
B6
102
}
330
B6
100
AcDbScale
 70
0
300
1:40
140
1.0
141
40.0
290
0
  0
SCALE
  5
350
102
{ACAD_REACTORS
330
B6
102
}
330
B6
100
AcDbScale
 70
0
300
1:50
140
1.0
141
50.0
290
0
  0
SCALE
  5
351
102
{ACAD_REACTORS
330
B6
102
}
330
B6
100
AcDbScale
 70
0
300
1:100
140
1.0
141
100.0
290
0
  0
SCALE
  5
352
102
{ACAD_REACTORS
330
B6
102
}
330
B6
100
AcDbScale
 70
0
300
2:1
140
2.0
141
1.0
290
0
  0
SCALE
  5
353
102
{ACAD_REACTORS
330
B6
102
}
330
B6
100
AcDbScale
 70
0
300
4:1
140
4.0
141
1.0
290
0
  0
SCALE
  5
354
102
{ACAD_REACTORS
330
B6
102
}
330
B6
100
AcDbScale
 70
0
300
8:1
140
8.0
141
1.0
290
0
  0
SCALE
  5
355
102
{ACAD_REACTORS
330
B6
102
}
330
B6
100
AcDbScale
 70
0
300
10:1
140
10.0
141
1.0
290
0
  0
SCALE
  5
356
102
{ACAD_REACTORS
330
B6
102
}
330
B6
100
AcDbScale
 70
0
300
100:1
140
100.0
141
1.0
290
0
  0
ACDBSECTIONVIEWSTYLE
  5
4A7
102
{ACAD_REACTORS
330
4A6
102
}
330
4A6
100
AcDbModelDocViewStyle
 70
0
  3
Metric50
290
0
100
AcDbSectionViewStyle
 70
0
 71
0
 90
102
 71
1
340
11
 62
256
 40
5.0
340
0
340
0
 62
256
 40
5.0
300
I, O, Q, S, X, Z
 40
10.0
 90
0
 40
2.5
 90
0
 71
2
340
16
 90
25
 62
256
340
16
 90
50
 62
256
 40
5.0
 40
2.5
 40
5.0
 71
3
340
11
 62
256
 40
5.0
 90
0
 40
15.0
 90
1
300
%<\AcVar ViewSectionStartId>%-%<\AcVar ViewSectionEndId>% (%<\AcVar ViewScale \f "%sn">%)
 71
4
 62
256
 62
257
300
ANSI31
 40
1.0
 90
0
290
0
290
0
 90
6
 40
0.0
 40
1.57079632679
 40
0.261799387799
 40
1.308996939
 40
-0.261799387799
 40
1.83259571459
  0
TABLESTYLE
  5
87
102
{ACAD_XDICTIONARY
360
104
102
}
102
{ACAD_REACTORS
330
86
102
}
330
86
100
AcDbTableStyle
280
0
  3
Standard
 70
0
 71
0
 40
0.06
 41
0.06
280
0
281
0
  7
Standard
140
0.18
170
2
 62
0
 63
7
283
0
 90
512
 91
0
  1

274
-2
284
1
 64
0
275
-2
285
1
 65
0
276
-2
286
1
 66
0
277
-2
287
1
 67
0
278
-2
288
1
 68
0
279
-2
289
1
 69
0
  7
Standard
140
0.25
170
5
 62
0
 63
7
283
0
 90
512
 91
0
  1

274
-2
284
1
 64
0
275
-2
285
1
 65
0
276
-2
286
1
 66
0
277
-2
287
1
 67
0
278
-2
288
1
 68
0
279
-2
289
1
 69
0
  7
Standard
140
0.18
170
5
 62
0
 63
7
283
0
 90
512
 91
0
  1

274
-2
284
1
 64
0
275
-2
285
1
 65
0
276
-2
286
1
 66
0
277
-2
287
1
 67
0
278
-2
288
1
 68
0
279
-2
289
1
 69
0
  0
VISUALSTYLE
  5
9F
102
{ACAD_REACTORS
330
99
102
}
330
99
100
AcDbVisualStyle
  2
2dWireframe
 70
4
177
3
291
0
 70
58
 90
0
176
1
 90
2
176
1
 90
1
176
1
 90
0
176
1
 40
0.6
176
1
 40
30.0
176
1
 62
7
420
16777215
176
1
 90
1
176
1
 90
4
176
1
 62
7
176
1
 62
257
176
1
 90
1
176
1
 90
1
176
1
 40
1.0
176
1
 90
0
176
1
 62
257
176
1
 40
1.0
176
1
 90
1
176
1
 90
6
176
1
 90
2
176
1
 62
7
176
1
 90
5
176
1
 90
0
176
1
 90
0
176
1
290
0
176
1
 90
1
176
1
 40
0.0
176
1
 90
0
176
1
290
1
176
1
290
1
176
1
290
0
176
1
290
0
176
1
290
0
176
1
290
0
176
1
290
0
176
1
290
0
176
1
290
0
176
1
 90
50
176
1
 40
0.0
176
1
 40
1.0
176
1
 90
0
176
1
 62
18
420
0
176
1
 90
50
176
1
 90
3
176
1
 62
5
420
255
176
1
290
0
176
1
 90
50
176
1
 90
50
176
1
 90
50
176
1
290
0
176
1
 90
50
176
1
 62
256
176
0
 40
1.0
176
0
 90
2
176
1
  1
strokes_ogs.tif
176
1
290
0
176
1
 40
1.0
176
1
 40
1.0
176
1
  0
VISUALSTYLE
  5
A1
102
{ACAD_REACTORS
330
99
102
}
330
99
100
AcDbVisualStyle
  2
3D Hidden
 70
6
177
3
291
0
 70
58
 90
1
176
1
 90
2
176
1
 90
2
176
1
 90
0
176
1
 40
0.6
176
1
 40
30.0
176
1
 62
7
420
16777215
176
1
 90
2
176
1
 90
2
176
1
 62
7
176
1
 62
257
176
1
 90
2
176
1
 90
1
176
1
 40
40.0
176
1
 90
0
176
1
 62
257
176
1
 40
1.0
176
1
 90
1
176
1
 90
6
176
1
 90
2
176
1
 62
7
176
1
 90
3
176
1
 90
0
176
1
 90
0
176
1
290
0
176
1
 90
1
176
1
 40
0.0
176
1
 90
0
176
1
290
0
176
1
290
1
176
1
290
1
176
1
290
0
176
1
290
0
176
1
290
0
176
1
290
0
176
1
290
0
176
1
290
0
176
1
 90
50
176
1
 40
0.0
176
1
 40
1.0
176
1
 90
0
176
1
 62
18
420
0
176
1
 90
50
176
1
 90
3
176
1
 62
5
420
255
176
1
290
0
176
1
 90
50
176
1
 90
50
176
1
 90
50
176
1
290
0
176
1
 90
50
176
1
 62
256
176
0
 40
1.0
176
0
 90
2
176
1
  1
strokes_ogs.tif
176
1
290
0
176
1
 40
1.0
176
1
 40
1.0
176
1
  0
VISUALSTYLE
  5
A0
102
{ACAD_REACTORS
330
99
102
}
330
99
100
AcDbVisualStyle
  2
3dWireframe
 70
5
177
3
291
0
 70
58
 90
0
176
1
 90
2
176
1
 90
1
176
1
 90
0
176
1
 40
0.6
176
1
 40
30.0
176
1
 62
7
420
16777215
176
1
 90
1
176
1
 90
4
176
1
 62
7
176
1
 62
257
176
1
 90
1
176
1
 90
1
176
1
 40
1.0
176
1
 90
0
176
1
 62
257
176
1
 40
1.0
176
1
 90
1
176
1
 90
6
176
1
 90
2
176
1
 62
7
176
1
 90
5
176
1
 90
0
176
1
 90
0
176
1
290
0
176
1
 90
1
176
1
 40
0.0
176
1
 90
0
176
1
290
0
176
1
290
1
176
1
290
1
176
1
290
0
176
1
290
0
176
1
290
0
176
1
290
0
176
1
290
0
176
1
290
0
176
1
 90
50
176
1
 40
0.0
176
1
 40
1.0
176
1
 90
0
176
1
 62
18
420
0
176
1
 90
50
176
1
 90
3
176
1
 62
5
420
255
176
1
290
0
176
1
 90
50
176
1
 90
50
176
1
 90
50
176
1
290
0
176
1
 90
50
176
1
 62
256
176
0
 40
1.0
176
0
 90
2
176
1
  1
strokes_ogs.tif
176
1
290
0
176
1
 40
1.0
176
1
 40
1.0
176
1
  0
VISUALSTYLE
  5
9E
102
{ACAD_REACTORS
330
99
102
}
330
99
100
AcDbVisualStyle
  2
Basic
 70
7
177
3
291
1
 70
58
 90
1
176
1
 90
0
176
1
 90
1
176
1
 90
0
176
1
 40
0.6
176
1
 40
30.0
176
1
 62
7
420
16777215
176
1
 90
0
176
1
 90
4
176
1
 62
7
176
1
 62
257
176
1
 90
1
176
1
 90
1
176
1
 40
1.0
176
1
 90
8
176
1
 62
7
176
1
 40
1.0
176
1
 90
1
176
1
 90
6
176
1
 90
2
176
1
 62
7
176
1
 90
5
176
1
 90
0
176
1
 90
0
176
1
290
0
176
1
 90
1
176
1
 40
0.0
176
1
 90
0
176
1
290
0
176
1
290
1
176
1
290
1
176
1
290
0
176
1
290
0
176
1
290
0
176
1
290
0
176
1
290
0
176
1
290
0
176
1
 90
50
176
1
 40
0.0
176
1
 40
1.0
176
1
 90
0
176
1
 62
18
420
0
176
1
 90
50
176
1
 90
3
176
1
 62
5
420
255
176
1
290
0
176
1
 90
50
176
1
 90
50
176
1
 90
50
176
1
290
0
176
1
 90
50
176
1
 62
256
176
0
 40
1.0
176
0
 90
2
176
1
  1
strokes_ogs.tif
176
1
290
0
176
1
 40
1.0
176
1
 40
1.0
176
1
  0
VISUALSTYLE
  5
A5
102
{ACAD_REACTORS
330
99
102
}
330
99
100
AcDbVisualStyle
  2
Brighten
 70
12
177
3
291
1
 70
58
 90
2
176
1
 90
2
176
1
 90
1
176
1
 90
0
176
1
 40
0.6
176
1
 40
30.0
176
1
 62
7
420
16777215
176
1
 90
1
176
1
 90
4
176
1
 62
7
176
1
 62
257
176
1
 90
1
176
1
 90
1
176
1
 40
1.0
176
1
 90
8
176
1
 62
7
176
1
 40
1.0
176
1
 90
1
176
1
 90
6
176
1
 90
2
176
1
 62
7
176
1
 90
5
176
1
 90
0
176
1
 90
0
176
1
290
0
176
1
 90
1
176
1
 40
50.0
176
1
 90
0
176
1
290
0
176
1
290
1
176
1
290
1
176
1
290
0
176
1
290
0
176
1
290
0
176
1
290
0
176
1
290
0
176
1
290
0
176
1
 90
50
176
1
 40
0.0
176
1
 40
1.0
176
1
 90
0
176
1
 62
18
420
0
176
1
 90
50
176
1
 90
3
176
1
 62
5
420
255
176
1
290
0
176
1
 90
50
176
1
 90
50
176
1
 90
50
176
1
290
0
176
1
 90
50
176
1
 62
256
176
0
 40
1.0
176
0
 90
2
176
1
  1
strokes_ogs.tif
176
1
290
0
176
1
 40
1.0
176
1
 40
1.0
176
1
  0
VISUALSTYLE
  5
A9
102
{ACAD_REACTORS
330
99
102
}
330
99
100
AcDbVisualStyle
  2
ColorChange
 70
16
177
3
291
1
 70
58
 90
2
176
1
 90
2
176
1
 90
3
176
1
 90
0
176
1
 40
0.6
176
1
 40
30.0
176
1
 62
8
420
8421504
176
1
 90
1
176
1
 90
4
176
1
 62
7
176
1
 62
257
176
1
 90
1
176
1
 90
1
176
1
 40
1.0
176
1
 90
8
176
1
 62
8
420
8421504
176
1
 40
1.0
176
1
 90
1
176
1
 90
6
176
1
 90
2
176
1
 62
7
176
1
 90
5
176
1
 90
0
176
1
 90
0
176
1
290
0
176
1
 90
1
176
1
 40
0.0
176
1
 90
0
176
1
290
0
176
1
290
1
176
1
290
1
176
1
290
0
176
1
290
0
176
1
290
0
176
1
290
0
176
1
290
0
176
1
290
0
176
1
 90
50
176
1
 40
0.0
176
1
 40
1.0
176
1
 90
0
176
1
 62
18
420
0
176
1
 90
50
176
1
 90
3
176
1
 62
5
420
255
176
1
290
0
176
1
 90
50
176
1
 90
50
176
1
 90
50
176
1
290
0
176
1
 90
50
176
1
 62
256
176
0
 40
1.0
176
0
 90
2
176
1
  1
strokes_ogs.tif
176
1
290
0
176
1
 40
1.0
176
1
 40
1.0
176
1
  0
VISUALSTYLE
  5
A2
102
{ACAD_REACTORS
330
99
102
}
330
99
100
AcDbVisualStyle
  2
Conceptual
 70
9
177
3
291
0
 70
58
 90
3
176
1
 90
2
176
1
 90
1
176
1
 90
0
176
1
 40
0.6
176
1
 40
30.0
176
1
 62
7
420
16777215
176
1
 90
2
176
1
 90
2
176
1
 62
7
176
1
 62
257
176
1
 90
1
176
1
 90
1
176
1
 40
40.0
176
1
 90
8
176
1
 62
7
176
1
 40
1.0
176
1
 90
1
176
1
 90
6
176
1
 90
2
176
1
 62
7
176
1
 90
3
176
1
 90
0
176
1
 90
0
176
1
290
0
176
1
 90
1
176
1
 40
0.0
176
1
 90
0
176
1
290
0
176
1
290
1
176
1
290
1
176
1
290
0
176
1
290
0
176
1
290
0
176
1
290
0
176
1
290
0
176
1
290
0
176
1
 90
50
176
1
 40
0.0
176
1
 40
1.0
176
1
 90
0
176
1
 62
18
420
0
176
1
 90
50
176
1
 90
3
176
1
 62
5
420
255
176
1
290
0
176
1
 90
50
176
1
 90
50
176
1
 90
50
176
1
290
0
176
1
 90
50
176
1
 62
256
176
0
 40
1.0
176
0
 90
2
176
1
  1
strokes_ogs.tif
176
1
290
0
176
1
 40
1.0
176
1
 40
1.0
176
1
  0
VISUALSTYLE
  5
A4
102
{ACAD_REACTORS
330
99
102
}
330
99
100
AcDbVisualStyle
  2
Dim
 70
11
177
3
291
1
 70
58
 90
2
176
1
 90
2
176
1
 90
1
176
1
 90
0
176
1
 40
0.6
176
1
 40
30.0
176
1
 62
7
420
16777215
176
1
 90
1
176
1
 90
4
176
1
 62
7
176
1
 62
257
176
1
 90
1
176
1
 90
1
176
1
 40
1.0
176
1
 90
8
176
1
 62
7
176
1
 40
1.0
176
1
 90
1
176
1
 90
6
176
1
 90
2
176
1
 62
7
176
1
 90
5
176
1
 90
0
176
1
 90
0
176
1
290
0
176
1
 90
1
176
1
 40
-50.0
176
1
 90
0
176
1
290
0
176
1
290
1
176
1
290
1
176
1
290
0
176
1
290
0
176
1
290
0
176
1
290
0
176
1
290
0
176
1
290
0
176
1
 90
50
176
1
 40
0.0
176
1
 40
1.0
176
1
 90
0
176
1
 62
18
420
0
176
1
 90
50
176
1
 90
3
176
1
 62
5
420
255
176
1
290
0
176
1
 90
50
176
1
 90
50
176
1
 90
50
176
1
290
0
176
1
 90
50
176
1
 62
256
176
0
 40
1.0
176
0
 90
2
176
1
  1
strokes_ogs.tif
176
1
290
0
176
1
 40
1.0
176
1
 40
1.0
176
1
  0
VISUALSTYLE
  5
3B8
102
{ACAD_REACTORS
330
99
102
}
330
99
100
AcDbVisualStyle
  2
EdgeColorOff
 70
22
177
3
291
1
 70
58
 90
2
176
0
 90
2
176
0
 90
0
176
0
 90
0
176
0
 40
0.6
176
0
 40
30.0
176
0
 62
7
420
16777215
176
0
 90
1
176
0
 90
4
176
0
 62
7
176
0
 62
257
176
0
 90
1
176
0
 90
1
176
0
 40
1.0
176
0
 90
8
176
2
 62
7
176
0
 40
1.0
176
0
 90
1
176
0
 90
6
176
0
 90
2
176
0
 62
7
176
0
 90
5
176
0
 90
0
176
0
 90
0
176
0
290
0
176
0
 90
1
176
0
 40
0.0
176
0
 90
0
176
0
290
0
176
1
290
1
176
1
290
1
176
1
290
0
176
1
290
0
176
1
290
0
176
1
290
0
176
1
290
0
176
1
290
0
176
1
 90
50
176
1
 40
0.0
176
1
 40
1.0
176
1
 90
0
176
1
 62
18
420
0
176
1
 90
50
176
1
 90
3
176
1
 62
5
420
255
176
1
290
0
176
1
 90
50
176
1
 90
50
176
1
 90
50
176
1
290
0
176
1
 90
50
176
1
 62
256
176
0
 40
1.0
176
0
 90
2
176
1
  1
strokes_ogs.tif
176
1
290
0
176
1
 40
1.0
176
1
 40
1.0
176
1
  0
VISUALSTYLE
  5
A8
102
{ACAD_REACTORS
330
99
102
}
330
99
100
AcDbVisualStyle
  2
Facepattern
 70
15
177
3
291
1
 70
58
 90
2
176
1
 90
2
176
1
 90
1
176
1
 90
0
176
1
 40
0.6
176
1
 40
30.0
176
1
 62
7
420
16777215
176
1
 90
1
176
1
 90
4
176
1
 62
7
176
1
 62
257
176
1
 90
1
176
1
 90
1
176
1
 40
1.0
176
1
 90
8
176
1
 62
7
176
1
 40
1.0
176
1
 90
1
176
1
 90
6
176
1
 90
2
176
1
 62
7
176
1
 90
5
176
1
 90
0
176
1
 90
0
176
1
290
0
176
1
 90
1
176
1
 40
0.0
176
1
 90
0
176
1
290
0
176
1
290
1
176
1
290
1
176
1
290
0
176
1
290
0
176
1
290
0
176
1
290
0
176
1
290
0
176
1
290
0
176
1
 90
50
176
1
 40
0.0
176
1
 40
1.0
176
1
 90
0
176
1
 62
18
420
0
176
1
 90
50
176
1
 90
3
176
1
 62
5
420
255
176
1
290
0
176
1
 90
50
176
1
 90
50
176
1
 90
50
176
1
290
0
176
1
 90
50
176
1
 62
256
176
0
 40
1.0
176
0
 90
2
176
1
  1
strokes_ogs.tif
176
1
290
0
176
1
 40
1.0
176
1
 40
1.0
176
1
  0
VISUALSTYLE
  5
9A
102
{ACAD_REACTORS
330
99
102
}
330
99
100
AcDbVisualStyle
  2
Flat
 70
0
177
3
291
1
 70
58
 90
2
176
1
 90
1
176
1
 90
1
176
1
 90
2
176
1
 40
0.6
176
1
 40
30.0
176
1
 62
7
420
16777215
176
1
 90
0
176
1
 90
4
176
1
 62
7
176
1
 62
257
176
1
 90
1
176
1
 90
1
176
1
 40
1.0
176
1
 90
8
176
1
 62
7
176
1
 40
1.0
176
1
 90
1
176
1
 90
6
176
1
 90
2
176
1
 62
7
176
1
 90
5
176
1
 90
0
176
1
 90
0
176
1
290
0
176
1
 90
1
176
1
 40
0.0
176
1
 90
0
176
1
290
0
176
1
290
1
176
1
290
1
176
1
290
0
176
1
290
0
176
1
290
0
176
1
290
0
176
1
290
0
176
1
290
0
176
1
 90
50
176
1
 40
0.0
176
1
 40
1.0
176
1
 90
0
176
1
 62
18
420
0
176
1
 90
50
176
1
 90
3
176
1
 62
5
420
255
176
1
290
0
176
1
 90
50
176
1
 90
50
176
1
 90
50
176
1
290
0
176
1
 90
50
176
1
 62
256
176
0
 40
1.0
176
0
 90
2
176
1
  1
strokes_ogs.tif
176
1
290
0
176
1
 40
1.0
176
1
 40
1.0
176
1
  0
VISUALSTYLE
  5
9B
102
{ACAD_REACTORS
330
99
102
}
330
99
100
AcDbVisualStyle
  2
FlatWithEdges
 70
1
177
3
291
1
 70
58
 90
2
176
1
 90
1
176
1
 90
1
176
1
 90
2
176
1
 40
0.6
176
1
 40
30.0
176
1
 62
7
420
16777215
176
1
 90
1
176
1
 90
4
176
1
 62
7
176
1
 62
257
176
1
 90
1
176
1
 90
1
176
1
 40
1.0
176
1
 90
0
176
1
 62
257
176
1
 40
1.0
176
1
 90
1
176
1
 90
6
176
1
 90
2
176
1
 62
7
176
1
 90
5
176
1
 90
0
176
1
 90
0
176
1
290
0
176
1
 90
1
176
1
 40
0.0
176
1
 90
0
176
1
290
0
176
1
290
1
176
1
290
1
176
1
290
0
176
1
290
0
176
1
290
0
176
1
290
0
176
1
290
0
176
1
290
0
176
1
 90
50
176
1
 40
0.0
176
1
 40
1.0
176
1
 90
0
176
1
 62
18
420
0
176
1
 90
50
176
1
 90
3
176
1
 62
5
420
255
176
1
290
0
176
1
 90
50
176
1
 90
50
176
1
 90
50
176
1
290
0
176
1
 90
50
176
1
 62
256
176
0
 40
1.0
176
0
 90
2
176
1
  1
strokes_ogs.tif
176
1
290
0
176
1
 40
1.0
176
1
 40
1.0
176
1
  0
VISUALSTYLE
  5
9C
102
{ACAD_REACTORS
330
99
102
}
330
99
100
AcDbVisualStyle
  2
Gouraud
 70
2
177
3
291
1
 70
58
 90
2
176
1
 90
2
176
1
 90
1
176
1
 90
2
176
1
 40
0.6
176
1
 40
30.0
176
1
 62
7
420
16777215
176
1
 90
0
176
1
 90
4
176
1
 62
7
176
1
 62
257
176
1
 90
1
176
1
 90
1
176
1
 40
1.0
176
1
 90
0
176
1
 62
7
176
1
 40
1.0
176
1
 90
1
176
1
 90
6
176
1
 90
2
176
1
 62
7
176
1
 90
5
176
1
 90
0
176
1
 90
0
176
1
290
0
176
1
 90
1
176
1
 40
0.0
176
1
 90
0
176
1
290
0
176
1
290
1
176
1
290
1
176
1
290
0
176
1
290
0
176
1
290
0
176
1
290
0
176
1
290
0
176
1
290
0
176
1
 90
50
176
1
 40
0.0
176
1
 40
1.0
176
1
 90
0
176
1
 62
18
420
0
176
1
 90
50
176
1
 90
3
176
1
 62
5
420
255
176
1
290
0
176
1
 90
50
176
1
 90
50
176
1
 90
50
176
1
290
0
176
1
 90
50
176
1
 62
256
176
0
 40
1.0
176
0
 90
2
176
1
  1
strokes_ogs.tif
176
1
290
0
176
1
 40
1.0
176
1
 40
1.0
176
1
  0
VISUALSTYLE
  5
9D
102
{ACAD_REACTORS
330
99
102
}
330
99
100
AcDbVisualStyle
  2
GouraudWithEdges
 70
3
177
3
291
1
 70
58
 90
2
176
1
 90
2
176
1
 90
1
176
1
 90
2
176
1
 40
0.6
176
1
 40
30.0
176
1
 62
7
420
16777215
176
1
 90
1
176
1
 90
4
176
1
 62
7
176
1
 62
257
176
1
 90
1
176
1
 90
1
176
1
 40
1.0
176
1
 90
0
176
1
 62
257
176
1
 40
1.0
176
1
 90
1
176
1
 90
6
176
1
 90
2
176
1
 62
7
176
1
 90
5
176
1
 90
0
176
1
 90
0
176
1
290
0
176
1
 90
1
176
1
 40
0.0
176
1
 90
0
176
1
290
0
176
1
290
1
176
1
290
1
176
1
290
0
176
1
290
0
176
1
290
0
176
1
290
0
176
1
290
0
176
1
290
0
176
1
 90
50
176
1
 40
0.0
176
1
 40
1.0
176
1
 90
0
176
1
 62
18
420
0
176
1
 90
50
176
1
 90
3
176
1
 62
5
420
255
176
1
290
0
176
1
 90
50
176
1
 90
50
176
1
 90
50
176
1
290
0
176
1
 90
50
176
1
 62
256
176
0
 40
1.0
176
0
 90
2
176
1
  1
strokes_ogs.tif
176
1
290
0
176
1
 40
1.0
176
1
 40
1.0
176
1
  0
VISUALSTYLE
  5
4A0
102
{ACAD_REACTORS
330
99
102
}
330
99
100
AcDbVisualStyle
  2
Hidden
 70
6
177
3
291
0
 70
58
 90
1
176
1
 90
2
176
1
 90
2
176
1
 90
0
176
1
 40
0.6
176
1
 40
30.0
176
1
 62
7
420
16777215
176
1
 90
2
176
1
 90
2
176
1
 62
7
176
1
 62
257
176
1
 90
2
176
1
 90
1
176
1
 40
40.0
176
1
 90
0
176
1
 62
257
176
1
 40
1.0
176
1
 90
1
176
1
 90
6
176
1
 90
2
176
1
 62
7
176
1
 90
3
176
1
 90
0
176
1
 90
0
176
1
290
0
176
1
 90
1
176
1
 40
0.0
176
1
 90
0
176
1
290
0
176
1
290
1
176
1
290
1
176
1
290
0
176
1
290
0
176
1
290
0
176
1
290
0
176
1
290
0
176
1
290
0
176
1
 90
50
176
1
 40
0.0
176
1
 40
1.0
176
1
 90
0
176
1
 62
18
420
0
176
1
 90
50
176
1
 90
3
176
1
 62
5
420
255
176
1
290
0
176
1
 90
50
176
1
 90
50
176
1
 90
50
176
1
290
0
176
1
 90
50
176
1
 62
256
176
0
 40
1.0
176
0
 90
2
176
1
  1
strokes_ogs.tif
176
1
290
0
176
1
 40
1.0
176
1
 40
1.0
176
1
  0
VISUALSTYLE
  5
3B6
102
{ACAD_REACTORS
330
99
102
}
330
99
100
AcDbVisualStyle
  2
JitterOff
 70
20
177
3
291
1
 70
58
 90
2
176
0
 90
2
176
0
 90
0
176
0
 90
0
176
0
 40
0.6
176
0
 40
30.0
176
0
 62
7
420
16777215
176
0
 90
1
176
0
 90
4
176
0
 62
7
176
0
 62
257
176
0
 90
1
176
0
 90
1
176
0
 40
1.0
176
0
 90
10
176
2
 62
7
176
0
 40
1.0
176
0
 90
1
176
0
 90
6
176
0
 90
2
176
0
 62
7
176
0
 90
5
176
0
 90
0
176
0
 90
0
176
0
290
0
176
0
 90
1
176
0
 40
0.0
176
0
 90
0
176
0
290
0
176
1
290
1
176
1
290
1
176
1
290
0
176
1
290
0
176
1
290
0
176
1
290
0
176
1
290
0
176
1
290
0
176
1
 90
50
176
1
 40
0.0
176
1
 40
1.0
176
1
 90
0
176
1
 62
18
420
0
176
1
 90
50
176
1
 90
3
176
1
 62
5
420
255
176
1
290
0
176
1
 90
50
176
1
 90
50
176
1
 90
50
176
1
290
0
176
1
 90
50
176
1
 62
256
176
0
 40
1.0
176
0
 90
2
176
1
  1
strokes_ogs.tif
176
1
290
0
176
1
 40
1.0
176
1
 40
1.0
176
1
  0
VISUALSTYLE
  5
A7
102
{ACAD_REACTORS
330
99
102
}
330
99
100
AcDbVisualStyle
  2
Linepattern
 70
14
177
3
291
1
 70
58
 90
2
176
1
 90
2
176
1
 90
1
176
1
 90
0
176
1
 40
0.6
176
1
 40
30.0
176
1
 62
7
420
16777215
176
1
 90
1
176
1
 90
4
176
1
 62
7
176
1
 62
257
176
1
 90
7
176
1
 90
7
176
1
 40
1.0
176
1
 90
8
176
1
 62
7
176
1
 40
1.0
176
1
 90
1
176
1
 90
6
176
1
 90
2
176
1
 62
7
176
1
 90
5
176
1
 90
0
176
1
 90
0
176
1
290
0
176
1
 90
1
176
1
 40
0.0
176
1
 90
0
176
1
290
0
176
1
290
1
176
1
290
1
176
1
290
0
176
1
290
0
176
1
290
0
176
1
290
0
176
1
290
0
176
1
290
0
176
1
 90
50
176
1
 40
0.0
176
1
 40
1.0
176
1
 90
0
176
1
 62
18
420
0
176
1
 90
50
176
1
 90
3
176
1
 62
5
420
255
176
1
290
0
176
1
 90
50
176
1
 90
50
176
1
 90
50
176
1
290
0
176
1
 90
50
176
1
 62
256
176
0
 40
1.0
176
0
 90
2
176
1
  1
strokes_ogs.tif
176
1
290
0
176
1
 40
1.0
176
1
 40
1.0
176
1
  0
VISUALSTYLE
  5
3B7
102
{ACAD_REACTORS
330
99
102
}
330
99
100
AcDbVisualStyle
  2
OverhangOff
 70
21
177
3
291
1
 70
58
 90
2
176
0
 90
2
176
0
 90
0
176
0
 90
0
176
0
 40
0.6
176
0
 40
30.0
176
0
 62
7
420
16777215
176
0
 90
1
176
0
 90
4
176
0
 62
7
176
0
 62
257
176
0
 90
1
176
0
 90
1
176
0
 40
1.0
176
0
 90
9
176
2
 62
7
176
0
 40
1.0
176
0
 90
1
176
0
 90
6
176
0
 90
2
176
0
 62
7
176
0
 90
5
176
0
 90
0
176
0
 90
0
176
0
290
0
176
0
 90
1
176
0
 40
0.0
176
0
 90
0
176
0
290
0
176
1
290
1
176
1
290
1
176
1
290
0
176
1
290
0
176
1
290
0
176
1
290
0
176
1
290
0
176
1
290
0
176
1
 90
50
176
1
 40
0.0
176
1
 40
1.0
176
1
 90
0
176
1
 62
18
420
0
176
1
 90
50
176
1
 90
3
176
1
 62
5
420
255
176
1
290
0
176
1
 90
50
176
1
 90
50
176
1
 90
50
176
1
290
0
176
1
 90
50
176
1
 62
256
176
0
 40
1.0
176
0
 90
2
176
1
  1
strokes_ogs.tif
176
1
290
0
176
1
 40
1.0
176
1
 40
1.0
176
1
  0
VISUALSTYLE
  5
A3
102
{ACAD_REACTORS
330
99
102
}
330
99
100
AcDbVisualStyle
  2
Realistic
 70
8
177
3
291
0
 70
58
 90
2
176
1
 90
2
176
1
 90
1
176
1
 90
0
176
1
 40
0.6
176
1
 40
30.0
176
1
 62
7
420
16777215
176
1
 90
1
176
1
 90
0
176
1
 62
7
176
1
 62
257
176
1
 90
1
176
1
 90
1
176
1
 40
1.0
176
1
 90
8
176
1
 62
8
420
7895160
176
1
 40
1.0
176
1
 90
1
176
1
 90
6
176
1
 90
2
176
1
 62
7
176
1
 90
5
176
1
 90
0
176
1
 90
0
176
1
290
0
176
1
 90
13
176
1
 40
0.0
176
1
 90
0
176
1
290
0
176
1
290
1
176
1
290
1
176
1
290
0
176
1
290
0
176
1
290
0
176
1
290
0
176
1
290
0
176
1
290
0
176
1
 90
50
176
1
 40
0.0
176
1
 40
1.0
176
1
 90
0
176
1
 62
18
420
0
176
1
 90
50
176
1
 90
3
176
1
 62
5
420
255
176
1
290
0
176
1
 90
50
176
1
 90
50
176
1
 90
50
176
1
290
0
176
1
 90
50
176
1
 62
256
176
0
 40
1.0
176
0
 90
2
176
1
  1
strokes_ogs.tif
176
1
290
0
176
1
 40
1.0
176
1
 40
1.0
176
1
  0
VISUALSTYLE
  5
4A5
102
{ACAD_REACTORS
330
99
102
}
330
99
100
AcDbVisualStyle
  2
Shaded
 70
27
177
3
291
0
 70
58
 90
2
176
1
 90
2
176
1
 90
1
176
1
 90
2
176
1
 40
0.6
176
1
 40
30.0
176
1
 62
7
420
16777215
176
1
 90
0
176
1
 90
4
176
1
 62
7
176
1
 62
257
176
1
 90
1
176
1
 90
1
176
1
 40
1.0
176
1
 90
8
176
1
 62
257
176
1
 40
1.0
176
1
 90
1
176
1
 90
6
176
1
 90
2
176
1
 62
8
420
7895160
176
1
 90
3
176
1
 90
0
176
1
 90
0
176
1
290
0
176
1
 90
5
176
1
 40
0.0
176
1
 90
0
176
1
290
0
176
1
290
1
176
1
290
1
176
1
290
0
176
1
290
0
176
1
290
0
176
1
290
0
176
1
290
0
176
1
290
0
176
1
 90
50
176
1
 40
0.0
176
1
 40
1.0
176
1
 90
0
176
1
 62
18
420
0
176
1
 90
50
176
1
 90
3
176
1
 62
5
420
255
176
1
290
0
176
1
 90
50
176
1
 90
50
176
1
 90
50
176
1
290
0
176
1
 90
50
176
1
 62
256
176
0
 40
1.0
176
0
 90
2
176
1
  1
strokes_ogs.tif
176
1
290
0
176
1
 40
1.0
176
1
 40
1.0
176
1
  0
VISUALSTYLE
  5
4A4
102
{ACAD_REACTORS
330
99
102
}
330
99
100
AcDbVisualStyle
  2
Shaded with edges
 70
26
177
3
291
0
 70
58
 90
2
176
1
 90
2
176
1
 90
1
176
1
 90
2
176
1
 40
0.6
176
1
 40
30.0
176
1
 62
7
420
16777215
176
1
 90
1
176
1
 90
10
176
1
 62
7
176
1
 62
257
176
1
 90
2
176
1
 90
1
176
1
 40
1.0
176
1
 90
8
176
1
 62
257
176
1
 40
1.0
176
1
 90
1
176
1
 90
6
176
1
 90
2
176
1
 62
7
176
1
 90
3
176
1
 90
0
176
1
 90
0
176
1
290
0
176
1
 90
5
176
1
 40
0.0
176
1
 90
0
176
1
290
0
176
1
290
1
176
1
290
1
176
1
290
0
176
1
290
0
176
1
290
0
176
1
290
0
176
1
290
0
176
1
290
0
176
1
 90
50
176
1
 40
0.0
176
1
 40
1.0
176
1
 90
0
176
1
 62
18
420
0
176
1
 90
50
176
1
 90
3
176
1
 62
5
420
255
176
1
290
0
176
1
 90
50
176
1
 90
50
176
1
 90
50
176
1
290
0
176
1
 90
50
176
1
 62
256
176
0
 40
1.0
176
0
 90
2
176
1
  1
strokes_ogs.tif
176
1
290
0
176
1
 40
1.0
176
1
 40
1.0
176
1
  0
VISUALSTYLE
  5
4A1
102
{ACAD_REACTORS
330
99
102
}
330
99
100
AcDbVisualStyle
  2
Shades of Gray
 70
23
177
3
291
0
 70
58
 90
2
176
1
 90
2
176
1
 90
3
176
1
 90
0
176
1
 40
0.6
176
1
 40
30.0
176
1
 62
7
420
16777215
176
1
 90
2
176
1
 90
2
176
1
 62
7
176
1
 62
7
176
1
 90
1
176
1
 90
1
176
1
 40
40.0
176
1
 90
8
176
1
 62
7
176
1
 40
1.0
176
1
 90
1
176
1
 90
6
176
1
 90
2
176
1
 62
7
176
1
 90
3
176
1
 90
0
176
1
 90
0
176
1
290
0
176
1
 90
1
176
1
 40
0.0
176
1
 90
0
176
1
290
0
176
1
290
1
176
1
290
1
176
1
290
0
176
1
290
0
176
1
290
0
176
1
290
0
176
1
290
0
176
1
290
0
176
1
 90
50
176
1
 40
0.0
176
1
 40
1.0
176
1
 90
0
176
1
 62
18
420
0
176
1
 90
50
176
1
 90
3
176
1
 62
5
420
255
176
1
290
0
176
1
 90
50
176
1
 90
50
176
1
 90
50
176
1
290
0
176
1
 90
50
176
1
 62
256
176
0
 40
1.0
176
0
 90
2
176
1
  1
strokes_ogs.tif
176
1
290
0
176
1
 40
1.0
176
1
 40
1.0
176
1
  0
VISUALSTYLE
  5
4A2
102
{ACAD_REACTORS
330
99
102
}
330
99
100
AcDbVisualStyle
  2
Sketchy
 70
24
177
3
291
0
 70
58
 90
1
176
1
 90
2
176
1
 90
2
176
1
 90
0
176
1
 40
0.6
176
1
 40
30.0
176
1
 62
7
420
16777215
176
1
 90
2
176
1
 90
2
176
1
 62
7
176
1
 62
7
176
1
 90
1
176
1
 90
1
176
1
 40
40.0
176
1
 90
11
176
1
 62
7
176
1
 40
1.0
176
1
 90
1
176
1
 90
6
176
1
 90
2
176
1
 62
7
176
1
 90
6
176
1
 90
0
176
1
 90
0
176
1
290
0
176
1
 90
1
176
1
 40
0.0
176
1
 90
0
176
1
290
0
176
1
290
1
176
1
290
1
176
1
290
0
176
1
290
0
176
1
290
0
176
1
290
0
176
1
290
0
176
1
290
0
176
1
 90
50
176
1
 40
0.0
176
1
 40
1.0
176
1
 90
0
176
1
 62
18
420
0
176
1
 90
50
176
1
 90
3
176
1
 62
5
420
255
176
1
290
0
176
1
 90
50
176
1
 90
50
176
1
 90
50
176
1
290
0
176
1
 90
50
176
1
 62
256
176
0
 40
1.0
176
0
 90
2
176
1
  1
strokes_ogs.tif
176
1
290
0
176
1
 40
1.0
176
1
 40
1.0
176
1
  0
VISUALSTYLE
  5
A6
102
{ACAD_REACTORS
330
99
102
}
330
99
100
AcDbVisualStyle
  2
Thicken
 70
13
177
3
291
1
 70
58
 90
2
176
1
 90
2
176
1
 90
1
176
1
 90
0
176
1
 40
0.6
176
1
 40
30.0
176
1
 62
7
420
16777215
176
1
 90
1
176
1
 90
4
176
1
 62
7
176
1
 62
257
176
1
 90
1
176
1
 90
1
176
1
 40
1.0
176
1
 90
12
176
1
 62
7
176
1
 40
1.0
176
1
 90
1
176
1
 90
6
176
1
 90
2
176
1
 62
7
176
1
 90
5
176
1
 90
0
176
1
 90
0
176
1
290
0
176
1
 90
1
176
1
 40
0.0
176
1
 90
0
176
1
290
0
176
1
290
1
176
1
290
1
176
1
290
0
176
1
290
0
176
1
290
0
176
1
290
0
176
1
290
0
176
1
290
0
176
1
 90
50
176
1
 40
0.0
176
1
 40
1.0
176
1
 90
0
176
1
 62
18
420
0
176
1
 90
50
176
1
 90
3
176
1
 62
5
420
255
176
1
290
0
176
1
 90
50
176
1
 90
50
176
1
 90
50
176
1
290
0
176
1
 90
50
176
1
 62
256
176
0
 40
1.0
176
0
 90
2
176
1
  1
strokes_ogs.tif
176
1
290
0
176
1
 40
1.0
176
1
 40
1.0
176
1
  0
VISUALSTYLE
  5
49F
102
{ACAD_REACTORS
330
99
102
}
330
99
100
AcDbVisualStyle
  2
Wireframe
 70
5
177
3
291
0
 70
58
 90
0
176
1
 90
2
176
1
 90
0
176
1
 90
0
176
1
 40
0.6
176
1
 40
30.0
176
1
 62
7
420
16777215
176
1
 90
1
176
1
 90
4
176
1
 62
7
176
1
 62
257
176
1
 90
1
176
1
 90
1
176
1
 40
1.0
176
1
 90
0
176
1
 62
257
176
1
 40
1.0
176
1
 90
1
176
1
 90
6
176
1
 90
2
176
1
 62
7
176
1
 90
3
176
1
 90
0
176
1
 90
0
176
1
290
0
176
1
 90
1
176
1
 40
0.0
176
1
 90
0
176
1
290
0
176
1
290
1
176
1
290
1
176
1
290
0
176
1
290
0
176
1
290
0
176
1
290
0
176
1
290
0
176
1
290
0
176
1
 90
50
176
1
 40
0.0
176
1
 40
1.0
176
1
 90
0
176
1
 62
18
420
0
176
1
 90
50
176
1
 90
3
176
1
 62
5
420
255
176
1
290
0
176
1
 90
50
176
1
 90
50
176
1
 90
50
176
1
290
0
176
1
 90
50
176
1
 62
256
176
0
 40
1.0
176
0
 90
2
176
1
  1
strokes_ogs.tif
176
1
290
0
176
1
 40
1.0
176
1
 40
1.0
176
1
  0
VISUALSTYLE
  5
4A3
102
{ACAD_REACTORS
330
99
102
}
330
99
100
AcDbVisualStyle
  2
X-Ray
 70
25
177
3
291
0
 70
58
 90
2
176
1
 90
2
176
1
 90
1
176
1
 90
1
176
1
 40
0.5
176
1
 40
30.0
176
1
 62
7
420
16777215
176
1
 90
1
176
1
 90
0
176
1
 62
7
176
1
 62
257
176
1
 90
1
176
1
 90
1
176
1
 40
1.0
176
1
 90
8
176
1
 62
7
176
1
 40
1.0
176
1
 90
1
176
1
 90
6
176
1
 90
2
176
1
 62
7
176
1
 90
3
176
1
 90
0
176
1
 90
0
176
1
290
0
176
1
 90
13
176
1
 40
0.0
176
1
 90
0
176
1
290
0
176
1
290
1
176
1
290
1
176
1
290
0
176
1
290
0
176
1
290
0
176
1
290
0
176
1
290
0
176
1
290
0
176
1
 90
50
176
1
 40
0.0
176
1
 40
1.0
176
1
 90
0
176
1
 62
18
420
0
176
1
 90
50
176
1
 90
3
176
1
 62
5
420
255
176
1
290
0
176
1
 90
50
176
1
 90
50
176
1
 90
50
176
1
290
0
176
1
 90
50
176
1
 62
256
176
0
 40
1.0
176
0
 90
2
176
1
  1
strokes_ogs.tif
176
1
290
0
176
1
 40
1.0
176
1
 40
1.0
176
1
  0
DICTIONARYVAR
  5
38E
102
{ACAD_REACTORS
330
66
102
}
330
66
100
DictionaryVariables
280
0
  1
0
  0
DICTIONARYVAR
  5
F0
102
{ACAD_REACTORS
330
66
102
}
330
66
100
DictionaryVariables
280
0
  1
1:1
  0
DICTIONARYVAR
  5
EF
102
{ACAD_REACTORS
330
66
102
}
330
66
100
DictionaryVariables
280
0
  1
Civil-Metric
  0
DICTIONARYVAR
  5
89
102
{ACAD_REACTORS
330
66
102
}
330
66
100
DictionaryVariables
280
0
  1
STANDARD
  0
DICTIONARYVAR
  5
4AE
102
{ACAD_REACTORS
330
66
102
}
330
66
100
DictionaryVariables
280
0
  1
Metric50
  0
DICTIONARYVAR
  5
4AF
102
{ACAD_REACTORS
330
66
102
}
330
66
100
DictionaryVariables
280
0
  1
Metric50
  0
DICTIONARYVAR
  5
67
102
{ACAD_REACTORS
330
66
102
}
330
66
100
DictionaryVariables
280
0
  1
2
  0
DICTIONARYVAR
  5
6B
102
{ACAD_REACTORS
330
66
102
}
330
66
100
DictionaryVariables
280
0
  1
1
  0
DICTIONARYVAR
  5
3D2
102
{ACAD_REACTORS
330
66
102
}
330
66
100
DictionaryVariables
280
0
  1
0
  0
DICTIONARYVAR
  5
14D
102
{ACAD_REACTORS
330
66
102
}
330
66
100
DictionaryVariables
280
0
  1
0
  0
DICTIONARYVAR
  5
14E
102
{ACAD_REACTORS
330
66
102
}
330
66
100
DictionaryVariables
280
0
  1
0
  0
DICTIONARYVAR
  5
38F
102
{ACAD_REACTORS
330
66
102
}
330
66
100
DictionaryVariables
280
0
  1
1
  0
DICTIONARYVAR
  5
3D0
102
{ACAD_REACTORS
330
66
102
}
330
66
100
DictionaryVariables
280
0
  1
1
  0
DICTIONARYVAR
  5
3D1
102
{ACAD_REACTORS
330
66
102
}
330
66
100
DictionaryVariables
280
0
  1
127
  0
DICTIONARYVAR
  5
3D3
102
{ACAD_REACTORS
330
66
102
}
330
66
100
DictionaryVariables
280
0
  1
0
  0
DICTIONARY
  5
2A7
330
59
100
AcDbDictionary
280
1
281
1
  0
DICTIONARY
  5
110
330
98
100
AcDbDictionary
280
1
281
1
  3
BUMPTILE
360
112
  3
DIFFUSETILE
360
111
  3
OPACITYTILE
360
113
  3
REFLECTIONTILE
360
114
  0
DICTIONARY
  5
104
330
87
100
AcDbDictionary
280
1
281
1
  3
ACAD_ROUNDTRIP_2008_TABLESTYLE_CELLSTYLEMAP
360
4B1
  0
XRECORD
  5
112
102
{ACAD_REACTORS
330
110
102
}
330
110
100
AcDbXrecord
280
1
270
1
271
1
  0
XRECORD
  5
111
102
{ACAD_REACTORS
330
110
102
}
330
110
100
AcDbXrecord
280
1
270
1
271
1
  0
XRECORD
  5
113
102
{ACAD_REACTORS
330
110
102
}
330
110
100
AcDbXrecord
280
1
270
1
271
1
  0
XRECORD
  5
114
102
{ACAD_REACTORS
330
110
102
}
330
110
100
AcDbXrecord
280
1
270
1
271
1
  0
CELLSTYLEMAP
  5
4B1
102
{ACAD_REACTORS
330
104
102
}
330
104
100
AcDbCellStyleMap
 90
3
300
CELLSTYLE
  1
TABLEFORMAT_BEGIN
 90
5
170
1
 91
0
 92
32768
 62
257
 93
1
300
CONTENTFORMAT
  1
CONTENTFORMAT_BEGIN
 90
0
 91
0
 92
512
 93
0
300

 40
0.0
140
1.0
 94
5
 62
0
340
11
144
0.25
309
CONTENTFORMAT_END
171
1
301
MARGIN
  1
CELLMARGIN_BEGIN
 40
0.06
 40
0.06
 40
0.06
 40
0.06
 40
0.18
 40
0.18
309
CELLMARGIN_END
 94
6
 95
1
302
GRIDFORMAT
  1
GRIDFORMAT_BEGIN
 90
0
 91
1
 62
0
 92
-2
340
0
 93
0
 40
0.045
309
GRIDFORMAT_END
 95
2
302
GRIDFORMAT
  1
GRIDFORMAT_BEGIN
 90
0
 91
1
 62
0
 92
-2
340
0
 93
0
 40
0.045
309
GRIDFORMAT_END
 95
4
302
GRIDFORMAT
  1
GRIDFORMAT_BEGIN
 90
0
 91
1
 62
0
 92
-2
340
0
 93
0
 40
0.045
309
GRIDFORMAT_END
 95
8
302
GRIDFORMAT
  1
GRIDFORMAT_BEGIN
 90
0
 91
1
 62
0
 92
-2
340
0
 93
0
 40
0.045
309
GRIDFORMAT_END
 95
16
302
GRIDFORMAT
  1
GRIDFORMAT_BEGIN
 90
0
 91
1
 62
0
 92
-2
340
0
 93
0
 40
0.045
309
GRIDFORMAT_END
 95
32
302
GRIDFORMAT
  1
GRIDFORMAT_BEGIN
 90
0
 91
1
 62
0
 92
-2
340
0
 93
0
 40
0.045
309
GRIDFORMAT_END
309
TABLEFORMAT_END
  1
CELLSTYLE_BEGIN
 90
1
 91
1
300
_TITLE
309
CELLSTYLE_END
300
CELLSTYLE
  1
TABLEFORMAT_BEGIN
 90
5
170
1
 91
0
 92
0
 62
257
 93
1
300
CONTENTFORMAT
  1
CONTENTFORMAT_BEGIN
 90
0
 91
0
 92
512
 93
0
300

 40
0.0
140
1.0
 94
5
 62
0
340
11
144
0.18
309
CONTENTFORMAT_END
171
1
301
MARGIN
  1
CELLMARGIN_BEGIN
 40
0.06
 40
0.06
 40
0.06
 40
0.06
 40
0.18
 40
0.18
309
CELLMARGIN_END
 94
6
 95
1
302
GRIDFORMAT
  1
GRIDFORMAT_BEGIN
 90
0
 91
1
 62
0
 92
-2
340
0
 93
0
 40
0.045
309
GRIDFORMAT_END
 95
2
302
GRIDFORMAT
  1
GRIDFORMAT_BEGIN
 90
0
 91
1
 62
0
 92
-2
340
0
 93
0
 40
0.045
309
GRIDFORMAT_END
 95
4
302
GRIDFORMAT
  1
GRIDFORMAT_BEGIN
 90
0
 91
1
 62
0
 92
-2
340
0
 93
0
 40
0.045
309
GRIDFORMAT_END
 95
8
302
GRIDFORMAT
  1
GRIDFORMAT_BEGIN
 90
0
 91
1
 62
0
 92
-2
340
0
 93
0
 40
0.045
309
GRIDFORMAT_END
 95
16
302
GRIDFORMAT
  1
GRIDFORMAT_BEGIN
 90
0
 91
1
 62
0
 92
-2
340
0
 93
0
 40
0.045
309
GRIDFORMAT_END
 95
32
302
GRIDFORMAT
  1
GRIDFORMAT_BEGIN
 90
0
 91
1
 62
0
 92
-2
340
0
 93
0
 40
0.045
309
GRIDFORMAT_END
309
TABLEFORMAT_END
  1
CELLSTYLE_BEGIN
 90
2
 91
1
300
_HEADER
309
CELLSTYLE_END
300
CELLSTYLE
  1
TABLEFORMAT_BEGIN
 90
5
170
1
 91
0
 92
0
 62
257
 93
1
300
CONTENTFORMAT
  1
CONTENTFORMAT_BEGIN
 90
0
 91
0
 92
512
 93
0
300

 40
0.0
140
1.0
 94
2
 62
0
340
11
144
0.18
309
CONTENTFORMAT_END
171
1
301
MARGIN
  1
CELLMARGIN_BEGIN
 40
0.06
 40
0.06
 40
0.06
 40
0.06
 40
0.18
 40
0.18
309
CELLMARGIN_END
 94
6
 95
1
302
GRIDFORMAT
  1
GRIDFORMAT_BEGIN
 90
0
 91
1
 62
0
 92
-2
340
0
 93
0
 40
0.045
309
GRIDFORMAT_END
 95
2
302
GRIDFORMAT
  1
GRIDFORMAT_BEGIN
 90
0
 91
1
 62
0
 92
-2
340
0
 93
0
 40
0.045
309
GRIDFORMAT_END
 95
4
302
GRIDFORMAT
  1
GRIDFORMAT_BEGIN
 90
0
 91
1
 62
0
 92
-2
340
0
 93
0
 40
0.045
309
GRIDFORMAT_END
 95
8
302
GRIDFORMAT
  1
GRIDFORMAT_BEGIN
 90
0
 91
1
 62
0
 92
-2
340
0
 93
0
 40
0.045
309
GRIDFORMAT_END
 95
16
302
GRIDFORMAT
  1
GRIDFORMAT_BEGIN
 90
0
 91
1
 62
0
 92
-2
340
0
 93
0
 40
0.045
309
GRIDFORMAT_END
 95
32
302
GRIDFORMAT
  1
GRIDFORMAT_BEGIN
 90
0
 91
1
 62
0
 92
-2
340
0
 93
0
 40
0.045
309
GRIDFORMAT_END
309
TABLEFORMAT_END
  1
CELLSTYLE_BEGIN
 90
3
 91
2
300
_DATA
309
CELLSTYLE_END
  0
ENDSEC
  0
SECTION
  2
ACDSDATA
 70
2
 71
2
  0
ACDSSCHEMA
 90
0
  1
AcDb_Thumbnail_Schema
  2
AcDbDs::ID
280
10
 91
8
  2
Thumbnail_Data
280
15
 91
0
101
ACDSRECORD
 95
0
 90
1
  2
AcDbDs::TreatedAsObjectData
280
1
291
1
101
ACDSRECORD
 95
0
 90
2
  2
AcDbDs::Legacy
280
1
291
1
101
ACDSRECORD
  1
AcDbDs::ID
 90
3
  2
AcDs:Indexable
280
1
291
1
101
ACDSRECORD
  1
AcDbDs::ID
 90
4
  2
AcDbDs::HandleAttribute
280
7
282
1
  0
ACDSSCHEMA
 90
1
  1
AcDbDs::TreatedAsObjectDataSchema
  2
AcDbDs::TreatedAsObjectData
280
1
 91
0
  0
ACDSSCHEMA
 90
2
  1
AcDbDs::LegacySchema
  2
AcDbDs::Legacy
280
1
 91
0
  0
ACDSSCHEMA
 90
3
  1
AcDbDs::IndexedPropertySchema
  2
AcDs:Indexable
280
1
 91
0
  0
ACDSSCHEMA
 90
4
  1
AcDbDs::HandleAttributeSchema
  2
AcDbDs::HandleAttribute
280
7
 91
1
284
1
  0
ACDSRECORD
 90
0
  2
AcDbDs::ID
280
10
320
59
  2
Thumbnail_Data
280
15
 94
1174
310
89504E470D0A1A0A0000000D4948445200000100000000C608030000000A6AAE4900000300504C5445FFFFFF000000FFFFFF0000000000000000000000000000000000000000000000000000330000660000990000CC0000FF0033000033330033660033990033CC0033FF0066000066330066660066990066CC0066FF0099
310
000099330099660099990099CC0099FF00CC0000CC3300CC6600CC9900CCCC00CCFF00FF0000FF3300FF6600FF9900FFCC00FFFF3300003300333300663300993300CC3300FF3333003333333333663333993333CC3333FF3366003366333366663366993366CC3366FF3399003399333399663399993399CC3399FF33CC00
310
33CC3333CC6633CC9933CCCC33CCFF33FF0033FF3333FF6633FF9933FFCC33FFFF6600006600336600666600996600CC6600FF6633006633336633666633996633CC6633FF6666006666336666666666996666CC6666FF6699006699336699666699996699CC6699FF66CC0066CC3366CC6666CC9966CCCC66CCFF66FF0066
310
FF3366FF6666FF9966FFCC66FFFF9900009900339900669900999900CC9900FF9933009933339933669933999933CC9933FF9966009966339966669966999966CC9966FF9999009999339999669999999999CC9999FF99CC0099CC3399CC6699CC9999CCCC99CCFF99FF0099FF3399FF6699FF9999FFCC99FFFFCC0000CC00
310
33CC0066CC0099CC00CCCC00FFCC3300CC3333CC3366CC3399CC33CCCC33FFCC6600CC6633CC6666CC6699CC66CCCC66FFCC9900CC9933CC9966CC9999CC99CCCC99FFCCCC00CCCC33CCCC66CCCC99CCCCCCCCCCFFCCFF00CCFF33CCFF66CCFF99CCFFCCCCFFFFFF0000FF0033FF0066FF0099FF00CCFF00FFFF3300FF3333
310
FF3366FF3399FF33CCFF33FFFF6600FF6633FF6666FF6699FF66CCFF66FFFF9900FF9933FF9966FF9999FF99CCFF99FFFFCC00FFCC33FFCC66FFCC99FFCCCCFFCCFFFFFF00FFFF33FFFF66FFFF99FFFFCCFFFFFF0000000D0D0D1A1A1A2828283535354343435050505D5D5D6B6B6B787878868686939393A1A1A1AEAEAEBB
310
BBBBC9C9C9D6D6D6E4E4E4F1F1F1FFFFFF000000000000000000000000000000000000000000000000000000000000790CAC0F000001514944415478DAEDD93112C330080440FDFF99FA802AFA14E9ACF184248D054B890615ABE68CC7EC5D6BCCE85C00DA034C00736BBD6B6BFC7CF0A89B1200B55F1C0000000000000020
310
090200000000000000000010853F0014F8F7F12740AD4707000000000000000000000000000000321BA162000100000000000000002009020000000000000000000000000000000000A4C6CF070800000000000000000000A23000000000000000000000000000000000004066FC7C80000000000000000000900401000000
310
000000000000000000000000000052E3E70304000000000000000000005118000000000000000000000000000000000020337E3E40000000000000000000488200000000000000000000000000000000807B80F3EB4B805E05000000000000000000A052F84F7F180000000000000000B6D6659174BB61CA1E3CEA26491000
310
00001780E635D65AAD015EA42CCBB24CA76DCA0000000049454E44AE426082
  0
ENDSEC
  0
EOF
